<?xml version="1.0" encoding="utf-8" standalone="no"?>
<!DOCTYPE svg PUBLIC "-//W3C//DTD SVG 1.1//EN"
  "http://www.w3.org/Graphics/SVG/1.1/DTD/svg11.dtd">
<svg xmlns:xlink="http://www.w3.org/1999/xlink" width="496.8pt" height="277.416pt" viewBox="0 0 496.8 277.416" xmlns="http://www.w3.org/2000/svg" version="1.1">
 <metadata>
  <rdf:RDF xmlns:dc="http://purl.org/dc/elements/1.1/" xmlns:cc="http://creativecommons.org/ns#" xmlns:rdf="http://www.w3.org/1999/02/22-rdf-syntax-ns#">
   <cc:Work>
    <dc:type rdf:resource="http://purl.org/dc/dcmitype/StillImage"/>
    <dc:date>2026-06-05T10:59:47.126461</dc:date>
    <dc:format>image/svg+xml</dc:format>
    <dc:creator>
     <cc:Agent>
      <dc:title>Matplotlib v3.10.6, https://matplotlib.org/</dc:title>
     </cc:Agent>
    </dc:creator>
   </cc:Work>
  </rdf:RDF>
 </metadata>
 <defs>
  <style type="text/css">*{stroke-linejoin: round; stroke-linecap: butt}</style>
 </defs>
 <g id="figure_1">
  <g id="patch_1">
   <path d="M 0 277.416 
L 496.8 277.416 
L 496.8 0 
L 0 0 
z
" style="fill: #ffffff"/>
  </g>
  <g id="axes_1">
   <g id="patch_2">
    <path d="M 15.156 264.12252 
L 481.644 264.12252 
Q 482.62608 264.12252 482.62608 263.217 
L 482.62608 14.199 
Q 482.62608 13.29348 481.644 13.29348 
L 15.156 13.29348 
Q 14.17392 13.29348 14.17392 14.199 
L 14.17392 263.217 
Q 14.17392 264.12252 15.156 264.12252 
L 15.156 264.12252 
z
" clip-path="url(#p6c01239fd2)" style="fill: none; stroke-dasharray: 7,5.6; stroke-dashoffset: 0; stroke: #cbd5e1; stroke-width: 1.4; stroke-linejoin: miter"/>
   </g>
   <g id="patch_3">
    <path d="M 202.24224 74.41608 
L 294.55776 74.41608 
Q 298.97712 74.41608 298.97712 70.34124 
L 298.97712 48.60876 
Q 298.97712 44.53392 294.55776 44.53392 
L 202.24224 44.53392 
Q 197.82288 44.53392 197.82288 48.60876 
L 197.82288 70.34124 
Q 197.82288 74.41608 202.24224 74.41608 
z
" clip-path="url(#p6c01239fd2)" style="fill: #e0f2fe; stroke: #0ea5e9; stroke-width: 1.35; stroke-linejoin: miter"/>
   </g>
   <g id="patch_4">
    <path d="M 202.24224 110.63688 
L 294.55776 110.63688 
Q 298.97712 110.63688 298.97712 106.56204 
L 298.97712 82.56576 
Q 298.97712 78.49092 294.55776 78.49092 
L 202.24224 78.49092 
Q 197.82288 78.49092 197.82288 82.56576 
L 197.82288 106.56204 
Q 197.82288 110.63688 202.24224 110.63688 
z
" clip-path="url(#p6c01239fd2)" style="fill: #dbeafe; stroke: #3b82f6; stroke-width: 1.35; stroke-linejoin: miter"/>
   </g>
   <g id="patch_5">
    <path d="M 202.24224 151.38528 
L 294.55776 151.38528 
Q 298.97712 151.38528 298.97712 147.31044 
L 298.97712 123.31416 
Q 298.97712 119.23932 294.55776 119.23932 
L 202.24224 119.23932 
Q 197.82288 119.23932 197.82288 123.31416 
L 197.82288 147.31044 
Q 197.82288 151.38528 202.24224 151.38528 
z
" clip-path="url(#p6c01239fd2)" style="fill: #fef3c7; stroke: #f59e0b; stroke-width: 1.35; stroke-linejoin: miter"/>
   </g>
   <g id="patch_6">
    <path d="M 108.94464 198.92508 
L 208.62576 198.92508 
Q 213.04512 198.92508 213.04512 194.85024 
L 213.04512 168.59016 
Q 213.04512 164.51532 208.62576 164.51532 
L 108.94464 164.51532 
Q 104.52528 164.51532 104.52528 168.59016 
L 104.52528 194.85024 
Q 104.52528 198.92508 108.94464 198.92508 
z
" clip-path="url(#p6c01239fd2)" style="fill: #dcfce7; stroke: #22c55e; stroke-width: 1.35; stroke-linejoin: miter"/>
   </g>
   <g id="patch_7">
    <path d="M 288.17424 198.92508 
L 387.85536 198.92508 
Q 392.27472 198.92508 392.27472 194.85024 
L 392.27472 168.59016 
Q 392.27472 164.51532 387.85536 164.51532 
L 288.17424 164.51532 
Q 283.75488 164.51532 283.75488 168.59016 
L 283.75488 194.85024 
Q 283.75488 198.92508 288.17424 198.92508 
z
" clip-path="url(#p6c01239fd2)" style="fill: #fee2e2; stroke: #ef4444; stroke-width: 1.35; stroke-linejoin: miter"/>
   </g>
   <g id="patch_8">
    <path d="M 180.14544 250.99248 
L 316.65456 250.99248 
Q 321.07392 250.99248 321.07392 246.91764 
L 321.07392 222.92136 
Q 321.07392 218.84652 316.65456 218.84652 
L 180.14544 218.84652 
Q 175.72608 218.84652 175.72608 222.92136 
L 175.72608 246.91764 
Q 175.72608 250.99248 180.14544 250.99248 
z
" clip-path="url(#p6c01239fd2)" style="fill: #f3e8ff; stroke: #a855f7; stroke-width: 1.35; stroke-linejoin: miter"/>
   </g>
   <g id="patch_9">
    <path d="M 349.55424 250.99248 
L 446.78016 250.99248 
Q 451.19952 250.99248 451.19952 246.91764 
L 451.19952 222.92136 
Q 451.19952 218.84652 446.78016 218.84652 
L 349.55424 218.84652 
Q 345.13488 218.84652 345.13488 222.92136 
L 345.13488 246.91764 
Q 345.13488 250.99248 349.55424 250.99248 
z
" clip-path="url(#p6c01239fd2)" style="fill: #ecfeff; stroke: #06b6d4; stroke-width: 1.35; stroke-linejoin: miter"/>
   </g>
   <g id="patch_10">
    <path d="M 248.4 77.060349 
Q 248.4 78.454774 248.4 78.339854 
" clip-path="url(#p6c01239fd2)" style="fill: none; stroke: #4e5d6c; stroke-width: 1.35; stroke-linecap: round"/>
    <path d="M 251.2 72.739854 
L 248.4 78.339854 
L 245.6 72.739854 
z
" clip-path="url(#p6c01239fd2)" style="fill: #4e5d6c; stroke: #4e5d6c; stroke-width: 1.35; stroke-linecap: round"/>
   </g>
   <g id="patch_11">
    <path d="M 248.4 113.27728 
Q 248.4 114.937577 248.4 115.088528 
" clip-path="url(#p6c01239fd2)" style="fill: none; stroke: #4e5d6c; stroke-width: 1.35; stroke-linecap: round"/>
    <path d="M 251.2 109.488528 
L 248.4 115.088528 
L 245.6 109.488528 
z
" clip-path="url(#p6c01239fd2)" style="fill: #4e5d6c; stroke: #4e5d6c; stroke-width: 1.35; stroke-linecap: round"/>
   </g>
   <g id="patch_12">
    <path d="M 244.459002 150.725802 
Q 203.714498 157.950453 164.456158 164.911583 
" clip-path="url(#p6c01239fd2)" style="fill: none; stroke: #4e5d6c; stroke-width: 1.35; stroke-linecap: round"/>
    <path d="M 170.459005 166.690859 
L 164.456158 164.911583 
L 169.481287 161.176871 
z
" clip-path="url(#p6c01239fd2)" style="fill: #4e5d6c; stroke: #4e5d6c; stroke-width: 1.35; stroke-linecap: round"/>
   </g>
   <g id="patch_13">
    <path d="M 252.340998 150.725802 
Q 293.085502 157.950453 332.343842 164.911583 
" clip-path="url(#p6c01239fd2)" style="fill: none; stroke: #4e5d6c; stroke-width: 1.35; stroke-linecap: round"/>
    <path d="M 327.318713 161.176871 
L 332.343842 164.911583 
L 326.340995 166.690859 
z
" clip-path="url(#p6c01239fd2)" style="fill: #4e5d6c; stroke: #4e5d6c; stroke-width: 1.35; stroke-linecap: round"/>
   </g>
   <g id="patch_14">
    <path d="M 162.906262 198.548508 
Q 203.713293 208.885276 243.057191 218.851421 
" clip-path="url(#p6c01239fd2)" style="fill: none; stroke: #4e5d6c; stroke-width: 1.35; stroke-linecap: round"/>
    <path d="M 238.316193 214.762051 
L 243.057191 218.851421 
L 236.941096 220.190597 
z
" clip-path="url(#p6c01239fd2)" style="fill: #4e5d6c; stroke: #4e5d6c; stroke-width: 1.35; stroke-linecap: round"/>
   </g>
   <g id="patch_15">
    <path d="M 333.893738 198.548508 
Q 293.086707 208.885276 253.742809 218.851421 
" clip-path="url(#p6c01239fd2)" style="fill: none; stroke: #4e5d6c; stroke-width: 1.35; stroke-linecap: round"/>
    <path d="M 259.858904 220.190597 
L 253.742809 218.851421 
L 258.483807 214.762051 
z
" clip-path="url(#p6c01239fd2)" style="fill: #4e5d6c; stroke: #4e5d6c; stroke-width: 1.35; stroke-linecap: round"/>
   </g>
   <g id="patch_16">
    <path d="M 323.599791 234.69312 
Q 333.102754 234.69312 341.096372 234.69312 
" clip-path="url(#p6c01239fd2)" style="fill: none; stroke: #4e5d6c; stroke-width: 1.35; stroke-linecap: round"/>
    <path d="M 335.496372 231.89312 
L 341.096372 234.69312 
L 335.496372 237.49312 
z
" clip-path="url(#p6c01239fd2)" style="fill: #4e5d6c; stroke: #4e5d6c; stroke-width: 1.35; stroke-linecap: round"/>
   </g>
   <g id="text_1">
    <!-- 候选部署方案的目标函数计算链路 -->
    <g style="fill: #111827" transform="translate(120.9 33.62555) scale(0.17 -0.17)">
     <defs>
      <path id="SimHei-5019" d="M 2725 2150 
Q 3225 2900 3350 3400 
Q 3700 3275 3850 3225 
Q 3775 3150 3625 2825 
L 4875 2825 
Q 5275 2825 5600 2850 
L 5600 2400 
Q 5250 2425 4875 2425 
L 4550 2425 
Q 4525 2200 4475 1650 
L 5175 1650 
Q 5625 1650 5975 1675 
L 5975 1225 
Q 5650 1250 5175 1250 
L 4550 1250 
Q 5200 175 6150 -50 
Q 5950 -200 5800 -550 
Q 4750 -75 4275 900 
Q 3900 0 2625 -625 
Q 2475 -375 2200 -200 
Q 3600 250 3950 1250 
L 3600 1250 
Q 3200 1250 2625 1225 
L 2625 1675 
Q 3200 1650 3600 1650 
L 4025 1650 
Q 4075 2175 4100 2425 
L 3425 2425 
Q 3275 2175 3150 1950 
Q 2950 2050 2725 2150 
z
M 1875 5025 
Q 1725 4800 1450 3925 
L 1450 675 
Q 1450 -150 1500 -550 
L 975 -550 
Q 1000 -100 1000 700 
L 1000 3025 
Q 850 2675 550 2200 
Q 375 2425 200 2550 
Q 450 2875 787 3587 
Q 1125 4300 1300 5250 
Q 1475 5150 1875 5025 
z
M 3775 4575 
Q 3350 4575 2950 4550 
L 2950 5025 
Q 3325 4975 3775 4975 
L 5250 4975 
Q 5075 4325 4975 3875 
L 5300 3875 
Q 5750 3875 6075 3900 
L 6075 3425 
Q 5750 3475 5300 3475 
L 3475 3475 
Q 2925 3475 2600 3425 
L 2600 3900 
Q 2900 3875 3475 3875 
L 4475 3875 
Q 4550 4175 4600 4575 
L 3775 4575 
z
M 2400 4125 
Q 2375 3850 2375 3550 
L 2375 1325 
Q 2375 1000 2400 725 
L 1900 725 
Q 1925 1000 1925 1325 
L 1925 3475 
Q 1925 3825 1900 4125 
L 2400 4125 
z
" transform="scale(0.015625)"/>
      <path id="SimHei-9009" d="M 3200 4850 
Q 3025 4575 2900 4225 
L 3725 4225 
Q 3725 4725 3700 5175 
L 4275 5175 
Q 4225 4825 4225 4225 
Q 5100 4250 5475 4250 
L 5475 3825 
Q 5050 3850 4225 3850 
L 4225 2975 
L 5075 2975 
Q 5450 2975 5825 3000 
L 5825 2550 
Q 5450 2575 4675 2575 
L 4675 1200 
Q 4675 950 4950 950 
L 5250 950 
Q 5425 1050 5450 1525 
Q 5700 1375 5975 1325 
Q 5825 475 5450 475 
L 4775 475 
Q 4200 475 4200 1000 
L 4200 2575 
L 3700 2575 
Q 3700 1825 3425 1300 
Q 3150 775 2675 325 
Q 2500 500 2175 600 
Q 2800 1050 3012 1487 
Q 3225 1925 3225 2575 
Q 2475 2575 2100 2550 
L 2100 3025 
Q 2500 2975 2800 2975 
L 3725 2975 
L 3725 3850 
L 2775 3850 
Q 2650 3550 2575 3275 
Q 2300 3375 2075 3450 
Q 2450 4100 2625 5000 
Q 2875 4925 3200 4850 
z
M 1675 2875 
Q 1650 2350 1650 1925 
L 1650 575 
Q 2300 50 3725 0 
Q 5150 -50 6125 125 
Q 6000 0 5875 -450 
Q 4325 -475 3637 -425 
Q 2950 -375 2475 -237 
Q 2000 -100 1725 75 
Q 1450 250 1250 37 
Q 1050 -175 800 -500 
Q 625 -300 350 -175 
Q 625 125 1175 525 
L 1175 2475 
Q 800 2475 375 2450 
L 375 2900 
Q 850 2875 1675 2875 
z
M 1300 4850 
Q 1625 4100 1750 3725 
Q 1525 3650 1300 3550 
Q 1200 3850 800 4675 
Q 1025 4750 1300 4850 
z
" transform="scale(0.015625)"/>
      <path id="SimHei-90e8" d="M 5300 2650 
Q 5750 2200 5962 1812 
Q 6175 1425 6150 1025 
Q 6125 625 5812 412 
Q 5500 200 4875 125 
Q 4825 400 4650 725 
Q 5250 725 5437 862 
Q 5625 1000 5612 1225 
Q 5600 1450 5350 1850 
Q 5100 2250 4775 2575 
Q 4975 3025 5300 4300 
L 4400 4300 
L 4400 -625 
L 3900 -625 
Q 3925 -100 3925 575 
L 3925 3625 
Q 3925 4175 3875 4725 
L 5975 4725 
Q 5575 3425 5300 2650 
z
M 3225 1775 
Q 3200 1200 3200 625 
Q 3200 50 3225 -575 
L 2725 -575 
L 2725 -75 
L 1375 -75 
L 1375 -575 
L 875 -575 
Q 900 -50 900 525 
Q 900 1125 875 1775 
L 3225 1775 
z
M 1925 5275 
Q 2325 4775 2450 4550 
Q 2300 4475 2175 4400 
Q 3225 4400 3500 4425 
L 3500 3950 
Q 3325 3950 2825 3975 
L 3250 3775 
Q 3075 3500 2750 2800 
Q 3350 2800 3675 2825 
L 3675 2350 
Q 3350 2375 3025 2375 
L 1150 2375 
Q 700 2375 400 2350 
L 400 2825 
Q 575 2800 1350 2800 
Q 1175 3225 900 3675 
Q 1100 3775 1325 3900 
Q 1575 3550 1850 3025 
Q 1600 2900 1475 2800 
L 2275 2800 
Q 2600 3575 2675 3975 
L 2075 3975 
Q 925 3975 575 3950 
L 575 4425 
Q 875 4400 1925 4400 
Q 1725 4800 1525 5025 
Q 1750 5150 1925 5275 
z
M 2725 325 
L 2725 1375 
L 1375 1375 
L 1375 325 
L 2725 325 
z
" transform="scale(0.015625)"/>
      <path id="SimHei-7f72" d="M 3325 3600 
Q 3300 3350 3300 3175 
Q 3875 3175 4350 3225 
L 4350 2775 
Q 4925 3225 5100 3500 
Q 5275 3250 5600 3125 
Q 5325 2950 5000 2737 
Q 4675 2525 4400 2325 
L 5200 2325 
Q 5600 2325 6000 2350 
L 6000 1925 
Q 5600 1950 5200 1950 
L 3775 1950 
Q 3600 1850 3150 1600 
L 5175 1600 
Q 5150 1150 5150 500 
Q 5150 -125 5175 -550 
L 4700 -550 
L 4700 -350 
L 1975 -350 
L 1975 -625 
L 1475 -625 
Q 1500 -150 1500 800 
Q 1025 625 575 475 
Q 500 700 325 900 
Q 700 975 1500 1275 
L 1500 1600 
L 2200 1600 
Q 2700 1800 2975 1950 
L 1175 1950 
Q 775 1950 425 1925 
L 425 2350 
Q 775 2325 1200 2325 
L 2825 2325 
L 2825 2775 
L 1825 2775 
Q 1425 2775 1075 2750 
L 1075 3225 
Q 1425 3175 1825 3175 
L 2825 3175 
L 2825 3600 
L 3325 3600 
z
M 5375 5025 
Q 5350 4675 5350 4325 
Q 5350 4000 5375 3700 
L 1025 3700 
Q 1050 4075 1050 4375 
Q 1050 4675 1025 5025 
L 5375 5025 
z
M 1975 775 
L 4700 775 
L 4700 1200 
L 2375 1200 
Q 2100 1075 1975 1000 
L 1975 775 
z
M 4700 50 
L 4700 425 
L 1975 425 
L 1975 50 
L 4700 50 
z
M 2350 4050 
L 2350 4650 
L 1500 4650 
L 1500 4050 
L 2350 4050 
z
M 3625 4050 
L 3625 4650 
L 2800 4650 
L 2800 4050 
L 3625 4050 
z
M 4900 4050 
L 4900 4650 
L 4075 4650 
L 4075 4050 
L 4900 4050 
z
M 3625 2325 
Q 3775 2425 4325 2775 
L 3300 2775 
L 3300 2325 
L 3625 2325 
z
" transform="scale(0.015625)"/>
      <path id="SimHei-65b9" d="M 425 3975 
Q 825 3950 1300 3950 
L 5025 3950 
Q 5625 3950 6000 3975 
L 6000 3475 
Q 5675 3500 5100 3500 
L 2525 3500 
Q 2525 3225 2500 2500 
L 5300 2500 
Q 5250 2175 5200 1550 
L 5050 175 
Q 5000 -275 4625 -412 
Q 4250 -550 3525 -625 
Q 3500 -300 3325 -50 
Q 3900 -75 4200 0 
Q 4500 75 4575 425 
L 4725 2050 
L 2475 2050 
Q 2375 1350 2162 875 
Q 1950 400 1575 0 
Q 1200 -400 825 -700 
Q 725 -550 375 -350 
Q 700 -175 1062 200 
Q 1425 575 1662 1050 
Q 1900 1525 1962 2100 
Q 2025 2675 2025 3500 
L 1325 3500 
Q 775 3500 425 3475 
L 425 3975 
z
M 3075 4075 
Q 2850 4575 2575 5000 
Q 2800 5125 3025 5275 
Q 3300 4850 3575 4350 
Q 3325 4250 3075 4075 
z
" transform="scale(0.015625)"/>
      <path id="SimHei-6848" d="M 3075 3950 
Q 3025 3975 2700 3600 
L 4925 3600 
Q 5250 3600 5675 3625 
L 5675 3225 
Q 5200 3250 4700 3250 
Q 4400 2850 4000 2525 
Q 4750 2325 5675 2050 
Q 5600 1900 5500 1600 
Q 4650 1950 3650 2250 
Q 3150 1975 2487 1837 
Q 1825 1700 1050 1675 
Q 1025 1875 825 2125 
Q 1450 2075 2025 2137 
Q 2600 2200 3050 2375 
Q 2425 2500 1400 2675 
Q 1775 3050 1925 3250 
L 1450 3250 
Q 1250 3250 725 3225 
L 725 3625 
Q 1175 3600 1450 3600 
L 2200 3600 
Q 2475 3925 2650 4250 
L 3075 3950 
z
M 3000 1400 
Q 3000 1550 2975 1775 
L 3450 1775 
Q 3425 1575 3425 1400 
L 4925 1400 
Q 5375 1400 5825 1425 
L 5825 1025 
Q 5375 1050 4925 1050 
L 3850 1050 
Q 4275 625 4862 350 
Q 5450 75 6125 -50 
Q 5950 -175 5800 -500 
Q 4950 -250 4350 150 
Q 3750 550 3425 1000 
L 3425 150 
Q 3425 -150 3450 -625 
L 2975 -625 
Q 3000 -150 3000 200 
L 3000 925 
Q 2625 525 2100 175 
Q 1575 -175 650 -550 
Q 500 -300 325 -125 
Q 975 0 1550 300 
Q 2125 600 2550 1050 
L 1425 1050 
Q 1125 1050 650 1025 
L 650 1425 
Q 1125 1400 1425 1400 
L 3000 1400 
z
M 3125 5275 
Q 3400 4850 3500 4600 
L 5600 4600 
Q 5575 4450 5575 4250 
Q 5575 4075 5600 3850 
L 5125 3850 
L 5125 4275 
L 1300 4275 
L 1300 3825 
L 825 3825 
Q 850 4025 850 4225 
Q 850 4450 825 4600 
L 3000 4600 
Q 2850 4875 2700 5050 
Q 3025 5175 3125 5275 
z
M 2100 2875 
Q 2875 2750 3525 2650 
Q 3850 2825 4175 3250 
L 2425 3250 
Q 2275 3075 2100 2875 
z
" transform="scale(0.015625)"/>
      <path id="SimHei-7684" d="M 2100 4975 
Q 1975 4750 1750 3950 
L 2875 3950 
Q 2850 3525 2850 2875 
L 2850 675 
Q 2850 300 2875 -400 
L 2375 -400 
L 2375 100 
L 1100 100 
L 1100 -450 
L 600 -450 
Q 625 350 625 550 
L 625 2850 
Q 625 3525 600 3950 
L 1325 3950 
Q 1450 4525 1525 5150 
Q 1875 5025 2100 4975 
z
M 5825 3075 
Q 5800 1550 5700 175 
Q 5650 -275 5225 -425 
Q 4800 -575 4275 -625 
Q 4250 -350 4050 -50 
Q 4550 -75 4837 -25 
Q 5125 25 5200 200 
Q 5275 375 5312 1225 
Q 5350 2075 5375 3600 
L 3925 3600 
Q 3725 3125 3350 2475 
Q 3175 2650 2925 2750 
Q 3150 3050 3350 3475 
Q 3550 3900 3700 4400 
Q 3850 4900 3875 5175 
Q 4225 5025 4475 4950 
Q 4350 4750 4262 4512 
Q 4175 4275 4075 4050 
L 5850 4050 
Q 5825 3525 5825 3075 
z
M 2375 525 
L 2375 1850 
L 1100 1850 
L 1100 525 
L 2375 525 
z
M 2375 2275 
L 2375 3525 
L 1100 3525 
L 1100 2275 
L 2375 2275 
z
M 4350 2050 
Q 4500 1750 4700 1275 
Q 4525 1200 4225 1025 
Q 4050 1500 3900 1837 
Q 3750 2175 3600 2400 
Q 3775 2500 4050 2650 
L 4350 2050 
z
" transform="scale(0.015625)"/>
      <path id="SimHei-76ee" d="M 5375 4900 
Q 5350 4175 5350 3525 
L 5350 600 
Q 5350 225 5375 -550 
L 4825 -550 
L 4825 -100 
L 1575 -100 
L 1575 -525 
L 1050 -525 
Q 1075 150 1075 550 
L 1075 3525 
Q 1075 4350 1050 4900 
L 5375 4900 
z
M 4825 300 
L 4825 1475 
L 1575 1475 
L 1575 300 
L 4825 300 
z
M 4825 1875 
L 4825 3000 
L 1575 3000 
L 1575 1875 
L 4825 1875 
z
M 4825 3400 
L 4825 4500 
L 1575 4500 
L 1575 3400 
L 4825 3400 
z
" transform="scale(0.015625)"/>
      <path id="SimHei-6807" d="M 1275 4400 
Q 1275 4800 1250 5175 
L 1750 5175 
Q 1725 4825 1725 4400 
L 1725 3800 
Q 2125 3800 2575 3825 
L 2575 3350 
Q 2125 3375 1725 3375 
L 1725 2525 
Q 1900 2650 2075 2800 
Q 2400 2275 2650 1775 
Q 2375 1650 2175 1500 
Q 2025 2000 1725 2425 
L 1725 475 
Q 1725 -50 1750 -575 
L 1250 -575 
Q 1275 -25 1275 475 
L 1275 2100 
Q 1025 1400 500 750 
Q 350 950 125 1125 
Q 550 1550 812 2187 
Q 1075 2825 1150 3375 
Q 675 3375 325 3325 
L 325 3825 
Q 800 3800 1275 3800 
L 1275 4400 
z
M 5175 3125 
Q 5675 3125 6050 3150 
L 6050 2675 
Q 5675 2700 5275 2700 
L 4500 2700 
L 4500 175 
Q 4500 -225 4275 -350 
Q 4050 -475 3475 -550 
Q 3425 -250 3275 25 
Q 3775 25 3900 62 
Q 4025 100 4025 350 
L 4025 2700 
L 3400 2700 
Q 2775 2700 2500 2650 
L 2500 3150 
Q 2825 3125 3400 3125 
L 5175 3125 
z
M 4900 4775 
Q 5425 4775 5750 4800 
L 5750 4300 
Q 5275 4350 4750 4350 
L 3525 4350 
Q 3125 4350 2750 4300 
L 2750 4800 
Q 3100 4775 3525 4775 
L 4900 4775 
z
M 5275 2025 
Q 5825 1175 6200 500 
Q 5925 375 5650 200 
Q 5375 925 4825 1725 
Q 5075 1850 5275 2025 
z
M 3600 1775 
Q 3500 1625 3225 975 
Q 2950 325 2800 50 
Q 2575 175 2300 275 
Q 2625 775 2787 1187 
Q 2950 1600 3050 2000 
Q 3325 1875 3600 1775 
z
" transform="scale(0.015625)"/>
      <path id="SimHei-51fd" d="M 1200 200 
L 5200 200 
L 5200 2225 
Q 5200 2600 5150 3075 
L 5700 3075 
Q 5675 2500 5675 2225 
L 5675 50 
Q 5675 -275 5700 -625 
L 5200 -625 
L 5200 -225 
L 700 -225 
Q 725 50 725 1375 
Q 725 2700 700 3075 
L 1225 3075 
Q 1200 2800 1200 2475 
L 1200 200 
z
M 5450 4925 
L 5450 4450 
Q 5075 4325 4475 4037 
Q 3875 3750 3475 3575 
L 3475 1100 
Q 3475 700 3200 587 
Q 2925 475 2525 400 
Q 2475 675 2350 950 
Q 2750 950 2887 1000 
Q 3025 1050 3025 1375 
L 3025 3075 
Q 3025 3550 2975 3850 
Q 3225 3925 3700 4125 
Q 4175 4325 4500 4500 
L 1950 4500 
Q 1425 4500 1025 4475 
L 1025 4950 
Q 1525 4925 1950 4925 
L 5450 4925 
z
M 4500 1750 
Q 4700 1575 5000 1275 
Q 4825 1125 4650 900 
Q 4400 1175 4200 1375 
Q 4000 1575 3600 1925 
Q 3775 2100 3900 2275 
L 4500 1750 
z
M 2700 1800 
Q 2525 1675 2237 1487 
Q 1950 1300 1600 1000 
Q 1525 1175 1325 1425 
Q 1500 1500 1887 1737 
Q 2275 1975 2550 2225 
Q 2600 2025 2700 1800 
z
M 4975 3175 
Q 4800 3100 4562 2912 
Q 4325 2725 4000 2475 
Q 3875 2700 3750 2850 
Q 4025 3050 4200 3200 
Q 4375 3350 4600 3575 
Q 4775 3375 4975 3175 
z
M 2350 2550 
Q 2200 2750 2000 2937 
Q 1800 3125 1475 3350 
Q 1650 3525 1750 3700 
Q 2025 3500 2650 2950 
Q 2475 2725 2350 2550 
z
" transform="scale(0.015625)"/>
      <path id="SimHei-6570" d="M 4525 4925 
Q 4475 4800 4400 4587 
Q 4325 4375 4175 3825 
L 5325 3825 
Q 5575 3825 5925 3850 
L 5925 3400 
Q 5650 3425 5500 3425 
Q 5500 3025 5362 2162 
Q 5225 1300 4875 675 
Q 5125 375 5437 137 
Q 5750 -100 6025 -200 
Q 5725 -425 5625 -625 
Q 5325 -450 5075 -225 
Q 4825 0 4575 325 
Q 4300 25 3987 -187 
Q 3675 -400 3200 -650 
Q 3075 -425 2850 -300 
Q 3225 -150 3650 125 
Q 4075 400 4300 675 
Q 4125 1025 3962 1425 
Q 3800 1825 3675 2475 
Q 3600 2275 3425 1950 
Q 3250 2050 3000 2150 
Q 3400 2850 3650 3675 
Q 3900 4500 3975 5100 
Q 4275 4975 4525 4925 
z
M 2100 2250 
Q 2000 2150 1875 1925 
L 3250 1925 
Q 3100 1300 2725 675 
Q 3125 525 3350 400 
Q 3225 225 3125 25 
Q 2900 175 2450 325 
Q 1950 -225 725 -650 
Q 600 -375 400 -275 
Q 1575 0 2000 475 
Q 1300 650 850 775 
Q 1000 1000 1250 1525 
Q 1000 1525 425 1500 
L 425 1950 
Q 900 1925 1400 1925 
Q 1500 2150 1550 2425 
Q 1825 2325 2100 2250 
z
M 1775 3950 
Q 1775 4550 1750 5100 
L 2250 5100 
Q 2225 4575 2225 3950 
Q 3075 3950 3425 3975 
L 3425 3525 
Q 3075 3550 2225 3550 
Q 2225 2825 2250 2425 
L 1750 2425 
Q 1775 2775 1775 3300 
Q 1650 3100 1300 2787 
Q 950 2475 650 2300 
Q 525 2525 275 2625 
Q 500 2700 875 2975 
Q 1250 3250 1450 3550 
Q 950 3550 500 3525 
L 500 3975 
Q 925 3950 1775 3950 
z
M 3975 3175 
Q 4200 1700 4600 1125 
Q 4850 1700 4937 2287 
Q 5025 2875 5050 3425 
L 4075 3425 
L 3975 3175 
z
M 1450 1000 
Q 1750 925 2275 800 
Q 2475 1050 2650 1525 
L 1725 1525 
Q 1600 1275 1450 1000 
z
M 3325 4825 
Q 3200 4625 3125 4450 
Q 3050 4275 2925 4025 
Q 2725 4125 2525 4175 
Q 2725 4500 2900 5000 
Q 3150 4875 3325 4825 
z
M 2575 3375 
Q 2900 3050 3200 2725 
Q 3050 2600 2875 2425 
Q 2525 2850 2300 3100 
Q 2450 3225 2575 3375 
z
M 925 5000 
Q 1275 4650 1500 4300 
L 1125 4075 
Q 950 4425 600 4725 
Q 825 4875 925 5000 
z
" transform="scale(0.015625)"/>
      <path id="SimHei-8ba1" d="M 3925 3100 
L 3925 4350 
Q 3925 4850 3900 5125 
L 4425 5125 
Q 4400 4800 4400 4550 
L 4400 3100 
L 5425 3100 
Q 5725 3100 6075 3125 
L 6075 2650 
Q 5700 2675 5450 2675 
L 4400 2675 
L 4400 175 
Q 4400 -125 4425 -550 
L 3900 -550 
Q 3925 -125 3925 150 
L 3925 2675 
L 2950 2675 
Q 2575 2675 2200 2650 
L 2200 3125 
Q 2575 3100 2900 3100 
L 3925 3100 
z
M 1775 3150 
Q 1750 2675 1750 2150 
L 1750 625 
Q 2175 1050 2425 1400 
Q 2575 1200 2775 1000 
L 2075 300 
Q 1750 -25 1450 -350 
Q 1275 -125 1125 50 
Q 1300 250 1275 650 
L 1275 2725 
Q 600 2725 275 2700 
L 275 3175 
Q 675 3150 825 3150 
L 1775 3150 
z
M 1150 5050 
Q 1475 4725 2175 4000 
Q 1950 3800 1750 3625 
Q 1425 4100 775 4750 
Q 950 4875 1150 5050 
z
" transform="scale(0.015625)"/>
      <path id="SimHei-7b97" d="M 5175 3650 
Q 5150 3200 5150 2500 
Q 5150 1800 5175 1325 
L 4575 1325 
L 4575 875 
L 5250 875 
Q 5650 875 6150 900 
L 6150 475 
Q 5650 500 5250 500 
L 4575 500 
Q 4575 -75 4600 -625 
L 4050 -625 
Q 4075 -75 4075 500 
L 2650 500 
Q 2475 100 2125 -175 
Q 1775 -450 1075 -675 
Q 925 -425 700 -250 
Q 1250 -150 1600 37 
Q 1950 225 2125 500 
L 1225 500 
Q 800 500 300 475 
L 300 900 
Q 825 875 1225 875 
L 2200 875 
Q 2250 1075 2250 1325 
L 1250 1325 
Q 1275 1775 1275 2475 
Q 1275 3200 1250 3650 
L 5175 3650 
z
M 1825 5100 
Q 1625 4900 1475 4725 
L 2425 4725 
Q 2750 4725 3175 4750 
L 3175 4325 
Q 2750 4350 2200 4350 
Q 2250 4175 2350 3875 
Q 2075 3850 1825 3750 
Q 1750 4075 1675 4350 
L 1200 4350 
Q 1075 4125 775 3775 
Q 525 3925 250 4000 
Q 500 4225 762 4537 
Q 1025 4850 1275 5300 
Q 1500 5175 1825 5100 
z
M 4525 5100 
Q 4325 4950 4175 4725 
L 5225 4725 
Q 5500 4725 5950 4750 
L 5950 4325 
Q 5550 4350 4975 4350 
L 5175 3950 
Q 4925 3925 4650 3825 
Q 4575 4100 4500 4350 
L 3900 4350 
Q 3700 4025 3525 3775 
Q 3250 3950 3025 4000 
Q 3325 4300 3550 4612 
Q 3775 4925 3900 5275 
Q 4175 5175 4525 5100 
z
M 4650 1675 
L 4650 2000 
L 1775 2000 
L 1775 1675 
L 4650 1675 
z
M 4650 2350 
L 4650 2650 
L 1775 2650 
L 1775 2350 
L 4650 2350 
z
M 4650 3000 
L 4650 3300 
L 1775 3300 
L 1775 3000 
L 4650 3000 
z
M 4075 875 
L 4075 1325 
L 2725 1325 
Q 2725 1075 2700 875 
L 4075 875 
z
" transform="scale(0.015625)"/>
      <path id="SimHei-94fe" d="M 4125 4400 
Q 4275 4675 4375 5250 
L 4975 5050 
Q 4825 4825 4625 4400 
L 5325 4400 
Q 5700 4400 6075 4425 
L 6075 4000 
Q 5700 4025 5325 4025 
L 4525 4025 
Q 4175 3200 4000 2725 
L 4600 2725 
Q 4600 3025 4575 3400 
L 5075 3400 
Q 5050 2900 5050 2725 
L 5300 2725 
Q 5600 2725 5950 2750 
L 5950 2325 
Q 5600 2350 5325 2350 
L 5050 2350 
L 5050 1525 
L 5350 1525 
Q 5700 1525 6025 1550 
L 6025 1125 
Q 5725 1150 5350 1150 
L 5050 1150 
Q 5050 775 5075 200 
L 4575 200 
Q 4600 775 4600 1150 
L 4200 1150 
Q 3850 1150 3500 1125 
L 3500 1550 
Q 3850 1525 4200 1525 
L 4600 1525 
L 4600 2350 
L 4225 2350 
Q 3750 2350 3550 2250 
Q 3475 2475 3375 2725 
Q 3575 2825 3750 3225 
Q 3925 3625 4050 4025 
Q 3875 4025 3475 4000 
L 3475 4425 
Q 3800 4400 4125 4400 
z
M 1700 3175 
Q 1875 3175 2075 3200 
L 2075 2750 
Q 1675 2775 1525 2775 
L 1525 2075 
Q 1825 2075 2175 2100 
L 2175 1625 
Q 1825 1675 1525 1675 
L 1525 450 
Q 2025 850 2200 1050 
Q 2250 825 2400 600 
Q 2150 450 1850 187 
Q 1550 -75 1225 -400 
Q 1075 -225 875 -50 
Q 1050 125 1100 575 
L 1100 1675 
Q 775 1675 375 1650 
L 375 2100 
Q 775 2075 1100 2075 
L 1100 2775 
Q 950 2775 725 2750 
L 725 3150 
L 525 2900 
Q 400 3075 200 3275 
Q 575 3650 787 4125 
Q 1000 4600 1125 5150 
Q 1525 4975 1750 4925 
Q 1575 4775 1487 4575 
Q 1400 4375 1300 4200 
Q 1725 4200 2200 4225 
L 2200 3775 
Q 1675 3800 1150 3800 
Q 1000 3550 775 3225 
Q 950 3225 1125 3175 
L 1700 3175 
z
M 2325 2975 
Q 2550 2950 2750 2950 
L 3225 2950 
Q 3175 2550 3175 2250 
L 3175 550 
Q 3375 350 3762 225 
Q 4150 100 4600 62 
Q 5050 25 6200 125 
Q 6025 -150 5975 -450 
Q 5150 -450 4662 -400 
Q 4175 -350 3900 -275 
Q 3625 -200 3275 37 
Q 2925 275 2737 75 
Q 2550 -125 2350 -350 
Q 2175 -75 2000 100 
Q 2500 425 2750 550 
L 2750 2550 
L 2650 2550 
Q 2525 2550 2325 2500 
L 2325 2975 
z
M 2875 4850 
Q 3075 4425 3225 3850 
Q 3000 3775 2775 3650 
Q 2625 4225 2425 4700 
Q 2600 4775 2875 4850 
z
" transform="scale(0.015625)"/>
      <path id="SimHei-8def" d="M 2900 425 
Q 1225 -75 475 -350 
Q 425 -150 275 125 
Q 525 150 700 225 
L 700 1800 
Q 700 2000 675 2325 
L 1150 2325 
Q 1125 2100 1125 1675 
L 1125 325 
Q 1300 375 1550 450 
L 1550 2975 
L 725 2975 
Q 750 3225 750 3850 
Q 750 4500 725 4750 
L 2650 4750 
Q 2625 4475 2625 3850 
Q 2625 3250 2650 2975 
L 1975 2975 
L 1975 2075 
Q 2275 2075 2600 2100 
L 2600 1650 
Q 2275 1675 1975 1675 
L 1975 550 
Q 2200 600 2900 875 
Q 2875 675 2900 425 
z
M 4225 5025 
Q 4075 4850 3925 4550 
L 5750 4550 
Q 5575 4125 5287 3650 
Q 5000 3175 4750 2850 
Q 5325 2400 6200 2200 
Q 6000 1950 5900 1750 
Q 5600 1875 5200 2087 
Q 4800 2300 4475 2550 
Q 4150 2300 3762 2100 
Q 3375 1900 2925 1700 
Q 2825 1925 2650 2125 
Q 2975 2200 3400 2375 
Q 3825 2550 4150 2825 
Q 3900 3075 3425 3650 
Q 3250 3350 3100 3150 
Q 2950 3300 2725 3425 
Q 3000 3675 3275 4187 
Q 3550 4700 3700 5225 
Q 3975 5050 4225 5025 
z
M 5525 1800 
Q 5500 1475 5500 650 
Q 5500 -150 5525 -525 
L 5050 -525 
L 5050 -50 
L 3625 -50 
L 3625 -550 
L 3175 -550 
Q 3200 -125 3200 650 
Q 3200 1450 3175 1800 
L 5525 1800 
z
M 5050 325 
L 5050 1400 
L 3625 1400 
L 3625 325 
L 5050 325 
z
M 2200 3350 
L 2200 4375 
L 1175 4375 
L 1175 3350 
L 2200 3350 
z
M 3650 4000 
Q 3950 3550 4425 3125 
Q 4575 3275 4775 3612 
Q 4975 3950 5075 4175 
L 3750 4175 
L 3650 4000 
z
" transform="scale(0.015625)"/>
     </defs>
     <use xlink:href="#SimHei-5019"/>
     <use xlink:href="#SimHei-9009" transform="translate(100 0)"/>
     <use xlink:href="#SimHei-90e8" transform="translate(200 0)"/>
     <use xlink:href="#SimHei-7f72" transform="translate(300 0)"/>
     <use xlink:href="#SimHei-65b9" transform="translate(400 0)"/>
     <use xlink:href="#SimHei-6848" transform="translate(500 0)"/>
     <use xlink:href="#SimHei-7684" transform="translate(600 0)"/>
     <use xlink:href="#SimHei-76ee" transform="translate(700 0)"/>
     <use xlink:href="#SimHei-6807" transform="translate(800 0)"/>
     <use xlink:href="#SimHei-51fd" transform="translate(900 0)"/>
     <use xlink:href="#SimHei-6570" transform="translate(1000 0)"/>
     <use xlink:href="#SimHei-8ba1" transform="translate(1100 0)"/>
     <use xlink:href="#SimHei-7b97" transform="translate(1200 0)"/>
     <use xlink:href="#SimHei-94fe" transform="translate(1300 0)"/>
     <use xlink:href="#SimHei-8def" transform="translate(1400 0)"/>
    </g>
   </g>
   <g id="text_2">
    <!-- 候选方案 -->
    <g style="fill: #1f2937" transform="translate(220.4 57.045781) scale(0.14 -0.14)">
     <use xlink:href="#SimHei-5019"/>
     <use xlink:href="#SimHei-9009" transform="translate(100 0)"/>
     <use xlink:href="#SimHei-65b9" transform="translate(200 0)"/>
     <use xlink:href="#SimHei-6848" transform="translate(300 0)"/>
    </g>
    <!-- 部署编码 -->
    <g style="fill: #1f2937" transform="translate(220.4 71.474531) scale(0.14 -0.14)">
     <defs>
      <path id="SimHei-7f16" d="M 4275 5250 
Q 4375 4850 4475 4500 
L 5775 4500 
Q 5750 4200 5750 3825 
Q 5750 3450 5775 3175 
L 3100 3175 
Q 3075 2800 3050 2550 
L 6000 2550 
Q 5975 2150 5975 1700 
L 5975 -25 
Q 5975 -400 5812 -500 
Q 5650 -600 5275 -700 
Q 5200 -400 5050 -150 
Q 5400 -150 5475 -112 
Q 5550 -75 5550 150 
L 5550 1000 
L 5050 1000 
Q 5050 450 5075 -50 
L 4625 -50 
Q 4650 450 4650 1000 
L 4150 1000 
Q 4150 225 4175 -75 
L 3725 -75 
Q 3750 225 3750 1000 
L 3250 1000 
L 3250 -650 
L 2775 -650 
Q 2825 -175 2825 275 
L 2825 1625 
Q 2625 1075 2350 600 
Q 2175 925 2025 1100 
Q 2250 1400 2375 1700 
Q 2500 2000 2575 2525 
Q 2650 3050 2650 3575 
Q 2650 4100 2625 4500 
L 3925 4500 
Q 3875 4775 3750 5100 
Q 4075 5175 4275 5250 
z
M 1825 4875 
Q 1675 4725 1387 4150 
Q 1100 3575 875 3150 
L 1575 3175 
Q 1725 3475 1875 3850 
Q 2100 3675 2375 3500 
Q 2150 3275 1862 2812 
Q 1575 2350 1075 1675 
Q 1600 1725 2075 1800 
L 2025 1350 
Q 1725 1325 1350 1275 
Q 975 1225 550 1050 
Q 500 1325 400 1575 
Q 600 1600 825 1925 
Q 1050 2250 1400 2800 
Q 1175 2800 950 2775 
Q 725 2750 450 2650 
Q 375 2950 275 3175 
Q 525 3225 800 3862 
Q 1075 4500 1225 5125 
Q 1525 4950 1825 4875 
z
M 5325 3525 
L 5325 4150 
L 3100 4150 
L 3100 3525 
L 5325 3525 
z
M 2100 800 
Q 2075 525 2100 300 
Q 1575 175 1212 50 
Q 850 -75 400 -300 
L 200 300 
Q 500 325 1037 462 
Q 1575 600 2100 800 
z
M 4650 1350 
L 4650 2200 
L 4150 2200 
L 4150 1350 
L 4650 1350 
z
M 5550 1350 
L 5550 2200 
L 5050 2200 
L 5050 1350 
L 5550 1350 
z
M 3750 1350 
L 3750 2200 
L 3250 2200 
L 3250 1350 
L 3750 1350 
z
" transform="scale(0.015625)"/>
      <path id="SimHei-7801" d="M 1975 4750 
Q 2325 4750 2725 4775 
L 2725 4350 
Q 2300 4375 2100 4375 
L 1725 4375 
Q 1625 3775 1400 3050 
L 2600 3050 
Q 2575 2625 2575 2300 
L 2575 1100 
Q 2575 775 2600 150 
L 2150 150 
L 2150 600 
L 1400 600 
L 1400 -125 
L 925 -125 
Q 950 500 950 875 
L 950 2050 
Q 775 1725 550 1325 
Q 400 1525 200 1675 
Q 650 2275 925 3062 
Q 1200 3850 1250 4375 
Q 800 4375 350 4350 
L 350 4775 
Q 800 4750 1125 4750 
L 1975 4750 
z
M 4725 2425 
L 4975 4500 
L 3825 4500 
Q 3400 4500 2950 4475 
L 2950 4925 
Q 3400 4875 3825 4875 
L 5500 4875 
Q 5375 4200 5175 2425 
L 5975 2425 
Q 5925 2150 5887 1500 
Q 5850 850 5750 300 
Q 5650 -250 5412 -412 
Q 5175 -575 4475 -625 
Q 4450 -350 4275 -75 
Q 4925 -100 5100 -25 
Q 5275 50 5350 712 
Q 5425 1375 5450 2025 
L 3125 2025 
Q 3200 2575 3262 3112 
Q 3325 3650 3350 4150 
L 3900 4050 
Q 3800 3800 3737 3362 
Q 3675 2925 3625 2425 
L 4725 2425 
z
M 2150 1000 
L 2150 2650 
L 1400 2650 
L 1400 1000 
L 2150 1000 
z
M 4325 1325 
Q 4625 1325 5275 1350 
L 5275 900 
Q 4600 925 4150 925 
L 3500 925 
Q 3225 925 2825 900 
L 2825 1350 
Q 3100 1325 3500 1325 
L 4325 1325 
z
" transform="scale(0.015625)"/>
     </defs>
     <use xlink:href="#SimHei-90e8"/>
     <use xlink:href="#SimHei-7f72" transform="translate(100 0)"/>
     <use xlink:href="#SimHei-7f16" transform="translate(200 0)"/>
     <use xlink:href="#SimHei-7801" transform="translate(300 0)"/>
    </g>
   </g>
   <g id="text_3">
    <!-- 粒子解码 -->
    <g style="fill: #1f2937" transform="translate(220.4 92.137962) scale(0.14 -0.14)">
     <defs>
      <path id="SimHei-7c92" d="M 225 575 
Q 625 1075 925 1612 
Q 1225 2150 1375 2650 
Q 750 2650 300 2625 
L 300 3075 
Q 850 3050 1225 3050 
L 1450 3050 
L 1450 4475 
Q 1450 4625 1425 5200 
L 1925 5200 
Q 1900 4650 1900 4450 
L 1900 3050 
L 2150 3050 
Q 2350 3050 2950 3075 
L 2950 2625 
Q 2350 2650 2125 2650 
L 1900 2650 
L 1900 175 
Q 1900 -25 1925 -625 
L 1425 -625 
Q 1450 -25 1450 175 
L 1450 1700 
Q 1200 1100 675 300 
Q 425 475 225 575 
z
M 5700 3025 
Q 5525 2625 5375 1975 
Q 5225 1325 4875 125 
L 5600 125 
Q 5825 125 6175 150 
L 6175 -300 
Q 5850 -275 5600 -275 
L 3325 -275 
Q 3150 -275 2625 -300 
L 2625 150 
Q 3125 125 3275 125 
L 4400 125 
Q 4875 1600 5100 3200 
Q 5425 3100 5700 3025 
z
M 5375 3975 
Q 5650 3975 5950 4000 
L 5950 3550 
Q 5600 3575 5350 3575 
L 3475 3575 
Q 3225 3575 2950 3550 
L 2950 4000 
Q 3225 3975 3475 3975 
L 5375 3975 
z
M 3625 2950 
Q 3825 2225 3975 1687 
Q 4125 1150 4225 625 
Q 3975 575 3750 475 
Q 3625 1100 3525 1550 
Q 3425 2000 3175 2800 
Q 3400 2850 3625 2950 
z
M 2325 2300 
Q 2750 1800 3100 1350 
Q 2875 1175 2700 1025 
Q 2400 1525 1975 2000 
Q 2200 2125 2325 2300 
z
M 4200 5225 
Q 4500 4725 4725 4225 
Q 4425 4125 4250 4025 
Q 4075 4475 3725 5025 
Q 4000 5125 4200 5225 
z
M 2425 3300 
Q 2250 3425 2025 3500 
Q 2250 3875 2525 4675 
Q 2725 4575 2975 4475 
Q 2800 4150 2700 3912 
Q 2600 3675 2425 3300 
z
M 700 4625 
Q 975 4075 1250 3500 
Q 975 3400 825 3300 
Q 675 3725 275 4400 
Q 500 4500 700 4625 
z
" transform="scale(0.015625)"/>
      <path id="SimHei-5b50" d="M 2075 25 
Q 2650 0 2800 62 
Q 2950 125 2950 375 
L 2950 2200 
L 1175 2200 
Q 825 2200 350 2175 
L 350 2625 
Q 825 2600 1175 2600 
L 2950 2600 
Q 2950 3000 2925 3500 
Q 3275 3650 3637 3875 
Q 4000 4100 4475 4400 
L 1925 4400 
Q 1400 4400 1000 4375 
L 1000 4825 
Q 1525 4800 1875 4800 
L 5400 4800 
L 5400 4350 
Q 5025 4200 4575 3950 
Q 4125 3700 3450 3250 
L 3450 2600 
L 5125 2600 
Q 5550 2600 6075 2650 
L 6075 2200 
Q 5550 2225 5125 2200 
L 3450 2200 
L 3450 200 
Q 3450 -300 3162 -400 
Q 2875 -500 2300 -550 
Q 2250 -275 2075 25 
z
" transform="scale(0.015625)"/>
      <path id="SimHei-89e3" d="M 1925 5025 
Q 1725 4925 1625 4575 
L 2925 4575 
Q 2800 4400 2600 4100 
Q 2400 3800 2325 3650 
L 3225 3650 
Q 3175 3150 3175 2650 
L 3175 75 
Q 3175 -225 3012 -312 
Q 2850 -400 2500 -450 
Q 2450 -175 2350 75 
Q 2550 75 2650 87 
Q 2750 100 2750 325 
L 2750 1150 
L 2225 1150 
L 2225 -25 
L 1800 -25 
L 1800 1150 
L 1275 1150 
Q 1250 775 1150 375 
Q 1050 -25 825 -500 
Q 600 -375 350 -250 
Q 600 100 725 612 
Q 850 1125 875 1925 
Q 900 2725 875 3525 
Q 675 3300 550 3175 
Q 400 3375 200 3525 
Q 575 3825 887 4262 
Q 1200 4700 1400 5300 
Q 1600 5175 1925 5025 
z
M 4325 2425 
Q 4200 2325 4150 2125 
L 4575 2125 
Q 4575 2650 4550 2825 
L 5050 2825 
Q 5000 2600 5000 2125 
L 5350 2125 
Q 5725 2125 5950 2150 
L 5950 1700 
Q 5625 1750 5300 1750 
L 5000 1750 
L 5000 1025 
L 5175 1025 
Q 5650 1025 6150 1050 
L 6150 625 
Q 5675 650 5175 650 
L 5000 650 
L 5000 225 
Q 5000 -125 5025 -650 
L 4550 -650 
Q 4575 -125 4575 225 
L 4575 650 
L 4025 650 
Q 3750 650 3325 625 
L 3325 1050 
Q 3700 1025 4025 1025 
L 4575 1025 
L 4575 1750 
L 3950 1750 
Q 3875 1550 3725 1250 
Q 3550 1350 3325 1525 
Q 3500 1725 3625 2050 
Q 3750 2375 3825 2675 
L 4325 2425 
z
M 4900 2975 
Q 4850 3250 4725 3500 
Q 5000 3500 5162 3525 
Q 5325 3550 5350 3675 
Q 5375 3800 5425 4550 
L 4525 4550 
Q 4375 3850 4225 3537 
Q 4075 3225 3750 2850 
Q 3600 3050 3350 3225 
Q 3625 3425 3800 3737 
Q 3975 4050 4050 4550 
Q 3750 4550 3325 4525 
L 3325 4950 
Q 3725 4925 4050 4925 
L 5925 4925 
Q 5850 3700 5787 3450 
Q 5725 3200 5475 3100 
Q 5225 3000 4900 2975 
z
M 1825 3650 
Q 2025 3900 2175 4200 
L 1375 4200 
Q 1150 3900 975 3650 
L 1825 3650 
z
M 2750 1550 
L 2750 2225 
L 2225 2225 
L 2225 1550 
L 2750 1550 
z
M 2750 2600 
L 2750 3275 
L 2225 3275 
L 2225 2600 
L 2750 2600 
z
M 1800 1550 
L 1800 2225 
L 1325 2225 
L 1300 1550 
L 1800 1550 
z
M 1800 2600 
L 1800 3275 
L 1325 3275 
L 1325 2600 
L 1800 2600 
z
" transform="scale(0.015625)"/>
     </defs>
     <use xlink:href="#SimHei-7c92"/>
     <use xlink:href="#SimHei-5b50" transform="translate(100 0)"/>
     <use xlink:href="#SimHei-89e3" transform="translate(200 0)"/>
     <use xlink:href="#SimHei-7801" transform="translate(300 0)"/>
    </g>
    <!-- 得到物理位置 -->
    <g style="fill: #1f2937" transform="translate(206.4 106.505462) scale(0.14 -0.14)">
     <defs>
      <path id="SimHei-5f97" d="M 5575 4975 
Q 5550 4625 5550 3950 
Q 5550 3300 5575 2900 
L 2675 2900 
Q 2700 3300 2700 3950 
Q 2700 4600 2675 4975 
L 5575 4975 
z
M 1950 1625 
Q 2400 1600 2950 1600 
L 4775 1600 
L 4775 2100 
L 3125 2100 
Q 2700 2100 2325 2075 
L 2325 2500 
Q 2700 2475 3125 2475 
L 5000 2475 
Q 5525 2475 5900 2500 
L 5900 2075 
Q 5575 2100 5225 2100 
L 5225 1600 
Q 5675 1600 6075 1625 
L 6075 1175 
Q 5700 1200 5225 1200 
L 5225 250 
Q 5250 -275 4950 -400 
Q 4650 -525 4175 -600 
Q 4125 -350 3975 -25 
Q 4550 -25 4675 62 
Q 4800 150 4775 425 
L 4775 1200 
L 2950 1200 
Q 2400 1200 1950 1175 
L 1950 1625 
z
M 1150 -550 
Q 1175 125 1175 575 
L 1175 2075 
Q 950 1825 625 1500 
Q 475 1750 275 1925 
Q 775 2300 1150 2775 
Q 1525 3250 1800 3775 
Q 2000 3600 2275 3450 
Q 2050 3150 1625 2575 
L 1625 575 
Q 1625 125 1650 -550 
L 1150 -550 
z
M 2150 4875 
Q 1450 4000 825 3375 
Q 675 3575 475 3750 
Q 1175 4325 1700 5200 
Q 1900 5025 2150 4875 
z
M 5100 3300 
L 5100 3775 
L 3150 3775 
L 3150 3300 
L 5100 3300 
z
M 5100 4150 
L 5100 4600 
L 3150 4600 
L 3150 4150 
L 5100 4150 
z
M 2950 1050 
Q 3325 525 3550 175 
Q 3375 75 3100 -125 
Q 2950 275 2575 750 
Q 2800 900 2950 1050 
z
" transform="scale(0.015625)"/>
      <path id="SimHei-5230" d="M 3675 150 
Q 2275 -50 1537 -175 
Q 800 -300 500 -400 
Q 425 -75 325 225 
Q 775 250 1062 275 
Q 1350 300 1750 350 
L 1750 1325 
L 1400 1325 
Q 900 1325 550 1275 
L 550 1750 
Q 975 1725 1325 1725 
L 1750 1725 
L 1750 2550 
Q 1250 2525 1037 2500 
Q 825 2475 575 2425 
Q 525 2750 425 3000 
Q 825 3100 1137 3500 
Q 1450 3900 1625 4400 
L 1250 4400 
Q 825 4400 450 4375 
L 450 4850 
Q 850 4825 1225 4825 
L 2825 4825 
Q 3275 4825 3625 4850 
L 3625 4375 
Q 3250 4400 2825 4400 
L 1800 4400 
L 2250 4100 
Q 2000 3900 1775 3600 
Q 1550 3300 1250 2950 
Q 2150 3000 2925 3050 
Q 2725 3375 2475 3700 
Q 2725 3825 2925 3975 
Q 3175 3625 3400 3300 
Q 3625 2975 3825 2700 
Q 3600 2525 3325 2375 
Q 3225 2550 3150 2675 
Q 2625 2600 2275 2575 
L 2275 1725 
L 2750 1725 
Q 3175 1725 3475 1750 
L 3475 1275 
Q 3150 1325 2775 1325 
L 2275 1325 
L 2275 400 
Q 2975 500 3750 625 
Q 3700 375 3675 150 
z
M 5875 5175 
Q 5825 4800 5825 4325 
L 5825 225 
Q 5825 -350 5612 -450 
Q 5400 -550 4700 -675 
Q 4625 -350 4475 -75 
Q 5000 -75 5162 -37 
Q 5325 0 5325 375 
L 5325 4325 
Q 5325 4875 5300 5175 
L 5875 5175 
z
M 4600 4375 
Q 4550 4050 4550 3475 
L 4550 1600 
Q 4550 1075 4575 725 
L 4050 725 
Q 4075 1075 4075 1600 
L 4075 3575 
Q 4075 4075 4050 4375 
L 4600 4375 
z
" transform="scale(0.015625)"/>
      <path id="SimHei-7269" d="M 5550 3775 
L 5225 3775 
Q 5175 2925 5062 2312 
Q 4950 1700 4700 1225 
Q 4450 750 4087 337 
Q 3725 -75 3100 -475 
Q 2950 -250 2650 -75 
Q 3275 175 3662 575 
Q 4050 975 4275 1462 
Q 4500 1950 4600 2537 
Q 4700 3125 4750 3775 
L 4325 3775 
Q 4250 3025 3912 2275 
Q 3575 1525 3075 1025 
Q 2925 1250 2600 1350 
Q 3175 1825 3462 2400 
Q 3750 2975 3875 3775 
L 3500 3775 
Q 3175 3125 2950 2800 
Q 2750 2975 2500 3050 
Q 3025 3750 3275 4375 
Q 3525 5000 3575 5275 
Q 3925 5125 4200 5050 
Q 4075 4950 3962 4725 
Q 3850 4500 3725 4200 
L 6075 4200 
Q 5975 3100 5937 1850 
Q 5900 600 5862 225 
Q 5825 -150 5500 -287 
Q 5175 -425 4550 -500 
Q 4525 -225 4300 75 
Q 5025 25 5187 100 
Q 5350 175 5375 525 
L 5550 3775 
z
M 1250 4325 
Q 1100 4125 1025 3700 
L 1600 3700 
L 1600 4525 
Q 1600 4900 1550 5200 
L 2100 5200 
Q 2075 4900 2075 4525 
L 2075 3700 
Q 2325 3700 2650 3725 
L 2650 3275 
Q 2300 3300 2075 3300 
L 2075 2000 
Q 2500 2100 2775 2225 
Q 2775 2000 2800 1775 
Q 2475 1675 2075 1550 
L 2075 375 
Q 2075 -50 2100 -600 
L 1550 -600 
Q 1600 -100 1600 375 
L 1600 1425 
Q 1325 1350 1062 1262 
Q 800 1175 500 1025 
Q 425 1250 250 1575 
Q 700 1625 1600 1850 
L 1600 3300 
L 950 3300 
Q 850 2825 725 2375 
Q 475 2500 225 2500 
Q 450 3025 537 3512 
Q 625 4000 650 4425 
Q 925 4350 1250 4325 
z
" transform="scale(0.015625)"/>
      <path id="SimHei-7406" d="M 5825 4850 
Q 5800 4525 5800 3425 
Q 5800 2350 5825 1875 
L 4450 1875 
L 4450 1125 
L 5200 1125 
Q 5650 1125 5900 1150 
L 5900 700 
Q 5625 725 5200 725 
L 4450 725 
L 4450 -125 
L 5350 -125 
Q 5825 -125 6150 -100 
L 6150 -550 
Q 5825 -525 5375 -525 
L 2950 -525 
Q 2550 -525 2250 -550 
L 2250 -100 
Q 2575 -125 2950 -125 
L 3975 -125 
L 3975 725 
L 3150 725 
Q 2825 725 2575 700 
L 2575 1150 
Q 2825 1125 3150 1125 
L 3975 1125 
L 3975 1875 
L 2625 1875 
Q 2650 2250 2650 3400 
Q 2650 4550 2625 4850 
L 5825 4850 
z
M 1750 4525 
Q 2025 4525 2350 4550 
L 2350 4075 
Q 2000 4100 1750 4100 
L 1525 4100 
L 1525 2750 
Q 1875 2750 2225 2775 
L 2225 2300 
Q 1875 2325 1525 2325 
L 1525 725 
Q 2000 900 2325 1050 
Q 2375 800 2425 625 
Q 1950 475 1362 237 
Q 775 0 450 -200 
Q 350 50 225 325 
Q 550 375 1075 600 
L 1075 2325 
Q 625 2325 300 2300 
L 300 2775 
Q 650 2750 1075 2750 
L 1075 4100 
L 775 4100 
Q 550 4100 225 4075 
L 225 4550 
Q 550 4525 775 4525 
L 1750 4525 
z
M 5325 2275 
L 5325 3175 
L 4450 3175 
L 4450 2275 
L 5325 2275 
z
M 5325 3550 
L 5325 4450 
L 4450 4450 
L 4450 3550 
L 5325 3550 
z
M 3975 2275 
L 3975 3175 
L 3125 3175 
L 3125 2275 
L 3975 2275 
z
M 3975 3550 
L 3975 4450 
L 3125 4450 
L 3125 3550 
L 3975 3550 
z
" transform="scale(0.015625)"/>
      <path id="SimHei-4f4d" d="M 2125 4925 
Q 1950 4750 1625 3750 
L 1625 575 
Q 1625 -225 1650 -650 
L 1100 -650 
Q 1150 -200 1150 550 
L 1150 2950 
Q 775 2275 550 1950 
Q 375 2275 200 2425 
Q 525 2775 912 3575 
Q 1300 4375 1500 5200 
Q 1825 5000 2125 4925 
z
M 5375 3025 
Q 5275 2875 5100 2250 
Q 4925 1625 4600 300 
L 5450 300 
Q 5925 300 6100 325 
L 6100 -175 
Q 5875 -150 5450 -150 
L 2900 -150 
Q 2275 -150 2050 -175 
L 2050 325 
Q 2275 300 2850 300 
L 4075 300 
Q 4400 1400 4700 3175 
Q 5100 3075 5375 3025 
z
M 5250 4025 
Q 5700 4025 5925 4050 
L 5925 3575 
Q 5700 3600 5225 3600 
L 3000 3600 
Q 2650 3600 2275 3575 
L 2275 4050 
Q 2675 4025 3000 4025 
L 5250 4025 
z
M 3050 3050 
Q 3500 1775 3750 725 
Q 3450 625 3250 550 
Q 3125 1125 2962 1675 
Q 2800 2225 2550 2875 
Q 2800 2925 3050 3050 
z
M 3875 5200 
Q 4175 4675 4400 4300 
Q 4200 4250 3875 4075 
Q 3700 4525 3400 4950 
Q 3650 5050 3875 5200 
z
" transform="scale(0.015625)"/>
      <path id="SimHei-7f6e" d="M 3600 3650 
Q 3525 3475 3475 3325 
L 4750 3325 
Q 5100 3325 5675 3350 
L 5675 2925 
Q 5125 2950 4750 2950 
L 3400 2950 
L 3350 2600 
L 5000 2600 
Q 4975 1975 4975 1550 
L 4975 -50 
Q 5575 -50 6025 -25 
L 6025 -400 
Q 5475 -375 5000 -375 
L 1400 -375 
Q 900 -375 400 -400 
L 400 -25 
Q 925 -50 1450 -50 
L 1450 1550 
Q 1450 1975 1425 2600 
L 2875 2600 
L 2925 2950 
L 1600 2950 
Q 1150 2950 650 2925 
L 650 3350 
Q 1150 3325 1600 3325 
L 2975 3325 
Q 3000 3525 3000 3700 
Q 3250 3650 3600 3650 
z
M 5575 4950 
Q 5550 4600 5550 4300 
Q 5550 4000 5575 3775 
L 900 3775 
Q 925 4075 925 4325 
Q 925 4600 900 4950 
L 5575 4950 
z
M 4575 1900 
L 4575 2250 
L 1850 2250 
L 1850 1900 
L 4575 1900 
z
M 4575 1250 
L 4575 1575 
L 1850 1575 
L 1850 1250 
L 4575 1250 
z
M 4575 -50 
L 4575 275 
L 1850 275 
L 1850 -50 
L 4575 -50 
z
M 4575 625 
L 4575 875 
L 1850 875 
L 1850 625 
L 4575 625 
z
M 3700 4100 
L 3700 4625 
L 2700 4625 
L 2700 4100 
L 3700 4100 
z
M 5075 4100 
L 5075 4625 
L 4100 4625 
L 4100 4100 
L 5075 4100 
z
M 2350 4100 
L 2350 4625 
L 1400 4625 
L 1400 4100 
L 2350 4100 
z
" transform="scale(0.015625)"/>
     </defs>
     <use xlink:href="#SimHei-5f97"/>
     <use xlink:href="#SimHei-5230" transform="translate(100 0)"/>
     <use xlink:href="#SimHei-7269" transform="translate(200 0)"/>
     <use xlink:href="#SimHei-7406" transform="translate(300 0)"/>
     <use xlink:href="#SimHei-4f4d" transform="translate(400 0)"/>
     <use xlink:href="#SimHei-7f6e" transform="translate(500 0)"/>
    </g>
   </g>
   <g id="text_4">
    <!-- 传播模型 -->
    <g style="fill: #1f2937" transform="translate(220.4 132.892925) scale(0.14 -0.14)">
     <defs>
      <path id="SimHei-4f20" d="M 5500 1975 
Q 5025 925 4700 250 
Q 4975 100 5450 -200 
Q 5300 -375 5125 -675 
Q 4700 -375 4012 12 
Q 3325 400 3050 525 
Q 3175 750 3275 950 
Q 3600 800 4275 475 
Q 4525 975 4750 1550 
L 2800 1550 
Q 2950 2000 3125 2650 
L 2575 2650 
Q 2200 2650 1925 2625 
L 1925 3075 
Q 2250 3050 2600 3050 
L 3200 3050 
Q 3300 3525 3350 3825 
L 2975 3825 
Q 2525 3825 2250 3800 
L 2250 4250 
Q 2550 4225 2950 4225 
L 3425 4225 
Q 3525 4950 3525 5225 
Q 3850 5150 4100 5125 
Q 4025 5000 3875 4225 
L 4950 4225 
Q 5350 4225 5700 4250 
L 5700 3800 
Q 5375 3825 4925 3825 
L 3825 3825 
Q 3775 3550 3675 3050 
L 5250 3050 
Q 5750 3050 6025 3075 
L 6025 2625 
Q 5725 2650 5250 2650 
L 3600 2650 
Q 3500 2250 3425 1975 
L 5500 1975 
z
M 2225 4875 
Q 2025 4675 1650 3750 
L 1650 550 
Q 1650 -25 1675 -525 
L 1125 -525 
Q 1175 -125 1175 525 
L 1175 3000 
Q 800 2400 550 2050 
Q 450 2250 200 2450 
Q 500 2800 925 3525 
Q 1350 4250 1625 5175 
Q 1850 5050 2225 4875 
z
" transform="scale(0.015625)"/>
      <path id="SimHei-64ad" d="M 5775 4600 
Q 5325 4550 4300 4475 
L 4300 3475 
L 4725 3475 
Q 4850 3800 5050 4475 
Q 5250 4350 5575 4225 
Q 5400 4000 5312 3812 
Q 5225 3625 5150 3475 
L 5400 3475 
Q 5725 3475 6100 3500 
L 6100 3075 
Q 5725 3100 5425 3100 
L 4850 3100 
Q 5325 2425 6200 2100 
Q 5975 1875 5925 1625 
Q 5600 1750 5525 1825 
L 5525 300 
Q 5525 -50 5550 -600 
L 5075 -600 
L 5075 -225 
L 3050 -225 
L 3050 -600 
L 2575 -600 
Q 2600 -100 2600 250 
L 2600 1725 
Q 2400 1600 2225 1475 
Q 2050 1725 1850 1875 
Q 2825 2375 3300 3100 
Q 2725 3100 2225 3075 
L 2225 3500 
Q 2650 3475 2850 3475 
L 3000 3475 
Q 2800 3925 2625 4100 
Q 2700 4150 3025 4325 
Q 3075 4225 3425 3725 
Q 3300 3650 3050 3475 
L 3825 3475 
L 3825 4425 
Q 3000 4400 2525 4325 
Q 2425 4600 2300 4800 
Q 3050 4775 4025 4875 
Q 5000 4975 5425 5125 
Q 5550 4825 5775 4600 
z
M 1175 4550 
Q 1175 4900 1150 5200 
L 1650 5200 
Q 1625 5000 1600 4650 
L 1600 3825 
Q 1900 3825 2125 3850 
L 2125 3400 
Q 1850 3425 1600 3425 
L 1600 2425 
L 2100 2675 
Q 2100 2475 2150 2200 
Q 1900 2100 1600 1950 
L 1600 50 
Q 1600 -350 1362 -450 
Q 1125 -550 700 -600 
Q 650 -350 475 -75 
Q 925 -75 1050 -37 
Q 1175 0 1175 275 
L 1175 1800 
Q 1000 1750 425 1400 
L 225 1900 
Q 525 2000 1175 2275 
L 1175 3425 
Q 600 3425 300 3375 
L 300 3850 
Q 750 3825 1175 3825 
L 1175 4550 
z
M 5300 1950 
Q 4750 2350 4375 3100 
L 4325 3100 
Q 4325 2550 4350 2050 
L 3825 2050 
Q 3850 2550 3850 3075 
Q 3475 2525 2825 1950 
L 5300 1950 
z
M 3850 150 
L 3850 675 
L 3050 675 
L 3050 150 
L 3850 150 
z
M 5075 150 
L 5075 675 
L 4275 675 
L 4275 150 
L 5075 150 
z
M 3850 1075 
L 3850 1575 
L 3050 1575 
L 3050 1075 
L 3850 1075 
z
M 5075 1075 
L 5075 1575 
L 4275 1575 
L 4275 1075 
L 5075 1075 
z
" transform="scale(0.015625)"/>
      <path id="SimHei-6a21" d="M 5700 3675 
Q 5675 3400 5675 2725 
Q 5675 2050 5700 1725 
L 4375 1725 
Q 4350 1450 4325 1200 
L 5225 1200 
Q 5750 1200 6025 1225 
L 6025 825 
Q 5725 850 5225 850 
L 4700 850 
Q 5075 375 5437 137 
Q 5800 -100 6200 -200 
Q 5975 -375 5850 -625 
Q 5275 -400 4862 25 
Q 4450 450 4300 775 
L 4225 775 
Q 4000 275 3537 -62 
Q 3075 -400 2475 -625 
Q 2350 -375 2125 -200 
Q 2775 -75 3200 200 
Q 3625 475 3775 850 
L 3325 850 
Q 2800 850 2400 825 
L 2400 1225 
Q 2800 1200 3350 1200 
L 3875 1200 
Q 3925 1475 3925 1725 
L 2750 1725 
Q 2775 2075 2775 2700 
Q 2775 3350 2750 3675 
L 5700 3675 
z
M 2175 1650 
Q 2025 1975 1675 2525 
L 1675 300 
Q 1675 -300 1700 -550 
L 1175 -550 
Q 1200 -275 1200 250 
L 1200 2225 
Q 1125 2000 962 1712 
Q 800 1425 600 1050 
Q 450 1275 200 1425 
Q 600 1825 850 2425 
Q 1100 3025 1175 3425 
L 950 3425 
Q 700 3425 400 3400 
L 400 3825 
Q 675 3800 825 3800 
L 1200 3800 
L 1200 4350 
Q 1200 4775 1175 5150 
L 1700 5150 
Q 1675 4825 1675 4425 
L 1675 3800 
Q 2075 3800 2375 3825 
L 2375 3400 
Q 2050 3425 1675 3425 
L 1675 2575 
Q 1850 2675 2000 2775 
Q 2150 2525 2287 2325 
Q 2425 2125 2550 1925 
Q 2325 1775 2175 1650 
z
M 3375 4300 
L 3175 4300 
Q 2700 4300 2425 4275 
L 2425 4675 
Q 2700 4650 3150 4650 
L 3375 4650 
Q 3375 5000 3350 5225 
L 3825 5225 
Q 3800 5000 3800 4650 
L 4550 4650 
Q 4550 4975 4525 5200 
L 5025 5200 
Q 5000 4925 5000 4650 
L 5375 4650 
Q 5650 4650 5950 4675 
L 5950 4275 
Q 5650 4300 5375 4300 
L 5000 4300 
L 5000 3850 
L 4550 3850 
L 4550 4300 
L 3800 4300 
L 3800 3875 
L 3375 3875 
L 3375 4300 
z
M 5275 2075 
L 5275 2525 
L 3200 2525 
L 3200 2075 
L 5275 2075 
z
M 5275 2875 
L 5275 3325 
L 3200 3325 
L 3200 2875 
L 5275 2875 
z
" transform="scale(0.015625)"/>
      <path id="SimHei-578b" d="M 2625 1775 
Q 2650 2325 2650 2700 
L 2650 3000 
L 1825 3000 
Q 1725 2375 1425 2000 
Q 1125 1625 775 1425 
Q 650 1650 375 1900 
Q 850 2075 1062 2362 
Q 1275 2650 1350 3000 
Q 900 3000 375 2975 
L 375 3450 
Q 925 3425 1400 3425 
Q 1425 3950 1425 4475 
Q 1075 4475 700 4450 
L 700 4900 
Q 1050 4875 1525 4875 
L 3000 4875 
Q 3275 4875 3650 4900 
L 3650 4450 
Q 3325 4475 3125 4475 
L 3125 3425 
Q 3450 3425 3825 3450 
L 3825 2975 
Q 3450 3000 3125 3000 
L 3125 2675 
Q 3125 2225 3150 1775 
L 2625 1775 
z
M 3000 1175 
Q 3000 1375 2975 1725 
L 3500 1725 
Q 3475 1375 3475 1175 
L 4550 1175 
Q 5050 1175 5450 1200 
L 5450 725 
Q 4975 750 4550 750 
L 3475 750 
L 3475 -50 
L 5275 -50 
Q 5700 -50 6100 -25 
L 6100 -500 
Q 5725 -475 5300 -475 
L 1250 -475 
Q 775 -475 400 -500 
L 400 -25 
Q 775 -50 1250 -50 
L 3000 -50 
L 3000 750 
L 2025 750 
Q 1500 750 975 725 
L 1050 1200 
Q 1500 1175 2025 1175 
L 3000 1175 
z
M 5775 5200 
Q 5750 4775 5750 4325 
L 5750 2400 
Q 5775 1950 5612 1775 
Q 5450 1600 4900 1525 
Q 4825 1775 4675 2100 
Q 5175 2075 5237 2150 
Q 5300 2225 5300 2525 
L 5300 4325 
Q 5300 4775 5275 5200 
L 5775 5200 
z
M 4600 4750 
Q 4575 4450 4575 3975 
L 4575 3200 
Q 4575 2825 4600 2425 
L 4100 2425 
Q 4125 2825 4125 3200 
L 4125 3975 
Q 4125 4450 4100 4750 
L 4600 4750 
z
M 2650 3425 
L 2650 4475 
L 1875 4475 
Q 1850 3750 1850 3425 
L 2650 3425 
z
" transform="scale(0.015625)"/>
     </defs>
     <use xlink:href="#SimHei-4f20"/>
     <use xlink:href="#SimHei-64ad" transform="translate(100 0)"/>
     <use xlink:href="#SimHei-6a21" transform="translate(200 0)"/>
     <use xlink:href="#SimHei-578b" transform="translate(300 0)"/>
    </g>
    <!-- A2G/G2G路径损耗 -->
    <g style="fill: #1f2937" transform="translate(195.9 147.137925) scale(0.14 -0.14)">
     <defs>
      <path id="SimHei-41" d="M 3075 125 
L 2475 125 
L 2125 1450 
L 1025 1450 
L 675 125 
L 75 125 
L 1325 4450 
L 1825 4450 
L 3075 125 
z
M 2000 1925 
L 1600 3450 
L 1550 3450 
L 1150 1925 
L 2000 1925 
z
" transform="scale(0.015625)"/>
      <path id="SimHei-32" d="M 300 250 
Q 325 625 650 925 
Q 975 1225 1475 1862 
Q 1975 2500 2125 2850 
Q 2275 3200 2237 3450 
Q 2200 3700 2000 3862 
Q 1800 4025 1537 4000 
Q 1275 3975 1037 3800 
Q 800 3625 675 3275 
L 200 3350 
Q 400 3925 712 4187 
Q 1025 4450 1450 4475 
Q 1700 4500 1900 4462 
Q 2100 4425 2312 4287 
Q 2525 4150 2662 3875 
Q 2800 3600 2762 3212 
Q 2725 2825 2375 2287 
Q 2025 1750 1025 600 
L 2825 600 
L 2825 150 
L 300 150 
L 300 250 
z
" transform="scale(0.015625)"/>
      <path id="SimHei-47" d="M 2850 75 
L 2425 75 
L 2350 425 
Q 2250 275 2037 175 
Q 1825 75 1575 75 
Q 1050 75 637 562 
Q 225 1050 225 2125 
Q 225 3300 600 3875 
Q 975 4450 1625 4450 
Q 2200 4450 2525 4025 
Q 2850 3600 2850 2925 
L 2300 2925 
Q 2300 3450 2125 3712 
Q 1950 3975 1625 3975 
Q 1225 3975 1025 3562 
Q 825 3150 825 2175 
Q 825 1250 1075 900 
Q 1325 550 1650 550 
Q 1975 550 2162 787 
Q 2350 1025 2350 1525 
L 2350 1800 
L 1575 1800 
L 1575 2275 
L 2850 2275 
L 2850 75 
z
" transform="scale(0.015625)"/>
      <path id="SimHei-2f" d="M 3000 4550 
L 350 -175 
L 100 -25 
L 2750 4700 
L 3000 4550 
z
" transform="scale(0.015625)"/>
      <path id="SimHei-5f84" d="M 4700 1875 
Q 5325 1875 5675 1900 
L 5675 1425 
Q 5350 1450 4725 1450 
L 4350 1450 
L 4350 100 
L 5375 100 
L 6075 150 
L 6075 -350 
Q 5725 -325 5375 -325 
L 2900 -325 
Q 2450 -325 2075 -350 
L 2075 125 
Q 2450 100 2900 100 
L 3875 100 
L 3875 1450 
L 3550 1450 
Q 3100 1450 2575 1425 
L 2575 1900 
Q 3100 1875 3550 1875 
L 4700 1875 
z
M 5625 4700 
Q 5400 4325 5162 4037 
Q 4925 3750 4625 3425 
Q 5475 2950 6050 2550 
Q 5825 2350 5675 2175 
Q 4825 2850 4300 3150 
Q 3900 2850 3550 2650 
Q 3200 2450 2525 2100 
Q 2450 2275 2175 2525 
Q 2775 2700 3537 3162 
Q 4300 3625 4775 4300 
L 3475 4300 
Q 3025 4300 2625 4275 
L 2625 4725 
Q 3000 4700 3450 4700 
L 5625 4700 
z
M 2550 3600 
Q 2300 3375 1725 2625 
L 1725 575 
Q 1725 50 1750 -600 
L 1250 -600 
Q 1275 50 1275 600 
L 1275 2150 
Q 925 1825 600 1550 
Q 450 1725 275 1900 
Q 850 2275 1337 2837 
Q 1825 3400 2100 3950 
Q 2300 3775 2550 3600 
z
M 2275 4850 
Q 2100 4650 1637 4150 
Q 1175 3650 750 3275 
Q 600 3450 375 3625 
Q 825 3925 1212 4337 
Q 1600 4750 1850 5175 
Q 2050 5000 2275 4850 
z
" transform="scale(0.015625)"/>
      <path id="SimHei-635f" d="M 1175 4600 
Q 1175 4950 1150 5250 
L 1675 5250 
Q 1650 4975 1650 4600 
L 1650 4075 
Q 1950 4075 2325 4100 
L 2325 3625 
Q 1950 3650 1650 3650 
L 1650 2500 
Q 1875 2550 2275 2750 
Q 2275 2550 2300 2300 
Q 2025 2200 1650 2025 
L 1650 175 
Q 1650 -225 1425 -325 
Q 1200 -425 625 -500 
Q 600 -250 450 50 
Q 800 25 987 37 
Q 1175 50 1175 350 
L 1175 1850 
Q 675 1675 400 1500 
Q 375 1800 250 2100 
Q 600 2150 1175 2350 
L 1175 3650 
Q 650 3650 325 3625 
L 325 4100 
Q 625 4075 1175 4075 
L 1175 4600 
z
M 5550 5025 
Q 5525 4650 5525 4275 
Q 5525 3925 5550 3525 
L 2900 3525 
Q 2925 3925 2925 4275 
Q 2925 4650 2900 5025 
L 5550 5025 
z
M 5775 3075 
Q 5750 2725 5750 2350 
L 5750 1725 
Q 5750 1350 5775 875 
L 5275 875 
L 5275 2650 
L 3150 2650 
L 3150 850 
L 2650 850 
Q 2675 1275 2675 1700 
L 2675 2325 
Q 2675 2600 2650 3075 
L 5775 3075 
z
M 4525 2200 
Q 4425 1825 4362 1337 
Q 4300 850 4125 537 
Q 3950 225 3600 -62 
Q 3250 -350 2425 -650 
Q 2325 -450 2050 -175 
Q 2750 -50 3137 200 
Q 3525 450 3700 762 
Q 3875 1075 3900 1462 
Q 3925 1850 3925 2275 
Q 4225 2225 4525 2200 
z
M 5100 3925 
L 5100 4650 
L 3375 4650 
L 3375 3925 
L 5100 3925 
z
M 4675 750 
Q 4975 575 5412 337 
Q 5850 100 6175 -125 
Q 5975 -325 5850 -550 
Q 5525 -300 5200 -87 
Q 4875 125 4375 350 
Q 4550 550 4675 750 
z
" transform="scale(0.015625)"/>
      <path id="SimHei-8017" d="M 5675 4400 
Q 5500 4375 5150 4300 
Q 4800 4225 4475 4150 
L 4475 3225 
Q 5025 3300 5700 3400 
L 5725 2975 
Q 5250 2925 4475 2800 
L 4475 1975 
Q 4725 2000 5087 2050 
Q 5450 2100 5975 2175 
L 6025 1725 
Q 5500 1675 4475 1550 
L 4475 250 
Q 4475 0 4750 0 
L 5175 0 
Q 5375 0 5425 137 
Q 5475 275 5500 675 
Q 5725 525 6075 450 
Q 5925 -75 5812 -237 
Q 5700 -400 5425 -400 
L 4525 -400 
Q 4000 -400 4000 150 
L 4000 1475 
Q 3325 1400 2975 1325 
L 2925 1775 
Q 3400 1825 4000 1900 
L 4000 2750 
Q 3850 2750 3200 2625 
L 3150 3075 
Q 3400 3100 4000 3175 
L 4000 4050 
Q 3675 3975 3250 3850 
Q 3175 4125 3050 4325 
Q 3650 4400 4062 4487 
Q 4475 4575 4787 4675 
Q 5100 4775 5400 4925 
Q 5500 4675 5675 4400 
z
M 200 400 
Q 750 925 1012 1325 
Q 1275 1725 1425 2100 
Q 875 2100 400 2075 
L 400 2525 
Q 875 2500 1200 2500 
L 1525 2500 
L 1525 3050 
Q 1050 3050 575 3025 
L 575 3475 
Q 1050 3450 1525 3450 
L 1525 3950 
L 1250 3950 
Q 950 3950 500 3925 
L 500 4375 
Q 950 4350 1250 4350 
L 1525 4350 
Q 1525 4825 1500 5100 
L 2025 5100 
Q 2000 4825 2000 4350 
Q 2450 4350 2950 4375 
L 2950 3925 
Q 2450 3950 2000 3950 
L 2000 3450 
Q 2375 3450 2775 3475 
L 2775 3025 
Q 2350 3050 2000 3050 
L 2000 2500 
Q 2550 2500 2925 2525 
L 2925 2075 
Q 2525 2100 2000 2100 
L 2000 150 
Q 2000 -175 2025 -575 
L 1500 -575 
Q 1525 -175 1525 150 
L 1525 1350 
Q 1175 700 650 100 
Q 425 300 200 400 
z
M 2450 1750 
Q 2550 1575 2975 1000 
Q 2750 875 2550 675 
Q 2450 900 2075 1450 
Q 2225 1550 2450 1750 
z
" transform="scale(0.015625)"/>
     </defs>
     <use xlink:href="#SimHei-41"/>
     <use xlink:href="#SimHei-32" transform="translate(50 0)"/>
     <use xlink:href="#SimHei-47" transform="translate(100 0)"/>
     <use xlink:href="#SimHei-2f" transform="translate(150 0)"/>
     <use xlink:href="#SimHei-47" transform="translate(200 0)"/>
     <use xlink:href="#SimHei-32" transform="translate(250 0)"/>
     <use xlink:href="#SimHei-47" transform="translate(300 0)"/>
     <use xlink:href="#SimHei-8def" transform="translate(350 0)"/>
     <use xlink:href="#SimHei-5f84" transform="translate(450 0)"/>
     <use xlink:href="#SimHei-635f" transform="translate(550 0)"/>
     <use xlink:href="#SimHei-8017" transform="translate(650 0)"/>
    </g>
   </g>
   <g id="text_5">
    <!-- ECR评价 -->
    <g style="fill: #1f2937" transform="translate(134.2852 179.239575) scale(0.14 -0.14)">
     <defs>
      <path id="SimHei-45" d="M 2900 125 
L 350 125 
L 350 4400 
L 2775 4400 
L 2775 3925 
L 925 3925 
L 925 2600 
L 2625 2600 
L 2625 2125 
L 925 2125 
L 925 600 
L 2900 600 
L 2900 125 
z
" transform="scale(0.015625)"/>
      <path id="SimHei-43" d="M 2975 1825 
Q 2950 875 2575 475 
Q 2200 75 1675 75 
Q 1075 75 650 562 
Q 225 1050 225 2125 
Q 225 3300 637 3875 
Q 1050 4450 1700 4450 
Q 2250 4450 2612 4037 
Q 2975 3625 2950 2875 
L 2400 2875 
Q 2400 3425 2225 3700 
Q 2050 3975 1700 3975 
Q 1300 3975 1062 3562 
Q 825 3150 825 2175 
Q 825 1275 1062 912 
Q 1300 550 1675 550 
Q 1950 550 2175 812 
Q 2400 1075 2400 1825 
L 2975 1825 
z
" transform="scale(0.015625)"/>
      <path id="SimHei-52" d="M 3000 125 
L 2400 125 
L 1500 1975 
L 850 1975 
L 850 125 
L 275 125 
L 275 4400 
L 1525 4400 
Q 2125 4400 2500 4112 
Q 2875 3825 2875 3175 
Q 2875 2675 2625 2400 
Q 2375 2125 2050 2050 
L 3000 125 
z
M 2300 3175 
Q 2300 3525 2087 3725 
Q 1875 3925 1400 3925 
L 850 3925 
L 850 2450 
L 1550 2450 
Q 1850 2450 2075 2612 
Q 2300 2775 2300 3175 
z
" transform="scale(0.015625)"/>
      <path id="SimHei-8bc4" d="M 5900 4500 
Q 5400 4525 4425 4525 
L 4425 2125 
L 5200 2125 
Q 5750 2125 6175 2150 
L 6175 1675 
Q 5775 1700 5200 1700 
L 4425 1700 
L 4425 200 
Q 4425 -300 4450 -675 
L 3900 -675 
Q 3925 -200 3925 200 
L 3925 1700 
L 3075 1700 
Q 2625 1700 2225 1675 
L 2225 2150 
Q 2625 2125 3075 2125 
L 3925 2125 
L 3925 4525 
Q 2850 4525 2425 4500 
L 2425 4975 
Q 2850 4950 3300 4950 
L 4950 4950 
Q 5400 4950 5900 4975 
L 5900 4500 
z
M 875 225 
Q 1150 400 1150 650 
L 1150 2875 
Q 475 2875 225 2850 
L 225 3350 
Q 475 3325 825 3325 
L 1650 3325 
Q 1625 2825 1625 2325 
L 1625 725 
Q 1900 975 2275 1375 
Q 2375 1225 2550 950 
Q 2100 550 1812 300 
Q 1525 50 1250 -250 
Q 1100 25 875 225 
z
M 4825 2625 
Q 5200 3425 5375 4050 
Q 5650 3975 5975 3850 
Q 5925 3800 5700 3325 
Q 5475 2850 5300 2450 
Q 5050 2575 4825 2625 
z
M 2850 4000 
Q 3275 3175 3450 2700 
Q 3150 2600 2950 2475 
Q 2700 3300 2400 3800 
Q 2650 3875 2850 4000 
z
M 1100 5225 
Q 1400 4975 1975 4275 
Q 1750 4125 1575 3950 
Q 1300 4350 750 4900 
Q 900 5025 1100 5225 
z
" transform="scale(0.015625)"/>
      <path id="SimHei-4ef7" d="M 2200 4975 
Q 2050 4725 1650 3775 
L 1650 450 
Q 1650 -225 1675 -650 
L 1175 -650 
Q 1175 -225 1200 450 
L 1200 2975 
Q 900 2425 650 2100 
Q 525 2275 225 2450 
Q 750 3025 1125 3800 
Q 1500 4575 1625 5175 
Q 1950 5025 2200 4975 
z
M 4175 4700 
Q 4850 3525 6150 2950 
Q 5925 2750 5775 2500 
Q 4725 3100 3950 4300 
Q 3300 3125 2250 2350 
Q 2125 2525 1900 2725 
Q 2825 3325 3250 4050 
Q 3675 4775 3750 5150 
Q 4150 4950 4325 4900 
L 4175 4700 
z
M 3475 2650 
Q 3400 2075 3325 1087 
Q 3250 100 2325 -675 
Q 2175 -450 1925 -300 
Q 2850 350 2912 1262 
Q 2975 2175 2950 2700 
Q 3275 2650 3475 2650 
z
M 5075 2700 
Q 5050 2150 5050 1725 
L 5050 150 
Q 5050 -225 5075 -650 
L 4550 -650 
Q 4575 -225 4575 175 
L 4575 1875 
Q 4575 2150 4550 2700 
L 5075 2700 
z
" transform="scale(0.015625)"/>
     </defs>
     <use xlink:href="#SimHei-45"/>
     <use xlink:href="#SimHei-43" transform="translate(50 0)"/>
     <use xlink:href="#SimHei-52" transform="translate(100 0)"/>
     <use xlink:href="#SimHei-8bc4" transform="translate(150 0)"/>
     <use xlink:href="#SimHei-4ef7" transform="translate(250 0)"/>
    </g>
    <!-- 覆盖指标 -->
    <g style="fill: #1f2937" transform="translate(130.7852 193.607075) scale(0.14 -0.14)">
     <defs>
      <path id="SimHei-8986" d="M 5325 875 
Q 5125 575 4925 350 
Q 4725 125 4400 -100 
Q 4750 -175 5150 -212 
Q 5550 -250 6000 -200 
Q 5900 -375 5825 -625 
Q 5275 -625 4825 -537 
Q 4375 -450 4025 -325 
Q 3325 -575 2275 -650 
Q 2225 -450 2025 -225 
Q 2475 -250 2875 -212 
Q 3275 -175 3650 -75 
Q 3375 125 3100 525 
Q 2775 275 2425 100 
Q 2300 300 2125 450 
Q 2450 525 2725 725 
Q 3000 925 3150 1150 
L 2550 1150 
Q 2575 1575 2575 1800 
L 2575 2375 
Q 2450 2275 2300 2175 
Q 2200 2350 2025 2500 
Q 2300 2675 2537 2900 
Q 2775 3125 2975 3400 
L 875 3400 
Q 900 3675 900 3950 
Q 900 4225 875 4475 
L 2275 4475 
L 2275 4825 
L 1500 4825 
Q 1100 4825 625 4800 
L 625 5175 
Q 1100 5150 1700 5150 
L 4900 5150 
Q 5425 5150 5825 5175 
L 5825 4800 
Q 5525 4825 5050 4825 
L 4125 4825 
L 4125 4475 
L 5575 4475 
Q 5550 4225 5550 3975 
Q 5550 3725 5575 3400 
L 3150 3400 
Q 3250 3325 3425 3250 
L 3275 3125 
L 4875 3125 
Q 5250 3125 5700 3150 
L 5700 2775 
Q 5325 2800 4875 2800 
L 3025 2800 
Q 2875 2675 2775 2575 
L 5425 2575 
Q 5400 2200 5400 1825 
Q 5400 1475 5425 1150 
L 3675 1150 
Q 3525 950 3450 875 
L 5325 875 
z
M 2150 1875 
Q 1975 1850 1625 1525 
L 1625 175 
Q 1625 -100 1650 -600 
L 1175 -600 
Q 1200 50 1200 250 
L 1200 1225 
Q 850 1000 450 750 
Q 400 925 200 1075 
Q 750 1350 1125 1625 
Q 1500 1900 1775 2250 
Q 1925 2075 2150 1875 
z
M 2200 3025 
Q 2000 2925 1625 2637 
Q 1250 2350 675 2000 
Q 550 2200 375 2325 
Q 875 2550 1225 2825 
Q 1575 3100 1800 3375 
Q 1975 3200 2200 3025 
z
M 5000 2000 
L 5000 2275 
L 3000 2275 
L 3000 2000 
L 5000 2000 
z
M 5000 1450 
L 5000 1700 
L 3000 1700 
L 3000 1450 
L 5000 1450 
z
M 5150 3725 
L 5150 4150 
L 4125 4150 
L 4125 3725 
L 5150 3725 
z
M 2275 3725 
L 2275 4150 
L 1300 4150 
L 1300 3725 
L 2275 3725 
z
M 3675 3725 
L 3675 4150 
L 2725 4150 
L 2725 3725 
L 3675 3725 
z
M 3675 4475 
L 3675 4825 
L 2725 4825 
L 2725 4475 
L 3675 4475 
z
M 4050 75 
Q 4400 300 4600 550 
L 3525 550 
Q 3700 300 4050 75 
z
" transform="scale(0.015625)"/>
      <path id="SimHei-76d6" d="M 5375 1550 
Q 5350 1100 5350 750 
L 5350 -50 
Q 5850 -50 6175 0 
L 6175 -475 
Q 5650 -450 4725 -450 
L 1400 -450 
Q 700 -450 200 -475 
L 200 0 
Q 600 -50 1000 -50 
L 1000 750 
Q 1000 1175 975 1550 
L 5375 1550 
z
M 3550 4375 
Q 3775 4700 3950 5300 
Q 4175 5150 4550 5050 
Q 4375 4900 4262 4712 
Q 4150 4525 4050 4375 
L 4875 4375 
Q 5275 4375 5700 4400 
L 5700 3950 
Q 5275 3975 4875 3975 
L 3425 3975 
L 3425 3375 
L 4500 3375 
Q 4875 3375 5325 3400 
L 5325 2950 
Q 4875 2975 4500 2975 
L 3425 2975 
L 3425 2425 
L 4850 2425 
Q 5300 2425 5925 2450 
L 5925 2025 
Q 5300 2050 5075 2050 
L 1350 2050 
Q 925 2050 525 2025 
L 525 2450 
Q 875 2425 1350 2425 
L 2950 2425 
L 2950 2975 
L 1825 2975 
Q 1525 2975 1100 2950 
L 1100 3400 
Q 1525 3375 1800 3375 
L 2950 3375 
L 2950 3975 
L 1725 3975 
Q 1125 3975 675 3950 
L 675 4400 
Q 1125 4375 1675 4375 
L 3550 4375 
z
M 2325 -50 
L 2325 1150 
L 1475 1150 
L 1475 -50 
L 2325 -50 
z
M 4875 -50 
L 4875 1150 
L 4050 1150 
L 4050 -50 
L 4875 -50 
z
M 3575 -50 
L 3575 1150 
L 2825 1150 
L 2825 -50 
L 3575 -50 
z
M 2375 5300 
Q 2625 4875 2750 4650 
Q 2500 4525 2275 4400 
Q 2150 4750 1925 5075 
Q 2200 5200 2375 5300 
z
" transform="scale(0.015625)"/>
      <path id="SimHei-6307" d="M 5625 2225 
Q 5600 1925 5600 1350 
L 5600 300 
Q 5600 -225 5625 -525 
L 5125 -525 
L 5125 -125 
L 3300 -125 
L 3300 -625 
L 2800 -625 
Q 2825 -300 2825 300 
L 2825 1350 
Q 2825 1925 2800 2225 
L 5625 2225 
z
M 500 25 
Q 1075 -25 1175 37 
Q 1275 100 1275 275 
L 1275 1675 
Q 1050 1600 925 1537 
Q 800 1475 475 1275 
Q 400 1525 225 1800 
Q 625 1900 825 1975 
Q 1025 2050 1275 2125 
L 1275 3300 
L 1100 3300 
Q 775 3300 450 3275 
L 450 3725 
Q 750 3700 1100 3700 
L 1275 3700 
L 1275 4450 
Q 1275 4800 1250 5125 
L 1775 5125 
Q 1750 4850 1750 4450 
L 1750 3700 
Q 2075 3700 2425 3725 
L 2425 3275 
Q 2050 3300 1750 3300 
L 1750 2325 
Q 1850 2350 2025 2425 
L 2375 2575 
Q 2350 2300 2375 2100 
Q 2225 2050 2062 1987 
Q 1900 1925 1750 1850 
L 1750 100 
Q 1725 -200 1575 -337 
Q 1425 -475 675 -525 
Q 625 -250 500 25 
z
M 3325 5025 
Q 3300 4675 3300 4125 
Q 4125 4275 4512 4412 
Q 4900 4550 5225 4725 
Q 5325 4475 5575 4250 
Q 5450 4225 5237 4175 
Q 5025 4125 4725 4050 
Q 4425 3975 4037 3887 
Q 3650 3800 3300 3725 
L 3300 3175 
Q 3275 2925 3700 2925 
L 4925 2925 
Q 5300 2925 5387 3087 
Q 5475 3250 5550 3600 
Q 5750 3400 6050 3300 
Q 5825 2725 5700 2637 
Q 5575 2550 5275 2525 
L 3350 2525 
Q 3050 2525 2937 2687 
Q 2825 2850 2825 2975 
L 2825 4125 
Q 2825 4775 2800 5025 
L 3325 5025 
z
M 5125 275 
L 5125 875 
L 3300 875 
L 3300 275 
L 5125 275 
z
M 5125 1250 
L 5125 1825 
L 3300 1825 
L 3300 1250 
L 5125 1250 
z
" transform="scale(0.015625)"/>
     </defs>
     <use xlink:href="#SimHei-8986"/>
     <use xlink:href="#SimHei-76d6" transform="translate(100 0)"/>
     <use xlink:href="#SimHei-6307" transform="translate(200 0)"/>
     <use xlink:href="#SimHei-6807" transform="translate(300 0)"/>
    </g>
   </g>
   <g id="text_6">
    <!-- $J_{\min}$评价 -->
    <g style="fill: #1f2937" transform="translate(312.4648 178.92895) scale(0.14 -0.14)">
     <defs>
      <path id="DejaVuSans-Oblique-4a" d="M 1069 4666 
L 1703 4666 
L 856 325 
Q 691 -522 298 -901 
Q -94 -1281 -800 -1281 
L -1050 -1281 
L -947 -750 
L -750 -750 
Q -328 -750 -109 -509 
Q 109 -269 225 325 
L 1069 4666 
z
" transform="scale(0.015625)"/>
      <path id="DejaVuSans-6d" d="M 3328 2828 
Q 3544 3216 3844 3400 
Q 4144 3584 4550 3584 
Q 5097 3584 5394 3201 
Q 5691 2819 5691 2113 
L 5691 0 
L 5113 0 
L 5113 2094 
Q 5113 2597 4934 2840 
Q 4756 3084 4391 3084 
Q 3944 3084 3684 2787 
Q 3425 2491 3425 1978 
L 3425 0 
L 2847 0 
L 2847 2094 
Q 2847 2600 2669 2842 
Q 2491 3084 2119 3084 
Q 1678 3084 1418 2786 
Q 1159 2488 1159 1978 
L 1159 0 
L 581 0 
L 581 3500 
L 1159 3500 
L 1159 2956 
Q 1356 3278 1631 3431 
Q 1906 3584 2284 3584 
Q 2666 3584 2933 3390 
Q 3200 3197 3328 2828 
z
" transform="scale(0.015625)"/>
      <path id="DejaVuSans-69" d="M 603 3500 
L 1178 3500 
L 1178 0 
L 603 0 
L 603 3500 
z
M 603 4863 
L 1178 4863 
L 1178 4134 
L 603 4134 
L 603 4863 
z
" transform="scale(0.015625)"/>
      <path id="DejaVuSans-6e" d="M 3513 2113 
L 3513 0 
L 2938 0 
L 2938 2094 
Q 2938 2591 2744 2837 
Q 2550 3084 2163 3084 
Q 1697 3084 1428 2787 
Q 1159 2491 1159 1978 
L 1159 0 
L 581 0 
L 581 3500 
L 1159 3500 
L 1159 2956 
Q 1366 3272 1645 3428 
Q 1925 3584 2291 3584 
Q 2894 3584 3203 3211 
Q 3513 2838 3513 2113 
z
" transform="scale(0.015625)"/>
     </defs>
     <use xlink:href="#DejaVuSans-Oblique-4a" transform="translate(0 0.359375)"/>
     <use xlink:href="#DejaVuSans-6d" transform="translate(29.492188 -16.046875) scale(0.7)"/>
     <use xlink:href="#DejaVuSans-69" transform="translate(97.680664 -16.046875) scale(0.7)"/>
     <use xlink:href="#DejaVuSans-6e" transform="translate(117.128906 -16.046875) scale(0.7)"/>
     <use xlink:href="#SimHei-8bc4" transform="translate(164.228516 0.359375)"/>
     <use xlink:href="#SimHei-4ef7" transform="translate(264.228516 0.359375)"/>
    </g>
    <!-- 最弱点压制指标 -->
    <g style="fill: #1f2937" transform="translate(289.0148 194.24145) scale(0.14 -0.14)">
     <defs>
      <path id="SimHei-6700" d="M 475 275 
Q 675 300 1100 350 
L 1100 2450 
Q 775 2450 425 2425 
L 425 2850 
Q 775 2825 1125 2825 
L 5025 2825 
Q 5475 2825 5900 2850 
L 5900 2425 
Q 5475 2450 5025 2450 
L 3050 2450 
L 3050 675 
L 3400 775 
Q 3400 550 3425 400 
Q 3225 350 3050 325 
Q 3050 -125 3075 -550 
L 2600 -550 
Q 2625 -125 2625 250 
Q 2350 200 1812 87 
Q 1275 -25 650 -175 
Q 575 100 475 275 
z
M 5100 4925 
Q 5075 4600 5075 4325 
L 5075 3875 
Q 5075 3600 5100 3250 
L 1275 3250 
Q 1300 3600 1300 3875 
L 1300 4325 
Q 1300 4600 1275 4925 
L 5100 4925 
z
M 3300 2050 
Q 3750 2025 4125 2025 
L 5375 2025 
Q 5100 975 4725 400 
Q 5350 0 5925 -100 
Q 5700 -275 5650 -500 
Q 5025 -300 4475 150 
Q 4150 -200 3600 -575 
Q 3500 -425 3250 -275 
Q 3775 -100 4150 350 
Q 3725 775 3500 1675 
L 3300 1675 
L 3300 2050 
z
M 4600 4250 
L 4600 4600 
L 1750 4600 
L 1750 4250 
L 4600 4250 
z
M 4600 3575 
L 4600 3900 
L 1750 3900 
L 1750 3575 
L 4600 3575 
z
M 3900 1675 
Q 4000 1075 4400 625 
Q 4700 1050 4850 1675 
L 3900 1675 
z
M 2625 1250 
L 2625 1675 
L 1525 1675 
L 1525 1250 
L 2625 1250 
z
M 2625 575 
L 2625 925 
L 1525 925 
L 1525 425 
L 2625 575 
z
M 2625 2025 
L 2625 2450 
L 1525 2450 
L 1525 2025 
L 2625 2025 
z
" transform="scale(0.015625)"/>
      <path id="SimHei-5f31" d="M 4475 -100 
Q 4975 -75 5112 -25 
Q 5250 25 5262 137 
Q 5275 250 5300 1025 
Q 4100 600 3475 275 
Q 3425 525 3200 775 
Q 3675 875 4187 1050 
Q 4700 1225 5300 1450 
L 5300 2325 
L 3475 2325 
Q 3500 2775 3525 3137 
Q 3550 3500 3550 3875 
L 5300 3875 
L 5300 4600 
L 4325 4600 
Q 3975 4600 3450 4575 
L 3450 5000 
Q 3975 4975 4325 4975 
L 5750 4975 
Q 5725 4625 5725 4225 
Q 5725 3850 5750 3450 
L 4000 3450 
L 3950 2700 
L 5800 2700 
Q 5750 2150 5725 1187 
Q 5700 225 5675 -12 
Q 5650 -250 5475 -387 
Q 5300 -525 4675 -625 
Q 4650 -325 4475 -100 
z
M 1650 -100 
Q 2225 -75 2350 12 
Q 2475 100 2475 950 
Q 1250 450 750 150 
Q 625 425 450 600 
Q 850 750 1300 912 
Q 1750 1075 2475 1400 
L 2475 2325 
L 750 2325 
Q 800 2875 812 3200 
Q 825 3525 875 3875 
L 2475 3875 
L 2475 4600 
L 1600 4600 
Q 1075 4600 750 4550 
L 750 5000 
Q 1075 4975 1550 4975 
L 2950 4975 
Q 2925 4625 2925 4225 
Q 2925 3850 2950 3450 
L 1275 3450 
L 1225 2700 
L 2950 2700 
Q 2925 2125 2912 1100 
Q 2900 75 2850 -100 
Q 2800 -275 2612 -375 
Q 2425 -475 1875 -625 
Q 1800 -350 1650 -100 
z
M 3600 1925 
Q 3800 2025 3975 2175 
Q 4250 1850 4600 1425 
Q 4375 1350 4200 1175 
Q 3925 1650 3600 1925 
z
M 1200 2175 
Q 1475 1900 1825 1475 
Q 1650 1350 1500 1200 
Q 1125 1650 900 1900 
Q 1075 2050 1200 2175 
z
" transform="scale(0.015625)"/>
      <path id="SimHei-70b9" d="M 3325 5200 
Q 3300 4925 3300 4375 
L 4900 4375 
Q 5275 4375 5725 4400 
L 5725 3925 
Q 5300 3950 4900 3950 
L 3300 3950 
L 3300 3225 
L 5225 3225 
Q 5200 2700 5200 2150 
Q 5200 1625 5225 1175 
L 1175 1175 
Q 1200 1625 1200 2175 
Q 1200 2725 1175 3225 
L 2775 3225 
L 2775 4500 
Q 2775 4900 2750 5200 
L 3325 5200 
z
M 4700 1600 
L 4700 2800 
L 1725 2800 
L 1725 1600 
L 4700 1600 
z
M 1500 750 
Q 1025 -250 825 -625 
Q 625 -475 325 -375 
Q 650 50 950 925 
Q 1200 800 1500 750 
z
M 5325 850 
Q 5775 150 6075 -350 
Q 5925 -425 5575 -625 
Q 5375 -150 4900 575 
Q 5150 700 5325 850 
z
M 3975 -575 
Q 3775 -100 3400 575 
Q 3575 675 3825 825 
Q 4350 -75 4450 -325 
Q 4200 -450 3975 -575 
z
M 2375 -575 
Q 2350 -300 1975 550 
Q 2200 625 2425 775 
Q 2800 -75 2900 -350 
Q 2625 -450 2375 -575 
z
" transform="scale(0.015625)"/>
      <path id="SimHei-538b" d="M 3300 2725 
L 3300 3475 
Q 3300 3875 3275 4150 
L 3850 4150 
Q 3800 3950 3800 3450 
L 3800 2725 
L 4700 2725 
Q 5225 2725 5475 2750 
L 5475 2200 
Q 5225 2225 4700 2225 
L 3800 2225 
L 3800 175 
L 4900 175 
Q 5525 175 5850 200 
L 5850 -325 
Q 5525 -300 4925 -300 
L 2375 -300 
Q 1725 -300 1450 -325 
L 1450 200 
Q 1825 175 2375 175 
L 3300 175 
L 3300 2225 
L 2725 2225 
Q 2075 2225 1850 2200 
L 1850 2750 
Q 2250 2725 2725 2725 
L 3300 2725 
z
M 4900 4950 
Q 5450 4950 5750 4975 
L 5750 4475 
Q 5500 4500 4900 4500 
L 1450 4500 
L 1450 2275 
Q 1450 1425 1262 725 
Q 1075 25 725 -650 
Q 525 -450 200 -325 
Q 625 300 775 862 
Q 925 1425 950 2125 
L 950 4000 
Q 925 4525 900 4950 
L 4900 4950 
z
M 4625 1850 
Q 5025 1325 5275 925 
Q 5000 775 4775 625 
Q 4525 1150 4225 1575 
Q 4450 1700 4625 1850 
z
" transform="scale(0.015625)"/>
      <path id="SimHei-5236" d="M 1325 4625 
Q 1175 4375 1075 4150 
L 1800 4150 
Q 1800 4775 1775 5125 
L 2350 5125 
Q 2325 4800 2325 4150 
L 2700 4150 
Q 3200 4150 3600 4175 
L 3600 3725 
Q 3250 3750 2725 3750 
L 2325 3750 
L 2325 3025 
L 2950 3025 
Q 3325 3025 3750 3050 
L 3750 2625 
L 2325 2625 
L 2325 1950 
L 3675 1950 
Q 3650 1650 3637 1125 
Q 3625 600 3612 412 
Q 3600 225 3400 137 
Q 3200 50 2825 -25 
Q 2775 250 2650 550 
Q 2975 550 3050 587 
Q 3125 625 3125 975 
L 3125 1550 
L 2325 1550 
L 2325 175 
Q 2325 -250 2350 -550 
L 1775 -550 
Q 1800 -75 1800 175 
L 1800 1550 
L 1025 1550 
L 1025 -25 
L 500 -25 
Q 525 300 525 650 
L 525 1200 
Q 525 1675 500 1950 
L 1800 1950 
L 1800 2625 
L 1000 2625 
Q 550 2625 225 2600 
L 225 3050 
Q 550 3025 1000 3025 
L 1800 3025 
L 1800 3750 
L 925 3750 
Q 800 3450 675 3250 
Q 450 3400 225 3500 
Q 400 3750 525 4075 
Q 650 4400 750 4800 
Q 1000 4700 1325 4625 
z
M 5875 5075 
Q 5850 4825 5850 4350 
L 5850 25 
Q 5850 -325 5587 -412 
Q 5325 -500 4825 -575 
Q 4750 -250 4625 0 
Q 5050 0 5200 25 
Q 5350 50 5350 350 
L 5350 4350 
Q 5350 4775 5325 5075 
L 5875 5075 
z
M 4675 4325 
Q 4650 3975 4650 3700 
L 4650 1625 
Q 4650 1275 4675 775 
L 4125 775 
Q 4175 1200 4175 1625 
L 4175 3700 
Q 4175 3950 4125 4325 
L 4675 4325 
z
" transform="scale(0.015625)"/>
     </defs>
     <use xlink:href="#SimHei-6700"/>
     <use xlink:href="#SimHei-5f31" transform="translate(100 0)"/>
     <use xlink:href="#SimHei-70b9" transform="translate(200 0)"/>
     <use xlink:href="#SimHei-538b" transform="translate(300 0)"/>
     <use xlink:href="#SimHei-5236" transform="translate(400 0)"/>
     <use xlink:href="#SimHei-6307" transform="translate(500 0)"/>
     <use xlink:href="#SimHei-6807" transform="translate(600 0)"/>
    </g>
   </g>
   <g id="text_7">
    <!-- 目标向量 -->
    <g style="fill: #1f2937" transform="translate(220.4 232.244187) scale(0.14 -0.14)">
     <defs>
      <path id="SimHei-5411" d="M 2025 4150 
Q 2125 4400 2187 4637 
Q 2250 4875 2300 5175 
Q 2750 5025 2925 5000 
Q 2650 4400 2550 4150 
L 5850 4150 
Q 5825 3700 5825 3275 
L 5825 225 
Q 5825 -325 5487 -412 
Q 5150 -500 4700 -525 
Q 4625 -175 4450 50 
Q 5075 25 5212 50 
Q 5350 75 5325 325 
L 5325 3700 
L 1250 3700 
L 1250 -500 
L 725 -500 
Q 725 150 750 550 
L 750 3250 
Q 725 3700 725 4150 
L 2025 4150 
z
M 4450 2825 
Q 4425 2500 4425 2175 
L 4425 1600 
Q 4425 1275 4450 900 
L 2025 900 
Q 2050 1250 2050 1600 
L 2050 2225 
Q 2050 2525 2025 2825 
L 4450 2825 
z
M 3900 1300 
L 3900 2425 
L 2550 2425 
L 2550 1300 
L 3900 1300 
z
" transform="scale(0.015625)"/>
      <path id="SimHei-91cf" d="M 5250 2500 
Q 5225 2200 5225 1700 
Q 5225 1225 5250 950 
L 3425 950 
L 3425 625 
L 4575 625 
Q 5000 625 5375 650 
L 5375 275 
Q 5025 300 4575 300 
L 3425 300 
L 3425 -75 
L 5125 -75 
Q 5525 -75 5925 -50 
L 5925 -425 
Q 5525 -400 5125 -400 
L 1275 -400 
Q 900 -400 475 -425 
L 475 -50 
Q 925 -50 1275 -75 
L 2975 -75 
L 2975 300 
L 1725 300 
Q 1350 300 975 250 
L 975 650 
Q 1375 625 1725 625 
L 2975 625 
L 2975 950 
L 1150 950 
Q 1175 1375 1175 1775 
Q 1175 2175 1150 2500 
L 5250 2500 
z
M 5200 4950 
Q 5175 4575 5175 4250 
Q 5175 3925 5200 3400 
L 1200 3400 
Q 1225 3925 1225 4250 
Q 1225 4575 1200 4950 
L 5200 4950 
z
M 4900 3100 
Q 5500 3125 6000 3150 
L 6000 2750 
Q 5500 2775 4925 2775 
L 1650 2775 
Q 975 2775 325 2750 
L 325 3150 
Q 975 3125 1650 3100 
L 4900 3100 
z
M 4725 3700 
L 4725 4025 
L 1675 4025 
L 1675 3700 
L 4725 3700 
z
M 4725 4350 
L 4725 4650 
L 1675 4650 
L 1675 4350 
L 4725 4350 
z
M 4750 1875 
L 4750 2175 
L 3425 2175 
L 3425 1875 
L 4750 1875 
z
M 2975 1875 
L 2975 2175 
L 1650 2175 
L 1650 1875 
L 2975 1875 
z
M 2975 1275 
L 2975 1550 
L 1650 1550 
L 1650 1275 
L 2975 1275 
z
M 4750 1275 
L 4750 1550 
L 3425 1550 
L 3425 1275 
L 4750 1275 
z
" transform="scale(0.015625)"/>
     </defs>
     <use xlink:href="#SimHei-76ee"/>
     <use xlink:href="#SimHei-6807" transform="translate(100 0)"/>
     <use xlink:href="#SimHei-5411" transform="translate(200 0)"/>
     <use xlink:href="#SimHei-91cf" transform="translate(300 0)"/>
    </g>
    <!-- 多目标比较 -->
    <g style="fill: #1f2937" transform="translate(213.4 246.672937) scale(0.14 -0.14)">
     <defs>
      <path id="SimHei-591a" d="M 3800 2950 
Q 4000 2750 4275 2650 
Q 4050 2450 3850 2275 
L 5925 2275 
Q 5625 1525 5137 975 
Q 4650 425 4050 125 
Q 3450 -175 2725 -375 
Q 2000 -575 950 -675 
Q 850 -400 650 -150 
Q 1275 -175 2137 -25 
Q 3000 125 3700 450 
Q 3250 900 2950 1175 
Q 3150 1325 3300 1500 
Q 3650 1150 4100 675 
Q 4425 875 4712 1187 
Q 5000 1500 5200 1900 
L 3475 1900 
Q 3225 1700 2775 1412 
Q 2325 1125 1525 775 
Q 1400 1025 1200 1175 
Q 2025 1425 2762 1950 
Q 3500 2475 3800 2950 
z
M 900 1850 
Q 800 2100 575 2325 
Q 1050 2350 1725 2525 
Q 2400 2700 2775 2900 
Q 2475 3300 2100 3600 
Q 2300 3750 2425 3925 
Q 2900 3475 3200 3125 
Q 3575 3350 3875 3612 
Q 4175 3875 4400 4175 
L 2250 4175 
Q 1725 3725 1025 3275 
Q 875 3500 650 3625 
Q 1325 3925 1875 4400 
Q 2425 4875 2600 5225 
Q 2800 5075 3025 4925 
Q 2900 4825 2625 4550 
L 5225 4550 
Q 4500 3500 3800 3025 
Q 3100 2550 2437 2312 
Q 1775 2075 900 1850 
z
" transform="scale(0.015625)"/>
      <path id="SimHei-6bd4" d="M 3775 5100 
Q 3750 4575 3750 4100 
L 3750 3050 
Q 4925 3600 5475 4175 
Q 5675 3900 5900 3675 
Q 5600 3500 5037 3187 
Q 4475 2875 3750 2550 
L 3750 450 
Q 3750 100 4050 100 
L 5000 100 
Q 5175 100 5262 250 
Q 5350 400 5450 900 
Q 5650 775 6025 675 
Q 5850 0 5650 -175 
Q 5450 -350 5225 -350 
L 3900 -350 
Q 3250 -350 3250 275 
L 3250 4000 
Q 3250 4550 3225 5100 
L 3775 5100 
z
M 1275 4975 
Q 1250 4575 1250 4000 
L 1250 3150 
L 1850 3150 
Q 2325 3150 2875 3175 
L 2875 2650 
Q 2325 2675 1850 2675 
L 1250 2675 
L 1250 475 
Q 1650 650 1962 812 
Q 2275 975 2850 1275 
Q 2900 950 2950 750 
Q 2375 475 1762 175 
Q 1150 -125 925 -325 
Q 750 -100 575 200 
Q 700 300 750 600 
L 750 3950 
Q 750 4550 725 4975 
L 1275 4975 
z
" transform="scale(0.015625)"/>
      <path id="SimHei-8f83" d="M 2950 1425 
Q 2925 1225 2925 1000 
Q 2725 975 2025 850 
Q 2025 225 2050 -625 
L 1525 -625 
Q 1550 225 1550 750 
Q 875 600 425 450 
Q 350 750 200 1000 
Q 625 1050 1550 1175 
L 1550 2100 
Q 1250 2100 937 2087 
Q 625 2075 425 2000 
L 275 2450 
Q 500 2675 662 3075 
Q 825 3475 950 3950 
Q 775 3950 350 3925 
L 350 4400 
Q 725 4350 1050 4350 
Q 1225 4800 1275 5250 
Q 1550 5150 1850 5075 
Q 1725 4775 1575 4350 
Q 2200 4350 2650 4375 
L 2650 3925 
Q 2200 3950 1450 3950 
Q 1300 3475 900 2500 
L 1550 2500 
Q 1550 3100 1525 3400 
L 2050 3400 
Q 2025 3050 2025 2500 
L 2675 2500 
L 2675 2100 
L 2025 2100 
L 2025 1250 
Q 2700 1375 2950 1425 
z
M 5450 2325 
Q 5300 1925 5100 1437 
Q 4900 950 4675 575 
Q 4900 375 5300 225 
Q 5700 75 6200 -25 
Q 6000 -275 5950 -575 
Q 5300 -375 4925 -162 
Q 4550 50 4325 250 
Q 4025 -25 3687 -212 
Q 3350 -400 2825 -625 
Q 2725 -375 2450 -125 
Q 3025 0 3425 212 
Q 3825 425 4025 625 
Q 3800 1000 3650 1425 
L 3350 2275 
Q 3550 2375 3850 2475 
Q 4000 1875 4100 1600 
Q 4200 1325 4350 1025 
Q 4525 1275 4650 1662 
Q 4775 2050 4850 2525 
Q 5125 2425 5450 2325 
z
M 5175 4400 
Q 5725 4425 6025 4425 
L 6025 3975 
Q 5725 4000 5200 4000 
L 3800 4000 
Q 3250 4000 2925 3975 
L 2925 4425 
Q 3350 4400 3800 4400 
L 5175 4400 
z
M 4150 3425 
Q 3875 3100 3175 2275 
Q 3025 2475 2775 2625 
Q 3425 3300 3675 3750 
Q 3875 3600 4150 3425 
z
M 5200 3750 
Q 5450 3500 6125 2750 
Q 5825 2550 5650 2400 
Q 5425 2775 4775 3425 
Q 4975 3600 5200 3750 
z
M 4275 5300 
Q 4625 4925 4775 4675 
Q 4525 4550 4300 4425 
Q 4225 4625 3850 5050 
Q 4075 5175 4275 5300 
z
" transform="scale(0.015625)"/>
     </defs>
     <use xlink:href="#SimHei-591a"/>
     <use xlink:href="#SimHei-76ee" transform="translate(100 0)"/>
     <use xlink:href="#SimHei-6807" transform="translate(200 0)"/>
     <use xlink:href="#SimHei-6bd4" transform="translate(300 0)"/>
     <use xlink:href="#SimHei-8f83" transform="translate(400 0)"/>
    </g>
   </g>
   <g id="text_8">
    <!-- 帕累托档案 -->
    <g style="fill: #1f2937" transform="translate(363.1672 232.438875) scale(0.14 -0.14)">
     <defs>
      <path id="SimHei-5e15" d="M 4850 5075 
Q 4675 4925 4500 4175 
L 5925 4175 
Q 5900 3875 5900 3125 
L 5900 525 
Q 5900 125 5925 -450 
L 5475 -450 
L 5475 225 
L 3625 225 
L 3625 -500 
L 3175 -500 
Q 3200 -75 3200 400 
L 3200 3150 
Q 3200 3800 3175 4175 
L 3975 4175 
Q 4075 4425 4200 5200 
Q 4400 5150 4850 5075 
z
M 1950 1125 
Q 2375 1025 2325 1275 
L 2325 3700 
L 1825 3700 
L 1825 475 
Q 1825 -75 1850 -550 
L 1350 -550 
Q 1375 -25 1375 475 
L 1375 3700 
L 875 3700 
L 875 425 
L 400 425 
Q 425 1000 425 1475 
L 425 3200 
Q 400 3700 400 4075 
L 1375 4075 
L 1375 4475 
Q 1375 4825 1350 5150 
L 1875 5150 
Q 1825 4850 1825 4475 
L 1825 4075 
L 2800 4075 
Q 2775 3700 2775 3225 
L 2775 1100 
Q 2775 825 2625 737 
Q 2475 650 2125 600 
Q 2125 875 1950 1125 
z
M 5475 600 
L 5475 2025 
L 3625 2025 
L 3625 600 
L 5475 600 
z
M 5475 2400 
L 5475 3800 
L 3625 3800 
L 3625 2400 
L 5475 2400 
z
" transform="scale(0.015625)"/>
      <path id="SimHei-7d2f" d="M 5475 5000 
Q 5450 4600 5450 3975 
Q 5450 3350 5475 2950 
L 4675 2950 
Q 4850 2775 5075 2600 
Q 4800 2525 4237 2275 
Q 3675 2025 3262 1837 
Q 2850 1650 2400 1425 
Q 3850 1525 4650 1575 
Q 4425 1725 4200 1850 
Q 4375 2000 4500 2175 
Q 5125 1800 5900 1300 
Q 5750 1125 5575 900 
Q 5375 1075 5100 1250 
Q 4250 1175 3475 1125 
L 3475 50 
Q 3475 -350 3212 -462 
Q 2950 -575 2600 -600 
Q 2575 -375 2375 -50 
Q 2800 -75 2900 -25 
Q 3000 25 3000 125 
L 3000 1075 
Q 2400 1050 1987 1012 
Q 1575 975 850 875 
Q 775 1125 700 1350 
Q 1150 1400 1575 1512 
Q 2000 1625 3025 2125 
Q 1775 2025 1250 1925 
Q 1200 2200 1100 2375 
Q 1325 2375 1737 2537 
Q 2150 2700 2475 2950 
L 950 2950 
Q 975 3375 975 3975 
Q 975 4600 950 5000 
L 5475 5000 
z
M 2425 525 
Q 2200 400 1762 137 
Q 1325 -125 850 -425 
Q 700 -225 500 -25 
Q 850 125 1250 362 
Q 1650 600 2025 900 
Q 2150 725 2425 525 
z
M 2975 4100 
L 2975 4650 
L 1450 4650 
L 1450 4100 
L 2975 4100 
z
M 4975 4100 
L 4975 4650 
L 3450 4650 
L 3450 4100 
L 4975 4100 
z
M 4275 850 
Q 4750 650 5050 500 
L 5850 100 
Q 5675 -125 5575 -375 
Q 5150 -100 4775 100 
Q 4400 300 4050 450 
Q 4200 675 4275 850 
z
M 2975 3275 
L 2975 3750 
L 1450 3750 
L 1450 3275 
L 2975 3275 
z
M 4975 3275 
L 4975 3750 
L 3450 3750 
L 3450 3275 
L 4975 3275 
z
M 3700 2475 
Q 4200 2700 4575 2950 
L 3225 2950 
Q 2900 2750 2300 2425 
Q 3075 2450 3700 2475 
z
" transform="scale(0.015625)"/>
      <path id="SimHei-6258" d="M 6025 2450 
Q 5725 2375 4250 2125 
L 4250 425 
Q 4250 75 4650 75 
L 5225 75 
Q 5425 75 5512 162 
Q 5600 250 5650 800 
Q 5900 600 6175 550 
Q 6100 0 5937 -175 
Q 5775 -350 5400 -350 
L 4350 -350 
Q 3825 -350 3750 100 
L 3750 2000 
Q 3125 1900 2725 1800 
L 2625 2300 
Q 3000 2325 3750 2450 
L 3750 4100 
Q 3125 4025 2775 3950 
Q 2700 4200 2600 4425 
Q 3000 4450 3812 4550 
Q 4625 4650 5575 4950 
Q 5650 4700 5850 4475 
Q 5475 4375 4250 4175 
L 4250 2550 
Q 5600 2800 6000 2900 
Q 6025 2650 6025 2450 
z
M 1300 3625 
Q 1300 4475 1275 5050 
L 1850 5050 
Q 1800 4450 1800 3625 
Q 2325 3625 2650 3650 
L 2650 3175 
Q 2325 3200 1800 3200 
L 1800 2200 
Q 2125 2375 2500 2575 
L 2550 2125 
Q 2325 2025 1800 1725 
L 1800 -125 
Q 1775 -325 1587 -437 
Q 1400 -550 800 -600 
Q 750 -300 625 -50 
Q 1025 -50 1162 -25 
Q 1300 0 1300 225 
L 1300 1500 
Q 700 1200 475 1025 
Q 400 1300 250 1550 
Q 525 1625 1300 1975 
L 1300 3200 
Q 725 3200 325 3175 
L 325 3650 
Q 700 3625 1300 3625 
z
" transform="scale(0.015625)"/>
      <path id="SimHei-6863" d="M 4425 5200 
Q 4400 5000 4400 4375 
L 4400 3000 
L 5775 3000 
Q 5750 2725 5750 2375 
L 5750 100 
Q 5750 -175 5775 -475 
L 5275 -475 
L 5275 50 
L 3225 50 
Q 2850 50 2500 25 
L 2500 500 
L 3150 450 
L 5275 450 
L 5275 1375 
L 3475 1375 
Q 3050 1375 2775 1350 
L 2775 1800 
Q 2925 1800 3350 1775 
L 5275 1775 
L 5275 2600 
L 3200 2600 
Q 2750 2575 2600 2575 
L 2600 3050 
Q 2875 3000 3100 3000 
L 3925 3000 
L 3925 4525 
Q 3900 5050 3875 5200 
L 4425 5200 
z
M 1675 5100 
Q 1650 4700 1650 4375 
L 1650 3750 
Q 2125 3750 2300 3775 
L 2300 3350 
Q 2125 3375 1650 3375 
L 1650 2525 
Q 1875 2675 2025 2825 
Q 2350 2350 2600 1975 
Q 2400 1825 2200 1650 
Q 1900 2150 1650 2450 
L 1650 450 
Q 1650 -75 1675 -600 
L 1150 -600 
Q 1175 -75 1175 450 
L 1175 2275 
Q 1050 1925 887 1637 
Q 725 1350 500 975 
Q 350 1300 200 1500 
Q 500 1850 737 2337 
Q 975 2825 1100 3350 
Q 550 3350 325 3325 
L 325 3775 
Q 575 3750 1175 3750 
L 1175 4350 
Q 1175 4725 1150 5100 
L 1675 5100 
z
M 4775 3575 
Q 4975 3875 5100 4187 
Q 5225 4500 5300 4800 
Q 5550 4675 5875 4550 
Q 5725 4375 5600 4075 
Q 5475 3775 5275 3375 
Q 5025 3500 4775 3575 
z
M 3050 4775 
Q 3275 4225 3475 3650 
Q 3225 3575 2975 3450 
Q 2775 4125 2575 4550 
Q 2825 4650 3050 4775 
z
" transform="scale(0.015625)"/>
     </defs>
     <use xlink:href="#SimHei-5e15"/>
     <use xlink:href="#SimHei-7d2f" transform="translate(100 0)"/>
     <use xlink:href="#SimHei-6258" transform="translate(200 0)"/>
     <use xlink:href="#SimHei-6863" transform="translate(300 0)"/>
     <use xlink:href="#SimHei-6848" transform="translate(400 0)"/>
    </g>
    <!-- 非支配解集 -->
    <g style="fill: #1f2937" transform="translate(363.1672 246.806375) scale(0.14 -0.14)">
     <defs>
      <path id="SimHei-975e" d="M 5950 675 
Q 5700 725 5275 725 
L 4025 725 
L 4025 150 
Q 4025 -325 4050 -600 
L 3525 -600 
Q 3550 -325 3550 100 
L 3550 4200 
Q 3550 4875 3525 5125 
L 4075 5125 
Q 4025 4875 4025 4600 
L 4025 4050 
L 5200 4050 
Q 5575 4050 5875 4075 
L 5875 3600 
Q 5575 3625 5150 3625 
L 4025 3625 
L 4025 2675 
L 5075 2675 
Q 5425 2675 5675 2700 
L 5675 2250 
Q 5450 2275 5075 2275 
L 4025 2275 
L 4025 1150 
L 5275 1150 
Q 5650 1150 5950 1175 
L 5950 675 
z
M 2150 4050 
L 2150 4600 
Q 2150 4775 2125 5075 
L 2675 5075 
Q 2650 4825 2650 4250 
L 2650 475 
Q 2650 -100 2675 -525 
L 2125 -525 
Q 2150 -100 2150 150 
L 2150 725 
L 1025 725 
Q 675 725 350 675 
L 350 1175 
Q 675 1150 1000 1150 
L 2150 1150 
L 2150 2275 
L 1400 2275 
Q 1050 2275 650 2250 
L 650 2700 
Q 1050 2675 1425 2675 
L 2150 2675 
L 2150 3625 
L 1100 3625 
Q 800 3625 425 3600 
L 425 4075 
Q 800 4050 1100 4050 
L 2150 4050 
z
" transform="scale(0.015625)"/>
      <path id="SimHei-652f" d="M 1175 2375 
L 1175 2775 
Q 1700 2750 2100 2750 
L 2950 2750 
L 2950 3750 
L 1575 3750 
Q 1125 3750 600 3725 
L 600 4200 
Q 1125 4175 1550 4175 
L 2950 4175 
Q 2950 4650 2925 5050 
L 3425 5050 
Q 3400 4650 3400 4175 
L 4900 4175 
Q 5300 4175 5800 4200 
L 5800 3725 
Q 5300 3750 4900 3750 
L 3400 3750 
L 3400 2750 
L 4950 2750 
Q 4650 2000 4312 1500 
Q 3975 1000 3625 675 
Q 4100 350 4712 200 
Q 5325 50 6000 50 
Q 5750 -275 5725 -475 
Q 4975 -400 4362 -175 
Q 3750 50 3225 400 
Q 2625 25 2000 -200 
Q 1375 -425 825 -525 
Q 750 -300 450 -50 
Q 1075 -25 1762 175 
Q 2450 375 2875 675 
Q 2225 1300 1775 2375 
L 1175 2375 
z
M 2250 2375 
Q 2675 1450 3250 950 
Q 3800 1350 4275 2375 
L 2250 2375 
z
" transform="scale(0.015625)"/>
      <path id="SimHei-914d" d="M 1250 3825 
L 1250 4575 
Q 675 4575 275 4550 
L 275 5025 
Q 700 5000 1750 5000 
Q 2800 5000 3300 5025 
L 3300 4550 
Q 2975 4575 2425 4575 
L 2425 3825 
L 3275 3825 
Q 3250 3000 3250 1700 
Q 3250 400 3275 -500 
L 2800 -500 
L 2800 -50 
L 875 -50 
L 875 -575 
L 425 -575 
Q 450 225 450 1725 
Q 450 3250 425 3825 
L 1250 3825 
z
M 3550 5050 
Q 4150 5025 4550 5025 
L 5775 5025 
Q 5750 4550 5750 3725 
Q 5750 2925 5775 2475 
L 4175 2475 
L 4175 225 
Q 4175 -100 4500 -100 
L 5300 -100 
Q 5500 -100 5562 125 
Q 5625 350 5625 700 
Q 5875 500 6175 450 
Q 6000 -175 5887 -350 
Q 5775 -525 5425 -525 
L 4175 -525 
Q 3725 -525 3725 75 
L 3725 2075 
Q 3725 2425 3700 2875 
L 5275 2875 
L 5275 4600 
Q 4025 4600 3550 4575 
L 3550 5050 
z
M 875 1225 
L 2800 1225 
L 2800 1800 
L 2300 1800 
Q 2025 1875 2025 2175 
L 2025 3450 
L 1625 3450 
Q 1625 2900 1575 2475 
Q 1525 2050 1300 1575 
Q 1125 1700 875 1750 
L 875 1225 
z
M 2800 350 
L 2800 875 
L 875 875 
L 875 350 
L 2800 350 
z
M 2400 2450 
Q 2400 2125 2800 2175 
L 2800 3450 
L 2400 3450 
L 2400 2450 
z
M 875 1850 
Q 1100 2150 1175 2537 
Q 1250 2925 1250 3450 
L 875 3450 
L 875 1850 
z
M 2025 3825 
L 2025 4575 
L 1625 4575 
L 1625 3825 
L 2025 3825 
z
" transform="scale(0.015625)"/>
      <path id="SimHei-96c6" d="M 2275 4925 
Q 2125 4800 2025 4662 
Q 1925 4525 1850 4350 
L 4925 4350 
Q 5300 4350 5750 4375 
L 5750 3975 
L 3650 3975 
L 3650 3575 
L 4625 3575 
Q 4925 3575 5325 3600 
L 5325 3175 
Q 4925 3200 4625 3200 
L 3650 3200 
L 3650 2800 
L 4675 2800 
Q 5000 2800 5425 2825 
L 5425 2400 
Q 5000 2425 4675 2425 
L 3650 2425 
L 3650 2075 
L 4875 2075 
Q 5275 2075 5675 2100 
L 5675 1675 
Q 5300 1700 4900 1700 
L 1650 1700 
L 1650 1500 
L 1150 1500 
Q 1200 1950 1200 2325 
L 1200 3475 
Q 1050 3250 937 3125 
Q 825 3000 675 2825 
Q 500 3000 300 3125 
Q 475 3325 875 3825 
Q 1275 4325 1462 4650 
Q 1650 4975 1725 5225 
Q 1950 5100 2275 4925 
z
M 2975 1200 
Q 2975 1300 2950 1625 
L 3475 1625 
Q 3450 1275 3450 1200 
L 5050 1200 
Q 5500 1200 5925 1225 
L 5925 825 
L 4150 825 
Q 4500 525 4925 362 
Q 5350 200 6100 25 
Q 5875 -225 5775 -475 
Q 5275 -300 4962 -162 
Q 4650 -25 4387 137 
Q 4125 300 3950 462 
Q 3775 625 3575 825 
L 3450 825 
L 3450 250 
Q 3450 -275 3500 -650 
L 2950 -650 
Q 2975 -300 2975 250 
L 2975 825 
L 2875 825 
Q 2700 575 2475 375 
Q 2250 175 1987 12 
Q 1725 -150 1425 -300 
Q 1125 -450 700 -575 
Q 600 -325 400 -75 
Q 925 50 1475 262 
Q 2025 475 2300 825 
L 500 825 
L 500 1225 
Q 800 1200 1400 1200 
L 2975 1200 
z
M 3150 2800 
L 3150 3200 
L 1650 3200 
L 1650 2800 
L 3150 2800 
z
M 3150 3575 
L 3150 3975 
L 1650 3975 
L 1650 3575 
L 3150 3575 
z
M 3150 2075 
L 3150 2425 
L 1650 2425 
L 1650 2075 
L 3150 2075 
z
M 3450 5250 
Q 3575 5150 3712 5000 
Q 3850 4850 4000 4650 
Q 3850 4525 3575 4375 
Q 3425 4575 3325 4700 
Q 3225 4825 3075 4950 
Q 3275 5075 3450 5250 
z
" transform="scale(0.015625)"/>
     </defs>
     <use xlink:href="#SimHei-975e"/>
     <use xlink:href="#SimHei-652f" transform="translate(100 0)"/>
     <use xlink:href="#SimHei-914d" transform="translate(200 0)"/>
     <use xlink:href="#SimHei-89e3" transform="translate(300 0)"/>
     <use xlink:href="#SimHei-96c6" transform="translate(400 0)"/>
    </g>
   </g>
  </g>
 </g>
 <defs>
  <clipPath id="p6c01239fd2">
   <rect x="2.88" y="2.88" width="491.04" height="271.656"/>
  </clipPath>
 </defs>
</svg>
