<?xml version="1.0" encoding="utf-8" standalone="no"?>
<!DOCTYPE svg PUBLIC "-//W3C//DTD SVG 1.1//EN"
  "http://www.w3.org/Graphics/SVG/1.1/DTD/svg11.dtd">
<svg xmlns:xlink="http://www.w3.org/1999/xlink" width="489.5484pt" height="210.888pt" viewBox="0 0 489.5484 210.888" xmlns="http://www.w3.org/2000/svg" version="1.1">
 <metadata>
  <rdf:RDF xmlns:dc="http://purl.org/dc/elements/1.1/" xmlns:cc="http://creativecommons.org/ns#" xmlns:rdf="http://www.w3.org/1999/02/22-rdf-syntax-ns#">
   <cc:Work>
    <dc:type rdf:resource="http://purl.org/dc/dcmitype/StillImage"/>
    <dc:date>2026-06-05T10:59:47.535606</dc:date>
    <dc:format>image/svg+xml</dc:format>
    <dc:creator>
     <cc:Agent>
      <dc:title>Matplotlib v3.10.6, https://matplotlib.org/</dc:title>
     </cc:Agent>
    </dc:creator>
   </cc:Work>
  </rdf:RDF>
 </metadata>
 <defs>
  <style type="text/css">*{stroke-linejoin: round; stroke-linecap: butt}</style>
 </defs>
 <g id="figure_1">
  <g id="patch_1">
   <path d="M 0 210.888 
L 489.5484 210.888 
L 489.5484 0 
L 0 0 
z
" style="fill: #ffffff"/>
  </g>
  <g id="axes_1">
   <g id="patch_2">
    <path d="M 79.25028 57.8916 
L 147.87312 57.8916 
Q 152.19204 57.8916 152.19204 53.6958 
L 152.19204 25.7238 
Q 152.19204 21.528 147.87312 21.528 
L 79.25028 21.528 
Q 74.93136 21.528 74.93136 25.7238 
L 74.93136 53.6958 
Q 74.93136 57.8916 79.25028 57.8916 
z
" clip-path="url(#p1ce2df5117)" style="fill: #e0f2fe; stroke: #0ea5e9; stroke-width: 1.35; stroke-linejoin: miter"/>
   </g>
   <g id="patch_3">
    <path d="M 165.62868 57.8916 
L 234.25152 57.8916 
Q 238.57044 57.8916 238.57044 53.6958 
L 238.57044 25.7238 
Q 238.57044 21.528 234.25152 21.528 
L 165.62868 21.528 
Q 161.30976 21.528 161.30976 25.7238 
L 161.30976 53.6958 
Q 161.30976 57.8916 165.62868 57.8916 
z
" clip-path="url(#p1ce2df5117)" style="fill: #e0f2fe; stroke: #0ea5e9; stroke-width: 1.35; stroke-linejoin: miter"/>
   </g>
   <g id="patch_4">
    <path d="M 252.00708 57.8916 
L 320.62992 57.8916 
Q 324.94884 57.8916 324.94884 53.6958 
L 324.94884 25.7238 
Q 324.94884 21.528 320.62992 21.528 
L 252.00708 21.528 
Q 247.68816 21.528 247.68816 25.7238 
L 247.68816 53.6958 
Q 247.68816 57.8916 252.00708 57.8916 
z
" clip-path="url(#p1ce2df5117)" style="fill: #e0f2fe; stroke: #0ea5e9; stroke-width: 1.35; stroke-linejoin: miter"/>
   </g>
   <g id="patch_5">
    <path d="M 108.04308 113.8356 
L 198.26052 113.8356 
Q 202.57944 113.8356 202.57944 109.6398 
L 202.57944 81.6678 
Q 202.57944 77.472 198.26052 77.472 
L 108.04308 77.472 
Q 103.72416 77.472 103.72416 81.6678 
L 103.72416 109.6398 
Q 103.72416 113.8356 108.04308 113.8356 
z
" clip-path="url(#p1ce2df5117)" style="fill: #dbeafe; stroke: #3b82f6; stroke-width: 1.35; stroke-linejoin: miter"/>
   </g>
   <g id="patch_6">
    <path d="M 237.61068 113.8356 
L 327.82812 113.8356 
Q 332.14704 113.8356 332.14704 109.6398 
L 332.14704 81.6678 
Q 332.14704 77.472 327.82812 77.472 
L 237.61068 77.472 
Q 233.29176 77.472 233.29176 81.6678 
L 233.29176 109.6398 
Q 233.29176 113.8356 237.61068 113.8356 
z
" clip-path="url(#p1ce2df5117)" style="fill: #dbeafe; stroke: #3b82f6; stroke-width: 1.35; stroke-linejoin: miter"/>
   </g>
   <g id="patch_7">
    <path d="M 105.64368 169.7796 
L 200.65992 169.7796 
Q 204.97884 169.7796 204.97884 165.5838 
L 204.97884 137.6118 
Q 204.97884 133.416 200.65992 133.416 
L 105.64368 133.416 
Q 101.32476 133.416 101.32476 137.6118 
L 101.32476 165.5838 
Q 101.32476 169.7796 105.64368 169.7796 
z
" clip-path="url(#p1ce2df5117)" style="fill: #fef3c7; stroke: #f59e0b; stroke-width: 1.35; stroke-linejoin: miter"/>
   </g>
   <g id="patch_8">
    <path d="M 223.21428 169.7796 
L 301.43472 169.7796 
Q 305.75364 169.7796 305.75364 165.5838 
L 305.75364 137.6118 
Q 305.75364 133.416 301.43472 133.416 
L 223.21428 133.416 
Q 218.89536 133.416 218.89536 137.6118 
L 218.89536 165.5838 
Q 218.89536 169.7796 223.21428 169.7796 
z
" clip-path="url(#p1ce2df5117)" style="fill: #dcfce7; stroke: #22c55e; stroke-width: 1.35; stroke-linejoin: miter"/>
   </g>
   <g id="patch_9">
    <path d="M 323.98908 169.7796 
L 402.20952 169.7796 
Q 406.52844 169.7796 406.52844 165.5838 
L 406.52844 137.6118 
Q 406.52844 133.416 402.20952 133.416 
L 323.98908 133.416 
Q 319.67016 133.416 319.67016 137.6118 
L 319.67016 165.5838 
Q 319.67016 169.7796 323.98908 169.7796 
z
" clip-path="url(#p1ce2df5117)" style="fill: #fee2e2; stroke: #ef4444; stroke-width: 1.35; stroke-linejoin: miter"/>
   </g>
   <g id="patch_10">
    <path d="M 381.57468 113.8356 
L 464.59392 113.8356 
Q 468.91284 113.8356 468.91284 109.6398 
L 468.91284 81.6678 
Q 468.91284 77.472 464.59392 77.472 
L 381.57468 77.472 
Q 377.25576 77.472 377.25576 81.6678 
L 377.25576 109.6398 
Q 377.25576 113.8356 381.57468 113.8356 
z
" clip-path="url(#p1ce2df5117)" style="fill: #f3e8ff; stroke: #a855f7; stroke-width: 1.35; stroke-linejoin: miter"/>
   </g>
   <g id="patch_11">
    <path d="M 116.536171 58.872259 
Q 128.437362 67.681343 139.125385 75.592457 
" clip-path="url(#p1ce2df5117)" style="fill: none; stroke: #4e5d6c; stroke-width: 1.35; stroke-linecap: round"/>
    <path d="M 136.290098 70.01024 
L 139.125385 75.592457 
L 132.958439 74.511357 
z
" clip-path="url(#p1ce2df5117)" style="fill: #4e5d6c; stroke: #4e5d6c; stroke-width: 1.35; stroke-linecap: round"/>
   </g>
   <g id="patch_12">
    <path d="M 196.746309 58.545828 
Q 181.463885 67.682299 167.476946 76.044275 
" clip-path="url(#p1ce2df5117)" style="fill: none; stroke: #4e5d6c; stroke-width: 1.35; stroke-linecap: round"/>
    <path d="M 173.72025 75.573996 
L 167.476946 76.044275 
L 170.846705 70.767465 
z
" clip-path="url(#p1ce2df5117)" style="fill: #4e5d6c; stroke: #4e5d6c; stroke-width: 1.35; stroke-linecap: round"/>
   </g>
   <g id="patch_13">
    <path d="M 285.484392 60.451147 
Q 284.398579 67.68447 283.536828 73.42517 
" clip-path="url(#p1ce2df5117)" style="fill: none; stroke: #4e5d6c; stroke-width: 1.35; stroke-linecap: round"/>
    <path d="M 287.13712 68.302876 
L 283.536828 73.42517 
L 281.599168 67.47156 
z
" clip-path="url(#p1ce2df5117)" style="fill: #4e5d6c; stroke: #4e5d6c; stroke-width: 1.35; stroke-linecap: round"/>
   </g>
   <g id="patch_14">
    <path d="M 205.137824 95.6538 
Q 217.935095 95.6538 229.22302 95.6538 
" clip-path="url(#p1ce2df5117)" style="fill: none; stroke: #4e5d6c; stroke-width: 1.35; stroke-linecap: round"/>
    <path d="M 223.62302 92.8538 
L 229.22302 95.6538 
L 223.62302 98.4538 
z
" clip-path="url(#p1ce2df5117)" style="fill: #4e5d6c; stroke: #4e5d6c; stroke-width: 1.35; stroke-linecap: round"/>
   </g>
   <g id="patch_15">
    <path d="M 153.1518 116.438854 
Q 153.1518 123.628095 153.1518 129.307991 
" clip-path="url(#p1ce2df5117)" style="fill: none; stroke: #4e5d6c; stroke-width: 1.35; stroke-linecap: round"/>
    <path d="M 155.9518 123.707991 
L 153.1518 129.307991 
L 150.3518 123.707991 
z
" clip-path="url(#p1ce2df5117)" style="fill: #4e5d6c; stroke: #4e5d6c; stroke-width: 1.35; stroke-linecap: round"/>
   </g>
   <g id="patch_16">
    <path d="M 279.052249 114.042596 
Q 225.252646 137.132017 168.255064 135.045328 
" clip-path="url(#p1ce2df5117)" style="fill: none; stroke: #4e5d6c; stroke-width: 1.35; stroke-linecap: round"/>
    <path d="M 173.748875 138.048333 
L 168.255064 135.045328 
L 173.953755 132.452082 
z
" clip-path="url(#p1ce2df5117)" style="fill: #4e5d6c; stroke: #4e5d6c; stroke-width: 1.35; stroke-linecap: round"/>
   </g>
   <g id="patch_17">
    <path d="M 207.537224 151.5978 
Q 211.934897 151.5978 214.823225 151.5978 
" clip-path="url(#p1ce2df5117)" style="fill: none; stroke: #4e5d6c; stroke-width: 1.35; stroke-linecap: round"/>
    <path d="M 209.223225 148.7978 
L 214.823225 151.5978 
L 209.223225 154.3978 
z
" clip-path="url(#p1ce2df5117)" style="fill: #4e5d6c; stroke: #4e5d6c; stroke-width: 1.35; stroke-linecap: round"/>
   </g>
   <g id="patch_18">
    <path d="M 308.312024 151.5978 
Q 312.709697 151.5978 315.598025 151.5978 
" clip-path="url(#p1ce2df5117)" style="fill: none; stroke: #4e5d6c; stroke-width: 1.35; stroke-linecap: round"/>
    <path d="M 309.998025 148.7978 
L 315.598025 151.5978 
L 309.998025 154.3978 
z
" clip-path="url(#p1ce2df5117)" style="fill: #4e5d6c; stroke: #4e5d6c; stroke-width: 1.35; stroke-linecap: round"/>
   </g>
   <g id="patch_19">
    <path d="M 366.975069 133.152397 
Q 387.812639 123.62602 407.277513 114.727203 
" clip-path="url(#p1ce2df5117)" style="fill: none; stroke: #4e5d6c; stroke-width: 1.35; stroke-linecap: round"/>
    <path d="M 401.020323 114.509086 
L 407.277513 114.727203 
L 403.348705 119.602084 
z
" clip-path="url(#p1ce2df5117)" style="fill: #4e5d6c; stroke: #4e5d6c; stroke-width: 1.35; stroke-linecap: round"/>
   </g>
   <g id="text_1">
    <!-- 输入层 -->
    <g style="fill: #0369a1" transform="translate(17.88 43.00125) scale(0.15 -0.15)">
     <defs>
      <path id="SimHei-8f93" d="M 3225 3650 
Q 2725 3100 2550 2950 
L 4100 2950 
Q 4075 2675 4075 2275 
L 4075 -100 
Q 4100 -325 3962 -425 
Q 3825 -525 3475 -600 
Q 3400 -350 3225 -100 
Q 3650 -100 3650 25 
L 3650 675 
L 2975 675 
L 2975 -575 
L 2525 -575 
Q 2550 -125 2550 325 
L 2550 2075 
Q 2550 2500 2525 2925 
L 2375 2800 
Q 2200 3000 1950 3100 
Q 2575 3525 3025 4087 
Q 3475 4650 3775 5300 
Q 4075 5150 4325 5100 
L 4225 4975 
Q 4700 4325 5225 3975 
Q 5750 3625 6200 3475 
Q 5975 3275 5825 3025 
Q 5275 3300 4875 3650 
L 4875 3350 
L 3225 3350 
L 3225 3650 
z
M 2225 825 
Q 1975 775 1725 675 
Q 1725 -100 1750 -650 
L 1275 -650 
Q 1300 -100 1300 575 
Q 725 425 475 325 
Q 400 575 250 825 
Q 650 875 1300 1025 
L 1300 1975 
Q 700 1925 400 1800 
L 225 2225 
Q 425 2350 600 2850 
Q 775 3350 875 3825 
Q 625 3825 350 3800 
L 350 4250 
Q 675 4225 950 4225 
Q 1050 4700 1075 5175 
Q 1400 5075 1675 5025 
Q 1525 4850 1400 4225 
Q 1925 4225 2300 4250 
L 2300 3800 
Q 1850 3825 1325 3825 
Q 1075 2900 825 2325 
L 1300 2375 
Q 1300 2700 1275 3125 
L 1750 3125 
Q 1725 2900 1725 2425 
L 2150 2475 
L 2150 2075 
L 1725 2025 
L 1725 1125 
L 2225 1250 
L 2225 825 
z
M 5775 2925 
Q 5750 2525 5750 2150 
L 5750 -100 
Q 5750 -375 5625 -475 
Q 5500 -575 5000 -675 
Q 4950 -450 4750 -175 
Q 5300 -200 5325 0 
L 5325 2100 
Q 5325 2500 5300 2925 
L 5775 2925 
z
M 4975 2700 
Q 4950 2400 4950 2000 
L 4950 900 
Q 4950 425 4975 125 
L 4475 125 
Q 4500 500 4500 875 
L 4500 2000 
Q 4500 2350 4475 2700 
L 4975 2700 
z
M 4750 3750 
Q 4450 4025 3975 4675 
Q 3575 4075 3300 3750 
L 4750 3750 
z
M 3650 2000 
L 3650 2575 
L 2975 2575 
L 2975 2000 
L 3650 2000 
z
M 3650 1075 
L 3650 1625 
L 2975 1625 
L 2975 1075 
L 3650 1075 
z
" transform="scale(0.015625)"/>
      <path id="SimHei-5165" d="M 5650 -375 
Q 5050 25 4500 650 
Q 3950 1275 3275 3050 
Q 2575 975 675 -475 
Q 575 -225 225 50 
Q 1850 825 2975 3525 
Q 2900 3725 2525 4125 
Q 2150 4525 1750 4675 
Q 2025 4900 2175 5125 
Q 2800 4650 3175 4225 
Q 3550 3800 4125 2375 
Q 4700 950 6125 250 
Q 5775 0 5650 -375 
z
" transform="scale(0.015625)"/>
      <path id="SimHei-5c42" d="M 5425 5025 
Q 5400 4500 5400 4175 
Q 5400 3875 5425 3425 
L 1475 3425 
Q 1475 2325 1375 1400 
Q 1275 475 725 -650 
Q 525 -500 275 -375 
Q 575 50 725 587 
Q 875 1125 950 1850 
Q 1025 2575 1025 3400 
Q 1025 4250 1000 5025 
L 5425 5025 
z
M 5075 1575 
Q 5450 1575 5900 1600 
L 5900 1125 
Q 5450 1150 5075 1150 
L 3525 1150 
Q 3100 425 2625 -25 
Q 3475 0 4825 50 
Q 4600 300 4300 600 
Q 4500 775 4675 925 
Q 5325 300 5900 -350 
Q 5725 -500 5475 -700 
Q 5325 -525 5150 -325 
Q 4325 -350 3412 -425 
Q 2500 -500 2150 -600 
Q 2050 -300 1925 -50 
Q 2175 25 2475 375 
Q 2775 725 2950 1150 
L 2425 1150 
Q 2125 1150 1600 1125 
L 1600 1600 
Q 2125 1575 2500 1575 
L 5075 1575 
z
M 4975 3850 
L 4975 4600 
L 1475 4600 
L 1475 3850 
L 4975 3850 
z
M 4475 2750 
Q 4975 2750 5400 2775 
L 5400 2300 
Q 5075 2325 4525 2325 
L 2925 2325 
Q 2525 2325 2075 2300 
L 2075 2775 
Q 2525 2750 2925 2750 
L 4475 2750 
z
" transform="scale(0.015625)"/>
     </defs>
     <use xlink:href="#SimHei-8f93"/>
     <use xlink:href="#SimHei-5165" transform="translate(100 0)"/>
     <use xlink:href="#SimHei-5c42" transform="translate(200 0)"/>
    </g>
   </g>
   <g id="text_2">
    <!-- 预处理层 -->
    <g style="fill: #1d4ed8" transform="translate(10.38 98.769469) scale(0.15 -0.15)">
     <defs>
      <path id="SimHei-9884" d="M 5200 4800 
Q 5575 4800 5950 4825 
L 5950 4400 
Q 5575 4425 5200 4425 
L 4500 4425 
Q 4425 4050 4350 3600 
L 5725 3600 
Q 5700 3225 5700 2800 
L 5700 1725 
Q 5700 1300 5725 850 
L 5250 850 
L 5250 3225 
L 3550 3225 
L 3550 800 
L 3075 800 
Q 3100 1375 3100 1725 
L 3100 2775 
Q 3100 3175 3075 3600 
L 3900 3600 
Q 4000 4150 4000 4425 
L 3725 4425 
Q 3300 4425 2850 4400 
L 2850 4825 
Q 3325 4800 3725 4800 
L 5200 4800 
z
M 2600 1775 
Q 2350 1825 2150 1825 
Q 2250 2250 2300 2450 
L 1750 2450 
L 1750 125 
Q 1725 -300 1425 -400 
Q 1125 -500 750 -500 
Q 700 -225 575 25 
Q 1125 -25 1212 37 
Q 1300 100 1300 350 
L 1300 2450 
L 1025 2450 
Q 700 2450 350 2425 
L 350 2850 
Q 700 2825 1000 2825 
L 2850 2825 
Q 2725 2325 2600 1775 
z
M 4725 2875 
Q 4625 2575 4600 2100 
Q 4575 1625 4462 1037 
Q 4350 450 3962 62 
Q 3575 -325 2925 -675 
Q 2700 -500 2475 -350 
Q 3075 -125 3437 200 
Q 3800 525 3950 937 
Q 4100 1350 4137 1850 
Q 4175 2350 4175 2925 
L 4725 2875 
z
M 1625 2900 
Q 1275 3275 800 3650 
Q 925 3775 1075 3950 
Q 1250 3825 1425 3675 
Q 1750 4150 1950 4375 
L 1400 4375 
Q 900 4375 450 4350 
L 450 4775 
Q 900 4750 1375 4750 
L 2575 4750 
L 2575 4375 
Q 2200 4100 1725 3400 
L 1950 3200 
Q 1750 3025 1625 2900 
z
M 4775 725 
Q 5725 0 6075 -325 
Q 5850 -500 5725 -650 
Q 5400 -325 5137 -87 
Q 4875 150 4525 350 
Q 4650 525 4775 725 
z
" transform="scale(0.015625)"/>
      <path id="SimHei-5904" d="M 2200 4925 
Q 2075 4800 2000 4587 
Q 1925 4375 1825 4050 
L 3425 4050 
Q 3375 3600 3325 3287 
Q 3275 2975 3187 2587 
Q 3100 2200 2950 1762 
Q 2800 1325 2625 1000 
Q 2800 800 3137 575 
Q 3475 350 3975 212 
Q 4475 75 5037 37 
Q 5600 0 6175 25 
Q 5925 -275 5875 -550 
Q 5100 -550 4512 -437 
Q 3925 -325 3587 -212 
Q 3250 -100 2912 137 
Q 2575 375 2325 650 
Q 1950 275 1600 0 
Q 1250 -275 600 -625 
Q 425 -350 225 -200 
Q 775 0 1287 350 
Q 1800 700 2025 1025 
Q 1725 1425 1550 1825 
Q 1375 2225 1225 2650 
Q 875 1975 700 1725 
Q 500 1925 250 2000 
Q 475 2250 725 2675 
Q 975 3100 1137 3500 
Q 1300 3900 1412 4350 
Q 1525 4800 1575 5150 
Q 1850 5000 2200 4925 
z
M 4500 5100 
Q 4475 4725 4475 4275 
L 4475 1775 
Q 4475 1250 4500 450 
L 3975 450 
Q 4000 1250 4000 1775 
L 4000 4275 
Q 4000 4725 3975 5100 
L 4500 5100 
z
M 1525 3200 
Q 1625 2775 1825 2312 
Q 2025 1850 2325 1475 
Q 2525 1900 2662 2437 
Q 2800 2975 2875 3625 
L 1700 3625 
Q 1575 3350 1525 3200 
z
M 4975 3675 
Q 5250 3350 5575 3000 
Q 5900 2650 6150 2350 
Q 5975 2250 5700 1975 
Q 5500 2275 5225 2637 
Q 4950 3000 4600 3375 
Q 4800 3500 4975 3675 
z
" transform="scale(0.015625)"/>
      <path id="SimHei-7406" d="M 5825 4850 
Q 5800 4525 5800 3425 
Q 5800 2350 5825 1875 
L 4450 1875 
L 4450 1125 
L 5200 1125 
Q 5650 1125 5900 1150 
L 5900 700 
Q 5625 725 5200 725 
L 4450 725 
L 4450 -125 
L 5350 -125 
Q 5825 -125 6150 -100 
L 6150 -550 
Q 5825 -525 5375 -525 
L 2950 -525 
Q 2550 -525 2250 -550 
L 2250 -100 
Q 2575 -125 2950 -125 
L 3975 -125 
L 3975 725 
L 3150 725 
Q 2825 725 2575 700 
L 2575 1150 
Q 2825 1125 3150 1125 
L 3975 1125 
L 3975 1875 
L 2625 1875 
Q 2650 2250 2650 3400 
Q 2650 4550 2625 4850 
L 5825 4850 
z
M 1750 4525 
Q 2025 4525 2350 4550 
L 2350 4075 
Q 2000 4100 1750 4100 
L 1525 4100 
L 1525 2750 
Q 1875 2750 2225 2775 
L 2225 2300 
Q 1875 2325 1525 2325 
L 1525 725 
Q 2000 900 2325 1050 
Q 2375 800 2425 625 
Q 1950 475 1362 237 
Q 775 0 450 -200 
Q 350 50 225 325 
Q 550 375 1075 600 
L 1075 2325 
Q 625 2325 300 2300 
L 300 2775 
Q 650 2750 1075 2750 
L 1075 4100 
L 775 4100 
Q 550 4100 225 4075 
L 225 4550 
Q 550 4525 775 4525 
L 1750 4525 
z
M 5325 2275 
L 5325 3175 
L 4450 3175 
L 4450 2275 
L 5325 2275 
z
M 5325 3550 
L 5325 4450 
L 4450 4450 
L 4450 3550 
L 5325 3550 
z
M 3975 2275 
L 3975 3175 
L 3125 3175 
L 3125 2275 
L 3975 2275 
z
M 3975 3550 
L 3975 4450 
L 3125 4450 
L 3125 3550 
L 3975 3550 
z
" transform="scale(0.015625)"/>
     </defs>
     <use xlink:href="#SimHei-9884"/>
     <use xlink:href="#SimHei-5904" transform="translate(100 0)"/>
     <use xlink:href="#SimHei-7406" transform="translate(200 0)"/>
     <use xlink:href="#SimHei-5c42" transform="translate(300 0)"/>
    </g>
   </g>
   <g id="text_3">
    <!-- 优化与输出 -->
    <g style="fill: #b45309" transform="translate(2.88 154.859953) scale(0.15 -0.15)">
     <defs>
      <path id="SimHei-4f18" d="M 4650 350 
Q 4625 100 4825 50 
Q 5025 0 5200 12 
Q 5375 25 5462 125 
Q 5550 225 5650 800 
Q 5825 625 6200 525 
Q 6050 -25 5912 -200 
Q 5775 -375 5475 -400 
L 4700 -400 
Q 4175 -400 4175 200 
L 4175 3050 
L 3850 3050 
Q 3725 600 2375 -550 
Q 2200 -325 1875 -225 
Q 3175 675 3350 3050 
L 2900 3050 
Q 2350 3050 1975 3025 
L 1975 3475 
Q 2350 3450 2900 3450 
L 3375 3450 
Q 3375 4700 3350 5150 
Q 3525 5100 3925 5075 
Q 3850 4700 3850 3450 
L 5200 3450 
Q 5475 3450 5925 3475 
L 5925 3025 
Q 5500 3050 5225 3050 
L 4650 3050 
L 4650 350 
z
M 200 2375 
Q 525 2700 1000 3612 
Q 1475 4525 1600 5200 
Q 1850 5050 2225 4925 
Q 2000 4700 1700 3825 
L 1700 600 
Q 1700 -150 1725 -525 
L 1200 -525 
Q 1225 -175 1225 575 
L 1225 2975 
Q 900 2425 550 1975 
Q 425 2200 200 2375 
z
M 4850 5025 
Q 5000 4800 5150 4587 
Q 5300 4375 5450 4200 
Q 5250 4075 5025 3875 
Q 4875 4175 4450 4725 
Q 4625 4850 4850 5025 
z
" transform="scale(0.015625)"/>
      <path id="SimHei-5316" d="M 3925 5025 
Q 3900 4900 3900 4400 
L 3900 2625 
Q 4375 3025 4775 3450 
Q 5175 3875 5400 4300 
Q 5600 4100 5900 3925 
Q 5700 3700 5225 3212 
Q 4750 2725 4487 2512 
Q 4225 2300 3900 2025 
L 3900 450 
Q 3900 50 4225 50 
L 5200 50 
Q 5400 75 5462 262 
Q 5525 450 5575 850 
Q 5800 650 6150 600 
Q 6000 -100 5825 -250 
Q 5650 -400 5350 -400 
L 3950 -400 
Q 3425 -400 3400 200 
L 3400 1675 
Q 3225 1525 2962 1350 
Q 2700 1175 2375 975 
Q 2225 1225 2025 1400 
Q 2350 1550 2737 1787 
Q 3125 2025 3400 2250 
L 3400 4500 
Q 3400 4800 3375 5025 
L 3925 5025 
z
M 2400 4850 
Q 2175 4550 2075 4337 
Q 1975 4125 1825 3775 
L 1825 675 
Q 1825 -75 1850 -550 
L 1325 -550 
Q 1350 -125 1350 650 
L 1350 3050 
Q 1125 2725 962 2525 
Q 800 2325 675 2175 
Q 500 2375 275 2525 
Q 625 2850 875 3212 
Q 1125 3575 1312 3912 
Q 1500 4250 1625 4575 
Q 1750 4900 1825 5100 
Q 1975 4975 2400 4850 
z
" transform="scale(0.015625)"/>
      <path id="SimHei-4e0e" d="M 5350 100 
Q 5275 -300 4925 -425 
Q 4575 -550 3900 -600 
Q 3875 -375 3650 -25 
Q 4375 -50 4575 0 
Q 4775 50 4837 225 
Q 4900 400 5100 2350 
L 1125 2350 
Q 1450 4350 1475 5200 
Q 1800 5150 2075 5125 
Q 1975 4825 1900 4275 
L 4900 4275 
Q 5400 4275 5800 4300 
L 5800 3825 
Q 5400 3850 4950 3850 
L 1850 3850 
L 1700 2750 
L 5675 2750 
Q 5625 2450 5575 2050 
L 5350 100 
z
M 3675 1350 
Q 4125 1350 4500 1375 
L 4500 875 
Q 4125 900 3850 900 
L 1450 900 
Q 1000 900 500 875 
L 500 1375 
Q 1000 1350 1450 1350 
L 3675 1350 
z
" transform="scale(0.015625)"/>
      <path id="SimHei-51fa" d="M 1475 4550 
Q 1450 4225 1450 3950 
L 1450 2950 
L 2925 2950 
L 2925 4425 
Q 2925 4775 2900 5125 
L 3425 5125 
Q 3400 4825 3400 4425 
L 3400 2950 
L 4900 2950 
L 4900 3875 
Q 4900 4275 4875 4525 
L 5400 4525 
Q 5375 4275 5375 3850 
L 5375 3175 
Q 5375 2775 5400 2525 
L 3400 2525 
L 3400 225 
L 5125 225 
L 5125 1275 
Q 5125 1650 5100 1925 
L 5625 1925 
Q 5600 1650 5600 1300 
L 5600 175 
Q 5600 -325 5625 -650 
L 5125 -650 
L 5125 -200 
L 675 -200 
Q 700 100 700 525 
L 700 1275 
Q 700 1700 675 1950 
L 1200 1950 
Q 1175 1700 1175 1275 
L 1175 225 
L 2925 225 
L 2925 2525 
L 950 2525 
Q 975 2775 975 3150 
L 975 3925 
Q 975 4250 950 4550 
L 1475 4550 
z
" transform="scale(0.015625)"/>
     </defs>
     <use xlink:href="#SimHei-4f18"/>
     <use xlink:href="#SimHei-5316" transform="translate(100 0)"/>
     <use xlink:href="#SimHei-4e0e" transform="translate(200 0)"/>
     <use xlink:href="#SimHei-8f93" transform="translate(300 0)"/>
     <use xlink:href="#SimHei-51fa" transform="translate(400 0)"/>
    </g>
   </g>
   <g id="text_4">
    <!-- 部署区域 -->
    <g style="fill: #1f2937" transform="translate(87.5617 37.431753) scale(0.13 -0.13)">
     <defs>
      <path id="SimHei-90e8" d="M 5300 2650 
Q 5750 2200 5962 1812 
Q 6175 1425 6150 1025 
Q 6125 625 5812 412 
Q 5500 200 4875 125 
Q 4825 400 4650 725 
Q 5250 725 5437 862 
Q 5625 1000 5612 1225 
Q 5600 1450 5350 1850 
Q 5100 2250 4775 2575 
Q 4975 3025 5300 4300 
L 4400 4300 
L 4400 -625 
L 3900 -625 
Q 3925 -100 3925 575 
L 3925 3625 
Q 3925 4175 3875 4725 
L 5975 4725 
Q 5575 3425 5300 2650 
z
M 3225 1775 
Q 3200 1200 3200 625 
Q 3200 50 3225 -575 
L 2725 -575 
L 2725 -75 
L 1375 -75 
L 1375 -575 
L 875 -575 
Q 900 -50 900 525 
Q 900 1125 875 1775 
L 3225 1775 
z
M 1925 5275 
Q 2325 4775 2450 4550 
Q 2300 4475 2175 4400 
Q 3225 4400 3500 4425 
L 3500 3950 
Q 3325 3950 2825 3975 
L 3250 3775 
Q 3075 3500 2750 2800 
Q 3350 2800 3675 2825 
L 3675 2350 
Q 3350 2375 3025 2375 
L 1150 2375 
Q 700 2375 400 2350 
L 400 2825 
Q 575 2800 1350 2800 
Q 1175 3225 900 3675 
Q 1100 3775 1325 3900 
Q 1575 3550 1850 3025 
Q 1600 2900 1475 2800 
L 2275 2800 
Q 2600 3575 2675 3975 
L 2075 3975 
Q 925 3975 575 3950 
L 575 4425 
Q 875 4400 1925 4400 
Q 1725 4800 1525 5025 
Q 1750 5150 1925 5275 
z
M 2725 325 
L 2725 1375 
L 1375 1375 
L 1375 325 
L 2725 325 
z
" transform="scale(0.015625)"/>
      <path id="SimHei-7f72" d="M 3325 3600 
Q 3300 3350 3300 3175 
Q 3875 3175 4350 3225 
L 4350 2775 
Q 4925 3225 5100 3500 
Q 5275 3250 5600 3125 
Q 5325 2950 5000 2737 
Q 4675 2525 4400 2325 
L 5200 2325 
Q 5600 2325 6000 2350 
L 6000 1925 
Q 5600 1950 5200 1950 
L 3775 1950 
Q 3600 1850 3150 1600 
L 5175 1600 
Q 5150 1150 5150 500 
Q 5150 -125 5175 -550 
L 4700 -550 
L 4700 -350 
L 1975 -350 
L 1975 -625 
L 1475 -625 
Q 1500 -150 1500 800 
Q 1025 625 575 475 
Q 500 700 325 900 
Q 700 975 1500 1275 
L 1500 1600 
L 2200 1600 
Q 2700 1800 2975 1950 
L 1175 1950 
Q 775 1950 425 1925 
L 425 2350 
Q 775 2325 1200 2325 
L 2825 2325 
L 2825 2775 
L 1825 2775 
Q 1425 2775 1075 2750 
L 1075 3225 
Q 1425 3175 1825 3175 
L 2825 3175 
L 2825 3600 
L 3325 3600 
z
M 5375 5025 
Q 5350 4675 5350 4325 
Q 5350 4000 5375 3700 
L 1025 3700 
Q 1050 4075 1050 4375 
Q 1050 4675 1025 5025 
L 5375 5025 
z
M 1975 775 
L 4700 775 
L 4700 1200 
L 2375 1200 
Q 2100 1075 1975 1000 
L 1975 775 
z
M 4700 50 
L 4700 425 
L 1975 425 
L 1975 50 
L 4700 50 
z
M 2350 4050 
L 2350 4650 
L 1500 4650 
L 1500 4050 
L 2350 4050 
z
M 3625 4050 
L 3625 4650 
L 2800 4650 
L 2800 4050 
L 3625 4050 
z
M 4900 4050 
L 4900 4650 
L 4075 4650 
L 4075 4050 
L 4900 4050 
z
M 3625 2325 
Q 3775 2425 4325 2775 
L 3300 2775 
L 3300 2325 
L 3625 2325 
z
" transform="scale(0.015625)"/>
      <path id="SimHei-533a" d="M 5850 4525 
Q 5475 4550 4850 4550 
L 1150 4550 
L 1150 -75 
L 5225 -75 
Q 5725 -75 6025 -50 
L 6025 -500 
Q 5700 -475 5175 -475 
L 625 -475 
Q 650 125 650 400 
L 650 4200 
Q 650 4625 625 4975 
L 5850 4975 
L 5850 4525 
z
M 2275 3875 
Q 3150 3275 3800 2700 
Q 4375 3375 4650 4050 
Q 4925 3875 5300 3700 
Q 5025 3525 4825 3225 
Q 4625 2925 4225 2375 
Q 5075 1675 5600 1000 
Q 5300 800 5175 575 
Q 4775 1175 3850 1950 
Q 3475 1525 3087 1175 
Q 2700 825 2125 400 
Q 1900 625 1625 775 
Q 2125 1000 2525 1312 
Q 2925 1625 3475 2300 
Q 2850 2875 1925 3450 
Q 2175 3650 2275 3875 
z
" transform="scale(0.015625)"/>
      <path id="SimHei-57df" d="M 4550 5100 
Q 4475 4775 4500 4150 
L 5025 4150 
Q 5450 4150 5950 4175 
L 5950 3700 
Q 5475 3725 5025 3725 
L 4525 3725 
Q 4550 3050 4600 2462 
Q 4650 1875 4775 1275 
Q 4975 1850 5050 2275 
Q 5125 2700 5175 3200 
Q 5425 3075 5750 3000 
Q 5675 2875 5537 2337 
Q 5400 1800 5287 1450 
Q 5175 1100 5025 700 
Q 5125 450 5312 237 
Q 5500 25 5587 212 
Q 5675 400 5750 700 
Q 5900 525 6200 400 
Q 6000 -100 5800 -337 
Q 5600 -575 5250 -325 
Q 4900 -75 4725 300 
Q 4575 75 4362 -175 
Q 4150 -425 3875 -650 
Q 3750 -525 3400 -325 
Q 3750 -150 4037 162 
Q 4325 475 4475 775 
Q 4350 1175 4287 1512 
Q 4225 1850 4162 2450 
Q 4100 3050 4075 3725 
L 3150 3725 
Q 2525 3725 1975 3700 
L 1975 4175 
Q 2525 4150 3150 4150 
L 4050 4150 
Q 4025 4600 3950 5175 
Q 4250 5125 4550 5100 
z
M 975 4250 
Q 975 4800 950 5100 
L 1450 5100 
Q 1425 4750 1425 4250 
L 1425 3325 
Q 1625 3325 2000 3350 
L 2000 2900 
Q 1625 2925 1425 2925 
L 1425 1000 
Q 1550 1075 2000 1275 
Q 1975 1075 2000 775 
Q 1675 625 1200 425 
Q 725 225 500 50 
Q 375 325 250 575 
Q 475 625 662 687 
Q 850 750 975 825 
L 975 2925 
Q 625 2925 300 2900 
L 300 3350 
Q 600 3325 975 3325 
L 975 4250 
z
M 3800 1750 
Q 3800 1425 3825 1150 
L 2225 1150 
Q 2250 1375 2250 1575 
L 2250 2525 
Q 2250 2825 2225 3075 
L 3825 3075 
Q 3800 2875 3800 2675 
L 3800 1750 
z
M 1900 225 
Q 2300 300 2850 462 
Q 3400 625 3825 800 
Q 3800 600 3800 350 
Q 3500 250 3012 75 
Q 2525 -100 2125 -275 
Q 2025 -25 1900 225 
z
M 3350 1525 
L 3350 2700 
L 2725 2700 
L 2725 1525 
L 3350 1525 
z
M 5300 4325 
Q 5150 4625 4900 4925 
Q 5050 5050 5250 5150 
Q 5450 4900 5700 4575 
Q 5475 4475 5300 4325 
z
" transform="scale(0.015625)"/>
     </defs>
     <use xlink:href="#SimHei-90e8"/>
     <use xlink:href="#SimHei-7f72" transform="translate(100 0)"/>
     <use xlink:href="#SimHei-533a" transform="translate(200 0)"/>
     <use xlink:href="#SimHei-57df" transform="translate(300 0)"/>
    </g>
    <!-- 复杂多边形 -->
    <g style="fill: #1f2937" transform="translate(81.0617 50.773003) scale(0.13 -0.13)">
     <defs>
      <path id="SimHei-590d" d="M 2125 1200 
Q 1900 975 1687 787 
Q 1475 600 1100 350 
Q 1000 475 725 675 
Q 1225 950 1587 1275 
Q 1950 1600 2125 1950 
L 1450 1950 
Q 1475 2250 1475 2575 
L 1475 3825 
Q 1175 3525 700 3150 
Q 525 3375 325 3525 
Q 925 3850 1337 4300 
Q 1750 4750 1975 5200 
Q 2225 5050 2475 4975 
Q 2350 4875 2125 4600 
L 4850 4600 
Q 5150 4600 5750 4625 
L 5750 4200 
Q 5350 4225 5000 4225 
L 1900 4225 
Q 1700 4025 1500 3850 
L 5225 3850 
Q 5200 3500 5200 2875 
Q 5200 2275 5225 1950 
L 2675 1950 
Q 2575 1800 2400 1575 
L 5125 1575 
Q 4825 1100 4512 775 
Q 4200 450 3850 200 
Q 4250 75 4837 -25 
Q 5425 -125 6125 -150 
Q 6000 -325 5875 -650 
Q 4825 -500 4237 -350 
Q 3650 -200 3375 -75 
Q 2750 -325 2162 -450 
Q 1575 -575 725 -675 
Q 600 -350 500 -200 
Q 1225 -200 1950 -75 
Q 2675 50 2950 175 
Q 2425 475 1925 900 
Q 2175 1050 2275 1200 
L 2125 1200 
z
M 4750 3075 
L 4750 3475 
L 1925 3475 
L 1925 3075 
L 4750 3075 
z
M 4750 2325 
L 4750 2700 
L 1925 2700 
L 1925 2325 
L 4750 2325 
z
M 2325 1200 
Q 2800 725 3425 400 
Q 3900 675 4300 1200 
L 2325 1200 
z
" transform="scale(0.015625)"/>
      <path id="SimHei-6742" d="M 6100 3200 
Q 5975 2675 5812 2462 
Q 5650 2250 5300 2250 
L 4650 2250 
Q 4350 2250 4250 2462 
Q 4150 2675 4175 2925 
L 4175 4050 
L 2800 4050 
Q 2700 3600 2525 3287 
Q 2350 2975 2062 2737 
Q 1775 2500 1475 2350 
Q 1175 2200 725 2100 
Q 650 2300 400 2525 
Q 1150 2675 1637 3037 
Q 2125 3400 2300 4050 
L 1525 4050 
Q 1175 4050 875 4025 
L 875 4525 
Q 1175 4500 1525 4500 
L 2400 4500 
Q 2425 4950 2425 5250 
Q 2550 5225 2975 5225 
Q 2925 4975 2875 4500 
L 4675 4500 
Q 4650 4225 4650 3750 
L 4650 3250 
Q 4625 2900 4700 2800 
Q 4775 2700 4925 2700 
L 5225 2700 
Q 5375 2700 5450 2862 
Q 5525 3025 5550 3425 
Q 5800 3300 6100 3200 
z
M 2975 1975 
Q 2975 2225 2950 2850 
L 3475 2850 
Q 3450 2375 3450 1975 
L 5150 1975 
Q 5500 1975 5925 2000 
L 5925 1550 
Q 5500 1575 5150 1575 
L 3450 1575 
L 3450 -75 
Q 3450 -600 2550 -700 
Q 2525 -425 2375 -150 
Q 2975 -200 2975 100 
L 2975 1575 
L 1250 1575 
Q 950 1575 500 1550 
L 500 2000 
Q 950 1975 1250 1975 
L 2975 1975 
z
M 300 75 
Q 600 200 1025 550 
Q 1450 900 1725 1300 
Q 1925 1150 2225 900 
Q 1800 550 1412 212 
Q 1025 -125 625 -350 
Q 475 -125 300 75 
z
M 5575 -325 
Q 5000 200 4075 825 
Q 4275 1025 4400 1200 
Q 5450 525 5950 50 
L 5575 -325 
z
" transform="scale(0.015625)"/>
      <path id="SimHei-591a" d="M 3800 2950 
Q 4000 2750 4275 2650 
Q 4050 2450 3850 2275 
L 5925 2275 
Q 5625 1525 5137 975 
Q 4650 425 4050 125 
Q 3450 -175 2725 -375 
Q 2000 -575 950 -675 
Q 850 -400 650 -150 
Q 1275 -175 2137 -25 
Q 3000 125 3700 450 
Q 3250 900 2950 1175 
Q 3150 1325 3300 1500 
Q 3650 1150 4100 675 
Q 4425 875 4712 1187 
Q 5000 1500 5200 1900 
L 3475 1900 
Q 3225 1700 2775 1412 
Q 2325 1125 1525 775 
Q 1400 1025 1200 1175 
Q 2025 1425 2762 1950 
Q 3500 2475 3800 2950 
z
M 900 1850 
Q 800 2100 575 2325 
Q 1050 2350 1725 2525 
Q 2400 2700 2775 2900 
Q 2475 3300 2100 3600 
Q 2300 3750 2425 3925 
Q 2900 3475 3200 3125 
Q 3575 3350 3875 3612 
Q 4175 3875 4400 4175 
L 2250 4175 
Q 1725 3725 1025 3275 
Q 875 3500 650 3625 
Q 1325 3925 1875 4400 
Q 2425 4875 2600 5225 
Q 2800 5075 3025 4925 
Q 2900 4825 2625 4550 
L 5225 4550 
Q 4500 3500 3800 3025 
Q 3100 2550 2437 2312 
Q 1775 2075 900 1850 
z
" transform="scale(0.015625)"/>
      <path id="SimHei-8fb9" d="M 3450 3950 
Q 3450 4750 3425 5250 
Q 3800 5175 4050 5175 
Q 3975 4825 3950 3950 
L 5725 3950 
Q 5650 3525 5625 3100 
L 5500 1150 
Q 5475 725 5062 612 
Q 4650 500 4300 400 
Q 4275 725 4050 1050 
Q 4650 1075 4837 1137 
Q 5025 1200 5050 1450 
L 5175 3500 
L 3925 3500 
Q 3825 2500 3525 1837 
Q 3225 1175 2625 500 
Q 2400 725 2075 900 
Q 2625 1275 2987 1937 
Q 3350 2600 3425 3500 
Q 2825 3500 2275 3450 
L 2275 3975 
Q 2725 3950 3450 3950 
z
M 1625 2900 
Q 1600 2475 1600 2125 
L 1600 675 
Q 2225 50 3775 0 
Q 5325 -50 6200 50 
Q 5950 -150 5925 -550 
Q 5125 -550 4350 -525 
Q 3575 -500 2925 -387 
Q 2275 -275 1850 75 
Q 1425 425 1187 175 
Q 950 -75 725 -550 
Q 500 -325 225 -150 
Q 875 350 1100 625 
L 1100 2450 
Q 650 2450 225 2425 
L 225 2925 
Q 725 2900 1150 2900 
L 1625 2900 
z
M 1150 5075 
Q 1600 4200 1700 3900 
Q 1450 3825 1175 3675 
Q 1150 3925 650 4875 
Q 925 4975 1150 5075 
z
" transform="scale(0.015625)"/>
      <path id="SimHei-5f62" d="M 2750 4850 
Q 3350 4850 3675 4875 
L 3675 4425 
Q 3400 4450 2950 4450 
L 2950 2700 
Q 3475 2700 3725 2725 
L 3725 2250 
Q 3500 2275 2950 2275 
L 2950 500 
Q 2950 -50 2975 -350 
L 2475 -350 
Q 2500 0 2500 475 
L 2500 2275 
L 1650 2275 
Q 1600 1075 1325 437 
Q 1050 -200 825 -500 
Q 550 -300 300 -250 
Q 700 150 937 762 
Q 1175 1375 1200 2275 
Q 775 2275 425 2250 
L 425 2725 
Q 775 2700 1225 2700 
L 1225 4450 
Q 800 4450 600 4425 
L 600 4875 
Q 800 4850 1375 4850 
L 2750 4850 
z
M 6100 1275 
Q 5850 1050 5150 462 
Q 4450 -125 3800 -525 
Q 3650 -300 3400 -100 
Q 4050 175 4725 750 
Q 5400 1325 5625 1650 
Q 5800 1450 6100 1275 
z
M 2500 2700 
L 2500 4450 
L 1675 4450 
L 1675 2700 
L 2500 2700 
z
M 5875 2975 
Q 5650 2825 5187 2300 
Q 4725 1775 3900 1175 
Q 3750 1375 3475 1550 
Q 4175 1950 4625 2412 
Q 5075 2875 5375 3325 
Q 5700 3050 5875 2975 
z
M 5675 4800 
Q 5425 4575 5062 4087 
Q 4700 3600 4075 2975 
Q 3850 3150 3625 3275 
Q 4175 3750 4475 4125 
Q 4775 4500 5125 5100 
Q 5250 5025 5675 4800 
z
" transform="scale(0.015625)"/>
     </defs>
     <use xlink:href="#SimHei-590d"/>
     <use xlink:href="#SimHei-6742" transform="translate(100 0)"/>
     <use xlink:href="#SimHei-591a" transform="translate(200 0)"/>
     <use xlink:href="#SimHei-8fb9" transform="translate(300 0)"/>
     <use xlink:href="#SimHei-5f62" transform="translate(400 0)"/>
    </g>
   </g>
   <g id="text_5">
    <!-- 雷达/干扰 -->
    <g style="fill: #1f2937" transform="translate(170.6901 37.466284) scale(0.13 -0.13)">
     <defs>
      <path id="SimHei-96f7" d="M 5375 2125 
Q 5325 1525 5325 1125 
L 5325 275 
Q 5325 -200 5375 -625 
L 4850 -625 
L 4850 -250 
L 1525 -250 
L 1525 -650 
L 1000 -650 
Q 1025 -250 1025 325 
L 1025 1125 
Q 1025 1700 1000 2125 
L 5375 2125 
z
M 5500 3100 
L 5500 3850 
L 3450 3850 
L 3450 3200 
Q 3450 2700 3475 2250 
L 2950 2250 
L 2950 3850 
L 925 3850 
L 925 3100 
L 375 3100 
Q 400 3375 400 3650 
Q 400 3950 375 4225 
L 2950 4225 
L 2950 4675 
L 1750 4675 
Q 1375 4675 900 4650 
L 900 5050 
Q 1300 5025 1700 5025 
L 4650 5025 
Q 5050 5025 5525 5050 
L 5525 4650 
Q 5075 4675 4650 4675 
L 3450 4675 
L 3450 4225 
L 6025 4225 
Q 6000 4050 6000 3650 
Q 6000 3275 6025 3100 
L 5500 3100 
z
M 2950 125 
L 2950 750 
L 1525 750 
L 1525 125 
L 2950 125 
z
M 4850 125 
L 4850 750 
L 3450 750 
L 3450 125 
L 4850 125 
z
M 2950 1125 
L 2950 1725 
L 1525 1725 
L 1525 1125 
L 2950 1125 
z
M 4850 1125 
L 4850 1725 
L 3450 1725 
L 3450 1125 
L 4850 1125 
z
M 2525 2450 
L 1275 2450 
L 1275 2800 
L 2525 2800 
L 2525 2450 
z
M 5100 2450 
L 3875 2450 
L 3875 2800 
L 5100 2800 
L 5100 2450 
z
M 2525 3175 
L 1300 3175 
L 1300 3525 
L 2525 3525 
L 2525 3175 
z
M 5075 3175 
L 3850 3175 
L 3850 3525 
L 5075 3525 
L 5075 3175 
z
" transform="scale(0.015625)"/>
      <path id="SimHei-8fbe" d="M 1700 2975 
Q 1675 2500 1675 2225 
L 1675 775 
Q 2025 350 2600 150 
Q 3175 -50 4375 -50 
Q 5600 -50 6150 75 
Q 5975 -325 5975 -550 
Q 4925 -575 4212 -550 
Q 3500 -525 3025 -437 
Q 2550 -350 2287 -225 
Q 2025 -100 1737 137 
Q 1450 375 1212 125 
Q 975 -125 700 -475 
Q 525 -300 275 -100 
Q 625 200 1175 700 
L 1175 2550 
Q 825 2550 375 2525 
L 375 3000 
Q 900 2975 1700 2975 
z
M 3700 3700 
Q 3700 4800 3675 5225 
Q 4100 5175 4275 5150 
Q 4200 4825 4175 3700 
Q 5475 3700 5875 3725 
L 5875 3225 
Q 5475 3250 4150 3250 
Q 4075 2400 3687 1700 
Q 3300 1000 2500 375 
Q 2400 575 2125 775 
Q 2775 1225 3162 1812 
Q 3550 2400 3650 3250 
Q 2625 3250 2150 3225 
L 2150 3725 
Q 2625 3700 3700 3700 
z
M 4475 2450 
Q 5600 1225 5925 800 
Q 5675 650 5450 425 
Q 5075 1000 4100 2100 
Q 4275 2225 4475 2450 
z
M 1100 5125 
Q 1575 4575 1950 4075 
Q 1725 3900 1525 3700 
Q 1125 4325 700 4800 
Q 900 4925 1100 5125 
z
" transform="scale(0.015625)"/>
      <path id="SimHei-2f" d="M 3000 4550 
L 350 -175 
L 100 -25 
L 2750 4700 
L 3000 4550 
z
" transform="scale(0.015625)"/>
      <path id="SimHei-5e72" d="M 4625 4775 
Q 5050 4775 5500 4800 
L 5500 4300 
Q 5050 4325 4625 4325 
L 3475 4325 
L 3475 2525 
L 5225 2525 
Q 5700 2525 6000 2550 
L 6000 2050 
Q 5700 2075 5225 2075 
L 3475 2075 
L 3475 325 
Q 3475 -75 3500 -625 
L 2925 -625 
Q 2950 -100 2950 325 
L 2950 2075 
L 1225 2075 
Q 775 2075 400 2050 
L 400 2550 
Q 775 2525 1225 2525 
L 2950 2525 
L 2950 4325 
L 1925 4325 
Q 1450 4325 925 4300 
L 925 4800 
Q 1450 4775 1800 4775 
L 4625 4775 
z
" transform="scale(0.015625)"/>
      <path id="SimHei-6270" d="M 4575 425 
Q 4575 0 4950 0 
L 5250 0 
Q 5400 0 5450 150 
Q 5500 300 5500 575 
Q 5750 425 6025 375 
Q 5950 50 5862 -175 
Q 5775 -400 5500 -425 
L 4825 -425 
Q 4125 -425 4125 300 
L 4125 3075 
L 3875 3075 
Q 3800 1550 3375 725 
Q 2950 -100 2425 -575 
Q 2275 -375 1950 -275 
Q 2375 25 2687 487 
Q 3000 950 3187 1537 
Q 3375 2125 3400 3075 
Q 3000 3075 2650 3050 
L 2650 3500 
Q 2975 3475 3400 3475 
Q 3425 4225 3375 5125 
Q 3700 5100 3950 5075 
Q 3900 4925 3887 4550 
Q 3875 4175 3875 3475 
L 5050 3475 
Q 5575 3475 5850 3500 
L 5850 3050 
Q 5550 3075 5100 3075 
L 4575 3075 
L 4575 425 
z
M 1775 5150 
Q 1750 4750 1750 3675 
Q 2000 3675 2425 3700 
L 2425 3250 
Q 2000 3275 1750 3275 
L 1750 2275 
Q 2025 2400 2350 2575 
Q 2325 2400 2375 2125 
Q 2175 2050 1750 1825 
L 1750 0 
Q 1750 -325 1512 -450 
Q 1275 -575 825 -650 
Q 800 -350 600 -125 
Q 1275 -125 1275 100 
L 1275 1650 
Q 850 1425 575 1275 
Q 475 1525 325 1750 
Q 675 1850 1275 2100 
L 1275 3275 
Q 725 3275 450 3250 
L 450 3700 
Q 800 3675 1275 3675 
Q 1275 4675 1250 5150 
L 1775 5150 
z
M 5200 3750 
Q 4825 4300 4450 4675 
Q 4650 4800 4800 4975 
Q 5175 4550 5600 4025 
Q 5450 3950 5200 3750 
z
" transform="scale(0.015625)"/>
     </defs>
     <use xlink:href="#SimHei-96f7"/>
     <use xlink:href="#SimHei-8fbe" transform="translate(100 0)"/>
     <use xlink:href="#SimHei-2f" transform="translate(200 0)"/>
     <use xlink:href="#SimHei-5e72" transform="translate(250 0)"/>
     <use xlink:href="#SimHei-6270" transform="translate(350 0)"/>
    </g>
    <!-- 参数 -->
    <g style="fill: #1f2937" transform="translate(186.9401 50.636909) scale(0.13 -0.13)">
     <defs>
      <path id="SimHei-53c2" d="M 3325 4850 
Q 3100 4725 2850 4500 
Q 2600 4275 2175 3925 
Q 2850 3950 3275 3950 
Q 3700 3950 4200 3975 
Q 3950 4200 3600 4450 
Q 3800 4625 3925 4775 
Q 4900 4100 5325 3675 
Q 5100 3475 4925 3300 
Q 4750 3475 4550 3625 
Q 3625 3600 3200 3575 
Q 3025 3250 2925 3125 
L 5075 3125 
Q 5575 3125 5950 3150 
L 5950 2700 
Q 5600 2725 5075 2725 
L 4325 2725 
Q 4675 2350 5187 2075 
Q 5700 1800 6150 1700 
Q 5850 1550 5675 1225 
Q 5100 1525 4612 1900 
Q 4125 2275 3800 2725 
L 2725 2725 
Q 2325 2300 1812 1962 
Q 1300 1625 650 1325 
Q 525 1525 250 1700 
Q 725 1825 1237 2100 
Q 1750 2375 2100 2725 
L 1475 2725 
Q 950 2725 375 2700 
L 375 3150 
Q 875 3125 1475 3125 
L 2400 3125 
L 2550 3350 
L 2650 3550 
Q 1925 3500 1775 3475 
Q 1625 3450 1500 3425 
Q 1375 3725 1300 3875 
Q 1600 3950 2050 4337 
Q 2500 4725 2825 5225 
Q 3025 5050 3325 4850 
z
M 5350 800 
Q 5025 650 4612 437 
Q 4200 225 3850 75 
Q 3500 -75 3062 -212 
Q 2625 -350 2150 -450 
Q 1675 -550 1225 -600 
Q 1150 -350 900 -150 
Q 1675 -125 2362 25 
Q 3050 175 3512 387 
Q 3975 600 4312 800 
Q 4650 1000 4900 1250 
Q 5100 1025 5350 800 
z
M 4550 1450 
Q 4350 1375 4037 1200 
Q 3725 1025 3350 862 
Q 2975 700 2512 550 
Q 2050 400 1575 325 
Q 1450 575 1250 775 
Q 1775 800 2175 900 
Q 2575 1000 3075 1212 
Q 3575 1425 4125 1850 
Q 4300 1675 4550 1450 
z
M 3900 2075 
Q 3575 1950 3350 1825 
Q 3125 1700 2687 1525 
Q 2250 1350 1750 1200 
Q 1625 1425 1450 1600 
Q 2025 1700 2587 1937 
Q 3150 2175 3500 2500 
Q 3700 2275 3900 2075 
z
" transform="scale(0.015625)"/>
      <path id="SimHei-6570" d="M 4525 4925 
Q 4475 4800 4400 4587 
Q 4325 4375 4175 3825 
L 5325 3825 
Q 5575 3825 5925 3850 
L 5925 3400 
Q 5650 3425 5500 3425 
Q 5500 3025 5362 2162 
Q 5225 1300 4875 675 
Q 5125 375 5437 137 
Q 5750 -100 6025 -200 
Q 5725 -425 5625 -625 
Q 5325 -450 5075 -225 
Q 4825 0 4575 325 
Q 4300 25 3987 -187 
Q 3675 -400 3200 -650 
Q 3075 -425 2850 -300 
Q 3225 -150 3650 125 
Q 4075 400 4300 675 
Q 4125 1025 3962 1425 
Q 3800 1825 3675 2475 
Q 3600 2275 3425 1950 
Q 3250 2050 3000 2150 
Q 3400 2850 3650 3675 
Q 3900 4500 3975 5100 
Q 4275 4975 4525 4925 
z
M 2100 2250 
Q 2000 2150 1875 1925 
L 3250 1925 
Q 3100 1300 2725 675 
Q 3125 525 3350 400 
Q 3225 225 3125 25 
Q 2900 175 2450 325 
Q 1950 -225 725 -650 
Q 600 -375 400 -275 
Q 1575 0 2000 475 
Q 1300 650 850 775 
Q 1000 1000 1250 1525 
Q 1000 1525 425 1500 
L 425 1950 
Q 900 1925 1400 1925 
Q 1500 2150 1550 2425 
Q 1825 2325 2100 2250 
z
M 1775 3950 
Q 1775 4550 1750 5100 
L 2250 5100 
Q 2225 4575 2225 3950 
Q 3075 3950 3425 3975 
L 3425 3525 
Q 3075 3550 2225 3550 
Q 2225 2825 2250 2425 
L 1750 2425 
Q 1775 2775 1775 3300 
Q 1650 3100 1300 2787 
Q 950 2475 650 2300 
Q 525 2525 275 2625 
Q 500 2700 875 2975 
Q 1250 3250 1450 3550 
Q 950 3550 500 3525 
L 500 3975 
Q 925 3950 1775 3950 
z
M 3975 3175 
Q 4200 1700 4600 1125 
Q 4850 1700 4937 2287 
Q 5025 2875 5050 3425 
L 4075 3425 
L 3975 3175 
z
M 1450 1000 
Q 1750 925 2275 800 
Q 2475 1050 2650 1525 
L 1725 1525 
Q 1600 1275 1450 1000 
z
M 3325 4825 
Q 3200 4625 3125 4450 
Q 3050 4275 2925 4025 
Q 2725 4125 2525 4175 
Q 2725 4500 2900 5000 
Q 3150 4875 3325 4825 
z
M 2575 3375 
Q 2900 3050 3200 2725 
Q 3050 2600 2875 2425 
Q 2525 2850 2300 3100 
Q 2450 3225 2575 3375 
z
M 925 5000 
Q 1275 4650 1500 4300 
L 1125 4075 
Q 950 4425 600 4725 
Q 825 4875 925 5000 
z
" transform="scale(0.015625)"/>
     </defs>
     <use xlink:href="#SimHei-53c2"/>
     <use xlink:href="#SimHei-6570" transform="translate(100 0)"/>
    </g>
   </g>
   <g id="text_6">
    <!-- 任务点 -->
    <g style="fill: #1f2937" transform="translate(266.8185 37.599331) scale(0.13 -0.13)">
     <defs>
      <path id="SimHei-4efb" d="M 5375 4875 
Q 5550 4500 5650 4375 
Q 4725 4200 4300 4125 
L 4300 2550 
L 5325 2550 
Q 5700 2550 6050 2575 
L 6050 2100 
Q 5700 2125 5350 2125 
L 4300 2125 
L 4300 275 
L 5075 275 
Q 5425 275 5825 300 
L 5825 -175 
Q 5425 -150 5075 -150 
L 3100 -150 
Q 2700 -150 2275 -175 
L 2275 300 
Q 2700 275 3100 275 
L 3800 275 
L 3800 2125 
L 2700 2125 
Q 2275 2125 1975 2100 
L 1975 2575 
Q 2300 2550 2700 2550 
L 3800 2550 
L 3800 4050 
Q 2825 3925 2525 3900 
Q 2450 4175 2300 4350 
Q 2825 4350 3837 4512 
Q 4850 4675 5375 4875 
z
M 2300 5000 
Q 2075 4725 1650 3850 
L 1650 675 
Q 1650 25 1675 -625 
L 1125 -625 
Q 1150 25 1150 650 
L 1150 3075 
Q 850 2625 575 2300 
Q 450 2500 225 2675 
Q 625 3025 1075 3812 
Q 1525 4600 1725 5250 
Q 2025 5100 2300 5000 
z
" transform="scale(0.015625)"/>
      <path id="SimHei-52a1" d="M 2850 4950 
Q 2650 4775 2500 4550 
L 5275 4550 
Q 5050 4175 4687 3750 
Q 4325 3325 3775 2950 
Q 4125 2725 4725 2612 
Q 5325 2500 6150 2475 
Q 5950 2250 5875 1950 
Q 5175 2000 4500 2200 
Q 3825 2400 3375 2675 
Q 2575 2300 1925 2125 
Q 1275 1950 650 1850 
Q 550 2150 350 2375 
Q 900 2375 1600 2525 
Q 2300 2675 2975 2950 
Q 2450 3450 2075 3975 
Q 1650 3450 1200 3100 
Q 1025 3300 750 3400 
Q 1450 3900 1775 4362 
Q 2100 4825 2250 5225 
Q 2575 5050 2850 4950 
z
M 2800 1650 
Q 2850 1950 2850 2350 
Q 3150 2300 3450 2275 
Q 3375 2125 3300 1650 
L 5325 1650 
Q 5300 1350 5275 962 
Q 5250 575 5187 125 
Q 5125 -325 4825 -400 
Q 4525 -475 3875 -550 
Q 3825 -225 3625 0 
Q 4350 0 4500 50 
Q 4650 100 4700 325 
L 4775 1275 
L 3250 1275 
Q 2900 200 2262 -125 
Q 1625 -450 900 -700 
Q 825 -475 550 -175 
Q 1150 -125 1800 200 
Q 2450 525 2725 1275 
L 2150 1275 
Q 1400 1275 1050 1225 
L 1050 1675 
Q 1425 1650 2175 1650 
L 2800 1650 
z
M 3400 3225 
Q 3900 3525 4375 4175 
L 2500 4175 
Q 2975 3550 3400 3225 
z
" transform="scale(0.015625)"/>
      <path id="SimHei-70b9" d="M 3325 5200 
Q 3300 4925 3300 4375 
L 4900 4375 
Q 5275 4375 5725 4400 
L 5725 3925 
Q 5300 3950 4900 3950 
L 3300 3950 
L 3300 3225 
L 5225 3225 
Q 5200 2700 5200 2150 
Q 5200 1625 5225 1175 
L 1175 1175 
Q 1200 1625 1200 2175 
Q 1200 2725 1175 3225 
L 2775 3225 
L 2775 4500 
Q 2775 4900 2750 5200 
L 3325 5200 
z
M 4700 1600 
L 4700 2800 
L 1725 2800 
L 1725 1600 
L 4700 1600 
z
M 1500 750 
Q 1025 -250 825 -625 
Q 625 -475 325 -375 
Q 650 50 950 925 
Q 1200 800 1500 750 
z
M 5325 850 
Q 5775 150 6075 -350 
Q 5925 -425 5575 -625 
Q 5375 -150 4900 575 
Q 5150 700 5325 850 
z
M 3975 -575 
Q 3775 -100 3400 575 
Q 3575 675 3825 825 
Q 4350 -75 4450 -325 
Q 4200 -450 3975 -575 
z
M 2375 -575 
Q 2350 -300 1975 550 
Q 2200 625 2425 775 
Q 2800 -75 2900 -350 
Q 2625 -450 2375 -575 
z
" transform="scale(0.015625)"/>
     </defs>
     <use xlink:href="#SimHei-4efb"/>
     <use xlink:href="#SimHei-52a1" transform="translate(100 0)"/>
     <use xlink:href="#SimHei-70b9" transform="translate(200 0)"/>
    </g>
    <!-- 均匀网格 -->
    <g style="fill: #1f2937" transform="translate(260.3185 50.656206) scale(0.13 -0.13)">
     <defs>
      <path id="SimHei-5747" d="M 5775 275 
Q 5775 -325 5362 -450 
Q 4950 -575 4425 -600 
Q 4375 -275 4250 25 
Q 4950 -25 5125 62 
Q 5300 150 5300 500 
L 5375 3700 
L 3550 3700 
Q 3425 3375 3262 3037 
Q 3100 2700 2925 2400 
Q 2675 2550 2475 2625 
Q 3150 3625 3500 5200 
Q 3800 5100 4075 5025 
Q 3975 4875 3875 4650 
Q 3775 4425 3675 4125 
L 5900 4125 
L 5775 275 
z
M 1250 3625 
L 1250 4375 
Q 1250 4775 1225 5100 
L 1775 5100 
Q 1750 4725 1750 4375 
L 1750 3625 
L 1900 3625 
Q 2200 3625 2525 3650 
L 2525 3150 
Q 2200 3175 1900 3175 
L 1750 3175 
L 1750 1100 
L 2500 1375 
Q 2475 1125 2525 900 
Q 1225 475 962 362 
Q 700 250 475 150 
Q 375 475 250 750 
Q 575 800 800 850 
Q 1025 900 1250 975 
L 1250 3175 
L 1125 3175 
Q 850 3175 400 3150 
L 400 3650 
Q 850 3625 1100 3625 
L 1250 3625 
z
M 4950 1625 
Q 4675 1425 4137 1050 
Q 3600 675 3175 300 
Q 3000 575 2850 775 
Q 3350 1050 3762 1325 
Q 4175 1600 4775 2075 
Q 4825 1850 4950 1625 
z
M 3775 3150 
Q 4125 2800 4475 2300 
Q 4250 2125 4100 1975 
Q 3900 2325 3450 2825 
Q 3600 3000 3775 3150 
z
" transform="scale(0.015625)"/>
      <path id="SimHei-5300" d="M 2500 4900 
Q 2375 4775 2287 4587 
Q 2200 4400 2100 4250 
L 5725 4250 
Q 5650 3875 5625 3350 
L 5425 250 
Q 5350 -325 5050 -412 
Q 4750 -500 4125 -575 
Q 4125 -275 3925 25 
Q 4500 0 4712 50 
Q 4925 100 4975 500 
L 5175 3825 
L 1925 3825 
Q 1325 2825 825 2300 
Q 650 2500 400 2625 
Q 825 3000 1300 3750 
Q 1775 4500 1975 5175 
Q 2300 5000 2500 4900 
z
M 1050 775 
Q 1800 950 2600 1212 
Q 3400 1475 4325 1825 
Q 4300 1625 4350 1350 
Q 4000 1225 3537 1075 
Q 3075 925 2387 675 
Q 1700 425 1300 225 
Q 1250 450 1050 775 
z
M 3575 1975 
Q 3225 2275 2075 2775 
Q 2200 2975 2300 3200 
Q 2725 3025 3850 2450 
Q 3675 2200 3575 1975 
z
" transform="scale(0.015625)"/>
      <path id="SimHei-7f51" d="M 5875 4900 
Q 5825 4575 5825 3975 
L 5825 0 
Q 5825 -400 5537 -462 
Q 5250 -525 4775 -600 
Q 4725 -350 4525 -50 
Q 5025 -75 5175 -25 
Q 5325 25 5325 250 
L 5325 4475 
L 1100 4475 
L 1100 -600 
L 550 -600 
Q 600 -100 600 250 
L 600 3975 
Q 600 4375 550 4900 
L 5875 4900 
z
M 3675 3525 
Q 4050 2800 4175 2600 
Q 4475 3625 4550 4050 
Q 4825 3900 5100 3775 
Q 4975 3600 4825 3150 
Q 4675 2700 4450 2100 
Q 4725 1575 5125 875 
Q 4850 800 4625 675 
L 4175 1575 
Q 4000 1225 3825 962 
Q 3650 700 3350 300 
Q 3175 500 2850 575 
Q 3075 800 3337 1125 
Q 3600 1450 3925 2075 
Q 3575 2800 3200 3300 
Q 3400 3375 3675 3525 
z
M 1725 3800 
Q 1875 3525 2037 3237 
Q 2200 2950 2375 2675 
Q 2675 3675 2725 4050 
Q 3000 3950 3325 3850 
Q 3175 3675 3050 3312 
Q 2925 2950 2650 2200 
Q 2875 1850 3200 1300 
Q 2950 1150 2775 975 
Q 2525 1500 2400 1700 
Q 1950 775 1600 325 
Q 1400 500 1175 575 
Q 1575 1000 2150 2175 
Q 1550 3250 1250 3600 
Q 1475 3700 1725 3800 
z
" transform="scale(0.015625)"/>
      <path id="SimHei-683c" d="M 4075 4875 
Q 3975 4750 3750 4350 
L 5625 4350 
Q 5450 3850 5212 3437 
Q 4975 3025 4650 2650 
Q 4950 2450 5412 2287 
Q 5875 2125 6150 2100 
Q 5975 1900 5875 1600 
Q 5550 1725 5125 1912 
Q 4700 2100 4300 2400 
Q 3925 2125 3537 1937 
Q 3150 1750 2575 1550 
Q 2475 1775 2300 1925 
Q 2825 2050 3262 2250 
Q 3700 2450 3975 2675 
Q 3625 3050 3325 3575 
Q 3175 3350 2875 2950 
Q 2700 3100 2475 3200 
Q 2825 3550 3112 4075 
Q 3400 4600 3550 5100 
Q 3775 4950 4075 4875 
z
M 5575 1650 
Q 5550 1350 5550 575 
Q 5550 -200 5575 -575 
L 5050 -575 
L 5050 -175 
L 3500 -175 
L 3500 -600 
L 2975 -600 
Q 3000 -200 3000 550 
Q 3000 1325 2975 1650 
L 5575 1650 
z
M 1850 5100 
Q 1825 4775 1825 4475 
L 1825 3825 
Q 2300 3825 2525 3850 
L 2525 3400 
Q 2300 3425 1825 3425 
L 1825 2725 
Q 1950 2800 2125 2950 
Q 2350 2600 2550 2200 
Q 2350 2075 2175 1950 
Q 1975 2375 1825 2625 
L 1825 275 
Q 1825 -275 1850 -625 
L 1350 -625 
Q 1375 -275 1375 275 
L 1375 2425 
Q 1150 1850 625 850 
Q 475 1025 250 1150 
Q 650 1775 900 2375 
Q 1150 2975 1250 3425 
Q 900 3425 475 3400 
L 475 3850 
Q 925 3825 1375 3825 
L 1375 4475 
Q 1375 4750 1350 5100 
L 1850 5100 
z
M 5050 200 
L 5050 1275 
L 3500 1275 
L 3500 200 
L 5050 200 
z
M 4300 2925 
Q 4675 3300 4975 3975 
L 3550 3975 
Q 3850 3350 4300 2925 
z
" transform="scale(0.015625)"/>
     </defs>
     <use xlink:href="#SimHei-5747"/>
     <use xlink:href="#SimHei-5300" transform="translate(100 0)"/>
     <use xlink:href="#SimHei-7f51" transform="translate(200 0)"/>
     <use xlink:href="#SimHei-683c" transform="translate(300 0)"/>
    </g>
   </g>
   <g id="text_7">
    <!-- 区域分解 -->
    <g style="fill: #1f2937" transform="translate(125.1518 93.227863) scale(0.14 -0.14)">
     <defs>
      <path id="SimHei-5206" d="M 1000 -650 
Q 825 -375 575 -225 
Q 975 -75 1300 137 
Q 1625 350 1875 662 
Q 2125 975 2250 1350 
Q 2375 1725 2425 2275 
Q 1850 2275 1500 2250 
L 1500 2775 
Q 1900 2750 2525 2750 
L 5025 2750 
Q 4975 2375 4950 2100 
L 4750 250 
Q 4700 -200 4350 -350 
Q 4000 -500 3575 -525 
Q 3550 -275 3325 50 
Q 3850 25 4037 87 
Q 4225 150 4275 525 
L 4450 2275 
L 2950 2275 
Q 2875 1625 2737 1187 
Q 2600 750 2350 425 
Q 2100 100 1750 -175 
Q 1400 -450 1000 -650 
z
M 3950 5175 
Q 4125 4650 4662 3975 
Q 5200 3300 6175 2800 
Q 5975 2625 5775 2275 
Q 5325 2600 4987 2887 
Q 4650 3175 4425 3425 
Q 4200 3675 3925 4137 
Q 3650 4600 3475 5000 
Q 3750 5075 3950 5175 
z
M 2700 4825 
Q 2475 4425 2325 4125 
Q 2175 3825 2025 3587 
Q 1875 3350 1575 2950 
Q 1275 2550 850 2125 
Q 625 2350 400 2475 
Q 900 2925 1187 3300 
Q 1475 3675 1737 4112 
Q 2000 4550 2200 5075 
Q 2400 4925 2700 4825 
z
" transform="scale(0.015625)"/>
      <path id="SimHei-89e3" d="M 1925 5025 
Q 1725 4925 1625 4575 
L 2925 4575 
Q 2800 4400 2600 4100 
Q 2400 3800 2325 3650 
L 3225 3650 
Q 3175 3150 3175 2650 
L 3175 75 
Q 3175 -225 3012 -312 
Q 2850 -400 2500 -450 
Q 2450 -175 2350 75 
Q 2550 75 2650 87 
Q 2750 100 2750 325 
L 2750 1150 
L 2225 1150 
L 2225 -25 
L 1800 -25 
L 1800 1150 
L 1275 1150 
Q 1250 775 1150 375 
Q 1050 -25 825 -500 
Q 600 -375 350 -250 
Q 600 100 725 612 
Q 850 1125 875 1925 
Q 900 2725 875 3525 
Q 675 3300 550 3175 
Q 400 3375 200 3525 
Q 575 3825 887 4262 
Q 1200 4700 1400 5300 
Q 1600 5175 1925 5025 
z
M 4325 2425 
Q 4200 2325 4150 2125 
L 4575 2125 
Q 4575 2650 4550 2825 
L 5050 2825 
Q 5000 2600 5000 2125 
L 5350 2125 
Q 5725 2125 5950 2150 
L 5950 1700 
Q 5625 1750 5300 1750 
L 5000 1750 
L 5000 1025 
L 5175 1025 
Q 5650 1025 6150 1050 
L 6150 625 
Q 5675 650 5175 650 
L 5000 650 
L 5000 225 
Q 5000 -125 5025 -650 
L 4550 -650 
Q 4575 -125 4575 225 
L 4575 650 
L 4025 650 
Q 3750 650 3325 625 
L 3325 1050 
Q 3700 1025 4025 1025 
L 4575 1025 
L 4575 1750 
L 3950 1750 
Q 3875 1550 3725 1250 
Q 3550 1350 3325 1525 
Q 3500 1725 3625 2050 
Q 3750 2375 3825 2675 
L 4325 2425 
z
M 4900 2975 
Q 4850 3250 4725 3500 
Q 5000 3500 5162 3525 
Q 5325 3550 5350 3675 
Q 5375 3800 5425 4550 
L 4525 4550 
Q 4375 3850 4225 3537 
Q 4075 3225 3750 2850 
Q 3600 3050 3350 3225 
Q 3625 3425 3800 3737 
Q 3975 4050 4050 4550 
Q 3750 4550 3325 4525 
L 3325 4950 
Q 3725 4925 4050 4925 
L 5925 4925 
Q 5850 3700 5787 3450 
Q 5725 3200 5475 3100 
Q 5225 3000 4900 2975 
z
M 1825 3650 
Q 2025 3900 2175 4200 
L 1375 4200 
Q 1150 3900 975 3650 
L 1825 3650 
z
M 2750 1550 
L 2750 2225 
L 2225 2225 
L 2225 1550 
L 2750 1550 
z
M 2750 2600 
L 2750 3275 
L 2225 3275 
L 2225 2600 
L 2750 2600 
z
M 1800 1550 
L 1800 2225 
L 1325 2225 
L 1300 1550 
L 1800 1550 
z
M 1800 2600 
L 1800 3275 
L 1325 3275 
L 1325 2600 
L 1800 2600 
z
" transform="scale(0.015625)"/>
     </defs>
     <use xlink:href="#SimHei-533a"/>
     <use xlink:href="#SimHei-57df" transform="translate(100 0)"/>
     <use xlink:href="#SimHei-5206" transform="translate(200 0)"/>
     <use xlink:href="#SimHei-89e3" transform="translate(300 0)"/>
    </g>
    <!-- 凸子区域编码 -->
    <g style="fill: #1f2937" transform="translate(111.1518 107.595363) scale(0.14 -0.14)">
     <defs>
      <path id="SimHei-51f8" d="M 1875 4450 
Q 1875 4725 1825 5025 
L 4525 5025 
Q 4475 4650 4475 4475 
L 4475 3125 
L 5850 3125 
Q 5800 2700 5800 2525 
L 5800 175 
Q 5800 25 5850 -375 
L 5275 -375 
L 5275 25 
L 1125 25 
L 1125 -475 
L 550 -475 
Q 575 -150 575 100 
L 575 2525 
Q 575 2700 550 3125 
L 1875 3125 
L 1875 4450 
z
M 5275 475 
L 5275 2650 
L 3950 2650 
L 3950 4575 
L 2400 4575 
L 2400 2650 
L 1125 2650 
L 1125 475 
L 5275 475 
z
" transform="scale(0.015625)"/>
      <path id="SimHei-5b50" d="M 2075 25 
Q 2650 0 2800 62 
Q 2950 125 2950 375 
L 2950 2200 
L 1175 2200 
Q 825 2200 350 2175 
L 350 2625 
Q 825 2600 1175 2600 
L 2950 2600 
Q 2950 3000 2925 3500 
Q 3275 3650 3637 3875 
Q 4000 4100 4475 4400 
L 1925 4400 
Q 1400 4400 1000 4375 
L 1000 4825 
Q 1525 4800 1875 4800 
L 5400 4800 
L 5400 4350 
Q 5025 4200 4575 3950 
Q 4125 3700 3450 3250 
L 3450 2600 
L 5125 2600 
Q 5550 2600 6075 2650 
L 6075 2200 
Q 5550 2225 5125 2200 
L 3450 2200 
L 3450 200 
Q 3450 -300 3162 -400 
Q 2875 -500 2300 -550 
Q 2250 -275 2075 25 
z
" transform="scale(0.015625)"/>
      <path id="SimHei-7f16" d="M 4275 5250 
Q 4375 4850 4475 4500 
L 5775 4500 
Q 5750 4200 5750 3825 
Q 5750 3450 5775 3175 
L 3100 3175 
Q 3075 2800 3050 2550 
L 6000 2550 
Q 5975 2150 5975 1700 
L 5975 -25 
Q 5975 -400 5812 -500 
Q 5650 -600 5275 -700 
Q 5200 -400 5050 -150 
Q 5400 -150 5475 -112 
Q 5550 -75 5550 150 
L 5550 1000 
L 5050 1000 
Q 5050 450 5075 -50 
L 4625 -50 
Q 4650 450 4650 1000 
L 4150 1000 
Q 4150 225 4175 -75 
L 3725 -75 
Q 3750 225 3750 1000 
L 3250 1000 
L 3250 -650 
L 2775 -650 
Q 2825 -175 2825 275 
L 2825 1625 
Q 2625 1075 2350 600 
Q 2175 925 2025 1100 
Q 2250 1400 2375 1700 
Q 2500 2000 2575 2525 
Q 2650 3050 2650 3575 
Q 2650 4100 2625 4500 
L 3925 4500 
Q 3875 4775 3750 5100 
Q 4075 5175 4275 5250 
z
M 1825 4875 
Q 1675 4725 1387 4150 
Q 1100 3575 875 3150 
L 1575 3175 
Q 1725 3475 1875 3850 
Q 2100 3675 2375 3500 
Q 2150 3275 1862 2812 
Q 1575 2350 1075 1675 
Q 1600 1725 2075 1800 
L 2025 1350 
Q 1725 1325 1350 1275 
Q 975 1225 550 1050 
Q 500 1325 400 1575 
Q 600 1600 825 1925 
Q 1050 2250 1400 2800 
Q 1175 2800 950 2775 
Q 725 2750 450 2650 
Q 375 2950 275 3175 
Q 525 3225 800 3862 
Q 1075 4500 1225 5125 
Q 1525 4950 1825 4875 
z
M 5325 3525 
L 5325 4150 
L 3100 4150 
L 3100 3525 
L 5325 3525 
z
M 2100 800 
Q 2075 525 2100 300 
Q 1575 175 1212 50 
Q 850 -75 400 -300 
L 200 300 
Q 500 325 1037 462 
Q 1575 600 2100 800 
z
M 4650 1350 
L 4650 2200 
L 4150 2200 
L 4150 1350 
L 4650 1350 
z
M 5550 1350 
L 5550 2200 
L 5050 2200 
L 5050 1350 
L 5550 1350 
z
M 3750 1350 
L 3750 2200 
L 3250 2200 
L 3250 1350 
L 3750 1350 
z
" transform="scale(0.015625)"/>
      <path id="SimHei-7801" d="M 1975 4750 
Q 2325 4750 2725 4775 
L 2725 4350 
Q 2300 4375 2100 4375 
L 1725 4375 
Q 1625 3775 1400 3050 
L 2600 3050 
Q 2575 2625 2575 2300 
L 2575 1100 
Q 2575 775 2600 150 
L 2150 150 
L 2150 600 
L 1400 600 
L 1400 -125 
L 925 -125 
Q 950 500 950 875 
L 950 2050 
Q 775 1725 550 1325 
Q 400 1525 200 1675 
Q 650 2275 925 3062 
Q 1200 3850 1250 4375 
Q 800 4375 350 4350 
L 350 4775 
Q 800 4750 1125 4750 
L 1975 4750 
z
M 4725 2425 
L 4975 4500 
L 3825 4500 
Q 3400 4500 2950 4475 
L 2950 4925 
Q 3400 4875 3825 4875 
L 5500 4875 
Q 5375 4200 5175 2425 
L 5975 2425 
Q 5925 2150 5887 1500 
Q 5850 850 5750 300 
Q 5650 -250 5412 -412 
Q 5175 -575 4475 -625 
Q 4450 -350 4275 -75 
Q 4925 -100 5100 -25 
Q 5275 50 5350 712 
Q 5425 1375 5450 2025 
L 3125 2025 
Q 3200 2575 3262 3112 
Q 3325 3650 3350 4150 
L 3900 4050 
Q 3800 3800 3737 3362 
Q 3675 2925 3625 2425 
L 4725 2425 
z
M 2150 1000 
L 2150 2650 
L 1400 2650 
L 1400 1000 
L 2150 1000 
z
M 4325 1325 
Q 4625 1325 5275 1350 
L 5275 900 
Q 4600 925 4150 925 
L 3500 925 
Q 3225 925 2825 900 
L 2825 1350 
Q 3100 1325 3500 1325 
L 4325 1325 
z
" transform="scale(0.015625)"/>
     </defs>
     <use xlink:href="#SimHei-51f8"/>
     <use xlink:href="#SimHei-5b50" transform="translate(100 0)"/>
     <use xlink:href="#SimHei-533a" transform="translate(200 0)"/>
     <use xlink:href="#SimHei-57df" transform="translate(300 0)"/>
     <use xlink:href="#SimHei-7f16" transform="translate(400 0)"/>
     <use xlink:href="#SimHei-7801" transform="translate(500 0)"/>
    </g>
   </g>
   <g id="text_8">
    <!-- 坐标变换 -->
    <g style="fill: #1f2937" transform="translate(254.7194 93.258488) scale(0.14 -0.14)">
     <defs>
      <path id="SimHei-5750" d="M 3450 5100 
Q 3425 4675 3425 4150 
L 3425 1500 
L 4550 1500 
Q 4975 1500 5450 1525 
L 5450 1075 
Q 5000 1100 4500 1100 
L 3425 1100 
L 3425 50 
L 5075 50 
Q 5500 50 5975 75 
L 5975 -375 
Q 5525 -350 5075 -350 
L 1475 -350 
Q 925 -350 400 -375 
L 400 75 
Q 925 50 1475 50 
L 2925 50 
L 2925 1100 
L 2050 1100 
Q 1450 1100 950 1075 
L 950 1525 
Q 1450 1500 2050 1500 
L 2925 1500 
L 2925 4150 
Q 2925 4675 2900 5100 
L 3450 5100 
z
M 5200 4450 
Q 5050 4250 4825 3600 
Q 5200 3300 5975 2500 
Q 5775 2400 5575 2150 
Q 5075 2800 4650 3150 
Q 4375 2500 3975 1925 
Q 3725 2125 3525 2200 
Q 3875 2575 4212 3362 
Q 4550 4150 4600 4650 
Q 4900 4525 5200 4450 
z
M 350 2150 
Q 600 2375 950 3087 
Q 1300 3800 1450 4575 
Q 1625 4475 2050 4400 
Q 1950 4275 1862 4050 
Q 1775 3825 1700 3575 
Q 2400 2950 2700 2475 
Q 2425 2325 2250 2150 
Q 2025 2550 1887 2725 
Q 1750 2900 1500 3125 
Q 1250 2525 800 1875 
Q 575 2050 350 2150 
z
" transform="scale(0.015625)"/>
      <path id="SimHei-6807" d="M 1275 4400 
Q 1275 4800 1250 5175 
L 1750 5175 
Q 1725 4825 1725 4400 
L 1725 3800 
Q 2125 3800 2575 3825 
L 2575 3350 
Q 2125 3375 1725 3375 
L 1725 2525 
Q 1900 2650 2075 2800 
Q 2400 2275 2650 1775 
Q 2375 1650 2175 1500 
Q 2025 2000 1725 2425 
L 1725 475 
Q 1725 -50 1750 -575 
L 1250 -575 
Q 1275 -25 1275 475 
L 1275 2100 
Q 1025 1400 500 750 
Q 350 950 125 1125 
Q 550 1550 812 2187 
Q 1075 2825 1150 3375 
Q 675 3375 325 3325 
L 325 3825 
Q 800 3800 1275 3800 
L 1275 4400 
z
M 5175 3125 
Q 5675 3125 6050 3150 
L 6050 2675 
Q 5675 2700 5275 2700 
L 4500 2700 
L 4500 175 
Q 4500 -225 4275 -350 
Q 4050 -475 3475 -550 
Q 3425 -250 3275 25 
Q 3775 25 3900 62 
Q 4025 100 4025 350 
L 4025 2700 
L 3400 2700 
Q 2775 2700 2500 2650 
L 2500 3150 
Q 2825 3125 3400 3125 
L 5175 3125 
z
M 4900 4775 
Q 5425 4775 5750 4800 
L 5750 4300 
Q 5275 4350 4750 4350 
L 3525 4350 
Q 3125 4350 2750 4300 
L 2750 4800 
Q 3100 4775 3525 4775 
L 4900 4775 
z
M 5275 2025 
Q 5825 1175 6200 500 
Q 5925 375 5650 200 
Q 5375 925 4825 1725 
Q 5075 1850 5275 2025 
z
M 3600 1775 
Q 3500 1625 3225 975 
Q 2950 325 2800 50 
Q 2575 175 2300 275 
Q 2625 775 2787 1187 
Q 2950 1600 3050 2000 
Q 3325 1875 3600 1775 
z
" transform="scale(0.015625)"/>
      <path id="SimHei-53d8" d="M 5200 1975 
Q 4950 1600 4537 1137 
Q 4125 675 3675 375 
Q 3925 225 4600 87 
Q 5275 -50 6000 -75 
Q 5700 -400 5650 -625 
Q 4850 -525 4212 -312 
Q 3575 -100 3225 125 
Q 2800 -125 2150 -325 
Q 1500 -525 700 -675 
Q 600 -425 400 -175 
Q 950 -150 1687 12 
Q 2425 175 2825 375 
Q 2275 775 1675 1575 
Q 1350 1575 1000 1550 
L 1000 2000 
Q 1450 1975 2075 1975 
L 5200 1975 
z
M 3225 5275 
Q 3400 4900 3550 4475 
L 4675 4475 
Q 5400 4475 5975 4500 
L 5975 4025 
Q 5375 4050 4725 4050 
L 4125 4050 
L 4125 2950 
Q 4125 2550 4150 2150 
L 3600 2150 
Q 3625 2550 3625 2950 
L 3625 4050 
L 2750 4050 
L 2750 2950 
Q 2750 2675 2775 2150 
L 2225 2150 
Q 2250 2675 2250 2950 
L 2250 4050 
L 1700 4050 
Q 975 4050 425 4025 
L 425 4500 
Q 950 4475 1700 4475 
L 2975 4475 
Q 2925 4675 2700 5125 
Q 2950 5150 3225 5275 
z
M 2200 1575 
Q 2650 975 3250 600 
Q 3850 1000 4275 1575 
L 2200 1575 
z
M 4850 3750 
Q 5375 3275 5950 2675 
Q 5750 2525 5500 2300 
Q 5075 2800 4450 3400 
Q 4675 3575 4850 3750 
z
M 1825 3500 
Q 1700 3375 1425 3025 
Q 1150 2675 825 2300 
Q 575 2475 375 2600 
Q 975 3150 1300 3825 
Q 1525 3650 1825 3500 
z
" transform="scale(0.015625)"/>
      <path id="SimHei-6362" d="M 1225 4550 
Q 1225 4900 1200 5200 
L 1700 5200 
Q 1650 4925 1650 4550 
L 1650 3800 
Q 1925 3800 2300 3825 
L 2300 3425 
Q 2725 3850 3000 4300 
Q 3275 4750 3425 5200 
Q 3625 5075 3950 4950 
Q 3800 4800 3600 4450 
L 5325 4450 
Q 4825 3750 4575 3325 
L 5600 3325 
L 5600 1650 
Q 5875 1650 6150 1675 
L 6150 1250 
Q 5725 1275 5450 1275 
L 4500 1275 
Q 4725 700 5237 325 
Q 5750 -50 6150 -150 
Q 5875 -375 5775 -625 
Q 5375 -450 4925 -37 
Q 4475 375 4150 1000 
Q 3775 50 2250 -625 
Q 2175 -425 1925 -200 
Q 2650 0 3137 425 
Q 3625 850 3775 1275 
L 2650 1275 
Q 2500 1275 2100 1250 
L 2100 1675 
Q 2475 1650 2675 1650 
L 2675 2675 
Q 2675 3050 2650 3150 
L 2550 3025 
Q 2400 3200 2175 3325 
L 2275 3400 
Q 1925 3425 1650 3425 
L 1650 2350 
Q 1925 2475 2200 2650 
Q 2225 2450 2275 2225 
Q 2025 2100 1650 1900 
L 1650 50 
Q 1650 -275 1462 -400 
Q 1275 -525 725 -600 
Q 700 -375 525 -75 
Q 1050 -100 1137 -50 
Q 1225 0 1225 150 
L 1225 1700 
Q 800 1475 525 1300 
Q 425 1525 250 1750 
Q 875 1975 1225 2150 
L 1225 3425 
Q 675 3425 300 3400 
L 300 3825 
Q 650 3800 1225 3800 
L 1225 4550 
z
M 5175 1650 
L 5175 2950 
L 4375 2950 
Q 4375 2300 4325 1650 
L 5175 1650 
z
M 3850 1650 
Q 3900 2300 3925 2950 
L 3100 2950 
L 3100 1650 
L 3850 1650 
z
M 3400 4100 
Q 3075 3625 2800 3325 
L 4100 3325 
L 4550 4100 
L 3400 4100 
z
" transform="scale(0.015625)"/>
     </defs>
     <use xlink:href="#SimHei-5750"/>
     <use xlink:href="#SimHei-6807" transform="translate(100 0)"/>
     <use xlink:href="#SimHei-53d8" transform="translate(200 0)"/>
     <use xlink:href="#SimHei-6362" transform="translate(300 0)"/>
    </g>
    <!-- 垂直交点法 -->
    <g style="fill: #1f2937" transform="translate(247.7194 107.564738) scale(0.14 -0.14)">
     <defs>
      <path id="SimHei-5782" d="M 4975 5050 
Q 5100 4800 5275 4550 
Q 4650 4550 3450 4400 
L 3450 3700 
L 4850 3700 
Q 5250 3700 5725 3725 
L 5725 3275 
Q 5250 3300 4900 3300 
L 4900 2450 
Q 5550 2450 6050 2475 
L 6050 2025 
Q 5550 2050 4900 2050 
L 4900 1175 
L 4925 1175 
Q 5250 1175 5725 1200 
L 5725 725 
L 5250 750 
L 3450 750 
L 3450 0 
L 4625 0 
Q 4925 0 5400 25 
L 5400 -400 
Q 4950 -375 4650 -375 
L 1850 -375 
Q 1400 -375 1025 -400 
L 1025 25 
Q 1425 0 1850 0 
L 2975 0 
L 2975 750 
L 1550 750 
Q 1100 750 700 725 
L 700 1200 
Q 1100 1175 1475 1175 
L 1575 1175 
L 1575 2050 
Q 750 2050 300 2025 
L 300 2475 
Q 625 2450 1575 2450 
L 1575 3300 
L 1475 3300 
Q 1075 3300 675 3275 
L 675 3725 
Q 1100 3700 1475 3700 
L 2975 3700 
L 2975 4350 
Q 1575 4275 1125 4250 
Q 1100 4425 900 4700 
Q 1525 4675 2125 4700 
Q 2725 4725 3250 4775 
Q 3775 4825 4237 4900 
Q 4700 4975 4975 5050 
z
M 4425 1175 
L 4425 2050 
L 3450 2050 
L 3450 1175 
L 4425 1175 
z
M 4425 2450 
L 4425 3300 
L 3450 3300 
L 3450 2450 
L 4425 2450 
z
M 2975 1175 
L 2975 2050 
L 2050 2050 
L 2050 1175 
L 2975 1175 
z
M 2975 2450 
L 2975 3300 
L 2050 3300 
L 2050 2450 
L 2975 2450 
z
" transform="scale(0.015625)"/>
      <path id="SimHei-76f4" d="M 3550 5025 
Q 3475 4875 3400 4525 
L 4825 4525 
Q 5225 4525 5775 4550 
L 5775 4100 
Q 5250 4125 4825 4125 
L 3350 4125 
Q 3300 3775 3275 3525 
L 5100 3525 
Q 5075 3075 5075 2525 
L 5075 100 
L 5300 100 
Q 5650 100 6100 125 
L 6100 -350 
Q 5675 -325 5300 -325 
L 1225 -325 
Q 800 -325 325 -350 
L 325 125 
Q 825 100 1225 100 
L 1375 100 
L 1375 2525 
Q 1375 3175 1350 3525 
L 2775 3525 
Q 2825 3825 2850 4125 
L 1550 4125 
Q 1075 4125 600 4100 
L 600 4550 
Q 1075 4525 1525 4525 
L 2875 4525 
Q 2900 4800 2875 5075 
Q 3275 5025 3550 5025 
z
M 4600 975 
L 4600 1450 
L 1850 1450 
L 1850 975 
L 4600 975 
z
M 4600 100 
L 4600 575 
L 1850 575 
L 1850 100 
L 4600 100 
z
M 4600 2650 
L 4600 3125 
L 1850 3125 
L 1850 2650 
L 4600 2650 
z
M 4600 1825 
L 4600 2275 
L 1850 2275 
L 1850 1825 
L 4600 1825 
z
" transform="scale(0.015625)"/>
      <path id="SimHei-4ea4" d="M 2325 2600 
Q 2775 1575 3200 1150 
Q 3875 1825 4225 2725 
Q 4425 2575 4725 2400 
Q 4125 1450 3550 825 
Q 4400 175 6000 25 
Q 5750 -325 5700 -550 
Q 4100 -250 3150 525 
Q 2075 -275 650 -600 
Q 575 -300 375 -50 
Q 1900 125 2775 850 
Q 2200 1525 1850 2350 
Q 2150 2475 2325 2600 
z
M 1250 3725 
Q 875 3725 525 3700 
L 525 4200 
L 1225 4150 
L 5125 4150 
Q 5525 4175 5950 4200 
L 5950 3675 
Q 5525 3700 5125 3725 
L 1250 3725 
z
M 2525 3300 
Q 2175 2975 1025 2000 
Q 825 2250 550 2400 
Q 1025 2650 1412 3025 
Q 1800 3400 2000 3675 
Q 2250 3500 2525 3300 
z
M 4325 3675 
Q 4450 3575 4900 3237 
Q 5350 2900 5775 2600 
Q 5500 2400 5300 2175 
Q 5075 2475 3900 3300 
Q 4100 3500 4325 3675 
z
M 3250 5300 
Q 3500 4725 3625 4375 
Q 3275 4275 3025 4200 
Q 2875 4625 2650 5125 
Q 2950 5225 3250 5300 
z
" transform="scale(0.015625)"/>
      <path id="SimHei-6cd5" d="M 6075 -300 
Q 5850 -425 5625 -625 
Q 5450 -300 5325 -125 
Q 4525 -175 3587 -262 
Q 2650 -350 2325 -450 
Q 2250 -150 2125 75 
Q 2450 175 2825 725 
Q 3200 1275 3500 2100 
L 2800 2100 
Q 2350 2100 1950 2075 
L 1950 2525 
Q 2350 2500 2825 2500 
L 3725 2500 
L 3725 3600 
L 3150 3600 
Q 2675 3600 2325 3575 
L 2325 4025 
Q 2725 4000 3125 4000 
L 3725 4000 
Q 3725 4700 3700 5150 
L 4250 5150 
Q 4225 4775 4225 4000 
L 4975 4000 
Q 5350 4000 5750 4025 
L 5750 3575 
Q 5350 3600 5025 3600 
L 4225 3600 
L 4225 2500 
L 5125 2500 
Q 5575 2500 6025 2525 
L 6025 2075 
Q 5575 2100 5125 2100 
L 3850 2100 
L 4100 1950 
Q 3950 1775 3625 1200 
Q 3300 625 2900 100 
Q 4000 150 5075 225 
Q 4775 675 4450 1025 
Q 4650 1175 4825 1350 
Q 5275 800 6075 -300 
z
M 300 -250 
Q 650 100 1012 625 
Q 1375 1150 1725 1725 
Q 1850 1500 2075 1375 
Q 1850 1075 1500 487 
Q 1150 -100 850 -625 
Q 650 -425 300 -250 
z
M 675 3425 
Q 1200 3100 1800 2650 
Q 1575 2500 1400 2250 
Q 925 2675 350 3050 
Q 525 3200 675 3425 
z
M 1050 4900 
Q 1550 4575 2100 4125 
Q 1900 3975 1725 3725 
Q 1250 4175 725 4525 
Q 900 4700 1050 4900 
z
" transform="scale(0.015625)"/>
     </defs>
     <use xlink:href="#SimHei-5782"/>
     <use xlink:href="#SimHei-76f4" transform="translate(100 0)"/>
     <use xlink:href="#SimHei-4ea4" transform="translate(200 0)"/>
     <use xlink:href="#SimHei-70b9" transform="translate(300 0)"/>
     <use xlink:href="#SimHei-6cd5" transform="translate(400 0)"/>
    </g>
   </g>
   <g id="text_9">
    <!-- MOPSO-DT -->
    <g style="fill: #1f2937" transform="translate(125.1518 148.4128) scale(0.14 -0.14)">
     <defs>
      <path id="SimHei-4d" d="M 2925 125 
L 2425 125 
L 2425 3175 
L 2375 3175 
L 1775 125 
L 1375 125 
L 775 3175 
L 725 3175 
L 725 125 
L 225 125 
L 225 4400 
L 1000 4400 
L 1550 1575 
L 1600 1575 
L 2150 4400 
L 2925 4400 
L 2925 125 
z
" transform="scale(0.015625)"/>
      <path id="SimHei-4f" d="M 2950 2275 
Q 2950 1100 2587 587 
Q 2225 75 1575 75 
Q 925 75 550 587 
Q 175 1100 175 2275 
Q 175 3450 550 3950 
Q 925 4450 1575 4450 
Q 2225 4450 2587 3950 
Q 2950 3450 2950 2275 
z
M 2350 2275 
Q 2350 3325 2125 3650 
Q 1900 3975 1575 3975 
Q 1250 3975 1012 3650 
Q 775 3325 775 2275 
Q 775 1225 1012 887 
Q 1250 550 1575 550 
Q 1900 550 2125 887 
Q 2350 1225 2350 2275 
z
" transform="scale(0.015625)"/>
      <path id="SimHei-50" d="M 2950 3100 
Q 2950 2500 2600 2150 
Q 2250 1800 1625 1800 
L 900 1800 
L 900 125 
L 325 125 
L 325 4400 
L 1625 4400 
Q 2250 4400 2600 4050 
Q 2950 3700 2950 3100 
z
M 2375 3100 
Q 2375 3575 2150 3750 
Q 1925 3925 1475 3925 
L 900 3925 
L 900 2275 
L 1475 2275 
Q 1925 2275 2150 2450 
Q 2375 2625 2375 3100 
z
" transform="scale(0.015625)"/>
      <path id="SimHei-53" d="M 2900 1325 
Q 2900 750 2537 412 
Q 2175 75 1550 75 
Q 925 75 575 425 
Q 225 775 225 1300 
L 225 1475 
L 800 1475 
L 800 1325 
Q 800 950 1025 750 
Q 1250 550 1550 550 
Q 1950 550 2137 762 
Q 2325 975 2325 1275 
Q 2325 1525 2100 1737 
Q 1875 1950 1450 2125 
Q 850 2350 587 2625 
Q 325 2900 325 3275 
Q 325 3800 687 4125 
Q 1050 4450 1550 4450 
Q 2200 4450 2487 4062 
Q 2775 3675 2775 3225 
L 2200 3225 
Q 2225 3500 2050 3725 
Q 1875 3950 1550 3950 
Q 1250 3950 1075 3787 
Q 900 3625 900 3350 
Q 900 3125 1037 2962 
Q 1175 2800 1750 2575 
Q 2300 2350 2600 2037 
Q 2900 1725 2900 1325 
z
" transform="scale(0.015625)"/>
      <path id="SimHei-2d" d="M 2975 2125 
L 125 2125 
L 125 2525 
L 2975 2525 
L 2975 2125 
z
" transform="scale(0.015625)"/>
      <path id="SimHei-44" d="M 2925 2250 
Q 2925 1100 2437 612 
Q 1950 125 1125 125 
L 275 125 
L 275 4400 
L 1125 4400 
Q 2050 4400 2487 3900 
Q 2925 3400 2925 2250 
z
M 2325 2250 
Q 2325 3175 2025 3550 
Q 1725 3925 1125 3925 
L 850 3925 
L 850 600 
L 1125 600 
Q 1725 600 2025 962 
Q 2325 1325 2325 2250 
z
" transform="scale(0.015625)"/>
      <path id="SimHei-54" d="M 2850 3925 
L 1850 3925 
L 1850 125 
L 1275 125 
L 1275 3925 
L 275 3925 
L 275 4400 
L 2850 4400 
L 2850 3925 
z
" transform="scale(0.015625)"/>
     </defs>
     <use xlink:href="#SimHei-4d"/>
     <use xlink:href="#SimHei-4f" transform="translate(50 0)"/>
     <use xlink:href="#SimHei-50" transform="translate(100 0)"/>
     <use xlink:href="#SimHei-53" transform="translate(150 0)"/>
     <use xlink:href="#SimHei-4f" transform="translate(200 0)"/>
     <use xlink:href="#SimHei-2d" transform="translate(250 0)"/>
     <use xlink:href="#SimHei-44" transform="translate(300 0)"/>
     <use xlink:href="#SimHei-54" transform="translate(350 0)"/>
    </g>
    <!-- 多目标搜索 -->
    <g style="fill: #1f2937" transform="translate(118.1518 162.6578) scale(0.14 -0.14)">
     <defs>
      <path id="SimHei-76ee" d="M 5375 4900 
Q 5350 4175 5350 3525 
L 5350 600 
Q 5350 225 5375 -550 
L 4825 -550 
L 4825 -100 
L 1575 -100 
L 1575 -525 
L 1050 -525 
Q 1075 150 1075 550 
L 1075 3525 
Q 1075 4350 1050 4900 
L 5375 4900 
z
M 4825 300 
L 4825 1475 
L 1575 1475 
L 1575 300 
L 4825 300 
z
M 4825 1875 
L 4825 3000 
L 1575 3000 
L 1575 1875 
L 4825 1875 
z
M 4825 3400 
L 4825 4500 
L 1575 4500 
L 1575 3400 
L 4825 3400 
z
" transform="scale(0.015625)"/>
      <path id="SimHei-641c" d="M 2525 1975 
Q 2850 1950 3225 1950 
L 3900 1950 
L 3900 2450 
L 2500 2450 
Q 2525 2800 2525 3075 
L 2525 4200 
Q 2525 4475 2500 4775 
Q 3175 4850 3450 5000 
Q 3600 4650 3675 4550 
Q 3450 4525 2975 4500 
L 2975 3900 
L 3525 3900 
L 3525 3475 
L 2975 3475 
L 2975 2875 
L 3900 2875 
L 3900 4575 
Q 3900 4850 3875 5225 
L 4375 5225 
Q 4350 4925 4350 4600 
L 4350 2875 
L 5275 2875 
L 5275 3475 
L 4650 3475 
L 4650 3900 
L 5275 3900 
L 5275 4500 
Q 4975 4500 4675 4475 
L 4675 4925 
Q 4975 4900 5200 4900 
L 5750 4900 
Q 5725 4600 5725 4300 
L 5725 3100 
Q 5725 2675 5750 2450 
L 4350 2450 
L 4350 1950 
L 5675 1950 
Q 5550 1600 5275 1150 
Q 5000 700 4500 200 
Q 4775 25 5275 -62 
Q 5775 -150 6175 -150 
Q 6000 -300 5875 -650 
Q 5175 -550 4812 -425 
Q 4450 -300 4125 -100 
Q 3700 -300 3350 -412 
Q 3000 -525 2375 -675 
Q 2325 -450 2075 -200 
Q 3125 -100 3725 200 
Q 3450 475 3275 762 
Q 3100 1050 2925 1525 
L 2525 1525 
L 2525 1975 
z
M 1150 4550 
Q 1150 4925 1125 5225 
L 1675 5225 
Q 1600 4925 1600 4600 
L 1600 3950 
Q 1925 3950 2150 3975 
L 2150 3500 
Q 1900 3525 1600 3525 
L 1600 2500 
Q 2000 2650 2175 2800 
Q 2175 2675 2200 2325 
Q 2075 2275 1600 2075 
L 1600 0 
Q 1600 -300 1350 -387 
Q 1100 -475 650 -550 
Q 625 -300 450 0 
Q 900 0 1025 25 
Q 1150 50 1150 225 
L 1150 1900 
Q 650 1675 450 1525 
Q 325 1950 250 2100 
Q 550 2125 1150 2350 
L 1150 3525 
Q 625 3525 350 3500 
L 350 3975 
Q 625 3950 1150 3950 
L 1150 4550 
z
M 3400 1525 
Q 3750 775 4150 450 
Q 4700 1000 4950 1525 
L 3400 1525 
z
" transform="scale(0.015625)"/>
      <path id="SimHei-7d22" d="M 3275 3000 
Q 3100 2925 2850 2775 
Q 2600 2625 2200 2375 
L 3425 2375 
Q 3825 2575 4175 2900 
Q 4475 2700 4775 2525 
Q 4325 2400 3937 2187 
Q 3550 1975 2300 1375 
Q 3375 1425 4600 1475 
Q 4400 1650 4200 1800 
Q 4475 1925 4575 2075 
Q 5025 1825 5675 1125 
Q 5425 975 5275 800 
Q 5050 1000 4900 1150 
Q 4400 1150 3450 1075 
L 3450 -25 
Q 3450 -400 3212 -475 
Q 2975 -550 2450 -625 
Q 2425 -350 2250 -100 
Q 2600 -100 2775 -75 
Q 2950 -50 2950 125 
L 2950 1025 
Q 2175 1025 1700 962 
Q 1225 900 975 850 
Q 900 1100 825 1300 
Q 1425 1400 1837 1550 
Q 2250 1700 2875 2050 
Q 2300 2050 2012 2025 
Q 1725 2000 1325 1900 
Q 1250 2175 1175 2350 
Q 1525 2375 1925 2612 
Q 2325 2850 2675 3275 
Q 2975 3125 3275 3000 
z
M 2900 4625 
Q 2900 4925 2875 5150 
L 3425 5150 
Q 3400 4850 3400 4625 
L 4775 4625 
Q 5050 4625 5575 4650 
L 5575 4250 
Q 5100 4275 4750 4275 
L 3400 4275 
L 3400 3750 
L 5900 3750 
Q 5875 3550 5875 3250 
Q 5875 2950 5900 2700 
L 5375 2700 
L 5375 3375 
L 975 3375 
L 975 2525 
L 475 2525 
L 475 3750 
L 2900 3750 
L 2900 4275 
L 1750 4275 
Q 1050 4275 825 4250 
L 825 4650 
Q 1150 4625 1725 4625 
L 2900 4625 
z
M 4525 800 
Q 5175 375 5875 -75 
Q 5650 -250 5475 -450 
Q 4800 100 4125 500 
Q 4350 675 4525 800 
z
M 2125 450 
Q 1900 325 1575 75 
Q 1250 -175 775 -475 
Q 650 -275 375 -125 
Q 1100 225 1700 775 
Q 1900 600 2125 450 
z
" transform="scale(0.015625)"/>
     </defs>
     <use xlink:href="#SimHei-591a"/>
     <use xlink:href="#SimHei-76ee" transform="translate(100 0)"/>
     <use xlink:href="#SimHei-6807" transform="translate(200 0)"/>
     <use xlink:href="#SimHei-641c" transform="translate(300 0)"/>
     <use xlink:href="#SimHei-7d22" transform="translate(400 0)"/>
    </g>
   </g>
   <g id="text_10">
    <!-- ECR评价 -->
    <g style="fill: #1f2937" transform="translate(237.8245 149.117175) scale(0.14 -0.14)">
     <defs>
      <path id="SimHei-45" d="M 2900 125 
L 350 125 
L 350 4400 
L 2775 4400 
L 2775 3925 
L 925 3925 
L 925 2600 
L 2625 2600 
L 2625 2125 
L 925 2125 
L 925 600 
L 2900 600 
L 2900 125 
z
" transform="scale(0.015625)"/>
      <path id="SimHei-43" d="M 2975 1825 
Q 2950 875 2575 475 
Q 2200 75 1675 75 
Q 1075 75 650 562 
Q 225 1050 225 2125 
Q 225 3300 637 3875 
Q 1050 4450 1700 4450 
Q 2250 4450 2612 4037 
Q 2975 3625 2950 2875 
L 2400 2875 
Q 2400 3425 2225 3700 
Q 2050 3975 1700 3975 
Q 1300 3975 1062 3562 
Q 825 3150 825 2175 
Q 825 1275 1062 912 
Q 1300 550 1675 550 
Q 1950 550 2175 812 
Q 2400 1075 2400 1825 
L 2975 1825 
z
" transform="scale(0.015625)"/>
      <path id="SimHei-52" d="M 3000 125 
L 2400 125 
L 1500 1975 
L 850 1975 
L 850 125 
L 275 125 
L 275 4400 
L 1525 4400 
Q 2125 4400 2500 4112 
Q 2875 3825 2875 3175 
Q 2875 2675 2625 2400 
Q 2375 2125 2050 2050 
L 3000 125 
z
M 2300 3175 
Q 2300 3525 2087 3725 
Q 1875 3925 1400 3925 
L 850 3925 
L 850 2450 
L 1550 2450 
Q 1850 2450 2075 2612 
Q 2300 2775 2300 3175 
z
" transform="scale(0.015625)"/>
      <path id="SimHei-8bc4" d="M 5900 4500 
Q 5400 4525 4425 4525 
L 4425 2125 
L 5200 2125 
Q 5750 2125 6175 2150 
L 6175 1675 
Q 5775 1700 5200 1700 
L 4425 1700 
L 4425 200 
Q 4425 -300 4450 -675 
L 3900 -675 
Q 3925 -200 3925 200 
L 3925 1700 
L 3075 1700 
Q 2625 1700 2225 1675 
L 2225 2150 
Q 2625 2125 3075 2125 
L 3925 2125 
L 3925 4525 
Q 2850 4525 2425 4500 
L 2425 4975 
Q 2850 4950 3300 4950 
L 4950 4950 
Q 5400 4950 5900 4975 
L 5900 4500 
z
M 875 225 
Q 1150 400 1150 650 
L 1150 2875 
Q 475 2875 225 2850 
L 225 3350 
Q 475 3325 825 3325 
L 1650 3325 
Q 1625 2825 1625 2325 
L 1625 725 
Q 1900 975 2275 1375 
Q 2375 1225 2550 950 
Q 2100 550 1812 300 
Q 1525 50 1250 -250 
Q 1100 25 875 225 
z
M 4825 2625 
Q 5200 3425 5375 4050 
Q 5650 3975 5975 3850 
Q 5925 3800 5700 3325 
Q 5475 2850 5300 2450 
Q 5050 2575 4825 2625 
z
M 2850 4000 
Q 3275 3175 3450 2700 
Q 3150 2600 2950 2475 
Q 2700 3300 2400 3800 
Q 2650 3875 2850 4000 
z
M 1100 5225 
Q 1400 4975 1975 4275 
Q 1750 4125 1575 3950 
Q 1300 4350 750 4900 
Q 900 5025 1100 5225 
z
" transform="scale(0.015625)"/>
      <path id="SimHei-4ef7" d="M 2200 4975 
Q 2050 4725 1650 3775 
L 1650 450 
Q 1650 -225 1675 -650 
L 1175 -650 
Q 1175 -225 1200 450 
L 1200 2975 
Q 900 2425 650 2100 
Q 525 2275 225 2450 
Q 750 3025 1125 3800 
Q 1500 4575 1625 5175 
Q 1950 5025 2200 4975 
z
M 4175 4700 
Q 4850 3525 6150 2950 
Q 5925 2750 5775 2500 
Q 4725 3100 3950 4300 
Q 3300 3125 2250 2350 
Q 2125 2525 1900 2725 
Q 2825 3325 3250 4050 
Q 3675 4775 3750 5150 
Q 4150 4950 4325 4900 
L 4175 4700 
z
M 3475 2650 
Q 3400 2075 3325 1087 
Q 3250 100 2325 -675 
Q 2175 -450 1925 -300 
Q 2850 350 2912 1262 
Q 2975 2175 2950 2700 
Q 3275 2650 3475 2650 
z
M 5075 2700 
Q 5050 2150 5050 1725 
L 5050 150 
Q 5050 -225 5075 -650 
L 4550 -650 
Q 4575 -225 4575 175 
L 4575 1875 
Q 4575 2150 4550 2700 
L 5075 2700 
z
" transform="scale(0.015625)"/>
     </defs>
     <use xlink:href="#SimHei-45"/>
     <use xlink:href="#SimHei-43" transform="translate(50 0)"/>
     <use xlink:href="#SimHei-52" transform="translate(100 0)"/>
     <use xlink:href="#SimHei-8bc4" transform="translate(150 0)"/>
     <use xlink:href="#SimHei-4ef7" transform="translate(250 0)"/>
    </g>
    <!-- 覆盖率 -->
    <g style="fill: #1f2937" transform="translate(241.3245 163.484675) scale(0.14 -0.14)">
     <defs>
      <path id="SimHei-8986" d="M 5325 875 
Q 5125 575 4925 350 
Q 4725 125 4400 -100 
Q 4750 -175 5150 -212 
Q 5550 -250 6000 -200 
Q 5900 -375 5825 -625 
Q 5275 -625 4825 -537 
Q 4375 -450 4025 -325 
Q 3325 -575 2275 -650 
Q 2225 -450 2025 -225 
Q 2475 -250 2875 -212 
Q 3275 -175 3650 -75 
Q 3375 125 3100 525 
Q 2775 275 2425 100 
Q 2300 300 2125 450 
Q 2450 525 2725 725 
Q 3000 925 3150 1150 
L 2550 1150 
Q 2575 1575 2575 1800 
L 2575 2375 
Q 2450 2275 2300 2175 
Q 2200 2350 2025 2500 
Q 2300 2675 2537 2900 
Q 2775 3125 2975 3400 
L 875 3400 
Q 900 3675 900 3950 
Q 900 4225 875 4475 
L 2275 4475 
L 2275 4825 
L 1500 4825 
Q 1100 4825 625 4800 
L 625 5175 
Q 1100 5150 1700 5150 
L 4900 5150 
Q 5425 5150 5825 5175 
L 5825 4800 
Q 5525 4825 5050 4825 
L 4125 4825 
L 4125 4475 
L 5575 4475 
Q 5550 4225 5550 3975 
Q 5550 3725 5575 3400 
L 3150 3400 
Q 3250 3325 3425 3250 
L 3275 3125 
L 4875 3125 
Q 5250 3125 5700 3150 
L 5700 2775 
Q 5325 2800 4875 2800 
L 3025 2800 
Q 2875 2675 2775 2575 
L 5425 2575 
Q 5400 2200 5400 1825 
Q 5400 1475 5425 1150 
L 3675 1150 
Q 3525 950 3450 875 
L 5325 875 
z
M 2150 1875 
Q 1975 1850 1625 1525 
L 1625 175 
Q 1625 -100 1650 -600 
L 1175 -600 
Q 1200 50 1200 250 
L 1200 1225 
Q 850 1000 450 750 
Q 400 925 200 1075 
Q 750 1350 1125 1625 
Q 1500 1900 1775 2250 
Q 1925 2075 2150 1875 
z
M 2200 3025 
Q 2000 2925 1625 2637 
Q 1250 2350 675 2000 
Q 550 2200 375 2325 
Q 875 2550 1225 2825 
Q 1575 3100 1800 3375 
Q 1975 3200 2200 3025 
z
M 5000 2000 
L 5000 2275 
L 3000 2275 
L 3000 2000 
L 5000 2000 
z
M 5000 1450 
L 5000 1700 
L 3000 1700 
L 3000 1450 
L 5000 1450 
z
M 5150 3725 
L 5150 4150 
L 4125 4150 
L 4125 3725 
L 5150 3725 
z
M 2275 3725 
L 2275 4150 
L 1300 4150 
L 1300 3725 
L 2275 3725 
z
M 3675 3725 
L 3675 4150 
L 2725 4150 
L 2725 3725 
L 3675 3725 
z
M 3675 4475 
L 3675 4825 
L 2725 4825 
L 2725 4475 
L 3675 4475 
z
M 4050 75 
Q 4400 300 4600 550 
L 3525 550 
Q 3700 300 4050 75 
z
" transform="scale(0.015625)"/>
      <path id="SimHei-76d6" d="M 5375 1550 
Q 5350 1100 5350 750 
L 5350 -50 
Q 5850 -50 6175 0 
L 6175 -475 
Q 5650 -450 4725 -450 
L 1400 -450 
Q 700 -450 200 -475 
L 200 0 
Q 600 -50 1000 -50 
L 1000 750 
Q 1000 1175 975 1550 
L 5375 1550 
z
M 3550 4375 
Q 3775 4700 3950 5300 
Q 4175 5150 4550 5050 
Q 4375 4900 4262 4712 
Q 4150 4525 4050 4375 
L 4875 4375 
Q 5275 4375 5700 4400 
L 5700 3950 
Q 5275 3975 4875 3975 
L 3425 3975 
L 3425 3375 
L 4500 3375 
Q 4875 3375 5325 3400 
L 5325 2950 
Q 4875 2975 4500 2975 
L 3425 2975 
L 3425 2425 
L 4850 2425 
Q 5300 2425 5925 2450 
L 5925 2025 
Q 5300 2050 5075 2050 
L 1350 2050 
Q 925 2050 525 2025 
L 525 2450 
Q 875 2425 1350 2425 
L 2950 2425 
L 2950 2975 
L 1825 2975 
Q 1525 2975 1100 2950 
L 1100 3400 
Q 1525 3375 1800 3375 
L 2950 3375 
L 2950 3975 
L 1725 3975 
Q 1125 3975 675 3950 
L 675 4400 
Q 1125 4375 1675 4375 
L 3550 4375 
z
M 2325 -50 
L 2325 1150 
L 1475 1150 
L 1475 -50 
L 2325 -50 
z
M 4875 -50 
L 4875 1150 
L 4050 1150 
L 4050 -50 
L 4875 -50 
z
M 3575 -50 
L 3575 1150 
L 2825 1150 
L 2825 -50 
L 3575 -50 
z
M 2375 5300 
Q 2625 4875 2750 4650 
Q 2500 4525 2275 4400 
Q 2150 4750 1925 5075 
Q 2200 5200 2375 5300 
z
" transform="scale(0.015625)"/>
      <path id="SimHei-7387" d="M 3325 5150 
Q 3425 4900 3550 4525 
L 4800 4525 
Q 5250 4525 5800 4550 
L 5800 4125 
Q 5250 4175 4775 4175 
L 2800 4175 
Q 2975 4050 3300 3900 
Q 3075 3750 2875 3537 
Q 2675 3325 2475 3125 
L 3275 3125 
Q 3575 3425 3775 3775 
Q 4000 3600 4275 3425 
Q 3950 3250 3600 2875 
Q 3250 2500 2625 2000 
L 3850 2100 
Q 3725 2250 3600 2425 
Q 3750 2475 4000 2650 
Q 4250 2350 4700 1700 
Q 4475 1625 4225 1450 
Q 4175 1600 4025 1775 
Q 3700 1750 3425 1750 
L 3425 1050 
L 5150 1050 
Q 5675 1050 6100 1075 
L 6100 650 
Q 5700 675 5125 675 
L 3425 675 
L 3425 175 
Q 3425 -300 3450 -625 
L 2900 -625 
Q 2925 -300 2925 175 
L 2925 675 
L 1325 675 
Q 825 675 325 650 
L 325 1075 
Q 825 1050 1350 1050 
L 2925 1050 
L 2925 1700 
Q 2700 1675 2475 1637 
Q 2250 1600 2025 1525 
Q 1950 1775 1850 2000 
Q 2075 2025 2325 2200 
Q 2575 2375 2975 2800 
Q 2300 2725 2025 2625 
Q 1975 2875 1850 3175 
Q 2075 3175 2325 3487 
Q 2575 3800 2750 4175 
L 1700 4175 
Q 1150 4175 650 4125 
L 650 4550 
Q 1150 4525 1550 4525 
L 2975 4525 
Q 2900 4825 2800 5025 
Q 3025 5075 3325 5150 
z
M 1625 2575 
Q 1725 2400 1825 2200 
Q 1575 2050 1325 1862 
Q 1075 1675 800 1425 
Q 625 1675 475 1875 
Q 800 2025 1100 2212 
Q 1400 2400 1625 2575 
z
M 4850 2650 
Q 5125 2475 5337 2337 
Q 5550 2200 5875 1950 
Q 5675 1800 5500 1600 
Q 5300 1775 5062 1975 
Q 4825 2175 4575 2325 
Q 4725 2475 4850 2650 
z
M 5725 3525 
Q 5550 3450 5300 3262 
Q 5050 3075 4800 2825 
Q 4625 3050 4475 3175 
Q 4700 3325 4875 3487 
Q 5050 3650 5300 3925 
Q 5525 3700 5725 3525 
z
M 1050 3850 
Q 1425 3600 1775 3275 
Q 1575 3100 1425 2925 
Q 1075 3300 675 3525 
Q 875 3700 1050 3850 
z
" transform="scale(0.015625)"/>
     </defs>
     <use xlink:href="#SimHei-8986"/>
     <use xlink:href="#SimHei-76d6" transform="translate(100 0)"/>
     <use xlink:href="#SimHei-7387" transform="translate(200 0)"/>
    </g>
   </g>
   <g id="text_11">
    <!-- $J_{\min}$评价 -->
    <g style="fill: #1f2937" transform="translate(337.5493 148.714675) scale(0.14 -0.14)">
     <defs>
      <path id="DejaVuSans-Oblique-4a" d="M 1069 4666 
L 1703 4666 
L 856 325 
Q 691 -522 298 -901 
Q -94 -1281 -800 -1281 
L -1050 -1281 
L -947 -750 
L -750 -750 
Q -328 -750 -109 -509 
Q 109 -269 225 325 
L 1069 4666 
z
" transform="scale(0.015625)"/>
      <path id="DejaVuSans-6d" d="M 3328 2828 
Q 3544 3216 3844 3400 
Q 4144 3584 4550 3584 
Q 5097 3584 5394 3201 
Q 5691 2819 5691 2113 
L 5691 0 
L 5113 0 
L 5113 2094 
Q 5113 2597 4934 2840 
Q 4756 3084 4391 3084 
Q 3944 3084 3684 2787 
Q 3425 2491 3425 1978 
L 3425 0 
L 2847 0 
L 2847 2094 
Q 2847 2600 2669 2842 
Q 2491 3084 2119 3084 
Q 1678 3084 1418 2786 
Q 1159 2488 1159 1978 
L 1159 0 
L 581 0 
L 581 3500 
L 1159 3500 
L 1159 2956 
Q 1356 3278 1631 3431 
Q 1906 3584 2284 3584 
Q 2666 3584 2933 3390 
Q 3200 3197 3328 2828 
z
" transform="scale(0.015625)"/>
      <path id="DejaVuSans-69" d="M 603 3500 
L 1178 3500 
L 1178 0 
L 603 0 
L 603 3500 
z
M 603 4863 
L 1178 4863 
L 1178 4134 
L 603 4134 
L 603 4863 
z
" transform="scale(0.015625)"/>
      <path id="DejaVuSans-6e" d="M 3513 2113 
L 3513 0 
L 2938 0 
L 2938 2094 
Q 2938 2591 2744 2837 
Q 2550 3084 2163 3084 
Q 1697 3084 1428 2787 
Q 1159 2491 1159 1978 
L 1159 0 
L 581 0 
L 581 3500 
L 1159 3500 
L 1159 2956 
Q 1366 3272 1645 3428 
Q 1925 3584 2291 3584 
Q 2894 3584 3203 3211 
Q 3513 2838 3513 2113 
z
" transform="scale(0.015625)"/>
     </defs>
     <use xlink:href="#DejaVuSans-Oblique-4a" transform="translate(0 0.359375)"/>
     <use xlink:href="#DejaVuSans-6d" transform="translate(29.492188 -16.046875) scale(0.7)"/>
     <use xlink:href="#DejaVuSans-69" transform="translate(97.680664 -16.046875) scale(0.7)"/>
     <use xlink:href="#DejaVuSans-6e" transform="translate(117.128906 -16.046875) scale(0.7)"/>
     <use xlink:href="#SimHei-8bc4" transform="translate(164.228516 0.359375)"/>
     <use xlink:href="#SimHei-4ef7" transform="translate(264.228516 0.359375)"/>
    </g>
    <!-- 压制强度 -->
    <g style="fill: #1f2937" transform="translate(335.0993 164.210925) scale(0.14 -0.14)">
     <defs>
      <path id="SimHei-538b" d="M 3300 2725 
L 3300 3475 
Q 3300 3875 3275 4150 
L 3850 4150 
Q 3800 3950 3800 3450 
L 3800 2725 
L 4700 2725 
Q 5225 2725 5475 2750 
L 5475 2200 
Q 5225 2225 4700 2225 
L 3800 2225 
L 3800 175 
L 4900 175 
Q 5525 175 5850 200 
L 5850 -325 
Q 5525 -300 4925 -300 
L 2375 -300 
Q 1725 -300 1450 -325 
L 1450 200 
Q 1825 175 2375 175 
L 3300 175 
L 3300 2225 
L 2725 2225 
Q 2075 2225 1850 2200 
L 1850 2750 
Q 2250 2725 2725 2725 
L 3300 2725 
z
M 4900 4950 
Q 5450 4950 5750 4975 
L 5750 4475 
Q 5500 4500 4900 4500 
L 1450 4500 
L 1450 2275 
Q 1450 1425 1262 725 
Q 1075 25 725 -650 
Q 525 -450 200 -325 
Q 625 300 775 862 
Q 925 1425 950 2125 
L 950 4000 
Q 925 4525 900 4950 
L 4900 4950 
z
M 4625 1850 
Q 5025 1325 5275 925 
Q 5000 775 4775 625 
Q 4525 1150 4225 1575 
Q 4450 1700 4625 1850 
z
" transform="scale(0.015625)"/>
      <path id="SimHei-5236" d="M 1325 4625 
Q 1175 4375 1075 4150 
L 1800 4150 
Q 1800 4775 1775 5125 
L 2350 5125 
Q 2325 4800 2325 4150 
L 2700 4150 
Q 3200 4150 3600 4175 
L 3600 3725 
Q 3250 3750 2725 3750 
L 2325 3750 
L 2325 3025 
L 2950 3025 
Q 3325 3025 3750 3050 
L 3750 2625 
L 2325 2625 
L 2325 1950 
L 3675 1950 
Q 3650 1650 3637 1125 
Q 3625 600 3612 412 
Q 3600 225 3400 137 
Q 3200 50 2825 -25 
Q 2775 250 2650 550 
Q 2975 550 3050 587 
Q 3125 625 3125 975 
L 3125 1550 
L 2325 1550 
L 2325 175 
Q 2325 -250 2350 -550 
L 1775 -550 
Q 1800 -75 1800 175 
L 1800 1550 
L 1025 1550 
L 1025 -25 
L 500 -25 
Q 525 300 525 650 
L 525 1200 
Q 525 1675 500 1950 
L 1800 1950 
L 1800 2625 
L 1000 2625 
Q 550 2625 225 2600 
L 225 3050 
Q 550 3025 1000 3025 
L 1800 3025 
L 1800 3750 
L 925 3750 
Q 800 3450 675 3250 
Q 450 3400 225 3500 
Q 400 3750 525 4075 
Q 650 4400 750 4800 
Q 1000 4700 1325 4625 
z
M 5875 5075 
Q 5850 4825 5850 4350 
L 5850 25 
Q 5850 -325 5587 -412 
Q 5325 -500 4825 -575 
Q 4750 -250 4625 0 
Q 5050 0 5200 25 
Q 5350 50 5350 350 
L 5350 4350 
Q 5350 4775 5325 5075 
L 5875 5075 
z
M 4675 4325 
Q 4650 3975 4650 3700 
L 4650 1625 
Q 4650 1275 4675 775 
L 4125 775 
Q 4175 1200 4175 1625 
L 4175 3700 
Q 4175 3950 4125 4325 
L 4675 4325 
z
" transform="scale(0.015625)"/>
      <path id="SimHei-5f3a" d="M 2350 25 
Q 3100 75 3950 225 
L 3950 1200 
L 3100 1200 
L 3100 975 
L 2625 975 
Q 2650 1725 2650 2050 
L 2650 2875 
L 3950 2875 
L 3950 3500 
L 2850 3500 
Q 2875 3900 2875 4275 
Q 2875 4675 2850 5025 
L 5525 5025 
Q 5500 4675 5500 4275 
Q 5500 3900 5525 3500 
L 4400 3500 
L 4400 2875 
L 5750 2875 
Q 5725 2575 5725 2075 
Q 5725 1575 5750 1200 
L 4400 1200 
L 4400 275 
L 5250 425 
Q 5150 575 5050 750 
Q 5300 825 5475 925 
Q 5925 200 6175 -250 
Q 5925 -350 5725 -500 
Q 5625 -250 5425 100 
Q 5125 50 4225 -137 
Q 3325 -325 2600 -525 
Q 2525 -200 2350 25 
z
M 600 -25 
Q 1250 -25 1400 50 
Q 1550 125 1575 325 
L 1675 1850 
L 500 1850 
Q 550 2350 562 2762 
Q 575 3175 575 3575 
L 1800 3575 
L 1800 4550 
L 1275 4550 
Q 825 4550 425 4525 
L 425 4950 
Q 850 4925 1275 4925 
L 2275 4925 
Q 2250 4525 2250 4075 
Q 2250 3650 2275 3200 
L 1075 3200 
L 1025 2225 
L 2175 2225 
Q 2125 1775 2100 1425 
L 2025 150 
Q 1975 -250 1637 -387 
Q 1300 -525 850 -600 
Q 775 -275 600 -25 
z
M 5050 3875 
L 5050 4650 
L 3325 4650 
L 3325 3875 
L 5050 3875 
z
M 3950 1575 
L 3950 2500 
L 3100 2500 
L 3100 1575 
L 3950 1575 
z
M 5250 1575 
L 5250 2500 
L 4400 2500 
L 4400 1575 
L 5250 1575 
z
" transform="scale(0.015625)"/>
      <path id="SimHei-5ea6" d="M 1750 1675 
Q 2450 1650 2875 1650 
L 5200 1650 
Q 4975 1250 4650 850 
Q 4325 450 4025 200 
Q 4350 50 4950 -50 
Q 5550 -150 6100 -150 
Q 5950 -300 5825 -650 
Q 5100 -550 4550 -412 
Q 4000 -275 3625 -100 
Q 3100 -325 2587 -462 
Q 2075 -600 1525 -675 
Q 1450 -475 1225 -250 
Q 1675 -250 2250 -125 
Q 2825 0 3250 200 
Q 2825 550 2400 1275 
L 1750 1250 
L 1750 1675 
z
M 2975 5075 
Q 3250 5150 3475 5250 
Q 3625 4975 3775 4525 
L 4700 4525 
Q 4975 4525 5700 4550 
L 5700 4100 
Q 5000 4125 4650 4125 
L 1375 4125 
Q 1375 3000 1350 2312 
Q 1325 1625 1212 950 
Q 1100 275 725 -525 
Q 500 -375 250 -300 
Q 650 400 762 1075 
Q 875 1750 887 2800 
Q 900 3850 875 4525 
L 3200 4525 
Q 3100 4850 2975 5075 
z
M 2475 3300 
Q 2475 3700 2450 3925 
L 2975 3925 
Q 2950 3725 2950 3300 
L 4300 3300 
Q 4300 3700 4275 3950 
L 4800 3950 
Q 4775 3650 4775 3300 
Q 5325 3300 5725 3325 
L 5725 2900 
Q 5350 2925 4775 2925 
Q 4775 2250 4800 1950 
L 2450 1950 
Q 2475 2350 2475 2925 
Q 2175 2925 1600 2900 
L 1600 3325 
Q 2175 3300 2475 3300 
z
M 4300 2350 
L 4300 2925 
L 2950 2925 
L 2950 2350 
L 4300 2350 
z
M 2875 1275 
Q 3200 775 3650 425 
Q 4025 700 4425 1275 
L 2900 1275 
L 2875 1275 
z
" transform="scale(0.015625)"/>
     </defs>
     <use xlink:href="#SimHei-538b"/>
     <use xlink:href="#SimHei-5236" transform="translate(100 0)"/>
     <use xlink:href="#SimHei-5f3a" transform="translate(200 0)"/>
     <use xlink:href="#SimHei-5ea6" transform="translate(300 0)"/>
    </g>
   </g>
   <g id="text_12">
    <!-- 帕累托前沿 -->
    <g style="fill: #1f2937" transform="translate(388.0843 93.197238) scale(0.14 -0.14)">
     <defs>
      <path id="SimHei-5e15" d="M 4850 5075 
Q 4675 4925 4500 4175 
L 5925 4175 
Q 5900 3875 5900 3125 
L 5900 525 
Q 5900 125 5925 -450 
L 5475 -450 
L 5475 225 
L 3625 225 
L 3625 -500 
L 3175 -500 
Q 3200 -75 3200 400 
L 3200 3150 
Q 3200 3800 3175 4175 
L 3975 4175 
Q 4075 4425 4200 5200 
Q 4400 5150 4850 5075 
z
M 1950 1125 
Q 2375 1025 2325 1275 
L 2325 3700 
L 1825 3700 
L 1825 475 
Q 1825 -75 1850 -550 
L 1350 -550 
Q 1375 -25 1375 475 
L 1375 3700 
L 875 3700 
L 875 425 
L 400 425 
Q 425 1000 425 1475 
L 425 3200 
Q 400 3700 400 4075 
L 1375 4075 
L 1375 4475 
Q 1375 4825 1350 5150 
L 1875 5150 
Q 1825 4850 1825 4475 
L 1825 4075 
L 2800 4075 
Q 2775 3700 2775 3225 
L 2775 1100 
Q 2775 825 2625 737 
Q 2475 650 2125 600 
Q 2125 875 1950 1125 
z
M 5475 600 
L 5475 2025 
L 3625 2025 
L 3625 600 
L 5475 600 
z
M 5475 2400 
L 5475 3800 
L 3625 3800 
L 3625 2400 
L 5475 2400 
z
" transform="scale(0.015625)"/>
      <path id="SimHei-7d2f" d="M 5475 5000 
Q 5450 4600 5450 3975 
Q 5450 3350 5475 2950 
L 4675 2950 
Q 4850 2775 5075 2600 
Q 4800 2525 4237 2275 
Q 3675 2025 3262 1837 
Q 2850 1650 2400 1425 
Q 3850 1525 4650 1575 
Q 4425 1725 4200 1850 
Q 4375 2000 4500 2175 
Q 5125 1800 5900 1300 
Q 5750 1125 5575 900 
Q 5375 1075 5100 1250 
Q 4250 1175 3475 1125 
L 3475 50 
Q 3475 -350 3212 -462 
Q 2950 -575 2600 -600 
Q 2575 -375 2375 -50 
Q 2800 -75 2900 -25 
Q 3000 25 3000 125 
L 3000 1075 
Q 2400 1050 1987 1012 
Q 1575 975 850 875 
Q 775 1125 700 1350 
Q 1150 1400 1575 1512 
Q 2000 1625 3025 2125 
Q 1775 2025 1250 1925 
Q 1200 2200 1100 2375 
Q 1325 2375 1737 2537 
Q 2150 2700 2475 2950 
L 950 2950 
Q 975 3375 975 3975 
Q 975 4600 950 5000 
L 5475 5000 
z
M 2425 525 
Q 2200 400 1762 137 
Q 1325 -125 850 -425 
Q 700 -225 500 -25 
Q 850 125 1250 362 
Q 1650 600 2025 900 
Q 2150 725 2425 525 
z
M 2975 4100 
L 2975 4650 
L 1450 4650 
L 1450 4100 
L 2975 4100 
z
M 4975 4100 
L 4975 4650 
L 3450 4650 
L 3450 4100 
L 4975 4100 
z
M 4275 850 
Q 4750 650 5050 500 
L 5850 100 
Q 5675 -125 5575 -375 
Q 5150 -100 4775 100 
Q 4400 300 4050 450 
Q 4200 675 4275 850 
z
M 2975 3275 
L 2975 3750 
L 1450 3750 
L 1450 3275 
L 2975 3275 
z
M 4975 3275 
L 4975 3750 
L 3450 3750 
L 3450 3275 
L 4975 3275 
z
M 3700 2475 
Q 4200 2700 4575 2950 
L 3225 2950 
Q 2900 2750 2300 2425 
Q 3075 2450 3700 2475 
z
" transform="scale(0.015625)"/>
      <path id="SimHei-6258" d="M 6025 2450 
Q 5725 2375 4250 2125 
L 4250 425 
Q 4250 75 4650 75 
L 5225 75 
Q 5425 75 5512 162 
Q 5600 250 5650 800 
Q 5900 600 6175 550 
Q 6100 0 5937 -175 
Q 5775 -350 5400 -350 
L 4350 -350 
Q 3825 -350 3750 100 
L 3750 2000 
Q 3125 1900 2725 1800 
L 2625 2300 
Q 3000 2325 3750 2450 
L 3750 4100 
Q 3125 4025 2775 3950 
Q 2700 4200 2600 4425 
Q 3000 4450 3812 4550 
Q 4625 4650 5575 4950 
Q 5650 4700 5850 4475 
Q 5475 4375 4250 4175 
L 4250 2550 
Q 5600 2800 6000 2900 
Q 6025 2650 6025 2450 
z
M 1300 3625 
Q 1300 4475 1275 5050 
L 1850 5050 
Q 1800 4450 1800 3625 
Q 2325 3625 2650 3650 
L 2650 3175 
Q 2325 3200 1800 3200 
L 1800 2200 
Q 2125 2375 2500 2575 
L 2550 2125 
Q 2325 2025 1800 1725 
L 1800 -125 
Q 1775 -325 1587 -437 
Q 1400 -550 800 -600 
Q 750 -300 625 -50 
Q 1025 -50 1162 -25 
Q 1300 0 1300 225 
L 1300 1500 
Q 700 1200 475 1025 
Q 400 1300 250 1550 
Q 525 1625 1300 1975 
L 1300 3200 
Q 725 3200 325 3175 
L 325 3650 
Q 700 3625 1300 3625 
z
" transform="scale(0.015625)"/>
      <path id="SimHei-524d" d="M 2075 -100 
Q 2400 -100 2537 -87 
Q 2675 -75 2675 100 
L 2675 875 
L 1325 875 
L 1325 -650 
L 800 -650 
Q 850 -200 850 350 
L 850 2350 
Q 850 2850 825 3300 
L 3175 3300 
Q 3150 2875 3150 2375 
L 3150 -150 
Q 3150 -400 2950 -475 
Q 2750 -550 2275 -625 
Q 2200 -350 2075 -100 
z
M 4950 5075 
Q 4825 4975 4687 4750 
Q 4550 4525 4375 4225 
L 5400 4225 
Q 5750 4225 6175 4250 
L 6175 3775 
Q 5775 3825 5300 3825 
L 1350 3825 
Q 700 3825 250 3775 
L 250 4250 
Q 775 4225 1350 4225 
L 3875 4225 
Q 4300 5025 4350 5300 
Q 4625 5150 4950 5075 
z
M 4375 -75 
Q 4825 -100 4937 -75 
Q 5050 -50 5050 150 
L 5050 2750 
Q 5050 3050 5025 3400 
L 5550 3400 
Q 5525 3075 5525 2750 
L 5525 -25 
Q 5525 -350 5362 -450 
Q 5200 -550 4600 -600 
Q 4550 -275 4375 -75 
z
M 3775 575 
Q 3800 950 3800 1225 
L 3800 2375 
Q 3800 2775 3775 3075 
L 4300 3075 
Q 4275 2775 4275 2375 
L 4275 1250 
Q 4275 875 4300 575 
L 3775 575 
z
M 2675 2250 
L 2675 2925 
L 1325 2925 
L 1325 2250 
L 2675 2250 
z
M 2675 1250 
L 2675 1875 
L 1325 1875 
L 1325 1250 
L 2675 1250 
z
M 2225 4300 
Q 2125 4575 1750 5050 
Q 2025 5175 2200 5300 
Q 2550 4850 2725 4550 
Q 2500 4450 2225 4300 
z
" transform="scale(0.015625)"/>
      <path id="SimHei-6cbf" d="M 5675 2075 
Q 5650 1625 5650 750 
Q 5650 -100 5675 -650 
L 5175 -650 
L 5175 -75 
L 3175 -75 
L 3175 -600 
L 2675 -600 
Q 2700 -25 2700 800 
Q 2700 1650 2675 2075 
L 5675 2075 
z
M 5175 4850 
Q 5150 4475 5150 4125 
L 5150 3375 
Q 5175 3125 5387 3100 
Q 5600 3075 6150 3175 
Q 6050 2925 6050 2650 
L 5200 2650 
Q 4675 2650 4675 3050 
L 4675 4425 
L 3475 4425 
Q 3475 3850 3412 3462 
Q 3350 3075 3175 2787 
Q 3000 2500 2475 2175 
Q 2375 2350 2075 2525 
Q 2850 2875 2937 3487 
Q 3025 4100 2975 4850 
L 5175 4850 
z
M 5175 375 
L 5175 1625 
L 3175 1625 
L 3175 375 
L 5175 375 
z
M 1925 1650 
Q 1675 1125 1387 450 
Q 1100 -225 950 -500 
Q 800 -375 400 -200 
Q 650 75 1000 750 
Q 1350 1425 1500 1925 
Q 1650 1800 1925 1650 
z
M 600 3525 
Q 1150 3250 1800 2850 
Q 1625 2650 1500 2425 
Q 1000 2825 325 3100 
Q 450 3275 600 3525 
z
M 1000 5075 
Q 1450 4750 2025 4250 
Q 1825 4100 1700 3875 
Q 1150 4425 675 4725 
Q 825 4875 1000 5075 
z
" transform="scale(0.015625)"/>
     </defs>
     <use xlink:href="#SimHei-5e15"/>
     <use xlink:href="#SimHei-7d2f" transform="translate(100 0)"/>
     <use xlink:href="#SimHei-6258" transform="translate(200 0)"/>
     <use xlink:href="#SimHei-524d" transform="translate(300 0)"/>
     <use xlink:href="#SimHei-6cbf" transform="translate(400 0)"/>
    </g>
    <!-- 方案选择 -->
    <g style="fill: #1f2937" transform="translate(395.0843 107.625988) scale(0.14 -0.14)">
     <defs>
      <path id="SimHei-65b9" d="M 425 3975 
Q 825 3950 1300 3950 
L 5025 3950 
Q 5625 3950 6000 3975 
L 6000 3475 
Q 5675 3500 5100 3500 
L 2525 3500 
Q 2525 3225 2500 2500 
L 5300 2500 
Q 5250 2175 5200 1550 
L 5050 175 
Q 5000 -275 4625 -412 
Q 4250 -550 3525 -625 
Q 3500 -300 3325 -50 
Q 3900 -75 4200 0 
Q 4500 75 4575 425 
L 4725 2050 
L 2475 2050 
Q 2375 1350 2162 875 
Q 1950 400 1575 0 
Q 1200 -400 825 -700 
Q 725 -550 375 -350 
Q 700 -175 1062 200 
Q 1425 575 1662 1050 
Q 1900 1525 1962 2100 
Q 2025 2675 2025 3500 
L 1325 3500 
Q 775 3500 425 3475 
L 425 3975 
z
M 3075 4075 
Q 2850 4575 2575 5000 
Q 2800 5125 3025 5275 
Q 3300 4850 3575 4350 
Q 3325 4250 3075 4075 
z
" transform="scale(0.015625)"/>
      <path id="SimHei-6848" d="M 3075 3950 
Q 3025 3975 2700 3600 
L 4925 3600 
Q 5250 3600 5675 3625 
L 5675 3225 
Q 5200 3250 4700 3250 
Q 4400 2850 4000 2525 
Q 4750 2325 5675 2050 
Q 5600 1900 5500 1600 
Q 4650 1950 3650 2250 
Q 3150 1975 2487 1837 
Q 1825 1700 1050 1675 
Q 1025 1875 825 2125 
Q 1450 2075 2025 2137 
Q 2600 2200 3050 2375 
Q 2425 2500 1400 2675 
Q 1775 3050 1925 3250 
L 1450 3250 
Q 1250 3250 725 3225 
L 725 3625 
Q 1175 3600 1450 3600 
L 2200 3600 
Q 2475 3925 2650 4250 
L 3075 3950 
z
M 3000 1400 
Q 3000 1550 2975 1775 
L 3450 1775 
Q 3425 1575 3425 1400 
L 4925 1400 
Q 5375 1400 5825 1425 
L 5825 1025 
Q 5375 1050 4925 1050 
L 3850 1050 
Q 4275 625 4862 350 
Q 5450 75 6125 -50 
Q 5950 -175 5800 -500 
Q 4950 -250 4350 150 
Q 3750 550 3425 1000 
L 3425 150 
Q 3425 -150 3450 -625 
L 2975 -625 
Q 3000 -150 3000 200 
L 3000 925 
Q 2625 525 2100 175 
Q 1575 -175 650 -550 
Q 500 -300 325 -125 
Q 975 0 1550 300 
Q 2125 600 2550 1050 
L 1425 1050 
Q 1125 1050 650 1025 
L 650 1425 
Q 1125 1400 1425 1400 
L 3000 1400 
z
M 3125 5275 
Q 3400 4850 3500 4600 
L 5600 4600 
Q 5575 4450 5575 4250 
Q 5575 4075 5600 3850 
L 5125 3850 
L 5125 4275 
L 1300 4275 
L 1300 3825 
L 825 3825 
Q 850 4025 850 4225 
Q 850 4450 825 4600 
L 3000 4600 
Q 2850 4875 2700 5050 
Q 3025 5175 3125 5275 
z
M 2100 2875 
Q 2875 2750 3525 2650 
Q 3850 2825 4175 3250 
L 2425 3250 
Q 2275 3075 2100 2875 
z
" transform="scale(0.015625)"/>
      <path id="SimHei-9009" d="M 3200 4850 
Q 3025 4575 2900 4225 
L 3725 4225 
Q 3725 4725 3700 5175 
L 4275 5175 
Q 4225 4825 4225 4225 
Q 5100 4250 5475 4250 
L 5475 3825 
Q 5050 3850 4225 3850 
L 4225 2975 
L 5075 2975 
Q 5450 2975 5825 3000 
L 5825 2550 
Q 5450 2575 4675 2575 
L 4675 1200 
Q 4675 950 4950 950 
L 5250 950 
Q 5425 1050 5450 1525 
Q 5700 1375 5975 1325 
Q 5825 475 5450 475 
L 4775 475 
Q 4200 475 4200 1000 
L 4200 2575 
L 3700 2575 
Q 3700 1825 3425 1300 
Q 3150 775 2675 325 
Q 2500 500 2175 600 
Q 2800 1050 3012 1487 
Q 3225 1925 3225 2575 
Q 2475 2575 2100 2550 
L 2100 3025 
Q 2500 2975 2800 2975 
L 3725 2975 
L 3725 3850 
L 2775 3850 
Q 2650 3550 2575 3275 
Q 2300 3375 2075 3450 
Q 2450 4100 2625 5000 
Q 2875 4925 3200 4850 
z
M 1675 2875 
Q 1650 2350 1650 1925 
L 1650 575 
Q 2300 50 3725 0 
Q 5150 -50 6125 125 
Q 6000 0 5875 -450 
Q 4325 -475 3637 -425 
Q 2950 -375 2475 -237 
Q 2000 -100 1725 75 
Q 1450 250 1250 37 
Q 1050 -175 800 -500 
Q 625 -300 350 -175 
Q 625 125 1175 525 
L 1175 2475 
Q 800 2475 375 2450 
L 375 2900 
Q 850 2875 1675 2875 
z
M 1300 4850 
Q 1625 4100 1750 3725 
Q 1525 3650 1300 3550 
Q 1200 3850 800 4675 
Q 1025 4750 1300 4850 
z
" transform="scale(0.015625)"/>
      <path id="SimHei-62e9" d="M 2675 5050 
Q 3025 5050 3525 5025 
L 5675 5025 
Q 5400 4475 5187 4150 
Q 4975 3825 4500 3375 
Q 4825 3175 5187 3100 
Q 5550 3025 6150 2975 
Q 5900 2700 5850 2450 
Q 5225 2575 4850 2712 
Q 4475 2850 4125 3100 
Q 3750 2875 3425 2737 
Q 3100 2600 2575 2450 
Q 2525 2650 2225 2875 
Q 2675 2950 3025 3050 
Q 3375 3150 3725 3375 
Q 3175 3950 2975 4625 
L 2675 4625 
L 2675 5050 
z
M 2125 2825 
Q 2125 2600 2150 2350 
Q 1875 2250 1625 2125 
L 1625 175 
Q 1575 -250 1350 -337 
Q 1125 -425 625 -500 
Q 600 -200 500 175 
Q 1100 125 1125 250 
L 1125 1925 
Q 625 1675 450 1550 
Q 350 1850 200 2125 
Q 450 2175 1125 2400 
L 1125 3600 
Q 675 3600 350 3575 
L 350 4050 
Q 650 4025 1125 4025 
Q 1125 4575 1100 5225 
L 1650 5225 
Q 1625 4625 1625 4025 
Q 1900 4025 2350 4050 
L 2350 3575 
Q 1950 3600 1625 3600 
L 1625 2600 
Q 1875 2700 2125 2825 
z
M 3825 2025 
Q 3825 2325 3775 2650 
L 4350 2650 
Q 4325 2325 4325 2025 
Q 4950 2025 5525 2050 
L 5525 1600 
Q 4850 1625 4325 1625 
L 4325 875 
Q 5125 875 6000 900 
L 6000 450 
Q 5300 475 4325 475 
Q 4325 -400 4350 -675 
L 3775 -675 
Q 3825 -400 3825 475 
Q 2450 475 2075 450 
L 2075 900 
Q 2475 875 3825 875 
L 3825 1625 
Q 2900 1625 2575 1600 
L 2575 2050 
Q 3000 2025 3825 2025 
z
M 3425 4625 
Q 3725 3875 4125 3625 
Q 4325 3775 4537 4012 
Q 4750 4250 4950 4625 
L 3425 4625 
z
" transform="scale(0.015625)"/>
     </defs>
     <use xlink:href="#SimHei-65b9"/>
     <use xlink:href="#SimHei-6848" transform="translate(100 0)"/>
     <use xlink:href="#SimHei-9009" transform="translate(200 0)"/>
     <use xlink:href="#SimHei-62e9" transform="translate(300 0)"/>
    </g>
   </g>
  </g>
 </g>
 <defs>
  <clipPath id="p1ce2df5117">
   <rect x="6.7884" y="2.88" width="479.88" height="205.128"/>
  </clipPath>
 </defs>
</svg>
