<svg xmlns="http://www.w3.org/2000/svg" viewBox="0 0 900 620">
<defs><marker id="arrow" viewBox="0 0 10 10" refX="9" refY="5" markerWidth="6" markerHeight="6" orient="auto"><path d="M 0 0 L 10 5 L 0 10 z" fill="#555"/></marker></defs>
<rect width="900" height="620" fill="white"/>
<rect x="-200.0" y="15.0" width="700" height="90" rx="10" fill="#F0F9FF" stroke="#BAE6FD" stroke-width="1"/>
<text x="150" y="50" text-anchor="middle" font-family="SimHei,SimSun,DejaVu Sans,sans-serif" font-size="13" font-weight="bold" fill="#0369A1">Inputs</text>
<rect x="70.0" y="135.0" width="500" height="100" rx="10" fill="#EFF6FF" stroke="#BFDBFE" stroke-width="1"/>
<text x="320" y="175" text-anchor="middle" font-family="SimHei,SimSun,DejaVu Sans,sans-serif" font-size="13" font-weight="bold" fill="#1D4ED8">Preprocessing — Algorithm 1 & 2</text>
<rect x="200.0" y="305.0" width="500" height="150" rx="10" fill="#FFFBEB" stroke="#FDE68A" stroke-width="1"/>
<text x="450" y="370" text-anchor="middle" font-family="SimHei,SimSun,DejaVu Sans,sans-serif" font-size="13" font-weight="bold" fill="#B45309">Multi-Objective Optimization — Algorithm 3</text>
<rect x="340.0" y="550.0" width="220" height="60" rx="10" fill="#FAF5FF" stroke="#E9D5FF" stroke-width="1"/>
<text x="450" y="570" text-anchor="middle" font-family="SimHei,SimSun,DejaVu Sans,sans-serif" font-size="13" font-weight="bold" fill="#7C3AED">Output</text>
<rect x="0.0" y="65.0" width="140" height="50" rx="8" fill="#E0F2FE" stroke="#0EA5E9" stroke-width="1.5"/>
<text x="70" y="85" text-anchor="middle" font-family="SimHei,SimSun,DejaVu Sans,sans-serif" font-size="11" fill="#333">Deployment Region</text>
<text x="70" y="100" text-anchor="middle" font-family="SimHei,SimSun,DejaVu Sans,sans-serif" font-size="10" fill="#666">(Complex Polygon)</text>
<rect x="165.0" y="65.0" width="140" height="50" rx="8" fill="#E0F2FE" stroke="#0EA5E9" stroke-width="1.5"/>
<text x="235" y="85" text-anchor="middle" font-family="SimHei,SimSun,DejaVu Sans,sans-serif" font-size="11" fill="#333">Radar / Jammer</text>
<text x="235" y="100" text-anchor="middle" font-family="SimHei,SimSun,DejaVu Sans,sans-serif" font-size="10" fill="#666">Parameters</text>
<rect x="330.0" y="65.0" width="140" height="50" rx="8" fill="#E0F2FE" stroke="#0EA5E9" stroke-width="1.5"/>
<text x="400" y="85" text-anchor="middle" font-family="SimHei,SimSun,DejaVu Sans,sans-serif" font-size="11" fill="#333">Task Points</text>
<text x="400" y="100" text-anchor="middle" font-family="SimHei,SimSun,DejaVu Sans,sans-serif" font-size="10" fill="#666">(Uniform Grid)</text>
<rect x="120.0" y="185.0" width="180" height="50" rx="8" fill="#DBEAFE" stroke="#3B82F6" stroke-width="1.5"/>
<text x="210" y="203" text-anchor="middle" font-family="SimHei,SimSun,DejaVu Sans,sans-serif" font-size="12" fill="#333">Region Decomposition</text>
<text x="210" y="218" text-anchor="middle" font-family="SimHei,SimSun,DejaVu Sans,sans-serif" font-size="11" fill="#666">Hertel-Mehlhorn</text>
<rect x="370.0" y="185.0" width="180" height="50" rx="8" fill="#DBEAFE" stroke="#3B82F6" stroke-width="1.5"/>
<text x="460" y="203" text-anchor="middle" font-family="SimHei,SimSun,DejaVu Sans,sans-serif" font-size="12" fill="#333">Coordinate Transform</text>
<text x="460" y="218" text-anchor="middle" font-family="SimHei,SimSun,DejaVu Sans,sans-serif" font-size="11" fill="#666">Vertical Intersection</text>
<rect x="250.0" y="390.0" width="200" height="60" rx="8" fill="#FEF3C7" stroke="#F59E0B" stroke-width="1.5"/>
<text x="350" y="408" text-anchor="middle" font-family="SimHei,SimSun,DejaVu Sans,sans-serif" font-size="13" font-weight="bold" fill="#333">MOPSO-DT Optimizer</text>
<text x="350" y="423" text-anchor="middle" font-family="SimHei,SimSun,DejaVu Sans,sans-serif" font-size="11" fill="#555">Standard Inertia + Crowding GB</text>
<text x="350" y="438" text-anchor="middle" font-family="SimHei,SimSun,DejaVu Sans,sans-serif" font-size="11" fill="#555">Numba JIT Accelerated</text>
<rect x="165.0" y="475.0" width="170" height="50" rx="8" fill="#DCFCE7" stroke="#22C55E" stroke-width="1.5"/>
<text x="250" y="493" text-anchor="middle" font-family="SimHei,SimSun,DejaVu Sans,sans-serif" font-size="12" fill="#333">ECR Evaluation</text>
<text x="250" y="508" text-anchor="middle" font-family="SimHei,SimSun,DejaVu Sans,sans-serif" font-size="11" fill="#666">Coverage Rate</text>
<rect x="365.0" y="475.0" width="170" height="50" rx="8" fill="#FEE2E2" stroke="#EF4444" stroke-width="1.5"/>
<text x="450" y="493" text-anchor="middle" font-family="SimHei,SimSun,DejaVu Sans,sans-serif" font-size="12" fill="#333">Jmin Evaluation</text>
<text x="450" y="508" text-anchor="middle" font-family="SimHei,SimSun,DejaVu Sans,sans-serif" font-size="11" fill="#666">Jamming Power Density</text>
<rect x="370.0" y="580.0" width="160" height="40" rx="8" fill="#F3E8FF" stroke="#A855F7" stroke-width="1.5"/>
<text x="450" y="598" text-anchor="middle" font-family="SimHei,SimSun,DejaVu Sans,sans-serif" font-size="13" font-weight="bold" fill="#333">Pareto Front</text>
<text x="450" y="611" text-anchor="middle" font-family="SimHei,SimSun,DejaVu Sans,sans-serif" font-size="11" fill="#666">ECR vs Jmin</text>
<line x1="70" y1="115" x2="200" y2="202" stroke="#555" stroke-width="1.5" marker-end="url(#arrow)"/>
<line x1="310" y1="115" x2="310" y2="202" stroke="#555" stroke-width="1.5" marker-end="url(#arrow)"/>
<line x1="235" y1="115" x2="340" y2="412" stroke="#555" stroke-width="1.5" marker-end="url(#arrow)"/>
<line x1="400" y1="115" x2="400" y2="202" stroke="#555" stroke-width="1.5" marker-end="url(#arrow)"/>
<line x1="300" y1="235" x2="340" y2="412" stroke="#555" stroke-width="1.5" marker-end="url(#arrow)"/>
<line x1="370" y1="235" x2="340" y2="412" stroke="#555" stroke-width="1.5" marker-end="url(#arrow)"/>
<line x1="350" y1="450" x2="335" y2="490" stroke="#555" stroke-width="1.5" marker-end="url(#arrow)"/>
<line x1="350" y1="450" x2="365" y2="490" stroke="#555" stroke-width="1.5" marker-end="url(#arrow)"/>
<line x1="335" y1="525" x2="440" y2="592" stroke="#555" stroke-width="1.5" marker-end="url(#arrow)"/>
<line x1="365" y1="525" x2="460" y2="592" stroke="#555" stroke-width="1.5" marker-end="url(#arrow)"/>
</svg>