<?xml version="1.0" encoding="utf-8" standalone="no"?>
<!DOCTYPE svg PUBLIC "-//W3C//DTD SVG 1.1//EN"
  "http://www.w3.org/Graphics/SVG/1.1/DTD/svg11.dtd">
<svg xmlns:xlink="http://www.w3.org/1999/xlink" width="441pt" height="221.976pt" viewBox="0 0 441 221.976" xmlns="http://www.w3.org/2000/svg" version="1.1">
 <metadata>
  <rdf:RDF xmlns:dc="http://purl.org/dc/elements/1.1/" xmlns:cc="http://creativecommons.org/ns#" xmlns:rdf="http://www.w3.org/1999/02/22-rdf-syntax-ns#">
   <cc:Work>
    <dc:type rdf:resource="http://purl.org/dc/dcmitype/StillImage"/>
    <dc:date>2026-06-05T10:59:46.630902</dc:date>
    <dc:format>image/svg+xml</dc:format>
    <dc:creator>
     <cc:Agent>
      <dc:title>Matplotlib v3.10.6, https://matplotlib.org/</dc:title>
     </cc:Agent>
    </dc:creator>
   </cc:Work>
  </rdf:RDF>
 </metadata>
 <defs>
  <style type="text/css">*{stroke-linejoin: round; stroke-linecap: butt}</style>
 </defs>
 <g id="figure_1">
  <g id="patch_1">
   <path d="M 0 221.976 
L 441 221.976 
L 441 0 
L 0 0 
z
" style="fill: #ffffff"/>
  </g>
  <g id="axes_1">
   <g id="patch_2">
    <path d="M 20.72484 93.181976 
L 93.84516 93.181976 
Q 97.76232 93.181976 97.76232 89.3664 
L 97.76232 52.058541 
Q 97.76232 48.242965 93.84516 48.242965 
L 20.72484 48.242965 
Q 16.80768 48.242965 16.80768 52.058541 
L 16.80768 89.3664 
Q 16.80768 93.181976 20.72484 93.181976 
z
" clip-path="url(#pd7af1f3dee)" style="fill: #f3f6f8; stroke: #4e5d6c; stroke-width: 1.35; stroke-linejoin: miter"/>
   </g>
   <g id="patch_3">
    <path d="M 125.18244 69.864565 
L 198.30276 69.864565 
Q 202.21992 69.864565 202.21992 66.048988 
L 202.21992 37.220188 
Q 202.21992 33.404612 198.30276 33.404612 
L 125.18244 33.404612 
Q 121.26528 33.404612 121.26528 37.220188 
L 121.26528 66.048988 
Q 121.26528 69.864565 125.18244 69.864565 
z
" clip-path="url(#pd7af1f3dee)" style="fill: #eef5fb; stroke: #4e5d6c; stroke-width: 1.35; stroke-linejoin: miter"/>
   </g>
   <g id="patch_4">
    <path d="M 125.18244 116.499388 
L 198.30276 116.499388 
Q 202.21992 116.499388 202.21992 112.683812 
L 202.21992 83.855012 
Q 202.21992 80.039435 198.30276 80.039435 
L 125.18244 80.039435 
Q 121.26528 80.039435 121.26528 83.855012 
L 121.26528 112.683812 
Q 121.26528 116.499388 125.18244 116.499388 
z
" clip-path="url(#pd7af1f3dee)" style="fill: #eef5fb; stroke: #4e5d6c; stroke-width: 1.35; stroke-linejoin: miter"/>
   </g>
   <g id="patch_5">
    <path d="M 229.64004 91.062212 
L 304.93656 91.062212 
Q 308.85372 91.062212 308.85372 87.246635 
L 308.85372 49.938776 
Q 308.85372 46.1232 304.93656 46.1232 
L 229.64004 46.1232 
Q 225.72288 46.1232 225.72288 49.938776 
L 225.72288 87.246635 
Q 225.72288 91.062212 229.64004 91.062212 
z
" clip-path="url(#pd7af1f3dee)" style="fill: #fff7ec; stroke: #9b6a2f; stroke-width: 1.35; stroke-linejoin: miter"/>
   </g>
   <g id="patch_6">
    <path d="M 334.09764 69.864565 
L 411.57036 69.864565 
Q 415.48752 69.864565 415.48752 66.048988 
L 415.48752 37.220188 
Q 415.48752 33.404612 411.57036 33.404612 
L 334.09764 33.404612 
Q 330.18048 33.404612 330.18048 37.220188 
L 330.18048 66.048988 
Q 330.18048 69.864565 334.09764 69.864565 
z
" clip-path="url(#pd7af1f3dee)" style="fill: #f0f8ef; stroke: #4e7d4a; stroke-width: 1.35; stroke-linejoin: miter"/>
   </g>
   <g id="patch_7">
    <path d="M 334.09764 116.499388 
L 411.57036 116.499388 
Q 415.48752 116.499388 415.48752 112.683812 
L 415.48752 83.855012 
Q 415.48752 80.039435 411.57036 80.039435 
L 334.09764 80.039435 
Q 330.18048 80.039435 330.18048 83.855012 
L 330.18048 112.683812 
Q 330.18048 116.499388 334.09764 116.499388 
z
" clip-path="url(#pd7af1f3dee)" style="fill: #f0f8ef; stroke: #4e7d4a; stroke-width: 1.35; stroke-linejoin: miter"/>
   </g>
   <g id="patch_8">
    <path d="M 177.41124 192.810918 
L 280.99836 192.810918 
Q 284.91552 192.810918 284.91552 188.995341 
L 284.91552 155.927012 
Q 284.91552 152.111435 280.99836 152.111435 
L 177.41124 152.111435 
Q 173.49408 152.111435 173.49408 155.927012 
L 173.49408 188.995341 
Q 173.49408 192.810918 177.41124 192.810918 
z
" clip-path="url(#pd7af1f3dee)" style="fill: #f7f2fa; stroke: #725a7a; stroke-width: 1.35; stroke-linejoin: miter"/>
   </g>
   <g id="patch_9">
    <path d="M 99.813346 66.412909 
Q 109.51563 60.112459 117.952052 54.634032 
" clip-path="url(#pd7af1f3dee)" style="fill: none; stroke: #4e5d6c; stroke-width: 1.35; stroke-linecap: round"/>
    <path d="M 111.730493 55.335603 
L 117.952052 54.634032 
L 114.780374 60.032222 
z
" clip-path="url(#pd7af1f3dee)" style="fill: #4e5d6c; stroke: #4e5d6c; stroke-width: 1.35; stroke-linecap: round"/>
   </g>
   <g id="patch_10">
    <path d="M 99.322426 75.623742 
Q 109.514962 85.551955 118.626302 94.427011 
" clip-path="url(#pd7af1f3dee)" style="fill: none; stroke: #4e5d6c; stroke-width: 1.35; stroke-linecap: round"/>
    <path d="M 116.568552 88.513834 
L 118.626302 94.427011 
L 112.66111 92.525305 
z
" clip-path="url(#pd7af1f3dee)" style="fill: #4e5d6c; stroke: #4e5d6c; stroke-width: 1.35; stroke-linecap: round"/>
   </g>
   <g id="patch_11">
    <path d="M 204.392082 53.610741 
Q 213.970877 59.053468 222.237375 63.75054 
" clip-path="url(#pd7af1f3dee)" style="fill: none; stroke: #4e5d6c; stroke-width: 1.35; stroke-linecap: round"/>
    <path d="M 218.751739 58.549545 
L 222.237375 63.75054 
L 215.985198 63.418452 
z
" clip-path="url(#pd7af1f3dee)" style="fill: #4e5d6c; stroke: #4e5d6c; stroke-width: 1.35; stroke-linecap: round"/>
   </g>
   <g id="patch_12">
    <path d="M 204.022298 95.746498 
Q 213.973816 87.668627 222.753463 80.54199 
" clip-path="url(#pd7af1f3dee)" style="fill: none; stroke: #4e5d6c; stroke-width: 1.35; stroke-linecap: round"/>
    <path d="M 216.640929 81.897326 
L 222.753463 80.54199 
L 220.170212 86.245218 
z
" clip-path="url(#pd7af1f3dee)" style="fill: #4e5d6c; stroke: #4e5d6c; stroke-width: 1.35; stroke-linecap: round"/>
   </g>
   <g id="patch_13">
    <path d="M 310.946453 64.366373 
Q 319.517635 59.053433 326.80594 54.535698 
" clip-path="url(#pd7af1f3dee)" style="fill: none; stroke: #4e5d6c; stroke-width: 1.35; stroke-linecap: round"/>
    <path d="M 320.570997 55.106206 
L 326.80594 54.535698 
L 323.521381 59.865957 
z
" clip-path="url(#pd7af1f3dee)" style="fill: #4e5d6c; stroke: #4e5d6c; stroke-width: 1.35; stroke-linecap: round"/>
   </g>
   <g id="patch_14">
    <path d="M 310.543197 79.724058 
Q 319.517857 87.671258 327.362526 94.617835 
" clip-path="url(#pd7af1f3dee)" style="fill: none; stroke: #4e5d6c; stroke-width: 1.35; stroke-linecap: round"/>
    <path d="M 325.026284 88.809051 
L 327.362526 94.617835 
L 321.313754 93.001558 
z
" clip-path="url(#pd7af1f3dee)" style="fill: #4e5d6c; stroke: #4e5d6c; stroke-width: 1.35; stroke-linecap: round"/>
   </g>
   <g id="patch_15">
    <path d="M 369.050687 116.528188 
Q 317.341848 134.305086 267.060361 151.591276 
" clip-path="url(#pd7af1f3dee)" style="fill: none; stroke: #4e5d6c; stroke-width: 1.35; stroke-linecap: round"/>
    <path d="M 273.266457 152.418539 
L 267.060361 151.591276 
L 271.445829 147.122757 
z
" clip-path="url(#pd7af1f3dee)" style="fill: #4e5d6c; stroke: #4e5d6c; stroke-width: 1.35; stroke-linecap: round"/>
   </g>
   <g id="patch_16">
    <path d="M 369.653579 71.022465 
Q 317.341391 110.987625 266.228586 150.036487 
" clip-path="url(#pd7af1f3dee)" style="fill: none; stroke: #4e5d6c; stroke-width: 1.35; stroke-linecap: round"/>
    <path d="M 272.378394 148.861808 
L 266.228586 150.036487 
L 268.978728 144.411834 
z
" clip-path="url(#pd7af1f3dee)" style="fill: #4e5d6c; stroke: #4e5d6c; stroke-width: 1.35; stroke-linecap: round"/>
   </g>
   <g id="text_1">
    <!-- 任务 -->
    <g style="fill: #1f2937" transform="translate(43.285 68.531533) scale(0.14 -0.14)">
     <defs>
      <path id="SimHei-4efb" d="M 5375 4875 
Q 5550 4500 5650 4375 
Q 4725 4200 4300 4125 
L 4300 2550 
L 5325 2550 
Q 5700 2550 6050 2575 
L 6050 2100 
Q 5700 2125 5350 2125 
L 4300 2125 
L 4300 275 
L 5075 275 
Q 5425 275 5825 300 
L 5825 -175 
Q 5425 -150 5075 -150 
L 3100 -150 
Q 2700 -150 2275 -175 
L 2275 300 
Q 2700 275 3100 275 
L 3800 275 
L 3800 2125 
L 2700 2125 
Q 2275 2125 1975 2100 
L 1975 2575 
Q 2300 2550 2700 2550 
L 3800 2550 
L 3800 4050 
Q 2825 3925 2525 3900 
Q 2450 4175 2300 4350 
Q 2825 4350 3837 4512 
Q 4850 4675 5375 4875 
z
M 2300 5000 
Q 2075 4725 1650 3850 
L 1650 675 
Q 1650 25 1675 -625 
L 1125 -625 
Q 1150 25 1150 650 
L 1150 3075 
Q 850 2625 575 2300 
Q 450 2500 225 2675 
Q 625 3025 1075 3812 
Q 1525 4600 1725 5250 
Q 2025 5100 2300 5000 
z
" transform="scale(0.015625)"/>
      <path id="SimHei-52a1" d="M 2850 4950 
Q 2650 4775 2500 4550 
L 5275 4550 
Q 5050 4175 4687 3750 
Q 4325 3325 3775 2950 
Q 4125 2725 4725 2612 
Q 5325 2500 6150 2475 
Q 5950 2250 5875 1950 
Q 5175 2000 4500 2200 
Q 3825 2400 3375 2675 
Q 2575 2300 1925 2125 
Q 1275 1950 650 1850 
Q 550 2150 350 2375 
Q 900 2375 1600 2525 
Q 2300 2675 2975 2950 
Q 2450 3450 2075 3975 
Q 1650 3450 1200 3100 
Q 1025 3300 750 3400 
Q 1450 3900 1775 4362 
Q 2100 4825 2250 5225 
Q 2575 5050 2850 4950 
z
M 2800 1650 
Q 2850 1950 2850 2350 
Q 3150 2300 3450 2275 
Q 3375 2125 3300 1650 
L 5325 1650 
Q 5300 1350 5275 962 
Q 5250 575 5187 125 
Q 5125 -325 4825 -400 
Q 4525 -475 3875 -550 
Q 3825 -225 3625 0 
Q 4350 0 4500 50 
Q 4650 100 4700 325 
L 4775 1275 
L 3250 1275 
Q 2900 200 2262 -125 
Q 1625 -450 900 -700 
Q 825 -475 550 -175 
Q 1150 -125 1800 200 
Q 2450 525 2725 1275 
L 2150 1275 
Q 1400 1275 1050 1225 
L 1050 1675 
Q 1425 1650 2175 1650 
L 2800 1650 
z
M 3400 3225 
Q 3900 3525 4375 4175 
L 2500 4175 
Q 2975 3550 3400 3225 
z
" transform="scale(0.015625)"/>
     </defs>
     <use xlink:href="#SimHei-4efb"/>
     <use xlink:href="#SimHei-52a1" transform="translate(100 0)"/>
    </g>
    <!-- 需求 -->
    <g style="fill: #1f2937" transform="translate(43.285 82.409033) scale(0.14 -0.14)">
     <defs>
      <path id="SimHei-9700" d="M 5150 2100 
Q 5500 2100 5975 2125 
L 5975 1700 
Q 5500 1725 5150 1725 
L 3425 1725 
Q 3300 1500 3250 1275 
L 5600 1275 
Q 5575 950 5575 700 
L 5575 -50 
Q 5575 -350 5425 -437 
Q 5275 -525 4775 -625 
Q 4750 -400 4550 -100 
Q 4950 -100 5025 -50 
Q 5100 0 5100 200 
L 5100 900 
L 4125 900 
L 4125 -375 
L 3650 -375 
L 3650 900 
L 2775 900 
L 2775 -375 
L 2300 -375 
L 2300 900 
L 1350 900 
L 1350 -575 
L 875 -575 
Q 900 -225 900 175 
L 900 575 
Q 900 900 875 1275 
L 2800 1275 
Q 2875 1500 2925 1725 
L 1350 1725 
Q 925 1725 525 1700 
L 525 2125 
Q 900 2100 1325 2100 
L 5150 2100 
z
M 4700 5075 
Q 5075 5075 5550 5100 
L 5550 4675 
Q 5075 4700 4700 4700 
L 3475 4700 
L 3475 4275 
L 5975 4275 
L 5975 3100 
L 5500 3100 
L 5500 3900 
L 3475 3900 
L 3475 3200 
Q 3475 2775 3500 2425 
L 2975 2425 
Q 3000 2750 3000 3175 
L 3000 3900 
L 950 3900 
L 950 3100 
L 450 3100 
Q 450 3375 462 3650 
Q 475 3925 450 4275 
L 3000 4275 
L 3000 4700 
L 1775 4700 
Q 1400 4700 1025 4675 
L 1025 5100 
Q 1400 5075 1750 5075 
L 4700 5075 
z
M 2475 2450 
L 1250 2450 
L 1250 2800 
L 2475 2800 
L 2475 2450 
z
M 2500 3150 
L 1325 3150 
L 1325 3500 
L 2500 3500 
L 2500 3150 
z
M 5000 3175 
L 3825 3175 
L 3825 3525 
L 5000 3525 
L 5000 3175 
z
M 5025 2500 
L 3850 2500 
L 3850 2850 
L 5025 2850 
L 5025 2500 
z
" transform="scale(0.015625)"/>
      <path id="SimHei-6c42" d="M 475 4025 
Q 875 4000 1325 4000 
L 2875 4000 
Q 2875 4725 2850 5125 
L 3400 5125 
Q 3375 4725 3375 4000 
L 5150 4000 
Q 5500 4000 5925 4025 
L 5925 3575 
Q 5475 3600 5150 3600 
L 3375 3600 
Q 3400 3200 3612 2750 
Q 3825 2300 4050 2000 
Q 4600 2450 5075 3150 
Q 5250 2950 5575 2750 
Q 5275 2600 4250 1650 
Q 4575 1225 5037 850 
Q 5500 475 6050 325 
Q 5700 125 5550 -150 
Q 5000 150 4437 687 
Q 3875 1225 3375 2375 
L 3375 150 
Q 3400 -225 3137 -350 
Q 2875 -475 2375 -525 
Q 2325 -275 2150 25 
Q 2575 0 2737 37 
Q 2900 75 2875 300 
L 2875 1675 
Q 1875 900 1437 550 
Q 1000 200 725 -50 
Q 500 200 300 400 
Q 650 575 1200 937 
Q 1750 1300 2875 2250 
L 2875 3600 
L 1325 3600 
Q 875 3600 475 3575 
L 475 4025 
z
M 1225 3175 
Q 1775 2725 2250 2325 
L 1825 1950 
Q 1450 2375 825 2825 
L 1225 3175 
z
M 4500 5100 
Q 4900 4825 5300 4425 
Q 5125 4300 4925 4100 
Q 4650 4400 4125 4825 
Q 4275 4950 4500 5100 
z
" transform="scale(0.015625)"/>
     </defs>
     <use xlink:href="#SimHei-9700"/>
     <use xlink:href="#SimHei-6c42" transform="translate(100 0)"/>
    </g>
   </g>
   <g id="text_2">
    <!-- 复杂 -->
    <g style="fill: #1f2937" transform="translate(147.7426 49.361776) scale(0.14 -0.14)">
     <defs>
      <path id="SimHei-590d" d="M 2125 1200 
Q 1900 975 1687 787 
Q 1475 600 1100 350 
Q 1000 475 725 675 
Q 1225 950 1587 1275 
Q 1950 1600 2125 1950 
L 1450 1950 
Q 1475 2250 1475 2575 
L 1475 3825 
Q 1175 3525 700 3150 
Q 525 3375 325 3525 
Q 925 3850 1337 4300 
Q 1750 4750 1975 5200 
Q 2225 5050 2475 4975 
Q 2350 4875 2125 4600 
L 4850 4600 
Q 5150 4600 5750 4625 
L 5750 4200 
Q 5350 4225 5000 4225 
L 1900 4225 
Q 1700 4025 1500 3850 
L 5225 3850 
Q 5200 3500 5200 2875 
Q 5200 2275 5225 1950 
L 2675 1950 
Q 2575 1800 2400 1575 
L 5125 1575 
Q 4825 1100 4512 775 
Q 4200 450 3850 200 
Q 4250 75 4837 -25 
Q 5425 -125 6125 -150 
Q 6000 -325 5875 -650 
Q 4825 -500 4237 -350 
Q 3650 -200 3375 -75 
Q 2750 -325 2162 -450 
Q 1575 -575 725 -675 
Q 600 -350 500 -200 
Q 1225 -200 1950 -75 
Q 2675 50 2950 175 
Q 2425 475 1925 900 
Q 2175 1050 2275 1200 
L 2125 1200 
z
M 4750 3075 
L 4750 3475 
L 1925 3475 
L 1925 3075 
L 4750 3075 
z
M 4750 2325 
L 4750 2700 
L 1925 2700 
L 1925 2325 
L 4750 2325 
z
M 2325 1200 
Q 2800 725 3425 400 
Q 3900 675 4300 1200 
L 2325 1200 
z
" transform="scale(0.015625)"/>
      <path id="SimHei-6742" d="M 6100 3200 
Q 5975 2675 5812 2462 
Q 5650 2250 5300 2250 
L 4650 2250 
Q 4350 2250 4250 2462 
Q 4150 2675 4175 2925 
L 4175 4050 
L 2800 4050 
Q 2700 3600 2525 3287 
Q 2350 2975 2062 2737 
Q 1775 2500 1475 2350 
Q 1175 2200 725 2100 
Q 650 2300 400 2525 
Q 1150 2675 1637 3037 
Q 2125 3400 2300 4050 
L 1525 4050 
Q 1175 4050 875 4025 
L 875 4525 
Q 1175 4500 1525 4500 
L 2400 4500 
Q 2425 4950 2425 5250 
Q 2550 5225 2975 5225 
Q 2925 4975 2875 4500 
L 4675 4500 
Q 4650 4225 4650 3750 
L 4650 3250 
Q 4625 2900 4700 2800 
Q 4775 2700 4925 2700 
L 5225 2700 
Q 5375 2700 5450 2862 
Q 5525 3025 5550 3425 
Q 5800 3300 6100 3200 
z
M 2975 1975 
Q 2975 2225 2950 2850 
L 3475 2850 
Q 3450 2375 3450 1975 
L 5150 1975 
Q 5500 1975 5925 2000 
L 5925 1550 
Q 5500 1575 5150 1575 
L 3450 1575 
L 3450 -75 
Q 3450 -600 2550 -700 
Q 2525 -425 2375 -150 
Q 2975 -200 2975 100 
L 2975 1575 
L 1250 1575 
Q 950 1575 500 1550 
L 500 2000 
Q 950 1975 1250 1975 
L 2975 1975 
z
M 300 75 
Q 600 200 1025 550 
Q 1450 900 1725 1300 
Q 1925 1150 2225 900 
Q 1800 550 1412 212 
Q 1025 -125 625 -350 
Q 475 -125 300 75 
z
M 5575 -325 
Q 5000 200 4075 825 
Q 4275 1025 4400 1200 
Q 5450 525 5950 50 
L 5575 -325 
z
" transform="scale(0.015625)"/>
     </defs>
     <use xlink:href="#SimHei-590d"/>
     <use xlink:href="#SimHei-6742" transform="translate(100 0)"/>
    </g>
    <!-- 区域 -->
    <g style="fill: #1f2937" transform="translate(147.7426 63.423026) scale(0.14 -0.14)">
     <defs>
      <path id="SimHei-533a" d="M 5850 4525 
Q 5475 4550 4850 4550 
L 1150 4550 
L 1150 -75 
L 5225 -75 
Q 5725 -75 6025 -50 
L 6025 -500 
Q 5700 -475 5175 -475 
L 625 -475 
Q 650 125 650 400 
L 650 4200 
Q 650 4625 625 4975 
L 5850 4975 
L 5850 4525 
z
M 2275 3875 
Q 3150 3275 3800 2700 
Q 4375 3375 4650 4050 
Q 4925 3875 5300 3700 
Q 5025 3525 4825 3225 
Q 4625 2925 4225 2375 
Q 5075 1675 5600 1000 
Q 5300 800 5175 575 
Q 4775 1175 3850 1950 
Q 3475 1525 3087 1175 
Q 2700 825 2125 400 
Q 1900 625 1625 775 
Q 2125 1000 2525 1312 
Q 2925 1625 3475 2300 
Q 2850 2875 1925 3450 
Q 2175 3650 2275 3875 
z
" transform="scale(0.015625)"/>
      <path id="SimHei-57df" d="M 4550 5100 
Q 4475 4775 4500 4150 
L 5025 4150 
Q 5450 4150 5950 4175 
L 5950 3700 
Q 5475 3725 5025 3725 
L 4525 3725 
Q 4550 3050 4600 2462 
Q 4650 1875 4775 1275 
Q 4975 1850 5050 2275 
Q 5125 2700 5175 3200 
Q 5425 3075 5750 3000 
Q 5675 2875 5537 2337 
Q 5400 1800 5287 1450 
Q 5175 1100 5025 700 
Q 5125 450 5312 237 
Q 5500 25 5587 212 
Q 5675 400 5750 700 
Q 5900 525 6200 400 
Q 6000 -100 5800 -337 
Q 5600 -575 5250 -325 
Q 4900 -75 4725 300 
Q 4575 75 4362 -175 
Q 4150 -425 3875 -650 
Q 3750 -525 3400 -325 
Q 3750 -150 4037 162 
Q 4325 475 4475 775 
Q 4350 1175 4287 1512 
Q 4225 1850 4162 2450 
Q 4100 3050 4075 3725 
L 3150 3725 
Q 2525 3725 1975 3700 
L 1975 4175 
Q 2525 4150 3150 4150 
L 4050 4150 
Q 4025 4600 3950 5175 
Q 4250 5125 4550 5100 
z
M 975 4250 
Q 975 4800 950 5100 
L 1450 5100 
Q 1425 4750 1425 4250 
L 1425 3325 
Q 1625 3325 2000 3350 
L 2000 2900 
Q 1625 2925 1425 2925 
L 1425 1000 
Q 1550 1075 2000 1275 
Q 1975 1075 2000 775 
Q 1675 625 1200 425 
Q 725 225 500 50 
Q 375 325 250 575 
Q 475 625 662 687 
Q 850 750 975 825 
L 975 2925 
Q 625 2925 300 2900 
L 300 3350 
Q 600 3325 975 3325 
L 975 4250 
z
M 3800 1750 
Q 3800 1425 3825 1150 
L 2225 1150 
Q 2250 1375 2250 1575 
L 2250 2525 
Q 2250 2825 2225 3075 
L 3825 3075 
Q 3800 2875 3800 2675 
L 3800 1750 
z
M 1900 225 
Q 2300 300 2850 462 
Q 3400 625 3825 800 
Q 3800 600 3800 350 
Q 3500 250 3012 75 
Q 2525 -100 2125 -275 
Q 2025 -25 1900 225 
z
M 3350 1525 
L 3350 2700 
L 2725 2700 
L 2725 1525 
L 3350 1525 
z
M 5300 4325 
Q 5150 4625 4900 4925 
Q 5050 5050 5250 5150 
Q 5450 4900 5700 4575 
Q 5475 4475 5300 4325 
z
" transform="scale(0.015625)"/>
     </defs>
     <use xlink:href="#SimHei-533a"/>
     <use xlink:href="#SimHei-57df" transform="translate(100 0)"/>
    </g>
   </g>
   <g id="text_3">
    <!-- 空地 -->
    <g style="fill: #1f2937" transform="translate(147.7426 95.713318) scale(0.14 -0.14)">
     <defs>
      <path id="SimHei-7a7a" d="M 4025 1925 
Q 4700 1925 5225 1975 
L 5225 1450 
Q 4725 1500 4025 1500 
L 3475 1500 
L 3475 0 
L 5000 0 
Q 5725 0 6175 50 
L 6175 -475 
Q 5750 -425 5050 -425 
L 1750 -425 
Q 775 -425 350 -475 
L 350 50 
Q 825 0 1800 0 
L 2925 0 
L 2925 1500 
L 2300 1500 
Q 1625 1500 1125 1450 
L 1125 1975 
Q 1600 1925 2375 1925 
L 4025 1925 
z
M 5250 3250 
L 5250 3925 
L 1150 3925 
L 1150 3175 
L 600 3175 
Q 625 3425 625 3750 
Q 625 4100 600 4375 
L 3100 4375 
Q 2950 4725 2750 5075 
Q 3000 5200 3300 5300 
Q 3500 4850 3650 4525 
Q 3400 4450 3175 4375 
L 5825 4375 
Q 5800 4150 5800 3775 
Q 5800 3425 5825 3250 
L 5250 3250 
z
M 3975 3525 
Q 4275 3400 4762 3175 
Q 5250 2950 5925 2550 
Q 5675 2275 5575 2075 
Q 5100 2375 4650 2625 
Q 4200 2875 3675 3125 
Q 3800 3275 3975 3525 
z
M 2700 3225 
Q 2425 3100 1937 2737 
Q 1450 2375 825 2000 
Q 675 2225 450 2450 
Q 925 2650 1375 2962 
Q 1825 3275 2150 3650 
Q 2400 3425 2700 3225 
z
" transform="scale(0.015625)"/>
      <path id="SimHei-5730" d="M 2300 2275 
Q 2175 2575 2075 2750 
Q 2350 2800 2750 2950 
L 2750 3525 
Q 2750 3975 2725 4550 
L 3225 4550 
Q 3200 4025 3200 3550 
L 3200 3100 
L 3950 3375 
L 3950 4375 
Q 3950 4800 3925 5225 
L 4450 5225 
Q 4425 4925 4425 4350 
L 4425 3525 
Q 4800 3625 5725 3950 
Q 5700 3650 5700 3075 
L 5700 2100 
Q 5725 1450 5462 1275 
Q 5200 1100 4800 1000 
Q 4725 1250 4575 1525 
Q 5025 1575 5137 1662 
Q 5250 1750 5225 2225 
L 5225 3300 
Q 4800 3175 4425 3050 
L 4425 1375 
Q 4425 925 4450 625 
L 3925 625 
Q 3950 1075 3950 1375 
L 3950 2900 
L 3200 2625 
L 3200 550 
Q 3200 50 3550 50 
L 5150 50 
Q 5400 50 5475 212 
Q 5550 375 5625 775 
Q 5875 600 6175 550 
Q 6025 0 5850 -187 
Q 5675 -375 5300 -375 
L 3325 -375 
Q 2775 -375 2750 300 
L 2750 2475 
Q 2450 2375 2300 2275 
z
M 1625 925 
Q 1975 1025 2425 1225 
Q 2400 950 2400 725 
Q 1975 575 1437 400 
Q 900 225 525 25 
Q 450 275 275 550 
Q 650 650 1125 800 
L 1125 3000 
Q 650 3000 350 2975 
L 350 3450 
Q 650 3425 1125 3425 
L 1125 4225 
Q 1125 4650 1100 5075 
L 1650 5075 
Q 1625 4750 1625 4225 
L 1625 3425 
Q 2075 3425 2350 3450 
L 2350 2975 
Q 2075 3000 1625 3000 
L 1625 925 
z
" transform="scale(0.015625)"/>
     </defs>
     <use xlink:href="#SimHei-7a7a"/>
     <use xlink:href="#SimHei-5730" transform="translate(100 0)"/>
    </g>
    <!-- 传播模型 -->
    <g style="fill: #1f2937" transform="translate(133.7426 109.958318) scale(0.14 -0.14)">
     <defs>
      <path id="SimHei-4f20" d="M 5500 1975 
Q 5025 925 4700 250 
Q 4975 100 5450 -200 
Q 5300 -375 5125 -675 
Q 4700 -375 4012 12 
Q 3325 400 3050 525 
Q 3175 750 3275 950 
Q 3600 800 4275 475 
Q 4525 975 4750 1550 
L 2800 1550 
Q 2950 2000 3125 2650 
L 2575 2650 
Q 2200 2650 1925 2625 
L 1925 3075 
Q 2250 3050 2600 3050 
L 3200 3050 
Q 3300 3525 3350 3825 
L 2975 3825 
Q 2525 3825 2250 3800 
L 2250 4250 
Q 2550 4225 2950 4225 
L 3425 4225 
Q 3525 4950 3525 5225 
Q 3850 5150 4100 5125 
Q 4025 5000 3875 4225 
L 4950 4225 
Q 5350 4225 5700 4250 
L 5700 3800 
Q 5375 3825 4925 3825 
L 3825 3825 
Q 3775 3550 3675 3050 
L 5250 3050 
Q 5750 3050 6025 3075 
L 6025 2625 
Q 5725 2650 5250 2650 
L 3600 2650 
Q 3500 2250 3425 1975 
L 5500 1975 
z
M 2225 4875 
Q 2025 4675 1650 3750 
L 1650 550 
Q 1650 -25 1675 -525 
L 1125 -525 
Q 1175 -125 1175 525 
L 1175 3000 
Q 800 2400 550 2050 
Q 450 2250 200 2450 
Q 500 2800 925 3525 
Q 1350 4250 1625 5175 
Q 1850 5050 2225 4875 
z
" transform="scale(0.015625)"/>
      <path id="SimHei-64ad" d="M 5775 4600 
Q 5325 4550 4300 4475 
L 4300 3475 
L 4725 3475 
Q 4850 3800 5050 4475 
Q 5250 4350 5575 4225 
Q 5400 4000 5312 3812 
Q 5225 3625 5150 3475 
L 5400 3475 
Q 5725 3475 6100 3500 
L 6100 3075 
Q 5725 3100 5425 3100 
L 4850 3100 
Q 5325 2425 6200 2100 
Q 5975 1875 5925 1625 
Q 5600 1750 5525 1825 
L 5525 300 
Q 5525 -50 5550 -600 
L 5075 -600 
L 5075 -225 
L 3050 -225 
L 3050 -600 
L 2575 -600 
Q 2600 -100 2600 250 
L 2600 1725 
Q 2400 1600 2225 1475 
Q 2050 1725 1850 1875 
Q 2825 2375 3300 3100 
Q 2725 3100 2225 3075 
L 2225 3500 
Q 2650 3475 2850 3475 
L 3000 3475 
Q 2800 3925 2625 4100 
Q 2700 4150 3025 4325 
Q 3075 4225 3425 3725 
Q 3300 3650 3050 3475 
L 3825 3475 
L 3825 4425 
Q 3000 4400 2525 4325 
Q 2425 4600 2300 4800 
Q 3050 4775 4025 4875 
Q 5000 4975 5425 5125 
Q 5550 4825 5775 4600 
z
M 1175 4550 
Q 1175 4900 1150 5200 
L 1650 5200 
Q 1625 5000 1600 4650 
L 1600 3825 
Q 1900 3825 2125 3850 
L 2125 3400 
Q 1850 3425 1600 3425 
L 1600 2425 
L 2100 2675 
Q 2100 2475 2150 2200 
Q 1900 2100 1600 1950 
L 1600 50 
Q 1600 -350 1362 -450 
Q 1125 -550 700 -600 
Q 650 -350 475 -75 
Q 925 -75 1050 -37 
Q 1175 0 1175 275 
L 1175 1800 
Q 1000 1750 425 1400 
L 225 1900 
Q 525 2000 1175 2275 
L 1175 3425 
Q 600 3425 300 3375 
L 300 3850 
Q 750 3825 1175 3825 
L 1175 4550 
z
M 5300 1950 
Q 4750 2350 4375 3100 
L 4325 3100 
Q 4325 2550 4350 2050 
L 3825 2050 
Q 3850 2550 3850 3075 
Q 3475 2525 2825 1950 
L 5300 1950 
z
M 3850 150 
L 3850 675 
L 3050 675 
L 3050 150 
L 3850 150 
z
M 5075 150 
L 5075 675 
L 4275 675 
L 4275 150 
L 5075 150 
z
M 3850 1075 
L 3850 1575 
L 3050 1575 
L 3050 1075 
L 3850 1075 
z
M 5075 1075 
L 5075 1575 
L 4275 1575 
L 4275 1075 
L 5075 1075 
z
" transform="scale(0.015625)"/>
      <path id="SimHei-6a21" d="M 5700 3675 
Q 5675 3400 5675 2725 
Q 5675 2050 5700 1725 
L 4375 1725 
Q 4350 1450 4325 1200 
L 5225 1200 
Q 5750 1200 6025 1225 
L 6025 825 
Q 5725 850 5225 850 
L 4700 850 
Q 5075 375 5437 137 
Q 5800 -100 6200 -200 
Q 5975 -375 5850 -625 
Q 5275 -400 4862 25 
Q 4450 450 4300 775 
L 4225 775 
Q 4000 275 3537 -62 
Q 3075 -400 2475 -625 
Q 2350 -375 2125 -200 
Q 2775 -75 3200 200 
Q 3625 475 3775 850 
L 3325 850 
Q 2800 850 2400 825 
L 2400 1225 
Q 2800 1200 3350 1200 
L 3875 1200 
Q 3925 1475 3925 1725 
L 2750 1725 
Q 2775 2075 2775 2700 
Q 2775 3350 2750 3675 
L 5700 3675 
z
M 2175 1650 
Q 2025 1975 1675 2525 
L 1675 300 
Q 1675 -300 1700 -550 
L 1175 -550 
Q 1200 -275 1200 250 
L 1200 2225 
Q 1125 2000 962 1712 
Q 800 1425 600 1050 
Q 450 1275 200 1425 
Q 600 1825 850 2425 
Q 1100 3025 1175 3425 
L 950 3425 
Q 700 3425 400 3400 
L 400 3825 
Q 675 3800 825 3800 
L 1200 3800 
L 1200 4350 
Q 1200 4775 1175 5150 
L 1700 5150 
Q 1675 4825 1675 4425 
L 1675 3800 
Q 2075 3800 2375 3825 
L 2375 3400 
Q 2050 3425 1675 3425 
L 1675 2575 
Q 1850 2675 2000 2775 
Q 2150 2525 2287 2325 
Q 2425 2125 2550 1925 
Q 2325 1775 2175 1650 
z
M 3375 4300 
L 3175 4300 
Q 2700 4300 2425 4275 
L 2425 4675 
Q 2700 4650 3150 4650 
L 3375 4650 
Q 3375 5000 3350 5225 
L 3825 5225 
Q 3800 5000 3800 4650 
L 4550 4650 
Q 4550 4975 4525 5200 
L 5025 5200 
Q 5000 4925 5000 4650 
L 5375 4650 
Q 5650 4650 5950 4675 
L 5950 4275 
Q 5650 4300 5375 4300 
L 5000 4300 
L 5000 3850 
L 4550 3850 
L 4550 4300 
L 3800 4300 
L 3800 3875 
L 3375 3875 
L 3375 4300 
z
M 5275 2075 
L 5275 2525 
L 3200 2525 
L 3200 2075 
L 5275 2075 
z
M 5275 2875 
L 5275 3325 
L 3200 3325 
L 3200 2875 
L 5275 2875 
z
" transform="scale(0.015625)"/>
      <path id="SimHei-578b" d="M 2625 1775 
Q 2650 2325 2650 2700 
L 2650 3000 
L 1825 3000 
Q 1725 2375 1425 2000 
Q 1125 1625 775 1425 
Q 650 1650 375 1900 
Q 850 2075 1062 2362 
Q 1275 2650 1350 3000 
Q 900 3000 375 2975 
L 375 3450 
Q 925 3425 1400 3425 
Q 1425 3950 1425 4475 
Q 1075 4475 700 4450 
L 700 4900 
Q 1050 4875 1525 4875 
L 3000 4875 
Q 3275 4875 3650 4900 
L 3650 4450 
Q 3325 4475 3125 4475 
L 3125 3425 
Q 3450 3425 3825 3450 
L 3825 2975 
Q 3450 3000 3125 3000 
L 3125 2675 
Q 3125 2225 3150 1775 
L 2625 1775 
z
M 3000 1175 
Q 3000 1375 2975 1725 
L 3500 1725 
Q 3475 1375 3475 1175 
L 4550 1175 
Q 5050 1175 5450 1200 
L 5450 725 
Q 4975 750 4550 750 
L 3475 750 
L 3475 -50 
L 5275 -50 
Q 5700 -50 6100 -25 
L 6100 -500 
Q 5725 -475 5300 -475 
L 1250 -475 
Q 775 -475 400 -500 
L 400 -25 
Q 775 -50 1250 -50 
L 3000 -50 
L 3000 750 
L 2025 750 
Q 1500 750 975 725 
L 1050 1200 
Q 1500 1175 2025 1175 
L 3000 1175 
z
M 5775 5200 
Q 5750 4775 5750 4325 
L 5750 2400 
Q 5775 1950 5612 1775 
Q 5450 1600 4900 1525 
Q 4825 1775 4675 2100 
Q 5175 2075 5237 2150 
Q 5300 2225 5300 2525 
L 5300 4325 
Q 5300 4775 5275 5200 
L 5775 5200 
z
M 4600 4750 
Q 4575 4450 4575 3975 
L 4575 3200 
Q 4575 2825 4600 2425 
L 4100 2425 
Q 4125 2825 4125 3200 
L 4125 3975 
Q 4125 4450 4100 4750 
L 4600 4750 
z
M 2650 3425 
L 2650 4475 
L 1875 4475 
Q 1850 3750 1850 3425 
L 2650 3425 
z
" transform="scale(0.015625)"/>
     </defs>
     <use xlink:href="#SimHei-4f20"/>
     <use xlink:href="#SimHei-64ad" transform="translate(100 0)"/>
     <use xlink:href="#SimHei-6a21" transform="translate(200 0)"/>
     <use xlink:href="#SimHei-578b" transform="translate(300 0)"/>
    </g>
   </g>
   <g id="text_4">
    <!-- MOPSO-DT -->
    <g style="fill: #1f2937" transform="translate(239.2883 65.407706) scale(0.14 -0.14)">
     <defs>
      <path id="SimHei-4d" d="M 2925 125 
L 2425 125 
L 2425 3175 
L 2375 3175 
L 1775 125 
L 1375 125 
L 775 3175 
L 725 3175 
L 725 125 
L 225 125 
L 225 4400 
L 1000 4400 
L 1550 1575 
L 1600 1575 
L 2150 4400 
L 2925 4400 
L 2925 125 
z
" transform="scale(0.015625)"/>
      <path id="SimHei-4f" d="M 2950 2275 
Q 2950 1100 2587 587 
Q 2225 75 1575 75 
Q 925 75 550 587 
Q 175 1100 175 2275 
Q 175 3450 550 3950 
Q 925 4450 1575 4450 
Q 2225 4450 2587 3950 
Q 2950 3450 2950 2275 
z
M 2350 2275 
Q 2350 3325 2125 3650 
Q 1900 3975 1575 3975 
Q 1250 3975 1012 3650 
Q 775 3325 775 2275 
Q 775 1225 1012 887 
Q 1250 550 1575 550 
Q 1900 550 2125 887 
Q 2350 1225 2350 2275 
z
" transform="scale(0.015625)"/>
      <path id="SimHei-50" d="M 2950 3100 
Q 2950 2500 2600 2150 
Q 2250 1800 1625 1800 
L 900 1800 
L 900 125 
L 325 125 
L 325 4400 
L 1625 4400 
Q 2250 4400 2600 4050 
Q 2950 3700 2950 3100 
z
M 2375 3100 
Q 2375 3575 2150 3750 
Q 1925 3925 1475 3925 
L 900 3925 
L 900 2275 
L 1475 2275 
Q 1925 2275 2150 2450 
Q 2375 2625 2375 3100 
z
" transform="scale(0.015625)"/>
      <path id="SimHei-53" d="M 2900 1325 
Q 2900 750 2537 412 
Q 2175 75 1550 75 
Q 925 75 575 425 
Q 225 775 225 1300 
L 225 1475 
L 800 1475 
L 800 1325 
Q 800 950 1025 750 
Q 1250 550 1550 550 
Q 1950 550 2137 762 
Q 2325 975 2325 1275 
Q 2325 1525 2100 1737 
Q 1875 1950 1450 2125 
Q 850 2350 587 2625 
Q 325 2900 325 3275 
Q 325 3800 687 4125 
Q 1050 4450 1550 4450 
Q 2200 4450 2487 4062 
Q 2775 3675 2775 3225 
L 2200 3225 
Q 2225 3500 2050 3725 
Q 1875 3950 1550 3950 
Q 1250 3950 1075 3787 
Q 900 3625 900 3350 
Q 900 3125 1037 2962 
Q 1175 2800 1750 2575 
Q 2300 2350 2600 2037 
Q 2900 1725 2900 1325 
z
" transform="scale(0.015625)"/>
      <path id="SimHei-2d" d="M 2975 2125 
L 125 2125 
L 125 2525 
L 2975 2525 
L 2975 2125 
z
" transform="scale(0.015625)"/>
      <path id="SimHei-44" d="M 2925 2250 
Q 2925 1100 2437 612 
Q 1950 125 1125 125 
L 275 125 
L 275 4400 
L 1125 4400 
Q 2050 4400 2487 3900 
Q 2925 3400 2925 2250 
z
M 2325 2250 
Q 2325 3175 2025 3550 
Q 1725 3925 1125 3925 
L 850 3925 
L 850 600 
L 1125 600 
Q 1725 600 2025 962 
Q 2325 1325 2325 2250 
z
" transform="scale(0.015625)"/>
      <path id="SimHei-54" d="M 2850 3925 
L 1850 3925 
L 1850 125 
L 1275 125 
L 1275 3925 
L 275 3925 
L 275 4400 
L 2850 4400 
L 2850 3925 
z
" transform="scale(0.015625)"/>
     </defs>
     <use xlink:href="#SimHei-4d"/>
     <use xlink:href="#SimHei-4f" transform="translate(50 0)"/>
     <use xlink:href="#SimHei-50" transform="translate(100 0)"/>
     <use xlink:href="#SimHei-53" transform="translate(150 0)"/>
     <use xlink:href="#SimHei-4f" transform="translate(200 0)"/>
     <use xlink:href="#SimHei-2d" transform="translate(250 0)"/>
     <use xlink:href="#SimHei-44" transform="translate(300 0)"/>
     <use xlink:href="#SimHei-54" transform="translate(350 0)"/>
    </g>
    <!-- 搜索 -->
    <g style="fill: #1f2937" transform="translate(253.2883 79.652706) scale(0.14 -0.14)">
     <defs>
      <path id="SimHei-641c" d="M 2525 1975 
Q 2850 1950 3225 1950 
L 3900 1950 
L 3900 2450 
L 2500 2450 
Q 2525 2800 2525 3075 
L 2525 4200 
Q 2525 4475 2500 4775 
Q 3175 4850 3450 5000 
Q 3600 4650 3675 4550 
Q 3450 4525 2975 4500 
L 2975 3900 
L 3525 3900 
L 3525 3475 
L 2975 3475 
L 2975 2875 
L 3900 2875 
L 3900 4575 
Q 3900 4850 3875 5225 
L 4375 5225 
Q 4350 4925 4350 4600 
L 4350 2875 
L 5275 2875 
L 5275 3475 
L 4650 3475 
L 4650 3900 
L 5275 3900 
L 5275 4500 
Q 4975 4500 4675 4475 
L 4675 4925 
Q 4975 4900 5200 4900 
L 5750 4900 
Q 5725 4600 5725 4300 
L 5725 3100 
Q 5725 2675 5750 2450 
L 4350 2450 
L 4350 1950 
L 5675 1950 
Q 5550 1600 5275 1150 
Q 5000 700 4500 200 
Q 4775 25 5275 -62 
Q 5775 -150 6175 -150 
Q 6000 -300 5875 -650 
Q 5175 -550 4812 -425 
Q 4450 -300 4125 -100 
Q 3700 -300 3350 -412 
Q 3000 -525 2375 -675 
Q 2325 -450 2075 -200 
Q 3125 -100 3725 200 
Q 3450 475 3275 762 
Q 3100 1050 2925 1525 
L 2525 1525 
L 2525 1975 
z
M 1150 4550 
Q 1150 4925 1125 5225 
L 1675 5225 
Q 1600 4925 1600 4600 
L 1600 3950 
Q 1925 3950 2150 3975 
L 2150 3500 
Q 1900 3525 1600 3525 
L 1600 2500 
Q 2000 2650 2175 2800 
Q 2175 2675 2200 2325 
Q 2075 2275 1600 2075 
L 1600 0 
Q 1600 -300 1350 -387 
Q 1100 -475 650 -550 
Q 625 -300 450 0 
Q 900 0 1025 25 
Q 1150 50 1150 225 
L 1150 1900 
Q 650 1675 450 1525 
Q 325 1950 250 2100 
Q 550 2125 1150 2350 
L 1150 3525 
Q 625 3525 350 3500 
L 350 3975 
Q 625 3950 1150 3950 
L 1150 4550 
z
M 3400 1525 
Q 3750 775 4150 450 
Q 4700 1000 4950 1525 
L 3400 1525 
z
" transform="scale(0.015625)"/>
      <path id="SimHei-7d22" d="M 3275 3000 
Q 3100 2925 2850 2775 
Q 2600 2625 2200 2375 
L 3425 2375 
Q 3825 2575 4175 2900 
Q 4475 2700 4775 2525 
Q 4325 2400 3937 2187 
Q 3550 1975 2300 1375 
Q 3375 1425 4600 1475 
Q 4400 1650 4200 1800 
Q 4475 1925 4575 2075 
Q 5025 1825 5675 1125 
Q 5425 975 5275 800 
Q 5050 1000 4900 1150 
Q 4400 1150 3450 1075 
L 3450 -25 
Q 3450 -400 3212 -475 
Q 2975 -550 2450 -625 
Q 2425 -350 2250 -100 
Q 2600 -100 2775 -75 
Q 2950 -50 2950 125 
L 2950 1025 
Q 2175 1025 1700 962 
Q 1225 900 975 850 
Q 900 1100 825 1300 
Q 1425 1400 1837 1550 
Q 2250 1700 2875 2050 
Q 2300 2050 2012 2025 
Q 1725 2000 1325 1900 
Q 1250 2175 1175 2350 
Q 1525 2375 1925 2612 
Q 2325 2850 2675 3275 
Q 2975 3125 3275 3000 
z
M 2900 4625 
Q 2900 4925 2875 5150 
L 3425 5150 
Q 3400 4850 3400 4625 
L 4775 4625 
Q 5050 4625 5575 4650 
L 5575 4250 
Q 5100 4275 4750 4275 
L 3400 4275 
L 3400 3750 
L 5900 3750 
Q 5875 3550 5875 3250 
Q 5875 2950 5900 2700 
L 5375 2700 
L 5375 3375 
L 975 3375 
L 975 2525 
L 475 2525 
L 475 3750 
L 2900 3750 
L 2900 4275 
L 1750 4275 
Q 1050 4275 825 4250 
L 825 4650 
Q 1150 4625 1725 4625 
L 2900 4625 
z
M 4525 800 
Q 5175 375 5875 -75 
Q 5650 -250 5475 -450 
Q 4800 100 4125 500 
Q 4350 675 4525 800 
z
M 2125 450 
Q 1900 325 1575 75 
Q 1250 -175 775 -475 
Q 650 -275 375 -125 
Q 1100 225 1700 775 
Q 1900 600 2125 450 
z
" transform="scale(0.015625)"/>
     </defs>
     <use xlink:href="#SimHei-641c"/>
     <use xlink:href="#SimHei-7d22" transform="translate(100 0)"/>
    </g>
   </g>
   <g id="text_5">
    <!-- 有效覆盖率 -->
    <g style="fill: #1f2937" transform="translate(337.834 50.182088) scale(0.14 -0.14)">
     <defs>
      <path id="SimHei-6709" d="M 275 1625 
Q 850 1975 1400 2537 
Q 1950 3100 2400 3925 
L 1500 3925 
Q 1150 3925 625 3900 
L 625 4375 
Q 1275 4350 1600 4350 
L 2550 4350 
Q 2750 4950 2775 5225 
Q 3150 5125 3375 5075 
Q 3300 5000 3125 4350 
L 5150 4350 
Q 5575 4350 6025 4375 
L 6025 3900 
Q 5575 3925 5225 3925 
L 2975 3925 
Q 2800 3600 2600 3275 
L 5475 3275 
Q 5450 2650 5450 2150 
L 5450 125 
Q 5450 -225 5250 -387 
Q 5050 -550 4400 -600 
Q 4375 -325 4225 0 
Q 4600 -50 4775 -25 
Q 4950 0 4950 250 
L 4950 750 
L 2350 750 
L 2350 -575 
L 1800 -575 
Q 1825 50 1825 500 
L 1825 2275 
Q 1300 1675 725 1225 
Q 625 1400 275 1625 
z
M 4950 2175 
L 4950 2875 
L 2350 2875 
L 2350 2175 
L 4950 2175 
z
M 4950 1150 
L 4950 1775 
L 2350 1775 
L 2350 1150 
L 4950 1150 
z
" transform="scale(0.015625)"/>
      <path id="SimHei-6548" d="M 3500 2400 
Q 3400 2675 3200 2900 
Q 3500 3350 3750 4025 
Q 4000 4700 4100 5300 
Q 4400 5150 4750 5075 
Q 4625 4950 4500 4687 
Q 4375 4425 4225 4025 
Q 5800 4025 6150 4050 
L 6150 3625 
Q 5850 3650 5475 3650 
Q 5450 2925 5300 2137 
Q 5150 1350 4825 800 
Q 4900 575 5312 275 
Q 5725 -25 6175 -175 
Q 5875 -350 5775 -650 
Q 5350 -425 5050 -162 
Q 4750 100 4500 425 
Q 4175 125 3837 -112 
Q 3500 -350 2850 -700 
Q 2725 -425 2425 -250 
Q 2750 -200 3325 137 
Q 3900 475 4200 800 
Q 4000 1225 3887 1675 
Q 3775 2125 3675 2700 
L 3500 2400 
z
M 1100 2225 
Q 1525 1875 1925 1575 
Q 2125 1900 2200 2400 
Q 2450 2275 2700 2200 
Q 2475 1625 2300 1250 
L 3000 550 
Q 2775 375 2575 175 
Q 2400 450 2025 825 
Q 1825 600 1550 312 
Q 1275 25 700 -425 
Q 500 -175 250 -25 
Q 575 125 950 400 
Q 1325 675 1675 1175 
Q 1325 1475 850 1875 
L 1100 2225 
z
M 4075 2950 
Q 4100 2700 4212 2187 
Q 4325 1675 4525 1225 
Q 4775 1700 4887 2475 
Q 5000 3250 4975 3650 
L 4100 3650 
Q 3900 3125 3725 2850 
Q 3900 2850 4075 2950 
z
M 2500 4200 
Q 2875 4200 3175 4225 
L 3175 3800 
Q 2875 3825 2525 3825 
L 1000 3825 
Q 600 3825 275 3800 
L 275 4225 
Q 600 4200 1000 4200 
L 2500 4200 
z
M 1125 3650 
Q 1400 3500 1625 3325 
Q 1525 3250 1300 2900 
Q 1050 2525 675 2000 
Q 450 2150 225 2275 
Q 550 2575 787 2975 
Q 1025 3375 1125 3650 
z
M 2475 3625 
Q 2625 3400 2850 3100 
Q 3075 2800 3250 2575 
Q 3025 2450 2825 2275 
Q 2325 3000 2075 3325 
Q 2275 3425 2475 3625 
z
M 1825 5250 
Q 2025 4875 2175 4475 
Q 1950 4375 1700 4275 
Q 1550 4650 1350 5075 
Q 1575 5150 1825 5250 
z
" transform="scale(0.015625)"/>
      <path id="SimHei-8986" d="M 5325 875 
Q 5125 575 4925 350 
Q 4725 125 4400 -100 
Q 4750 -175 5150 -212 
Q 5550 -250 6000 -200 
Q 5900 -375 5825 -625 
Q 5275 -625 4825 -537 
Q 4375 -450 4025 -325 
Q 3325 -575 2275 -650 
Q 2225 -450 2025 -225 
Q 2475 -250 2875 -212 
Q 3275 -175 3650 -75 
Q 3375 125 3100 525 
Q 2775 275 2425 100 
Q 2300 300 2125 450 
Q 2450 525 2725 725 
Q 3000 925 3150 1150 
L 2550 1150 
Q 2575 1575 2575 1800 
L 2575 2375 
Q 2450 2275 2300 2175 
Q 2200 2350 2025 2500 
Q 2300 2675 2537 2900 
Q 2775 3125 2975 3400 
L 875 3400 
Q 900 3675 900 3950 
Q 900 4225 875 4475 
L 2275 4475 
L 2275 4825 
L 1500 4825 
Q 1100 4825 625 4800 
L 625 5175 
Q 1100 5150 1700 5150 
L 4900 5150 
Q 5425 5150 5825 5175 
L 5825 4800 
Q 5525 4825 5050 4825 
L 4125 4825 
L 4125 4475 
L 5575 4475 
Q 5550 4225 5550 3975 
Q 5550 3725 5575 3400 
L 3150 3400 
Q 3250 3325 3425 3250 
L 3275 3125 
L 4875 3125 
Q 5250 3125 5700 3150 
L 5700 2775 
Q 5325 2800 4875 2800 
L 3025 2800 
Q 2875 2675 2775 2575 
L 5425 2575 
Q 5400 2200 5400 1825 
Q 5400 1475 5425 1150 
L 3675 1150 
Q 3525 950 3450 875 
L 5325 875 
z
M 2150 1875 
Q 1975 1850 1625 1525 
L 1625 175 
Q 1625 -100 1650 -600 
L 1175 -600 
Q 1200 50 1200 250 
L 1200 1225 
Q 850 1000 450 750 
Q 400 925 200 1075 
Q 750 1350 1125 1625 
Q 1500 1900 1775 2250 
Q 1925 2075 2150 1875 
z
M 2200 3025 
Q 2000 2925 1625 2637 
Q 1250 2350 675 2000 
Q 550 2200 375 2325 
Q 875 2550 1225 2825 
Q 1575 3100 1800 3375 
Q 1975 3200 2200 3025 
z
M 5000 2000 
L 5000 2275 
L 3000 2275 
L 3000 2000 
L 5000 2000 
z
M 5000 1450 
L 5000 1700 
L 3000 1700 
L 3000 1450 
L 5000 1450 
z
M 5150 3725 
L 5150 4150 
L 4125 4150 
L 4125 3725 
L 5150 3725 
z
M 2275 3725 
L 2275 4150 
L 1300 4150 
L 1300 3725 
L 2275 3725 
z
M 3675 3725 
L 3675 4150 
L 2725 4150 
L 2725 3725 
L 3675 3725 
z
M 3675 4475 
L 3675 4825 
L 2725 4825 
L 2725 4475 
L 3675 4475 
z
M 4050 75 
Q 4400 300 4600 550 
L 3525 550 
Q 3700 300 4050 75 
z
" transform="scale(0.015625)"/>
      <path id="SimHei-76d6" d="M 5375 1550 
Q 5350 1100 5350 750 
L 5350 -50 
Q 5850 -50 6175 0 
L 6175 -475 
Q 5650 -450 4725 -450 
L 1400 -450 
Q 700 -450 200 -475 
L 200 0 
Q 600 -50 1000 -50 
L 1000 750 
Q 1000 1175 975 1550 
L 5375 1550 
z
M 3550 4375 
Q 3775 4700 3950 5300 
Q 4175 5150 4550 5050 
Q 4375 4900 4262 4712 
Q 4150 4525 4050 4375 
L 4875 4375 
Q 5275 4375 5700 4400 
L 5700 3950 
Q 5275 3975 4875 3975 
L 3425 3975 
L 3425 3375 
L 4500 3375 
Q 4875 3375 5325 3400 
L 5325 2950 
Q 4875 2975 4500 2975 
L 3425 2975 
L 3425 2425 
L 4850 2425 
Q 5300 2425 5925 2450 
L 5925 2025 
Q 5300 2050 5075 2050 
L 1350 2050 
Q 925 2050 525 2025 
L 525 2450 
Q 875 2425 1350 2425 
L 2950 2425 
L 2950 2975 
L 1825 2975 
Q 1525 2975 1100 2950 
L 1100 3400 
Q 1525 3375 1800 3375 
L 2950 3375 
L 2950 3975 
L 1725 3975 
Q 1125 3975 675 3950 
L 675 4400 
Q 1125 4375 1675 4375 
L 3550 4375 
z
M 2325 -50 
L 2325 1150 
L 1475 1150 
L 1475 -50 
L 2325 -50 
z
M 4875 -50 
L 4875 1150 
L 4050 1150 
L 4050 -50 
L 4875 -50 
z
M 3575 -50 
L 3575 1150 
L 2825 1150 
L 2825 -50 
L 3575 -50 
z
M 2375 5300 
Q 2625 4875 2750 4650 
Q 2500 4525 2275 4400 
Q 2150 4750 1925 5075 
Q 2200 5200 2375 5300 
z
" transform="scale(0.015625)"/>
      <path id="SimHei-7387" d="M 3325 5150 
Q 3425 4900 3550 4525 
L 4800 4525 
Q 5250 4525 5800 4550 
L 5800 4125 
Q 5250 4175 4775 4175 
L 2800 4175 
Q 2975 4050 3300 3900 
Q 3075 3750 2875 3537 
Q 2675 3325 2475 3125 
L 3275 3125 
Q 3575 3425 3775 3775 
Q 4000 3600 4275 3425 
Q 3950 3250 3600 2875 
Q 3250 2500 2625 2000 
L 3850 2100 
Q 3725 2250 3600 2425 
Q 3750 2475 4000 2650 
Q 4250 2350 4700 1700 
Q 4475 1625 4225 1450 
Q 4175 1600 4025 1775 
Q 3700 1750 3425 1750 
L 3425 1050 
L 5150 1050 
Q 5675 1050 6100 1075 
L 6100 650 
Q 5700 675 5125 675 
L 3425 675 
L 3425 175 
Q 3425 -300 3450 -625 
L 2900 -625 
Q 2925 -300 2925 175 
L 2925 675 
L 1325 675 
Q 825 675 325 650 
L 325 1075 
Q 825 1050 1350 1050 
L 2925 1050 
L 2925 1700 
Q 2700 1675 2475 1637 
Q 2250 1600 2025 1525 
Q 1950 1775 1850 2000 
Q 2075 2025 2325 2200 
Q 2575 2375 2975 2800 
Q 2300 2725 2025 2625 
Q 1975 2875 1850 3175 
Q 2075 3175 2325 3487 
Q 2575 3800 2750 4175 
L 1700 4175 
Q 1150 4175 650 4125 
L 650 4550 
Q 1150 4525 1550 4525 
L 2975 4525 
Q 2900 4825 2800 5025 
Q 3025 5075 3325 5150 
z
M 1625 2575 
Q 1725 2400 1825 2200 
Q 1575 2050 1325 1862 
Q 1075 1675 800 1425 
Q 625 1675 475 1875 
Q 800 2025 1100 2212 
Q 1400 2400 1625 2575 
z
M 4850 2650 
Q 5125 2475 5337 2337 
Q 5550 2200 5875 1950 
Q 5675 1800 5500 1600 
Q 5300 1775 5062 1975 
Q 4825 2175 4575 2325 
Q 4725 2475 4850 2650 
z
M 5725 3525 
Q 5550 3450 5300 3262 
Q 5050 3075 4800 2825 
Q 4625 3050 4475 3175 
Q 4700 3325 4875 3487 
Q 5050 3650 5300 3925 
Q 5525 3700 5725 3525 
z
M 1050 3850 
Q 1425 3600 1775 3275 
Q 1575 3100 1425 2925 
Q 1075 3300 675 3525 
Q 875 3700 1050 3850 
z
" transform="scale(0.015625)"/>
     </defs>
     <use xlink:href="#SimHei-6709"/>
     <use xlink:href="#SimHei-6548" transform="translate(100 0)"/>
     <use xlink:href="#SimHei-8986" transform="translate(200 0)"/>
     <use xlink:href="#SimHei-76d6" transform="translate(300 0)"/>
     <use xlink:href="#SimHei-7387" transform="translate(400 0)"/>
    </g>
    <!-- ECR -->
    <g style="fill: #1f2937" transform="translate(362.334 62.712088) scale(0.14 -0.14)">
     <defs>
      <path id="SimHei-45" d="M 2900 125 
L 350 125 
L 350 4400 
L 2775 4400 
L 2775 3925 
L 925 3925 
L 925 2600 
L 2625 2600 
L 2625 2125 
L 925 2125 
L 925 600 
L 2900 600 
L 2900 125 
z
" transform="scale(0.015625)"/>
      <path id="SimHei-43" d="M 2975 1825 
Q 2950 875 2575 475 
Q 2200 75 1675 75 
Q 1075 75 650 562 
Q 225 1050 225 2125 
Q 225 3300 637 3875 
Q 1050 4450 1700 4450 
Q 2250 4450 2612 4037 
Q 2975 3625 2950 2875 
L 2400 2875 
Q 2400 3425 2225 3700 
Q 2050 3975 1700 3975 
Q 1300 3975 1062 3562 
Q 825 3150 825 2175 
Q 825 1275 1062 912 
Q 1300 550 1675 550 
Q 1950 550 2175 812 
Q 2400 1075 2400 1825 
L 2975 1825 
z
" transform="scale(0.015625)"/>
      <path id="SimHei-52" d="M 3000 125 
L 2400 125 
L 1500 1975 
L 850 1975 
L 850 125 
L 275 125 
L 275 4400 
L 1525 4400 
Q 2125 4400 2500 4112 
Q 2875 3825 2875 3175 
Q 2875 2675 2625 2400 
Q 2375 2125 2050 2050 
L 3000 125 
z
M 2300 3175 
Q 2300 3525 2087 3725 
Q 1875 3925 1400 3925 
L 850 3925 
L 850 2450 
L 1550 2450 
Q 1850 2450 2075 2612 
Q 2300 2775 2300 3175 
z
" transform="scale(0.015625)"/>
     </defs>
     <use xlink:href="#SimHei-45"/>
     <use xlink:href="#SimHei-43" transform="translate(50 0)"/>
     <use xlink:href="#SimHei-52" transform="translate(100 0)"/>
    </g>
   </g>
   <g id="text_6">
    <!-- 最小压制 -->
    <g style="fill: #1f2937" transform="translate(344.834 95.669962) scale(0.14 -0.14)">
     <defs>
      <path id="SimHei-6700" d="M 475 275 
Q 675 300 1100 350 
L 1100 2450 
Q 775 2450 425 2425 
L 425 2850 
Q 775 2825 1125 2825 
L 5025 2825 
Q 5475 2825 5900 2850 
L 5900 2425 
Q 5475 2450 5025 2450 
L 3050 2450 
L 3050 675 
L 3400 775 
Q 3400 550 3425 400 
Q 3225 350 3050 325 
Q 3050 -125 3075 -550 
L 2600 -550 
Q 2625 -125 2625 250 
Q 2350 200 1812 87 
Q 1275 -25 650 -175 
Q 575 100 475 275 
z
M 5100 4925 
Q 5075 4600 5075 4325 
L 5075 3875 
Q 5075 3600 5100 3250 
L 1275 3250 
Q 1300 3600 1300 3875 
L 1300 4325 
Q 1300 4600 1275 4925 
L 5100 4925 
z
M 3300 2050 
Q 3750 2025 4125 2025 
L 5375 2025 
Q 5100 975 4725 400 
Q 5350 0 5925 -100 
Q 5700 -275 5650 -500 
Q 5025 -300 4475 150 
Q 4150 -200 3600 -575 
Q 3500 -425 3250 -275 
Q 3775 -100 4150 350 
Q 3725 775 3500 1675 
L 3300 1675 
L 3300 2050 
z
M 4600 4250 
L 4600 4600 
L 1750 4600 
L 1750 4250 
L 4600 4250 
z
M 4600 3575 
L 4600 3900 
L 1750 3900 
L 1750 3575 
L 4600 3575 
z
M 3900 1675 
Q 4000 1075 4400 625 
Q 4700 1050 4850 1675 
L 3900 1675 
z
M 2625 1250 
L 2625 1675 
L 1525 1675 
L 1525 1250 
L 2625 1250 
z
M 2625 575 
L 2625 925 
L 1525 925 
L 1525 425 
L 2625 575 
z
M 2625 2025 
L 2625 2450 
L 1525 2450 
L 1525 2025 
L 2625 2025 
z
" transform="scale(0.015625)"/>
      <path id="SimHei-5c0f" d="M 3500 5150 
Q 3475 4800 3475 4200 
L 3475 175 
Q 3475 -300 3225 -425 
Q 2975 -550 2375 -600 
Q 2325 -300 2150 -25 
Q 2700 -25 2837 0 
Q 2975 25 2975 300 
L 2975 4200 
Q 2975 4650 2950 5150 
L 3500 5150 
z
M 2075 3400 
Q 1850 2775 1550 1962 
Q 1250 1150 1025 750 
Q 775 950 500 1000 
Q 925 1750 1175 2487 
Q 1425 3225 1500 3575 
Q 1800 3425 2075 3400 
z
M 4675 3600 
Q 5675 1800 5875 1150 
Q 5625 1100 5375 925 
Q 5000 2000 4225 3325 
Q 4425 3425 4675 3600 
z
" transform="scale(0.015625)"/>
      <path id="SimHei-538b" d="M 3300 2725 
L 3300 3475 
Q 3300 3875 3275 4150 
L 3850 4150 
Q 3800 3950 3800 3450 
L 3800 2725 
L 4700 2725 
Q 5225 2725 5475 2750 
L 5475 2200 
Q 5225 2225 4700 2225 
L 3800 2225 
L 3800 175 
L 4900 175 
Q 5525 175 5850 200 
L 5850 -325 
Q 5525 -300 4925 -300 
L 2375 -300 
Q 1725 -300 1450 -325 
L 1450 200 
Q 1825 175 2375 175 
L 3300 175 
L 3300 2225 
L 2725 2225 
Q 2075 2225 1850 2200 
L 1850 2750 
Q 2250 2725 2725 2725 
L 3300 2725 
z
M 4900 4950 
Q 5450 4950 5750 4975 
L 5750 4475 
Q 5500 4500 4900 4500 
L 1450 4500 
L 1450 2275 
Q 1450 1425 1262 725 
Q 1075 25 725 -650 
Q 525 -450 200 -325 
Q 625 300 775 862 
Q 925 1425 950 2125 
L 950 4000 
Q 925 4525 900 4950 
L 4900 4950 
z
M 4625 1850 
Q 5025 1325 5275 925 
Q 5000 775 4775 625 
Q 4525 1150 4225 1575 
Q 4450 1700 4625 1850 
z
" transform="scale(0.015625)"/>
      <path id="SimHei-5236" d="M 1325 4625 
Q 1175 4375 1075 4150 
L 1800 4150 
Q 1800 4775 1775 5125 
L 2350 5125 
Q 2325 4800 2325 4150 
L 2700 4150 
Q 3200 4150 3600 4175 
L 3600 3725 
Q 3250 3750 2725 3750 
L 2325 3750 
L 2325 3025 
L 2950 3025 
Q 3325 3025 3750 3050 
L 3750 2625 
L 2325 2625 
L 2325 1950 
L 3675 1950 
Q 3650 1650 3637 1125 
Q 3625 600 3612 412 
Q 3600 225 3400 137 
Q 3200 50 2825 -25 
Q 2775 250 2650 550 
Q 2975 550 3050 587 
Q 3125 625 3125 975 
L 3125 1550 
L 2325 1550 
L 2325 175 
Q 2325 -250 2350 -550 
L 1775 -550 
Q 1800 -75 1800 175 
L 1800 1550 
L 1025 1550 
L 1025 -25 
L 500 -25 
Q 525 300 525 650 
L 525 1200 
Q 525 1675 500 1950 
L 1800 1950 
L 1800 2625 
L 1000 2625 
Q 550 2625 225 2600 
L 225 3050 
Q 550 3025 1000 3025 
L 1800 3025 
L 1800 3750 
L 925 3750 
Q 800 3450 675 3250 
Q 450 3400 225 3500 
Q 400 3750 525 4075 
Q 650 4400 750 4800 
Q 1000 4700 1325 4625 
z
M 5875 5075 
Q 5850 4825 5850 4350 
L 5850 25 
Q 5850 -325 5587 -412 
Q 5325 -500 4825 -575 
Q 4750 -250 4625 0 
Q 5050 0 5200 25 
Q 5350 50 5350 350 
L 5350 4350 
Q 5350 4775 5325 5075 
L 5875 5075 
z
M 4675 4325 
Q 4650 3975 4650 3700 
L 4650 1625 
Q 4650 1275 4675 775 
L 4125 775 
Q 4175 1200 4175 1625 
L 4175 3700 
Q 4175 3950 4125 4325 
L 4675 4325 
z
" transform="scale(0.015625)"/>
     </defs>
     <use xlink:href="#SimHei-6700"/>
     <use xlink:href="#SimHei-5c0f" transform="translate(100 0)"/>
     <use xlink:href="#SimHei-538b" transform="translate(200 0)"/>
     <use xlink:href="#SimHei-5236" transform="translate(300 0)"/>
    </g>
    <!-- $J_{\min}$ -->
    <g style="fill: #1f2937" transform="translate(361.284 108.866362) scale(0.14 -0.14)">
     <defs>
      <path id="DejaVuSans-Oblique-4a" d="M 1069 4666 
L 1703 4666 
L 856 325 
Q 691 -522 298 -901 
Q -94 -1281 -800 -1281 
L -1050 -1281 
L -947 -750 
L -750 -750 
Q -328 -750 -109 -509 
Q 109 -269 225 325 
L 1069 4666 
z
" transform="scale(0.015625)"/>
      <path id="DejaVuSans-6d" d="M 3328 2828 
Q 3544 3216 3844 3400 
Q 4144 3584 4550 3584 
Q 5097 3584 5394 3201 
Q 5691 2819 5691 2113 
L 5691 0 
L 5113 0 
L 5113 2094 
Q 5113 2597 4934 2840 
Q 4756 3084 4391 3084 
Q 3944 3084 3684 2787 
Q 3425 2491 3425 1978 
L 3425 0 
L 2847 0 
L 2847 2094 
Q 2847 2600 2669 2842 
Q 2491 3084 2119 3084 
Q 1678 3084 1418 2786 
Q 1159 2488 1159 1978 
L 1159 0 
L 581 0 
L 581 3500 
L 1159 3500 
L 1159 2956 
Q 1356 3278 1631 3431 
Q 1906 3584 2284 3584 
Q 2666 3584 2933 3390 
Q 3200 3197 3328 2828 
z
" transform="scale(0.015625)"/>
      <path id="DejaVuSans-69" d="M 603 3500 
L 1178 3500 
L 1178 0 
L 603 0 
L 603 3500 
z
M 603 4863 
L 1178 4863 
L 1178 4134 
L 603 4134 
L 603 4863 
z
" transform="scale(0.015625)"/>
      <path id="DejaVuSans-6e" d="M 3513 2113 
L 3513 0 
L 2938 0 
L 2938 2094 
Q 2938 2591 2744 2837 
Q 2550 3084 2163 3084 
Q 1697 3084 1428 2787 
Q 1159 2491 1159 1978 
L 1159 0 
L 581 0 
L 581 3500 
L 1159 3500 
L 1159 2956 
Q 1366 3272 1645 3428 
Q 1925 3584 2291 3584 
Q 2894 3584 3203 3211 
Q 3513 2838 3513 2113 
z
" transform="scale(0.015625)"/>
     </defs>
     <use xlink:href="#DejaVuSans-Oblique-4a" transform="translate(0 0.09375)"/>
     <use xlink:href="#DejaVuSans-6d" transform="translate(29.492188 -16.3125) scale(0.7)"/>
     <use xlink:href="#DejaVuSans-69" transform="translate(97.680664 -16.3125) scale(0.7)"/>
     <use xlink:href="#DejaVuSans-6e" transform="translate(117.128906 -16.3125) scale(0.7)"/>
    </g>
   </g>
   <g id="text_7">
    <!-- 帕累托档案 -->
    <g style="fill: #1f2937" transform="translate(194.2048 169.949926) scale(0.14 -0.14)">
     <defs>
      <path id="SimHei-5e15" d="M 4850 5075 
Q 4675 4925 4500 4175 
L 5925 4175 
Q 5900 3875 5900 3125 
L 5900 525 
Q 5900 125 5925 -450 
L 5475 -450 
L 5475 225 
L 3625 225 
L 3625 -500 
L 3175 -500 
Q 3200 -75 3200 400 
L 3200 3150 
Q 3200 3800 3175 4175 
L 3975 4175 
Q 4075 4425 4200 5200 
Q 4400 5150 4850 5075 
z
M 1950 1125 
Q 2375 1025 2325 1275 
L 2325 3700 
L 1825 3700 
L 1825 475 
Q 1825 -75 1850 -550 
L 1350 -550 
Q 1375 -25 1375 475 
L 1375 3700 
L 875 3700 
L 875 425 
L 400 425 
Q 425 1000 425 1475 
L 425 3200 
Q 400 3700 400 4075 
L 1375 4075 
L 1375 4475 
Q 1375 4825 1350 5150 
L 1875 5150 
Q 1825 4850 1825 4475 
L 1825 4075 
L 2800 4075 
Q 2775 3700 2775 3225 
L 2775 1100 
Q 2775 825 2625 737 
Q 2475 650 2125 600 
Q 2125 875 1950 1125 
z
M 5475 600 
L 5475 2025 
L 3625 2025 
L 3625 600 
L 5475 600 
z
M 5475 2400 
L 5475 3800 
L 3625 3800 
L 3625 2400 
L 5475 2400 
z
" transform="scale(0.015625)"/>
      <path id="SimHei-7d2f" d="M 5475 5000 
Q 5450 4600 5450 3975 
Q 5450 3350 5475 2950 
L 4675 2950 
Q 4850 2775 5075 2600 
Q 4800 2525 4237 2275 
Q 3675 2025 3262 1837 
Q 2850 1650 2400 1425 
Q 3850 1525 4650 1575 
Q 4425 1725 4200 1850 
Q 4375 2000 4500 2175 
Q 5125 1800 5900 1300 
Q 5750 1125 5575 900 
Q 5375 1075 5100 1250 
Q 4250 1175 3475 1125 
L 3475 50 
Q 3475 -350 3212 -462 
Q 2950 -575 2600 -600 
Q 2575 -375 2375 -50 
Q 2800 -75 2900 -25 
Q 3000 25 3000 125 
L 3000 1075 
Q 2400 1050 1987 1012 
Q 1575 975 850 875 
Q 775 1125 700 1350 
Q 1150 1400 1575 1512 
Q 2000 1625 3025 2125 
Q 1775 2025 1250 1925 
Q 1200 2200 1100 2375 
Q 1325 2375 1737 2537 
Q 2150 2700 2475 2950 
L 950 2950 
Q 975 3375 975 3975 
Q 975 4600 950 5000 
L 5475 5000 
z
M 2425 525 
Q 2200 400 1762 137 
Q 1325 -125 850 -425 
Q 700 -225 500 -25 
Q 850 125 1250 362 
Q 1650 600 2025 900 
Q 2150 725 2425 525 
z
M 2975 4100 
L 2975 4650 
L 1450 4650 
L 1450 4100 
L 2975 4100 
z
M 4975 4100 
L 4975 4650 
L 3450 4650 
L 3450 4100 
L 4975 4100 
z
M 4275 850 
Q 4750 650 5050 500 
L 5850 100 
Q 5675 -125 5575 -375 
Q 5150 -100 4775 100 
Q 4400 300 4050 450 
Q 4200 675 4275 850 
z
M 2975 3275 
L 2975 3750 
L 1450 3750 
L 1450 3275 
L 2975 3275 
z
M 4975 3275 
L 4975 3750 
L 3450 3750 
L 3450 3275 
L 4975 3275 
z
M 3700 2475 
Q 4200 2700 4575 2950 
L 3225 2950 
Q 2900 2750 2300 2425 
Q 3075 2450 3700 2475 
z
" transform="scale(0.015625)"/>
      <path id="SimHei-6258" d="M 6025 2450 
Q 5725 2375 4250 2125 
L 4250 425 
Q 4250 75 4650 75 
L 5225 75 
Q 5425 75 5512 162 
Q 5600 250 5650 800 
Q 5900 600 6175 550 
Q 6100 0 5937 -175 
Q 5775 -350 5400 -350 
L 4350 -350 
Q 3825 -350 3750 100 
L 3750 2000 
Q 3125 1900 2725 1800 
L 2625 2300 
Q 3000 2325 3750 2450 
L 3750 4100 
Q 3125 4025 2775 3950 
Q 2700 4200 2600 4425 
Q 3000 4450 3812 4550 
Q 4625 4650 5575 4950 
Q 5650 4700 5850 4475 
Q 5475 4375 4250 4175 
L 4250 2550 
Q 5600 2800 6000 2900 
Q 6025 2650 6025 2450 
z
M 1300 3625 
Q 1300 4475 1275 5050 
L 1850 5050 
Q 1800 4450 1800 3625 
Q 2325 3625 2650 3650 
L 2650 3175 
Q 2325 3200 1800 3200 
L 1800 2200 
Q 2125 2375 2500 2575 
L 2550 2125 
Q 2325 2025 1800 1725 
L 1800 -125 
Q 1775 -325 1587 -437 
Q 1400 -550 800 -600 
Q 750 -300 625 -50 
Q 1025 -50 1162 -25 
Q 1300 0 1300 225 
L 1300 1500 
Q 700 1200 475 1025 
Q 400 1300 250 1550 
Q 525 1625 1300 1975 
L 1300 3200 
Q 725 3200 325 3175 
L 325 3650 
Q 700 3625 1300 3625 
z
" transform="scale(0.015625)"/>
      <path id="SimHei-6863" d="M 4425 5200 
Q 4400 5000 4400 4375 
L 4400 3000 
L 5775 3000 
Q 5750 2725 5750 2375 
L 5750 100 
Q 5750 -175 5775 -475 
L 5275 -475 
L 5275 50 
L 3225 50 
Q 2850 50 2500 25 
L 2500 500 
L 3150 450 
L 5275 450 
L 5275 1375 
L 3475 1375 
Q 3050 1375 2775 1350 
L 2775 1800 
Q 2925 1800 3350 1775 
L 5275 1775 
L 5275 2600 
L 3200 2600 
Q 2750 2575 2600 2575 
L 2600 3050 
Q 2875 3000 3100 3000 
L 3925 3000 
L 3925 4525 
Q 3900 5050 3875 5200 
L 4425 5200 
z
M 1675 5100 
Q 1650 4700 1650 4375 
L 1650 3750 
Q 2125 3750 2300 3775 
L 2300 3350 
Q 2125 3375 1650 3375 
L 1650 2525 
Q 1875 2675 2025 2825 
Q 2350 2350 2600 1975 
Q 2400 1825 2200 1650 
Q 1900 2150 1650 2450 
L 1650 450 
Q 1650 -75 1675 -600 
L 1150 -600 
Q 1175 -75 1175 450 
L 1175 2275 
Q 1050 1925 887 1637 
Q 725 1350 500 975 
Q 350 1300 200 1500 
Q 500 1850 737 2337 
Q 975 2825 1100 3350 
Q 550 3350 325 3325 
L 325 3775 
Q 575 3750 1175 3750 
L 1175 4350 
Q 1175 4725 1150 5100 
L 1675 5100 
z
M 4775 3575 
Q 4975 3875 5100 4187 
Q 5225 4500 5300 4800 
Q 5550 4675 5875 4550 
Q 5725 4375 5600 4075 
Q 5475 3775 5275 3375 
Q 5025 3500 4775 3575 
z
M 3050 4775 
Q 3275 4225 3475 3650 
Q 3225 3575 2975 3450 
Q 2775 4125 2575 4550 
Q 2825 4650 3050 4775 
z
" transform="scale(0.015625)"/>
      <path id="SimHei-6848" d="M 3075 3950 
Q 3025 3975 2700 3600 
L 4925 3600 
Q 5250 3600 5675 3625 
L 5675 3225 
Q 5200 3250 4700 3250 
Q 4400 2850 4000 2525 
Q 4750 2325 5675 2050 
Q 5600 1900 5500 1600 
Q 4650 1950 3650 2250 
Q 3150 1975 2487 1837 
Q 1825 1700 1050 1675 
Q 1025 1875 825 2125 
Q 1450 2075 2025 2137 
Q 2600 2200 3050 2375 
Q 2425 2500 1400 2675 
Q 1775 3050 1925 3250 
L 1450 3250 
Q 1250 3250 725 3225 
L 725 3625 
Q 1175 3600 1450 3600 
L 2200 3600 
Q 2475 3925 2650 4250 
L 3075 3950 
z
M 3000 1400 
Q 3000 1550 2975 1775 
L 3450 1775 
Q 3425 1575 3425 1400 
L 4925 1400 
Q 5375 1400 5825 1425 
L 5825 1025 
Q 5375 1050 4925 1050 
L 3850 1050 
Q 4275 625 4862 350 
Q 5450 75 6125 -50 
Q 5950 -175 5800 -500 
Q 4950 -250 4350 150 
Q 3750 550 3425 1000 
L 3425 150 
Q 3425 -150 3450 -625 
L 2975 -625 
Q 3000 -150 3000 200 
L 3000 925 
Q 2625 525 2100 175 
Q 1575 -175 650 -550 
Q 500 -300 325 -125 
Q 975 0 1550 300 
Q 2125 600 2550 1050 
L 1425 1050 
Q 1125 1050 650 1025 
L 650 1425 
Q 1125 1400 1425 1400 
L 3000 1400 
z
M 3125 5275 
Q 3400 4850 3500 4600 
L 5600 4600 
Q 5575 4450 5575 4250 
Q 5575 4075 5600 3850 
L 5125 3850 
L 5125 4275 
L 1300 4275 
L 1300 3825 
L 825 3825 
Q 850 4025 850 4225 
Q 850 4450 825 4600 
L 3000 4600 
Q 2850 4875 2700 5050 
Q 3025 5175 3125 5275 
z
M 2100 2875 
Q 2875 2750 3525 2650 
Q 3850 2825 4175 3250 
L 2425 3250 
Q 2275 3075 2100 2875 
z
" transform="scale(0.015625)"/>
     </defs>
     <use xlink:href="#SimHei-5e15"/>
     <use xlink:href="#SimHei-7d2f" transform="translate(100 0)"/>
     <use xlink:href="#SimHei-6258" transform="translate(200 0)"/>
     <use xlink:href="#SimHei-6863" transform="translate(300 0)"/>
     <use xlink:href="#SimHei-6848" transform="translate(400 0)"/>
    </g>
    <!-- 任务方案选择 -->
    <g style="fill: #1f2937" transform="translate(187.2048 184.378676) scale(0.14 -0.14)">
     <defs>
      <path id="SimHei-65b9" d="M 425 3975 
Q 825 3950 1300 3950 
L 5025 3950 
Q 5625 3950 6000 3975 
L 6000 3475 
Q 5675 3500 5100 3500 
L 2525 3500 
Q 2525 3225 2500 2500 
L 5300 2500 
Q 5250 2175 5200 1550 
L 5050 175 
Q 5000 -275 4625 -412 
Q 4250 -550 3525 -625 
Q 3500 -300 3325 -50 
Q 3900 -75 4200 0 
Q 4500 75 4575 425 
L 4725 2050 
L 2475 2050 
Q 2375 1350 2162 875 
Q 1950 400 1575 0 
Q 1200 -400 825 -700 
Q 725 -550 375 -350 
Q 700 -175 1062 200 
Q 1425 575 1662 1050 
Q 1900 1525 1962 2100 
Q 2025 2675 2025 3500 
L 1325 3500 
Q 775 3500 425 3475 
L 425 3975 
z
M 3075 4075 
Q 2850 4575 2575 5000 
Q 2800 5125 3025 5275 
Q 3300 4850 3575 4350 
Q 3325 4250 3075 4075 
z
" transform="scale(0.015625)"/>
      <path id="SimHei-9009" d="M 3200 4850 
Q 3025 4575 2900 4225 
L 3725 4225 
Q 3725 4725 3700 5175 
L 4275 5175 
Q 4225 4825 4225 4225 
Q 5100 4250 5475 4250 
L 5475 3825 
Q 5050 3850 4225 3850 
L 4225 2975 
L 5075 2975 
Q 5450 2975 5825 3000 
L 5825 2550 
Q 5450 2575 4675 2575 
L 4675 1200 
Q 4675 950 4950 950 
L 5250 950 
Q 5425 1050 5450 1525 
Q 5700 1375 5975 1325 
Q 5825 475 5450 475 
L 4775 475 
Q 4200 475 4200 1000 
L 4200 2575 
L 3700 2575 
Q 3700 1825 3425 1300 
Q 3150 775 2675 325 
Q 2500 500 2175 600 
Q 2800 1050 3012 1487 
Q 3225 1925 3225 2575 
Q 2475 2575 2100 2550 
L 2100 3025 
Q 2500 2975 2800 2975 
L 3725 2975 
L 3725 3850 
L 2775 3850 
Q 2650 3550 2575 3275 
Q 2300 3375 2075 3450 
Q 2450 4100 2625 5000 
Q 2875 4925 3200 4850 
z
M 1675 2875 
Q 1650 2350 1650 1925 
L 1650 575 
Q 2300 50 3725 0 
Q 5150 -50 6125 125 
Q 6000 0 5875 -450 
Q 4325 -475 3637 -425 
Q 2950 -375 2475 -237 
Q 2000 -100 1725 75 
Q 1450 250 1250 37 
Q 1050 -175 800 -500 
Q 625 -300 350 -175 
Q 625 125 1175 525 
L 1175 2475 
Q 800 2475 375 2450 
L 375 2900 
Q 850 2875 1675 2875 
z
M 1300 4850 
Q 1625 4100 1750 3725 
Q 1525 3650 1300 3550 
Q 1200 3850 800 4675 
Q 1025 4750 1300 4850 
z
" transform="scale(0.015625)"/>
      <path id="SimHei-62e9" d="M 2675 5050 
Q 3025 5050 3525 5025 
L 5675 5025 
Q 5400 4475 5187 4150 
Q 4975 3825 4500 3375 
Q 4825 3175 5187 3100 
Q 5550 3025 6150 2975 
Q 5900 2700 5850 2450 
Q 5225 2575 4850 2712 
Q 4475 2850 4125 3100 
Q 3750 2875 3425 2737 
Q 3100 2600 2575 2450 
Q 2525 2650 2225 2875 
Q 2675 2950 3025 3050 
Q 3375 3150 3725 3375 
Q 3175 3950 2975 4625 
L 2675 4625 
L 2675 5050 
z
M 2125 2825 
Q 2125 2600 2150 2350 
Q 1875 2250 1625 2125 
L 1625 175 
Q 1575 -250 1350 -337 
Q 1125 -425 625 -500 
Q 600 -200 500 175 
Q 1100 125 1125 250 
L 1125 1925 
Q 625 1675 450 1550 
Q 350 1850 200 2125 
Q 450 2175 1125 2400 
L 1125 3600 
Q 675 3600 350 3575 
L 350 4050 
Q 650 4025 1125 4025 
Q 1125 4575 1100 5225 
L 1650 5225 
Q 1625 4625 1625 4025 
Q 1900 4025 2350 4050 
L 2350 3575 
Q 1950 3600 1625 3600 
L 1625 2600 
Q 1875 2700 2125 2825 
z
M 3825 2025 
Q 3825 2325 3775 2650 
L 4350 2650 
Q 4325 2325 4325 2025 
Q 4950 2025 5525 2050 
L 5525 1600 
Q 4850 1625 4325 1625 
L 4325 875 
Q 5125 875 6000 900 
L 6000 450 
Q 5300 475 4325 475 
Q 4325 -400 4350 -675 
L 3775 -675 
Q 3825 -400 3825 475 
Q 2450 475 2075 450 
L 2075 900 
Q 2475 875 3825 875 
L 3825 1625 
Q 2900 1625 2575 1600 
L 2575 2050 
Q 3000 2025 3825 2025 
z
M 3425 4625 
Q 3725 3875 4125 3625 
Q 4325 3775 4537 4012 
Q 4750 4250 4950 4625 
L 3425 4625 
z
" transform="scale(0.015625)"/>
     </defs>
     <use xlink:href="#SimHei-4efb"/>
     <use xlink:href="#SimHei-52a1" transform="translate(100 0)"/>
     <use xlink:href="#SimHei-65b9" transform="translate(200 0)"/>
     <use xlink:href="#SimHei-6848" transform="translate(300 0)"/>
     <use xlink:href="#SimHei-9009" transform="translate(400 0)"/>
     <use xlink:href="#SimHei-62e9" transform="translate(500 0)"/>
    </g>
   </g>
  </g>
 </g>
 <defs>
  <clipPath id="pd7af1f3dee">
   <rect x="2.88" y="2.88" width="435.24" height="216.216"/>
  </clipPath>
 </defs>
</svg>
