<?xml version="1.0" encoding="utf-8" standalone="no"?>
<!DOCTYPE svg PUBLIC "-//W3C//DTD SVG 1.1//EN"
  "http://www.w3.org/Graphics/SVG/1.1/DTD/svg11.dtd">
<svg xmlns:xlink="http://www.w3.org/1999/xlink" width="419.298857pt" height="134.784pt" viewBox="0 0 419.298857 134.784" xmlns="http://www.w3.org/2000/svg" version="1.1">
 <metadata>
  <rdf:RDF xmlns:dc="http://purl.org/dc/elements/1.1/" xmlns:cc="http://creativecommons.org/ns#" xmlns:rdf="http://www.w3.org/1999/02/22-rdf-syntax-ns#">
   <cc:Work>
    <dc:type rdf:resource="http://purl.org/dc/dcmitype/StillImage"/>
    <dc:date>2026-06-08T13:13:07.760993</dc:date>
    <dc:format>image/svg+xml</dc:format>
    <dc:creator>
     <cc:Agent>
      <dc:title>Matplotlib v3.10.6, https://matplotlib.org/</dc:title>
     </cc:Agent>
    </dc:creator>
   </cc:Work>
  </rdf:RDF>
 </metadata>
 <defs>
  <style type="text/css">*{stroke-linejoin: round; stroke-linecap: butt}</style>
 </defs>
 <g id="figure_1">
  <g id="patch_1">
   <path d="M 0 134.784 
L 419.298857 134.784 
L 419.298857 0 
L 0 0 
z
" style="fill: #ffffff"/>
  </g>
  <g id="axes_1">
   <g id="patch_2">
    <path d="M 16.83072 117.95328 
L 115.5456 117.95328 
L 115.5456 36.09216 
L 78.033946 36.09216 
L 78.033946 78.659942 
L 16.83072 78.659942 
z
" clip-path="url(#p7522674076)" style="fill: #e9f2fa; stroke: #2f5c8a; stroke-width: 1.2; stroke-linejoin: miter"/>
   </g>
   <g id="line2d_1">
    <path d="M 77.02272 117.95328 
L 77.02272 78.82848 
" clip-path="url(#p7522674076)" style="fill: none; stroke-dasharray: 3.7,1.6; stroke-dashoffset: 0; stroke: #c95f35"/>
   </g>
   <g id="text_1">
    <!-- a -->
    <g transform="translate(9.60768 15.4267) scale(0.08 -0.08)">
     <defs>
      <path id="DejaVuSans-Bold-61" d="M 2106 1575 
Q 1756 1575 1579 1456 
Q 1403 1338 1403 1106 
Q 1403 894 1545 773 
Q 1688 653 1941 653 
Q 2256 653 2472 879 
Q 2688 1106 2688 1447 
L 2688 1575 
L 2106 1575 
z
M 3816 1997 
L 3816 0 
L 2688 0 
L 2688 519 
Q 2463 200 2181 54 
Q 1900 -91 1497 -91 
Q 953 -91 614 226 
Q 275 544 275 1050 
Q 275 1666 698 1953 
Q 1122 2241 2028 2241 
L 2688 2241 
L 2688 2328 
Q 2688 2594 2478 2717 
Q 2269 2841 1825 2841 
Q 1466 2841 1156 2769 
Q 847 2697 581 2553 
L 581 3406 
Q 941 3494 1303 3539 
Q 1666 3584 2028 3584 
Q 2975 3584 3395 3211 
Q 3816 2838 3816 1997 
z
" transform="scale(0.015625)"/>
     </defs>
     <use xlink:href="#DejaVuSans-Bold-61"/>
    </g>
   </g>
   <g id="text_2">
    <!-- 区域编码 -->
    <g transform="translate(47.392 16.617637) scale(0.1 -0.1)">
     <defs>
      <path id="SimHei-533a" d="M 5850 4525 
Q 5475 4550 4850 4550 
L 1150 4550 
L 1150 -75 
L 5225 -75 
Q 5725 -75 6025 -50 
L 6025 -500 
Q 5700 -475 5175 -475 
L 625 -475 
Q 650 125 650 400 
L 650 4200 
Q 650 4625 625 4975 
L 5850 4975 
L 5850 4525 
z
M 2275 3875 
Q 3150 3275 3800 2700 
Q 4375 3375 4650 4050 
Q 4925 3875 5300 3700 
Q 5025 3525 4825 3225 
Q 4625 2925 4225 2375 
Q 5075 1675 5600 1000 
Q 5300 800 5175 575 
Q 4775 1175 3850 1950 
Q 3475 1525 3087 1175 
Q 2700 825 2125 400 
Q 1900 625 1625 775 
Q 2125 1000 2525 1312 
Q 2925 1625 3475 2300 
Q 2850 2875 1925 3450 
Q 2175 3650 2275 3875 
z
" transform="scale(0.015625)"/>
      <path id="SimHei-57df" d="M 4550 5100 
Q 4475 4775 4500 4150 
L 5025 4150 
Q 5450 4150 5950 4175 
L 5950 3700 
Q 5475 3725 5025 3725 
L 4525 3725 
Q 4550 3050 4600 2462 
Q 4650 1875 4775 1275 
Q 4975 1850 5050 2275 
Q 5125 2700 5175 3200 
Q 5425 3075 5750 3000 
Q 5675 2875 5537 2337 
Q 5400 1800 5287 1450 
Q 5175 1100 5025 700 
Q 5125 450 5312 237 
Q 5500 25 5587 212 
Q 5675 400 5750 700 
Q 5900 525 6200 400 
Q 6000 -100 5800 -337 
Q 5600 -575 5250 -325 
Q 4900 -75 4725 300 
Q 4575 75 4362 -175 
Q 4150 -425 3875 -650 
Q 3750 -525 3400 -325 
Q 3750 -150 4037 162 
Q 4325 475 4475 775 
Q 4350 1175 4287 1512 
Q 4225 1850 4162 2450 
Q 4100 3050 4075 3725 
L 3150 3725 
Q 2525 3725 1975 3700 
L 1975 4175 
Q 2525 4150 3150 4150 
L 4050 4150 
Q 4025 4600 3950 5175 
Q 4250 5125 4550 5100 
z
M 975 4250 
Q 975 4800 950 5100 
L 1450 5100 
Q 1425 4750 1425 4250 
L 1425 3325 
Q 1625 3325 2000 3350 
L 2000 2900 
Q 1625 2925 1425 2925 
L 1425 1000 
Q 1550 1075 2000 1275 
Q 1975 1075 2000 775 
Q 1675 625 1200 425 
Q 725 225 500 50 
Q 375 325 250 575 
Q 475 625 662 687 
Q 850 750 975 825 
L 975 2925 
Q 625 2925 300 2900 
L 300 3350 
Q 600 3325 975 3325 
L 975 4250 
z
M 3800 1750 
Q 3800 1425 3825 1150 
L 2225 1150 
Q 2250 1375 2250 1575 
L 2250 2525 
Q 2250 2825 2225 3075 
L 3825 3075 
Q 3800 2875 3800 2675 
L 3800 1750 
z
M 1900 225 
Q 2300 300 2850 462 
Q 3400 625 3825 800 
Q 3800 600 3800 350 
Q 3500 250 3012 75 
Q 2525 -100 2125 -275 
Q 2025 -25 1900 225 
z
M 3350 1525 
L 3350 2700 
L 2725 2700 
L 2725 1525 
L 3350 1525 
z
M 5300 4325 
Q 5150 4625 4900 4925 
Q 5050 5050 5250 5150 
Q 5450 4900 5700 4575 
Q 5475 4475 5300 4325 
z
" transform="scale(0.015625)"/>
      <path id="SimHei-7f16" d="M 4275 5250 
Q 4375 4850 4475 4500 
L 5775 4500 
Q 5750 4200 5750 3825 
Q 5750 3450 5775 3175 
L 3100 3175 
Q 3075 2800 3050 2550 
L 6000 2550 
Q 5975 2150 5975 1700 
L 5975 -25 
Q 5975 -400 5812 -500 
Q 5650 -600 5275 -700 
Q 5200 -400 5050 -150 
Q 5400 -150 5475 -112 
Q 5550 -75 5550 150 
L 5550 1000 
L 5050 1000 
Q 5050 450 5075 -50 
L 4625 -50 
Q 4650 450 4650 1000 
L 4150 1000 
Q 4150 225 4175 -75 
L 3725 -75 
Q 3750 225 3750 1000 
L 3250 1000 
L 3250 -650 
L 2775 -650 
Q 2825 -175 2825 275 
L 2825 1625 
Q 2625 1075 2350 600 
Q 2175 925 2025 1100 
Q 2250 1400 2375 1700 
Q 2500 2000 2575 2525 
Q 2650 3050 2650 3575 
Q 2650 4100 2625 4500 
L 3925 4500 
Q 3875 4775 3750 5100 
Q 4075 5175 4275 5250 
z
M 1825 4875 
Q 1675 4725 1387 4150 
Q 1100 3575 875 3150 
L 1575 3175 
Q 1725 3475 1875 3850 
Q 2100 3675 2375 3500 
Q 2150 3275 1862 2812 
Q 1575 2350 1075 1675 
Q 1600 1725 2075 1800 
L 2025 1350 
Q 1725 1325 1350 1275 
Q 975 1225 550 1050 
Q 500 1325 400 1575 
Q 600 1600 825 1925 
Q 1050 2250 1400 2800 
Q 1175 2800 950 2775 
Q 725 2750 450 2650 
Q 375 2950 275 3175 
Q 525 3225 800 3862 
Q 1075 4500 1225 5125 
Q 1525 4950 1825 4875 
z
M 5325 3525 
L 5325 4150 
L 3100 4150 
L 3100 3525 
L 5325 3525 
z
M 2100 800 
Q 2075 525 2100 300 
Q 1575 175 1212 50 
Q 850 -75 400 -300 
L 200 300 
Q 500 325 1037 462 
Q 1575 600 2100 800 
z
M 4650 1350 
L 4650 2200 
L 4150 2200 
L 4150 1350 
L 4650 1350 
z
M 5550 1350 
L 5550 2200 
L 5050 2200 
L 5050 1350 
L 5550 1350 
z
M 3750 1350 
L 3750 2200 
L 3250 2200 
L 3250 1350 
L 3750 1350 
z
" transform="scale(0.015625)"/>
      <path id="SimHei-7801" d="M 1975 4750 
Q 2325 4750 2725 4775 
L 2725 4350 
Q 2300 4375 2100 4375 
L 1725 4375 
Q 1625 3775 1400 3050 
L 2600 3050 
Q 2575 2625 2575 2300 
L 2575 1100 
Q 2575 775 2600 150 
L 2150 150 
L 2150 600 
L 1400 600 
L 1400 -125 
L 925 -125 
Q 950 500 950 875 
L 950 2050 
Q 775 1725 550 1325 
Q 400 1525 200 1675 
Q 650 2275 925 3062 
Q 1200 3850 1250 4375 
Q 800 4375 350 4350 
L 350 4775 
Q 800 4750 1125 4750 
L 1975 4750 
z
M 4725 2425 
L 4975 4500 
L 3825 4500 
Q 3400 4500 2950 4475 
L 2950 4925 
Q 3400 4875 3825 4875 
L 5500 4875 
Q 5375 4200 5175 2425 
L 5975 2425 
Q 5925 2150 5887 1500 
Q 5850 850 5750 300 
Q 5650 -250 5412 -412 
Q 5175 -575 4475 -625 
Q 4450 -350 4275 -75 
Q 4925 -100 5100 -25 
Q 5275 50 5350 712 
Q 5425 1375 5450 2025 
L 3125 2025 
Q 3200 2575 3262 3112 
Q 3325 3650 3350 4150 
L 3900 4050 
Q 3800 3800 3737 3362 
Q 3675 2925 3625 2425 
L 4725 2425 
z
M 2150 1000 
L 2150 2650 
L 1400 2650 
L 1400 1000 
L 2150 1000 
z
M 4325 1325 
Q 4625 1325 5275 1350 
L 5275 900 
Q 4600 925 4150 925 
L 3500 925 
Q 3225 925 2825 900 
L 2825 1350 
Q 3100 1325 3500 1325 
L 4325 1325 
z
" transform="scale(0.015625)"/>
     </defs>
     <use xlink:href="#SimHei-533a"/>
     <use xlink:href="#SimHei-57df" transform="translate(100 0)"/>
     <use xlink:href="#SimHei-7f16" transform="translate(200 0)"/>
     <use xlink:href="#SimHei-7801" transform="translate(300 0)"/>
    </g>
   </g>
   <g id="text_3">
    <!-- 00 -->
    <g transform="translate(38.2252 103.30702) scale(0.08 -0.08)">
     <defs>
      <path id="DejaVuSans-30" d="M 2034 4250 
Q 1547 4250 1301 3770 
Q 1056 3291 1056 2328 
Q 1056 1369 1301 889 
Q 1547 409 2034 409 
Q 2525 409 2770 889 
Q 3016 1369 3016 2328 
Q 3016 3291 2770 3770 
Q 2525 4250 2034 4250 
z
M 2034 4750 
Q 2819 4750 3233 4129 
Q 3647 3509 3647 2328 
Q 3647 1150 3233 529 
Q 2819 -91 2034 -91 
Q 1250 -91 836 529 
Q 422 1150 422 2328 
Q 422 3509 836 4129 
Q 1250 4750 2034 4750 
z
" transform="scale(0.015625)"/>
     </defs>
     <use xlink:href="#DejaVuSans-30"/>
     <use xlink:href="#DejaVuSans-30" transform="translate(63.623047 0)"/>
    </g>
   </g>
   <g id="text_4">
    <!-- 01 -->
    <g transform="translate(88.78648 59.96878) scale(0.08 -0.08)">
     <defs>
      <path id="DejaVuSans-31" d="M 794 531 
L 1825 531 
L 1825 4091 
L 703 3866 
L 703 4441 
L 1819 4666 
L 2450 4666 
L 2450 531 
L 3481 531 
L 3481 0 
L 794 0 
L 794 531 
z
" transform="scale(0.015625)"/>
     </defs>
     <use xlink:href="#DejaVuSans-30"/>
     <use xlink:href="#DejaVuSans-31" transform="translate(63.623047 0)"/>
    </g>
   </g>
  </g>
  <g id="axes_2">
   <g id="patch_3">
    <path d="M 163.903509 117.95328 
L 255.395349 117.95328 
L 255.395349 26.46144 
L 163.903509 26.46144 
L 163.903509 117.95328 
z
" clip-path="url(#pb91634d609)" style="fill: none; stroke: #4e5d6c; stroke-width: 1.2; stroke-linejoin: miter"/>
   </g>
   <g id="text_5">
    <!-- b -->
    <g transform="translate(151.865109 15.4267) scale(0.08 -0.08)">
     <defs>
      <path id="DejaVuSans-Bold-62" d="M 2400 722 
Q 2759 722 2948 984 
Q 3138 1247 3138 1747 
Q 3138 2247 2948 2509 
Q 2759 2772 2400 2772 
Q 2041 2772 1848 2508 
Q 1656 2244 1656 1747 
Q 1656 1250 1848 986 
Q 2041 722 2400 722 
z
M 1656 2988 
Q 1888 3294 2169 3439 
Q 2450 3584 2816 3584 
Q 3463 3584 3878 3070 
Q 4294 2556 4294 1747 
Q 4294 938 3878 423 
Q 3463 -91 2816 -91 
Q 2450 -91 2169 54 
Q 1888 200 1656 506 
L 1656 0 
L 538 0 
L 538 4863 
L 1656 4863 
L 1656 2988 
z
" transform="scale(0.015625)"/>
     </defs>
     <use xlink:href="#DejaVuSans-Bold-62"/>
    </g>
   </g>
   <g id="text_6">
    <!-- 归一化搜索 -->
    <g transform="translate(184.649429 16.578575) scale(0.1 -0.1)">
     <defs>
      <path id="SimHei-5f52" d="M 2600 800 
Q 3075 775 3600 775 
L 5300 775 
L 5300 2275 
L 4150 2275 
Q 3550 2275 3100 2250 
L 3100 2725 
Q 3550 2700 4150 2700 
L 5300 2700 
L 5300 4175 
L 3775 4175 
Q 3300 4175 2800 4150 
L 2800 4625 
Q 3250 4600 3725 4600 
L 5850 4600 
Q 5825 4075 5825 3775 
L 5825 825 
Q 5825 200 5850 -300 
L 5300 -300 
L 5300 350 
L 3600 350 
Q 3075 350 2600 325 
L 2600 800 
z
M 350 -150 
Q 1125 325 1475 975 
Q 1825 1625 1900 2362 
Q 1975 3100 1962 3837 
Q 1950 4575 1925 5125 
L 2475 5125 
Q 2450 4725 2450 3950 
Q 2450 3175 2400 2437 
Q 2350 1700 2012 950 
Q 1675 200 800 -550 
Q 625 -325 350 -150 
z
M 500 1225 
Q 525 1650 525 2050 
L 525 3700 
Q 525 4125 500 4475 
L 1050 4475 
Q 1025 4100 1025 3700 
L 1025 2050 
Q 1025 1650 1050 1225 
L 500 1225 
z
" transform="scale(0.015625)"/>
      <path id="SimHei-4e00" d="M 4875 2675 
Q 5525 2675 6050 2700 
L 6050 2050 
Q 5525 2075 4900 2075 
L 1600 2075 
Q 950 2075 350 2050 
L 350 2700 
Q 950 2675 1600 2675 
L 4875 2675 
z
" transform="scale(0.015625)"/>
      <path id="SimHei-5316" d="M 3925 5025 
Q 3900 4900 3900 4400 
L 3900 2625 
Q 4375 3025 4775 3450 
Q 5175 3875 5400 4300 
Q 5600 4100 5900 3925 
Q 5700 3700 5225 3212 
Q 4750 2725 4487 2512 
Q 4225 2300 3900 2025 
L 3900 450 
Q 3900 50 4225 50 
L 5200 50 
Q 5400 75 5462 262 
Q 5525 450 5575 850 
Q 5800 650 6150 600 
Q 6000 -100 5825 -250 
Q 5650 -400 5350 -400 
L 3950 -400 
Q 3425 -400 3400 200 
L 3400 1675 
Q 3225 1525 2962 1350 
Q 2700 1175 2375 975 
Q 2225 1225 2025 1400 
Q 2350 1550 2737 1787 
Q 3125 2025 3400 2250 
L 3400 4500 
Q 3400 4800 3375 5025 
L 3925 5025 
z
M 2400 4850 
Q 2175 4550 2075 4337 
Q 1975 4125 1825 3775 
L 1825 675 
Q 1825 -75 1850 -550 
L 1325 -550 
Q 1350 -125 1350 650 
L 1350 3050 
Q 1125 2725 962 2525 
Q 800 2325 675 2175 
Q 500 2375 275 2525 
Q 625 2850 875 3212 
Q 1125 3575 1312 3912 
Q 1500 4250 1625 4575 
Q 1750 4900 1825 5100 
Q 1975 4975 2400 4850 
z
" transform="scale(0.015625)"/>
      <path id="SimHei-641c" d="M 2525 1975 
Q 2850 1950 3225 1950 
L 3900 1950 
L 3900 2450 
L 2500 2450 
Q 2525 2800 2525 3075 
L 2525 4200 
Q 2525 4475 2500 4775 
Q 3175 4850 3450 5000 
Q 3600 4650 3675 4550 
Q 3450 4525 2975 4500 
L 2975 3900 
L 3525 3900 
L 3525 3475 
L 2975 3475 
L 2975 2875 
L 3900 2875 
L 3900 4575 
Q 3900 4850 3875 5225 
L 4375 5225 
Q 4350 4925 4350 4600 
L 4350 2875 
L 5275 2875 
L 5275 3475 
L 4650 3475 
L 4650 3900 
L 5275 3900 
L 5275 4500 
Q 4975 4500 4675 4475 
L 4675 4925 
Q 4975 4900 5200 4900 
L 5750 4900 
Q 5725 4600 5725 4300 
L 5725 3100 
Q 5725 2675 5750 2450 
L 4350 2450 
L 4350 1950 
L 5675 1950 
Q 5550 1600 5275 1150 
Q 5000 700 4500 200 
Q 4775 25 5275 -62 
Q 5775 -150 6175 -150 
Q 6000 -300 5875 -650 
Q 5175 -550 4812 -425 
Q 4450 -300 4125 -100 
Q 3700 -300 3350 -412 
Q 3000 -525 2375 -675 
Q 2325 -450 2075 -200 
Q 3125 -100 3725 200 
Q 3450 475 3275 762 
Q 3100 1050 2925 1525 
L 2525 1525 
L 2525 1975 
z
M 1150 4550 
Q 1150 4925 1125 5225 
L 1675 5225 
Q 1600 4925 1600 4600 
L 1600 3950 
Q 1925 3950 2150 3975 
L 2150 3500 
Q 1900 3525 1600 3525 
L 1600 2500 
Q 2000 2650 2175 2800 
Q 2175 2675 2200 2325 
Q 2075 2275 1600 2075 
L 1600 0 
Q 1600 -300 1350 -387 
Q 1100 -475 650 -550 
Q 625 -300 450 0 
Q 900 0 1025 25 
Q 1150 50 1150 225 
L 1150 1900 
Q 650 1675 450 1525 
Q 325 1950 250 2100 
Q 550 2125 1150 2350 
L 1150 3525 
Q 625 3525 350 3500 
L 350 3975 
Q 625 3950 1150 3950 
L 1150 4550 
z
M 3400 1525 
Q 3750 775 4150 450 
Q 4700 1000 4950 1525 
L 3400 1525 
z
" transform="scale(0.015625)"/>
      <path id="SimHei-7d22" d="M 3275 3000 
Q 3100 2925 2850 2775 
Q 2600 2625 2200 2375 
L 3425 2375 
Q 3825 2575 4175 2900 
Q 4475 2700 4775 2525 
Q 4325 2400 3937 2187 
Q 3550 1975 2300 1375 
Q 3375 1425 4600 1475 
Q 4400 1650 4200 1800 
Q 4475 1925 4575 2075 
Q 5025 1825 5675 1125 
Q 5425 975 5275 800 
Q 5050 1000 4900 1150 
Q 4400 1150 3450 1075 
L 3450 -25 
Q 3450 -400 3212 -475 
Q 2975 -550 2450 -625 
Q 2425 -350 2250 -100 
Q 2600 -100 2775 -75 
Q 2950 -50 2950 125 
L 2950 1025 
Q 2175 1025 1700 962 
Q 1225 900 975 850 
Q 900 1100 825 1300 
Q 1425 1400 1837 1550 
Q 2250 1700 2875 2050 
Q 2300 2050 2012 2025 
Q 1725 2000 1325 1900 
Q 1250 2175 1175 2350 
Q 1525 2375 1925 2612 
Q 2325 2850 2675 3275 
Q 2975 3125 3275 3000 
z
M 2900 4625 
Q 2900 4925 2875 5150 
L 3425 5150 
Q 3400 4850 3400 4625 
L 4775 4625 
Q 5050 4625 5575 4650 
L 5575 4250 
Q 5100 4275 4750 4275 
L 3400 4275 
L 3400 3750 
L 5900 3750 
Q 5875 3550 5875 3250 
Q 5875 2950 5900 2700 
L 5375 2700 
L 5375 3375 
L 975 3375 
L 975 2525 
L 475 2525 
L 475 3750 
L 2900 3750 
L 2900 4275 
L 1750 4275 
Q 1050 4275 825 4250 
L 825 4650 
Q 1150 4625 1725 4625 
L 2900 4625 
z
M 4525 800 
Q 5175 375 5875 -75 
Q 5650 -250 5475 -450 
Q 4800 100 4125 500 
Q 4350 675 4525 800 
z
M 2125 450 
Q 1900 325 1575 75 
Q 1250 -175 775 -475 
Q 650 -275 375 -125 
Q 1100 225 1700 775 
Q 1900 600 2125 450 
z
" transform="scale(0.015625)"/>
     </defs>
     <use xlink:href="#SimHei-5f52"/>
     <use xlink:href="#SimHei-4e00" transform="translate(100 0)"/>
     <use xlink:href="#SimHei-5316" transform="translate(200 0)"/>
     <use xlink:href="#SimHei-641c" transform="translate(300 0)"/>
     <use xlink:href="#SimHei-7d22" transform="translate(400 0)"/>
    </g>
   </g>
   <g id="PathCollection_1">
    <defs>
     <path id="m721d0fe823" d="M 0 2.645751 
C 0.701661 2.645751 1.374679 2.366978 1.870829 1.870829 
C 2.366978 1.374679 2.645751 0.701661 2.645751 0 
C 2.645751 -0.701661 2.366978 -1.374679 1.870829 -1.870829 
C 1.374679 -2.366978 0.701661 -2.645751 0 -2.645751 
C -0.701661 -2.645751 -1.374679 -2.366978 -1.870829 -1.870829 
C -2.366978 -1.374679 -2.645751 -0.701661 -2.645751 0 
C -2.645751 0.701661 -2.366978 1.374679 -1.870829 1.870829 
C -1.374679 2.366978 -0.701661 2.645751 0 2.645751 
z
" style="stroke: #c95f35"/>
    </defs>
    <g clip-path="url(#pb91634d609)">
     <use xlink:href="#m721d0fe823" x="186.776469" y="57.76128" style="fill: #c95f35; stroke: #c95f35"/>
     <use xlink:href="#m721d0fe823" x="228.910869" y="93.87648" style="fill: #c95f35; stroke: #c95f35"/>
     <use xlink:href="#m721d0fe823" x="206.037909" y="78.22656" style="fill: #c95f35; stroke: #c95f35"/>
    </g>
   </g>
  </g>
  <g id="axes_3">
   <g id="patch_4">
    <path d="M 301.345577 117.95328 
L 400.060457 117.95328 
L 400.060457 36.09216 
L 362.548803 36.09216 
L 362.548803 78.659942 
L 301.345577 78.659942 
z
" clip-path="url(#pd3d17cfa9a)" style="fill: #e9f2fa; stroke: #2f5c8a; stroke-width: 1.2; stroke-linejoin: miter"/>
   </g>
   <g id="PathCollection_2">
    <defs>
     <path id="mbef49f34aa" d="M 0 -3.605551 
L -3.605551 3.605551 
L 3.605551 3.605551 
z
" style="stroke: #ffffff; stroke-width: 0.5"/>
    </defs>
    <g clip-path="url(#pd3d17cfa9a)">
     <use xlink:href="#mbef49f34aa" x="321.810857" y="91.4688" style="fill: #c95f35; stroke: #ffffff; stroke-width: 0.5"/>
     <use xlink:href="#mbef49f34aa" x="383.206697" y="63.78048" style="fill: #c95f35; stroke: #ffffff; stroke-width: 0.5"/>
     <use xlink:href="#mbef49f34aa" x="343.479977" y="84.24576" style="fill: #c95f35; stroke: #ffffff; stroke-width: 0.5"/>
    </g>
   </g>
   <g id="text_7">
    <!-- c -->
    <g transform="translate(294.122537 15.4267) scale(0.08 -0.08)">
     <defs>
      <path id="DejaVuSans-Bold-63" d="M 3366 3391 
L 3366 2478 
Q 3138 2634 2908 2709 
Q 2678 2784 2431 2784 
Q 1963 2784 1702 2511 
Q 1441 2238 1441 1747 
Q 1441 1256 1702 982 
Q 1963 709 2431 709 
Q 2694 709 2930 787 
Q 3166 866 3366 1019 
L 3366 103 
Q 3103 6 2833 -42 
Q 2563 -91 2291 -91 
Q 1344 -91 809 395 
Q 275 881 275 1747 
Q 275 2613 809 3098 
Q 1344 3584 2291 3584 
Q 2566 3584 2833 3536 
Q 3100 3488 3366 3391 
z
" transform="scale(0.015625)"/>
     </defs>
     <use xlink:href="#DejaVuSans-Bold-63"/>
    </g>
   </g>
   <g id="text_8">
    <!-- 物理部署 -->
    <g transform="translate(331.906857 16.578575) scale(0.1 -0.1)">
     <defs>
      <path id="SimHei-7269" d="M 5550 3775 
L 5225 3775 
Q 5175 2925 5062 2312 
Q 4950 1700 4700 1225 
Q 4450 750 4087 337 
Q 3725 -75 3100 -475 
Q 2950 -250 2650 -75 
Q 3275 175 3662 575 
Q 4050 975 4275 1462 
Q 4500 1950 4600 2537 
Q 4700 3125 4750 3775 
L 4325 3775 
Q 4250 3025 3912 2275 
Q 3575 1525 3075 1025 
Q 2925 1250 2600 1350 
Q 3175 1825 3462 2400 
Q 3750 2975 3875 3775 
L 3500 3775 
Q 3175 3125 2950 2800 
Q 2750 2975 2500 3050 
Q 3025 3750 3275 4375 
Q 3525 5000 3575 5275 
Q 3925 5125 4200 5050 
Q 4075 4950 3962 4725 
Q 3850 4500 3725 4200 
L 6075 4200 
Q 5975 3100 5937 1850 
Q 5900 600 5862 225 
Q 5825 -150 5500 -287 
Q 5175 -425 4550 -500 
Q 4525 -225 4300 75 
Q 5025 25 5187 100 
Q 5350 175 5375 525 
L 5550 3775 
z
M 1250 4325 
Q 1100 4125 1025 3700 
L 1600 3700 
L 1600 4525 
Q 1600 4900 1550 5200 
L 2100 5200 
Q 2075 4900 2075 4525 
L 2075 3700 
Q 2325 3700 2650 3725 
L 2650 3275 
Q 2300 3300 2075 3300 
L 2075 2000 
Q 2500 2100 2775 2225 
Q 2775 2000 2800 1775 
Q 2475 1675 2075 1550 
L 2075 375 
Q 2075 -50 2100 -600 
L 1550 -600 
Q 1600 -100 1600 375 
L 1600 1425 
Q 1325 1350 1062 1262 
Q 800 1175 500 1025 
Q 425 1250 250 1575 
Q 700 1625 1600 1850 
L 1600 3300 
L 950 3300 
Q 850 2825 725 2375 
Q 475 2500 225 2500 
Q 450 3025 537 3512 
Q 625 4000 650 4425 
Q 925 4350 1250 4325 
z
" transform="scale(0.015625)"/>
      <path id="SimHei-7406" d="M 5825 4850 
Q 5800 4525 5800 3425 
Q 5800 2350 5825 1875 
L 4450 1875 
L 4450 1125 
L 5200 1125 
Q 5650 1125 5900 1150 
L 5900 700 
Q 5625 725 5200 725 
L 4450 725 
L 4450 -125 
L 5350 -125 
Q 5825 -125 6150 -100 
L 6150 -550 
Q 5825 -525 5375 -525 
L 2950 -525 
Q 2550 -525 2250 -550 
L 2250 -100 
Q 2575 -125 2950 -125 
L 3975 -125 
L 3975 725 
L 3150 725 
Q 2825 725 2575 700 
L 2575 1150 
Q 2825 1125 3150 1125 
L 3975 1125 
L 3975 1875 
L 2625 1875 
Q 2650 2250 2650 3400 
Q 2650 4550 2625 4850 
L 5825 4850 
z
M 1750 4525 
Q 2025 4525 2350 4550 
L 2350 4075 
Q 2000 4100 1750 4100 
L 1525 4100 
L 1525 2750 
Q 1875 2750 2225 2775 
L 2225 2300 
Q 1875 2325 1525 2325 
L 1525 725 
Q 2000 900 2325 1050 
Q 2375 800 2425 625 
Q 1950 475 1362 237 
Q 775 0 450 -200 
Q 350 50 225 325 
Q 550 375 1075 600 
L 1075 2325 
Q 625 2325 300 2300 
L 300 2775 
Q 650 2750 1075 2750 
L 1075 4100 
L 775 4100 
Q 550 4100 225 4075 
L 225 4550 
Q 550 4525 775 4525 
L 1750 4525 
z
M 5325 2275 
L 5325 3175 
L 4450 3175 
L 4450 2275 
L 5325 2275 
z
M 5325 3550 
L 5325 4450 
L 4450 4450 
L 4450 3550 
L 5325 3550 
z
M 3975 2275 
L 3975 3175 
L 3125 3175 
L 3125 2275 
L 3975 2275 
z
M 3975 3550 
L 3975 4450 
L 3125 4450 
L 3125 3550 
L 3975 3550 
z
" transform="scale(0.015625)"/>
      <path id="SimHei-90e8" d="M 5300 2650 
Q 5750 2200 5962 1812 
Q 6175 1425 6150 1025 
Q 6125 625 5812 412 
Q 5500 200 4875 125 
Q 4825 400 4650 725 
Q 5250 725 5437 862 
Q 5625 1000 5612 1225 
Q 5600 1450 5350 1850 
Q 5100 2250 4775 2575 
Q 4975 3025 5300 4300 
L 4400 4300 
L 4400 -625 
L 3900 -625 
Q 3925 -100 3925 575 
L 3925 3625 
Q 3925 4175 3875 4725 
L 5975 4725 
Q 5575 3425 5300 2650 
z
M 3225 1775 
Q 3200 1200 3200 625 
Q 3200 50 3225 -575 
L 2725 -575 
L 2725 -75 
L 1375 -75 
L 1375 -575 
L 875 -575 
Q 900 -50 900 525 
Q 900 1125 875 1775 
L 3225 1775 
z
M 1925 5275 
Q 2325 4775 2450 4550 
Q 2300 4475 2175 4400 
Q 3225 4400 3500 4425 
L 3500 3950 
Q 3325 3950 2825 3975 
L 3250 3775 
Q 3075 3500 2750 2800 
Q 3350 2800 3675 2825 
L 3675 2350 
Q 3350 2375 3025 2375 
L 1150 2375 
Q 700 2375 400 2350 
L 400 2825 
Q 575 2800 1350 2800 
Q 1175 3225 900 3675 
Q 1100 3775 1325 3900 
Q 1575 3550 1850 3025 
Q 1600 2900 1475 2800 
L 2275 2800 
Q 2600 3575 2675 3975 
L 2075 3975 
Q 925 3975 575 3950 
L 575 4425 
Q 875 4400 1925 4400 
Q 1725 4800 1525 5025 
Q 1750 5150 1925 5275 
z
M 2725 325 
L 2725 1375 
L 1375 1375 
L 1375 325 
L 2725 325 
z
" transform="scale(0.015625)"/>
      <path id="SimHei-7f72" d="M 3325 3600 
Q 3300 3350 3300 3175 
Q 3875 3175 4350 3225 
L 4350 2775 
Q 4925 3225 5100 3500 
Q 5275 3250 5600 3125 
Q 5325 2950 5000 2737 
Q 4675 2525 4400 2325 
L 5200 2325 
Q 5600 2325 6000 2350 
L 6000 1925 
Q 5600 1950 5200 1950 
L 3775 1950 
Q 3600 1850 3150 1600 
L 5175 1600 
Q 5150 1150 5150 500 
Q 5150 -125 5175 -550 
L 4700 -550 
L 4700 -350 
L 1975 -350 
L 1975 -625 
L 1475 -625 
Q 1500 -150 1500 800 
Q 1025 625 575 475 
Q 500 700 325 900 
Q 700 975 1500 1275 
L 1500 1600 
L 2200 1600 
Q 2700 1800 2975 1950 
L 1175 1950 
Q 775 1950 425 1925 
L 425 2350 
Q 775 2325 1200 2325 
L 2825 2325 
L 2825 2775 
L 1825 2775 
Q 1425 2775 1075 2750 
L 1075 3225 
Q 1425 3175 1825 3175 
L 2825 3175 
L 2825 3600 
L 3325 3600 
z
M 5375 5025 
Q 5350 4675 5350 4325 
Q 5350 4000 5375 3700 
L 1025 3700 
Q 1050 4075 1050 4375 
Q 1050 4675 1025 5025 
L 5375 5025 
z
M 1975 775 
L 4700 775 
L 4700 1200 
L 2375 1200 
Q 2100 1075 1975 1000 
L 1975 775 
z
M 4700 50 
L 4700 425 
L 1975 425 
L 1975 50 
L 4700 50 
z
M 2350 4050 
L 2350 4650 
L 1500 4650 
L 1500 4050 
L 2350 4050 
z
M 3625 4050 
L 3625 4650 
L 2800 4650 
L 2800 4050 
L 3625 4050 
z
M 4900 4050 
L 4900 4650 
L 4075 4650 
L 4075 4050 
L 4900 4050 
z
M 3625 2325 
Q 3775 2425 4325 2775 
L 3300 2775 
L 3300 2325 
L 3625 2325 
z
" transform="scale(0.015625)"/>
     </defs>
     <use xlink:href="#SimHei-7269"/>
     <use xlink:href="#SimHei-7406" transform="translate(100 0)"/>
     <use xlink:href="#SimHei-90e8" transform="translate(200 0)"/>
     <use xlink:href="#SimHei-7f72" transform="translate(300 0)"/>
    </g>
   </g>
  </g>
 </g>
 <defs>
  <clipPath id="p7522674076">
   <rect x="7.2" y="7.2" width="120.384" height="120.384"/>
  </clipPath>
  <clipPath id="pb91634d609">
   <rect x="149.457429" y="7.2" width="120.384" height="120.384"/>
  </clipPath>
  <clipPath id="pd3d17cfa9a">
   <rect x="291.714857" y="7.2" width="120.384" height="120.384"/>
  </clipPath>
 </defs>
</svg>
