<?xml version="1.0" encoding="utf-8" standalone="no"?>
<!DOCTYPE svg PUBLIC "-//W3C//DTD SVG 1.1//EN"
  "http://www.w3.org/Graphics/SVG/1.1/DTD/svg11.dtd">
<svg xmlns:xlink="http://www.w3.org/1999/xlink" width="358.98636pt" height="225.072pt" viewBox="0 0 358.98636 225.072" xmlns="http://www.w3.org/2000/svg" version="1.1">
 <metadata>
  <rdf:RDF xmlns:dc="http://purl.org/dc/elements/1.1/" xmlns:cc="http://creativecommons.org/ns#" xmlns:rdf="http://www.w3.org/1999/02/22-rdf-syntax-ns#">
   <cc:Work>
    <dc:type rdf:resource="http://purl.org/dc/dcmitype/StillImage"/>
    <dc:date>2026-06-08T13:13:09.648458</dc:date>
    <dc:format>image/svg+xml</dc:format>
    <dc:creator>
     <cc:Agent>
      <dc:title>Matplotlib v3.10.6, https://matplotlib.org/</dc:title>
     </cc:Agent>
    </dc:creator>
   </cc:Work>
  </rdf:RDF>
 </metadata>
 <defs>
  <style type="text/css">*{stroke-linejoin: round; stroke-linecap: butt}</style>
 </defs>
 <g id="figure_1">
  <g id="patch_1">
   <path d="M 0 225.072 
L 358.98636 225.072 
L 358.98636 -0 
L 0 -0 
z
" style="fill: #ffffff"/>
  </g>
  <g id="axes_1">
   <g id="patch_2">
    <path d="M 34.4304 173.982 
L 313.542 151.1592 
L 269.2926 44.0676 
L 82.0836 68.646 
z
" clip-path="url(#p0bdddbffb7)" style="fill: #d6e7df; stroke: #174a6a; stroke-width: 1.6; stroke-linejoin: miter"/>
   </g>
   <g id="line2d_1">
    <path d="M 82.0836 182.76 
L 82.0836 35.2896 
" clip-path="url(#p0bdddbffb7)" style="fill: none; stroke: #9fb4aa; stroke-opacity: 0.8; stroke-width: 0.6; stroke-linecap: square"/>
   </g>
   <g id="line2d_2">
    <path d="M 156.9672 182.76 
L 156.9672 35.2896 
" clip-path="url(#p0bdddbffb7)" style="fill: none; stroke: #9fb4aa; stroke-opacity: 0.8; stroke-width: 0.6; stroke-linecap: square"/>
   </g>
   <g id="line2d_3">
    <path d="M 231.8508 182.76 
L 231.8508 35.2896 
" clip-path="url(#p0bdddbffb7)" style="fill: none; stroke: #9fb4aa; stroke-opacity: 0.8; stroke-width: 0.6; stroke-linecap: square"/>
   </g>
   <g id="line2d_4">
    <path d="M 286.3116 182.76 
L 286.3116 35.2896 
" clip-path="url(#p0bdddbffb7)" style="fill: none; stroke: #9fb4aa; stroke-opacity: 0.8; stroke-width: 0.6; stroke-linecap: square"/>
   </g>
   <g id="line2d_5">
    <path d="M 25.9209 147.648 
L 328.8591 147.648 
" clip-path="url(#p0bdddbffb7)" style="fill: none; stroke: #9fb4aa; stroke-opacity: 0.8; stroke-width: 0.6; stroke-linecap: square"/>
   </g>
   <g id="line2d_6">
    <path d="M 25.9209 109.0248 
L 328.8591 109.0248 
" clip-path="url(#p0bdddbffb7)" style="fill: none; stroke: #9fb4aa; stroke-opacity: 0.8; stroke-width: 0.6; stroke-linecap: square"/>
   </g>
   <g id="line2d_7">
    <path d="M 25.9209 70.4016 
L 328.8591 70.4016 
" clip-path="url(#p0bdddbffb7)" style="fill: none; stroke: #9fb4aa; stroke-opacity: 0.8; stroke-width: 0.6; stroke-linecap: square"/>
   </g>
   <g id="line2d_8">
    <path d="M 216.5337 182.76 
L 216.5337 35.2896 
" clip-path="url(#p0bdddbffb7)" style="fill: none; stroke-dasharray: 3.7,1.6; stroke-dashoffset: 0; stroke: #c95f35"/>
   </g>
   <g id="line2d_9">
    <path d="M 216.5337 145.8924 
L 216.5337 58.1124 
" clip-path="url(#p0bdddbffb7)" style="fill: none; stroke: #2f7d45; stroke-width: 3; stroke-linecap: square"/>
   </g>
   <g id="text_1">
    <!-- 垂直交点坐标变换 -->
    <g style="fill: #111827" transform="translate(32.7285 29.67168) scale(0.13 -0.13)">
     <defs>
      <path id="SimHei-5782" d="M 4975 5050 
Q 5100 4800 5275 4550 
Q 4650 4550 3450 4400 
L 3450 3700 
L 4850 3700 
Q 5250 3700 5725 3725 
L 5725 3275 
Q 5250 3300 4900 3300 
L 4900 2450 
Q 5550 2450 6050 2475 
L 6050 2025 
Q 5550 2050 4900 2050 
L 4900 1175 
L 4925 1175 
Q 5250 1175 5725 1200 
L 5725 725 
L 5250 750 
L 3450 750 
L 3450 0 
L 4625 0 
Q 4925 0 5400 25 
L 5400 -400 
Q 4950 -375 4650 -375 
L 1850 -375 
Q 1400 -375 1025 -400 
L 1025 25 
Q 1425 0 1850 0 
L 2975 0 
L 2975 750 
L 1550 750 
Q 1100 750 700 725 
L 700 1200 
Q 1100 1175 1475 1175 
L 1575 1175 
L 1575 2050 
Q 750 2050 300 2025 
L 300 2475 
Q 625 2450 1575 2450 
L 1575 3300 
L 1475 3300 
Q 1075 3300 675 3275 
L 675 3725 
Q 1100 3700 1475 3700 
L 2975 3700 
L 2975 4350 
Q 1575 4275 1125 4250 
Q 1100 4425 900 4700 
Q 1525 4675 2125 4700 
Q 2725 4725 3250 4775 
Q 3775 4825 4237 4900 
Q 4700 4975 4975 5050 
z
M 4425 1175 
L 4425 2050 
L 3450 2050 
L 3450 1175 
L 4425 1175 
z
M 4425 2450 
L 4425 3300 
L 3450 3300 
L 3450 2450 
L 4425 2450 
z
M 2975 1175 
L 2975 2050 
L 2050 2050 
L 2050 1175 
L 2975 1175 
z
M 2975 2450 
L 2975 3300 
L 2050 3300 
L 2050 2450 
L 2975 2450 
z
" transform="scale(0.015625)"/>
      <path id="SimHei-76f4" d="M 3550 5025 
Q 3475 4875 3400 4525 
L 4825 4525 
Q 5225 4525 5775 4550 
L 5775 4100 
Q 5250 4125 4825 4125 
L 3350 4125 
Q 3300 3775 3275 3525 
L 5100 3525 
Q 5075 3075 5075 2525 
L 5075 100 
L 5300 100 
Q 5650 100 6100 125 
L 6100 -350 
Q 5675 -325 5300 -325 
L 1225 -325 
Q 800 -325 325 -350 
L 325 125 
Q 825 100 1225 100 
L 1375 100 
L 1375 2525 
Q 1375 3175 1350 3525 
L 2775 3525 
Q 2825 3825 2850 4125 
L 1550 4125 
Q 1075 4125 600 4100 
L 600 4550 
Q 1075 4525 1525 4525 
L 2875 4525 
Q 2900 4800 2875 5075 
Q 3275 5025 3550 5025 
z
M 4600 975 
L 4600 1450 
L 1850 1450 
L 1850 975 
L 4600 975 
z
M 4600 100 
L 4600 575 
L 1850 575 
L 1850 100 
L 4600 100 
z
M 4600 2650 
L 4600 3125 
L 1850 3125 
L 1850 2650 
L 4600 2650 
z
M 4600 1825 
L 4600 2275 
L 1850 2275 
L 1850 1825 
L 4600 1825 
z
" transform="scale(0.015625)"/>
      <path id="SimHei-4ea4" d="M 2325 2600 
Q 2775 1575 3200 1150 
Q 3875 1825 4225 2725 
Q 4425 2575 4725 2400 
Q 4125 1450 3550 825 
Q 4400 175 6000 25 
Q 5750 -325 5700 -550 
Q 4100 -250 3150 525 
Q 2075 -275 650 -600 
Q 575 -300 375 -50 
Q 1900 125 2775 850 
Q 2200 1525 1850 2350 
Q 2150 2475 2325 2600 
z
M 1250 3725 
Q 875 3725 525 3700 
L 525 4200 
L 1225 4150 
L 5125 4150 
Q 5525 4175 5950 4200 
L 5950 3675 
Q 5525 3700 5125 3725 
L 1250 3725 
z
M 2525 3300 
Q 2175 2975 1025 2000 
Q 825 2250 550 2400 
Q 1025 2650 1412 3025 
Q 1800 3400 2000 3675 
Q 2250 3500 2525 3300 
z
M 4325 3675 
Q 4450 3575 4900 3237 
Q 5350 2900 5775 2600 
Q 5500 2400 5300 2175 
Q 5075 2475 3900 3300 
Q 4100 3500 4325 3675 
z
M 3250 5300 
Q 3500 4725 3625 4375 
Q 3275 4275 3025 4200 
Q 2875 4625 2650 5125 
Q 2950 5225 3250 5300 
z
" transform="scale(0.015625)"/>
      <path id="SimHei-70b9" d="M 3325 5200 
Q 3300 4925 3300 4375 
L 4900 4375 
Q 5275 4375 5725 4400 
L 5725 3925 
Q 5300 3950 4900 3950 
L 3300 3950 
L 3300 3225 
L 5225 3225 
Q 5200 2700 5200 2150 
Q 5200 1625 5225 1175 
L 1175 1175 
Q 1200 1625 1200 2175 
Q 1200 2725 1175 3225 
L 2775 3225 
L 2775 4500 
Q 2775 4900 2750 5200 
L 3325 5200 
z
M 4700 1600 
L 4700 2800 
L 1725 2800 
L 1725 1600 
L 4700 1600 
z
M 1500 750 
Q 1025 -250 825 -625 
Q 625 -475 325 -375 
Q 650 50 950 925 
Q 1200 800 1500 750 
z
M 5325 850 
Q 5775 150 6075 -350 
Q 5925 -425 5575 -625 
Q 5375 -150 4900 575 
Q 5150 700 5325 850 
z
M 3975 -575 
Q 3775 -100 3400 575 
Q 3575 675 3825 825 
Q 4350 -75 4450 -325 
Q 4200 -450 3975 -575 
z
M 2375 -575 
Q 2350 -300 1975 550 
Q 2200 625 2425 775 
Q 2800 -75 2900 -350 
Q 2625 -450 2375 -575 
z
" transform="scale(0.015625)"/>
      <path id="SimHei-5750" d="M 3450 5100 
Q 3425 4675 3425 4150 
L 3425 1500 
L 4550 1500 
Q 4975 1500 5450 1525 
L 5450 1075 
Q 5000 1100 4500 1100 
L 3425 1100 
L 3425 50 
L 5075 50 
Q 5500 50 5975 75 
L 5975 -375 
Q 5525 -350 5075 -350 
L 1475 -350 
Q 925 -350 400 -375 
L 400 75 
Q 925 50 1475 50 
L 2925 50 
L 2925 1100 
L 2050 1100 
Q 1450 1100 950 1075 
L 950 1525 
Q 1450 1500 2050 1500 
L 2925 1500 
L 2925 4150 
Q 2925 4675 2900 5100 
L 3450 5100 
z
M 5200 4450 
Q 5050 4250 4825 3600 
Q 5200 3300 5975 2500 
Q 5775 2400 5575 2150 
Q 5075 2800 4650 3150 
Q 4375 2500 3975 1925 
Q 3725 2125 3525 2200 
Q 3875 2575 4212 3362 
Q 4550 4150 4600 4650 
Q 4900 4525 5200 4450 
z
M 350 2150 
Q 600 2375 950 3087 
Q 1300 3800 1450 4575 
Q 1625 4475 2050 4400 
Q 1950 4275 1862 4050 
Q 1775 3825 1700 3575 
Q 2400 2950 2700 2475 
Q 2425 2325 2250 2150 
Q 2025 2550 1887 2725 
Q 1750 2900 1500 3125 
Q 1250 2525 800 1875 
Q 575 2050 350 2150 
z
" transform="scale(0.015625)"/>
      <path id="SimHei-6807" d="M 1275 4400 
Q 1275 4800 1250 5175 
L 1750 5175 
Q 1725 4825 1725 4400 
L 1725 3800 
Q 2125 3800 2575 3825 
L 2575 3350 
Q 2125 3375 1725 3375 
L 1725 2525 
Q 1900 2650 2075 2800 
Q 2400 2275 2650 1775 
Q 2375 1650 2175 1500 
Q 2025 2000 1725 2425 
L 1725 475 
Q 1725 -50 1750 -575 
L 1250 -575 
Q 1275 -25 1275 475 
L 1275 2100 
Q 1025 1400 500 750 
Q 350 950 125 1125 
Q 550 1550 812 2187 
Q 1075 2825 1150 3375 
Q 675 3375 325 3325 
L 325 3825 
Q 800 3800 1275 3800 
L 1275 4400 
z
M 5175 3125 
Q 5675 3125 6050 3150 
L 6050 2675 
Q 5675 2700 5275 2700 
L 4500 2700 
L 4500 175 
Q 4500 -225 4275 -350 
Q 4050 -475 3475 -550 
Q 3425 -250 3275 25 
Q 3775 25 3900 62 
Q 4025 100 4025 350 
L 4025 2700 
L 3400 2700 
Q 2775 2700 2500 2650 
L 2500 3150 
Q 2825 3125 3400 3125 
L 5175 3125 
z
M 4900 4775 
Q 5425 4775 5750 4800 
L 5750 4300 
Q 5275 4350 4750 4350 
L 3525 4350 
Q 3125 4350 2750 4300 
L 2750 4800 
Q 3100 4775 3525 4775 
L 4900 4775 
z
M 5275 2025 
Q 5825 1175 6200 500 
Q 5925 375 5650 200 
Q 5375 925 4825 1725 
Q 5075 1850 5275 2025 
z
M 3600 1775 
Q 3500 1625 3225 975 
Q 2950 325 2800 50 
Q 2575 175 2300 275 
Q 2625 775 2787 1187 
Q 2950 1600 3050 2000 
Q 3325 1875 3600 1775 
z
" transform="scale(0.015625)"/>
      <path id="SimHei-53d8" d="M 5200 1975 
Q 4950 1600 4537 1137 
Q 4125 675 3675 375 
Q 3925 225 4600 87 
Q 5275 -50 6000 -75 
Q 5700 -400 5650 -625 
Q 4850 -525 4212 -312 
Q 3575 -100 3225 125 
Q 2800 -125 2150 -325 
Q 1500 -525 700 -675 
Q 600 -425 400 -175 
Q 950 -150 1687 12 
Q 2425 175 2825 375 
Q 2275 775 1675 1575 
Q 1350 1575 1000 1550 
L 1000 2000 
Q 1450 1975 2075 1975 
L 5200 1975 
z
M 3225 5275 
Q 3400 4900 3550 4475 
L 4675 4475 
Q 5400 4475 5975 4500 
L 5975 4025 
Q 5375 4050 4725 4050 
L 4125 4050 
L 4125 2950 
Q 4125 2550 4150 2150 
L 3600 2150 
Q 3625 2550 3625 2950 
L 3625 4050 
L 2750 4050 
L 2750 2950 
Q 2750 2675 2775 2150 
L 2225 2150 
Q 2250 2675 2250 2950 
L 2250 4050 
L 1700 4050 
Q 975 4050 425 4025 
L 425 4500 
Q 950 4475 1700 4475 
L 2975 4475 
Q 2925 4675 2700 5125 
Q 2950 5150 3225 5275 
z
M 2200 1575 
Q 2650 975 3250 600 
Q 3850 1000 4275 1575 
L 2200 1575 
z
M 4850 3750 
Q 5375 3275 5950 2675 
Q 5750 2525 5500 2300 
Q 5075 2800 4450 3400 
Q 4675 3575 4850 3750 
z
M 1825 3500 
Q 1700 3375 1425 3025 
Q 1150 2675 825 2300 
Q 575 2475 375 2600 
Q 975 3150 1300 3825 
Q 1525 3650 1825 3500 
z
" transform="scale(0.015625)"/>
      <path id="SimHei-6362" d="M 1225 4550 
Q 1225 4900 1200 5200 
L 1700 5200 
Q 1650 4925 1650 4550 
L 1650 3800 
Q 1925 3800 2300 3825 
L 2300 3425 
Q 2725 3850 3000 4300 
Q 3275 4750 3425 5200 
Q 3625 5075 3950 4950 
Q 3800 4800 3600 4450 
L 5325 4450 
Q 4825 3750 4575 3325 
L 5600 3325 
L 5600 1650 
Q 5875 1650 6150 1675 
L 6150 1250 
Q 5725 1275 5450 1275 
L 4500 1275 
Q 4725 700 5237 325 
Q 5750 -50 6150 -150 
Q 5875 -375 5775 -625 
Q 5375 -450 4925 -37 
Q 4475 375 4150 1000 
Q 3775 50 2250 -625 
Q 2175 -425 1925 -200 
Q 2650 0 3137 425 
Q 3625 850 3775 1275 
L 2650 1275 
Q 2500 1275 2100 1250 
L 2100 1675 
Q 2475 1650 2675 1650 
L 2675 2675 
Q 2675 3050 2650 3150 
L 2550 3025 
Q 2400 3200 2175 3325 
L 2275 3400 
Q 1925 3425 1650 3425 
L 1650 2350 
Q 1925 2475 2200 2650 
Q 2225 2450 2275 2225 
Q 2025 2100 1650 1900 
L 1650 50 
Q 1650 -275 1462 -400 
Q 1275 -525 725 -600 
Q 700 -375 525 -75 
Q 1050 -100 1137 -50 
Q 1225 0 1225 150 
L 1225 1700 
Q 800 1475 525 1300 
Q 425 1525 250 1750 
Q 875 1975 1225 2150 
L 1225 3425 
Q 675 3425 300 3400 
L 300 3825 
Q 650 3800 1225 3800 
L 1225 4550 
z
M 5175 1650 
L 5175 2950 
L 4375 2950 
Q 4375 2300 4325 1650 
L 5175 1650 
z
M 3850 1650 
Q 3900 2300 3925 2950 
L 3100 2950 
L 3100 1650 
L 3850 1650 
z
M 3400 4100 
Q 3075 3625 2800 3325 
L 4100 3325 
L 4550 4100 
L 3400 4100 
z
" transform="scale(0.015625)"/>
     </defs>
     <use xlink:href="#SimHei-5782"/>
     <use xlink:href="#SimHei-76f4" transform="translate(100 0)"/>
     <use xlink:href="#SimHei-4ea4" transform="translate(200 0)"/>
     <use xlink:href="#SimHei-70b9" transform="translate(300 0)"/>
     <use xlink:href="#SimHei-5750" transform="translate(400 0)"/>
     <use xlink:href="#SimHei-6807" transform="translate(500 0)"/>
     <use xlink:href="#SimHei-53d8" transform="translate(600 0)"/>
     <use xlink:href="#SimHei-6362" transform="translate(700 0)"/>
    </g>
   </g>
   <g id="text_2">
    <!-- 只在选定 $\hat{x}$ 截得的有效区间内采样 -->
    <g style="fill: #174a6a" transform="translate(32.7285 38.8008) scale(0.095 -0.095)">
     <defs>
      <path id="SimHei-53ea" d="M 5150 4800 
Q 5125 4375 5125 3400 
Q 5125 2450 5150 1875 
L 1225 1875 
Q 1250 2325 1250 3300 
Q 1250 4275 1225 4800 
L 5150 4800 
z
M 4600 2325 
L 4600 4375 
L 1775 4375 
L 1775 2325 
L 4600 2325 
z
M 4175 1575 
Q 5400 300 5925 -200 
Q 5850 -250 5425 -600 
Q 4975 0 3750 1225 
Q 3975 1375 4175 1575 
z
M 2575 1200 
Q 2250 850 1775 337 
Q 1300 -175 800 -675 
Q 625 -500 375 -275 
Q 825 50 1300 562 
Q 1775 1075 2125 1600 
Q 2425 1375 2575 1200 
z
" transform="scale(0.015625)"/>
      <path id="SimHei-5728" d="M 2425 4200 
Q 2525 4525 2600 4762 
Q 2675 5000 2700 5250 
Q 3050 5175 3325 5100 
Q 3200 4850 3150 4712 
Q 3100 4575 2975 4200 
L 5000 4200 
Q 5525 4200 5950 4225 
L 5950 3750 
Q 5525 3775 5000 3775 
L 2825 3775 
Q 2675 3425 2437 3000 
Q 2200 2575 1825 2075 
L 1825 325 
Q 1825 -175 1850 -650 
L 1325 -650 
Q 1350 -175 1350 325 
L 1350 1625 
Q 950 1250 625 1000 
Q 450 1225 200 1375 
Q 500 1550 800 1800 
Q 1100 2050 1350 2375 
Q 1350 2600 1325 2825 
L 1725 2825 
Q 1900 3025 2037 3275 
Q 2175 3525 2275 3775 
L 1675 3775 
Q 1075 3775 625 3750 
L 625 4225 
Q 1100 4200 1675 4200 
L 2425 4200 
z
M 3700 2250 
L 3700 2600 
Q 3700 3100 3675 3400 
L 4225 3400 
Q 4200 3100 4200 2600 
L 4200 2250 
L 4775 2250 
Q 5225 2250 5600 2275 
L 5600 1800 
Q 5225 1825 4775 1825 
L 4200 1825 
L 4200 150 
L 5150 150 
Q 5625 150 6000 175 
L 6000 -275 
Q 5625 -250 5150 -250 
L 3125 -250 
Q 2475 -250 2100 -275 
L 2100 175 
Q 2475 150 3125 150 
L 3700 150 
L 3700 1825 
L 3225 1825 
Q 2775 1825 2350 1800 
L 2350 2275 
Q 2775 2250 3225 2250 
L 3700 2250 
z
" transform="scale(0.015625)"/>
      <path id="SimHei-9009" d="M 3200 4850 
Q 3025 4575 2900 4225 
L 3725 4225 
Q 3725 4725 3700 5175 
L 4275 5175 
Q 4225 4825 4225 4225 
Q 5100 4250 5475 4250 
L 5475 3825 
Q 5050 3850 4225 3850 
L 4225 2975 
L 5075 2975 
Q 5450 2975 5825 3000 
L 5825 2550 
Q 5450 2575 4675 2575 
L 4675 1200 
Q 4675 950 4950 950 
L 5250 950 
Q 5425 1050 5450 1525 
Q 5700 1375 5975 1325 
Q 5825 475 5450 475 
L 4775 475 
Q 4200 475 4200 1000 
L 4200 2575 
L 3700 2575 
Q 3700 1825 3425 1300 
Q 3150 775 2675 325 
Q 2500 500 2175 600 
Q 2800 1050 3012 1487 
Q 3225 1925 3225 2575 
Q 2475 2575 2100 2550 
L 2100 3025 
Q 2500 2975 2800 2975 
L 3725 2975 
L 3725 3850 
L 2775 3850 
Q 2650 3550 2575 3275 
Q 2300 3375 2075 3450 
Q 2450 4100 2625 5000 
Q 2875 4925 3200 4850 
z
M 1675 2875 
Q 1650 2350 1650 1925 
L 1650 575 
Q 2300 50 3725 0 
Q 5150 -50 6125 125 
Q 6000 0 5875 -450 
Q 4325 -475 3637 -425 
Q 2950 -375 2475 -237 
Q 2000 -100 1725 75 
Q 1450 250 1250 37 
Q 1050 -175 800 -500 
Q 625 -300 350 -175 
Q 625 125 1175 525 
L 1175 2475 
Q 800 2475 375 2450 
L 375 2900 
Q 850 2875 1675 2875 
z
M 1300 4850 
Q 1625 4100 1750 3725 
Q 1525 3650 1300 3550 
Q 1200 3850 800 4675 
Q 1025 4750 1300 4850 
z
" transform="scale(0.015625)"/>
      <path id="SimHei-5b9a" d="M 4200 3125 
Q 4675 3125 5175 3150 
L 5175 2675 
Q 4725 2700 4100 2700 
L 3550 2700 
L 3550 1700 
L 4600 1700 
Q 4875 1700 5375 1725 
L 5375 1250 
Q 4875 1275 4575 1275 
L 3550 1275 
L 3550 100 
Q 4600 -25 6050 125 
Q 5850 -200 5800 -475 
Q 4800 -475 4150 -450 
Q 3500 -425 3050 -300 
Q 2600 -175 2250 75 
Q 1900 325 1600 675 
Q 1200 -50 675 -575 
Q 450 -350 175 -250 
Q 875 300 1200 1050 
Q 1525 1800 1550 2200 
Q 1800 2050 2150 1975 
Q 2075 1875 1987 1662 
Q 1900 1450 1775 1125 
Q 1950 900 2300 612 
Q 2650 325 3050 200 
L 3050 2700 
L 2250 2700 
Q 1825 2700 1400 2675 
L 1400 3150 
Q 1825 3125 2400 3125 
L 4200 3125 
z
M 5750 4275 
Q 5725 3925 5725 3750 
Q 5725 3575 5750 3275 
L 5225 3275 
L 5225 3875 
L 1225 3875 
L 1225 3275 
L 700 3275 
Q 725 3475 725 3725 
Q 725 3975 700 4275 
L 5750 4275 
z
M 2650 5050 
Q 2875 5125 3100 5300 
Q 3375 4975 3600 4550 
Q 3250 4400 3100 4300 
Q 3050 4525 2650 5050 
z
" transform="scale(0.015625)"/>
      <path id="SimHei-20" transform="scale(0.015625)"/>
      <path id="DejaVuSans-302" d="M -1831 5119 
L -1369 5119 
L -603 3944 
L -1038 3944 
L -1600 4709 
L -2163 3944 
L -2597 3944 
L -1831 5119 
z
M -1600 3584 
L -1600 3584 
z
" transform="scale(0.015625)"/>
      <path id="DejaVuSans-Oblique-78" d="M 3841 3500 
L 2234 1784 
L 3219 0 
L 2559 0 
L 1819 1388 
L 531 0 
L -166 0 
L 1556 1844 
L 641 3500 
L 1300 3500 
L 1972 2234 
L 3144 3500 
L 3841 3500 
z
" transform="scale(0.015625)"/>
      <path id="SimHei-622a" d="M 1400 2750 
L 2225 2750 
Q 2175 2925 2050 3150 
Q 2250 3225 2525 3325 
Q 2675 2950 2750 2775 
Q 3200 2775 3575 2800 
L 3575 2350 
Q 3125 2375 2575 2375 
L 2575 1950 
Q 3075 1950 3475 1975 
L 3475 1550 
Q 3100 1575 2575 1575 
L 2575 1175 
Q 3000 1175 3450 1200 
L 3450 775 
Q 3050 800 2575 800 
L 2575 350 
Q 3100 350 3475 375 
L 3475 -50 
Q 3600 25 3750 125 
Q 4075 350 4375 700 
Q 4225 1100 4087 1712 
Q 3950 2325 3875 3425 
L 1150 3425 
Q 775 3425 375 3400 
L 375 3850 
Q 800 3800 1150 3800 
L 1900 3800 
L 1900 4250 
Q 1175 4250 800 4225 
L 800 4675 
Q 1175 4625 1900 4625 
Q 1900 4825 1875 5175 
L 2375 5175 
Q 2350 4900 2350 4625 
L 2650 4625 
Q 2950 4625 3400 4650 
L 3400 4225 
Q 2950 4250 2650 4250 
L 2350 4250 
L 2350 3800 
L 3850 3800 
Q 3825 4150 3800 5175 
Q 4100 5125 4350 5100 
Q 4275 4825 4300 3800 
L 5300 3800 
Q 5650 3800 6050 3825 
L 6050 3400 
Q 5650 3425 5300 3425 
L 4325 3425 
Q 4350 3125 4412 2550 
Q 4475 1975 4675 1200 
Q 5125 2075 5275 3025 
Q 5450 2925 5825 2850 
Q 5600 2275 5400 1725 
Q 5200 1175 4925 675 
Q 5250 225 5437 50 
Q 5625 -125 5650 75 
Q 5675 275 5675 500 
Q 5950 375 6200 275 
Q 6075 -425 5950 -575 
Q 5825 -725 5462 -537 
Q 5100 -350 4625 300 
Q 4350 0 4062 -225 
Q 3775 -450 3425 -675 
Q 3275 -450 3050 -275 
L 3450 -75 
Q 3075 -50 2775 -50 
L 1275 -50 
L 1275 -500 
L 800 -500 
Q 825 -175 850 200 
L 850 1925 
Q 700 1775 500 1550 
Q 325 1775 200 1925 
Q 375 2075 700 2487 
Q 1025 2900 1250 3350 
Q 1475 3200 1725 3075 
L 1400 2750 
z
M 5725 4350 
Q 5500 4275 5250 4100 
Q 5200 4350 4775 4850 
Q 4975 4950 5225 5100 
L 5725 4350 
z
M 2150 350 
L 2150 800 
L 1275 800 
L 1275 350 
L 2150 350 
z
M 2150 1950 
L 2150 2375 
L 1275 2375 
L 1275 1950 
L 2150 1950 
z
M 2150 1175 
L 2150 1575 
L 1275 1575 
L 1275 1175 
L 2150 1175 
z
" transform="scale(0.015625)"/>
      <path id="SimHei-5f97" d="M 5575 4975 
Q 5550 4625 5550 3950 
Q 5550 3300 5575 2900 
L 2675 2900 
Q 2700 3300 2700 3950 
Q 2700 4600 2675 4975 
L 5575 4975 
z
M 1950 1625 
Q 2400 1600 2950 1600 
L 4775 1600 
L 4775 2100 
L 3125 2100 
Q 2700 2100 2325 2075 
L 2325 2500 
Q 2700 2475 3125 2475 
L 5000 2475 
Q 5525 2475 5900 2500 
L 5900 2075 
Q 5575 2100 5225 2100 
L 5225 1600 
Q 5675 1600 6075 1625 
L 6075 1175 
Q 5700 1200 5225 1200 
L 5225 250 
Q 5250 -275 4950 -400 
Q 4650 -525 4175 -600 
Q 4125 -350 3975 -25 
Q 4550 -25 4675 62 
Q 4800 150 4775 425 
L 4775 1200 
L 2950 1200 
Q 2400 1200 1950 1175 
L 1950 1625 
z
M 1150 -550 
Q 1175 125 1175 575 
L 1175 2075 
Q 950 1825 625 1500 
Q 475 1750 275 1925 
Q 775 2300 1150 2775 
Q 1525 3250 1800 3775 
Q 2000 3600 2275 3450 
Q 2050 3150 1625 2575 
L 1625 575 
Q 1625 125 1650 -550 
L 1150 -550 
z
M 2150 4875 
Q 1450 4000 825 3375 
Q 675 3575 475 3750 
Q 1175 4325 1700 5200 
Q 1900 5025 2150 4875 
z
M 5100 3300 
L 5100 3775 
L 3150 3775 
L 3150 3300 
L 5100 3300 
z
M 5100 4150 
L 5100 4600 
L 3150 4600 
L 3150 4150 
L 5100 4150 
z
M 2950 1050 
Q 3325 525 3550 175 
Q 3375 75 3100 -125 
Q 2950 275 2575 750 
Q 2800 900 2950 1050 
z
" transform="scale(0.015625)"/>
      <path id="SimHei-7684" d="M 2100 4975 
Q 1975 4750 1750 3950 
L 2875 3950 
Q 2850 3525 2850 2875 
L 2850 675 
Q 2850 300 2875 -400 
L 2375 -400 
L 2375 100 
L 1100 100 
L 1100 -450 
L 600 -450 
Q 625 350 625 550 
L 625 2850 
Q 625 3525 600 3950 
L 1325 3950 
Q 1450 4525 1525 5150 
Q 1875 5025 2100 4975 
z
M 5825 3075 
Q 5800 1550 5700 175 
Q 5650 -275 5225 -425 
Q 4800 -575 4275 -625 
Q 4250 -350 4050 -50 
Q 4550 -75 4837 -25 
Q 5125 25 5200 200 
Q 5275 375 5312 1225 
Q 5350 2075 5375 3600 
L 3925 3600 
Q 3725 3125 3350 2475 
Q 3175 2650 2925 2750 
Q 3150 3050 3350 3475 
Q 3550 3900 3700 4400 
Q 3850 4900 3875 5175 
Q 4225 5025 4475 4950 
Q 4350 4750 4262 4512 
Q 4175 4275 4075 4050 
L 5850 4050 
Q 5825 3525 5825 3075 
z
M 2375 525 
L 2375 1850 
L 1100 1850 
L 1100 525 
L 2375 525 
z
M 2375 2275 
L 2375 3525 
L 1100 3525 
L 1100 2275 
L 2375 2275 
z
M 4350 2050 
Q 4500 1750 4700 1275 
Q 4525 1200 4225 1025 
Q 4050 1500 3900 1837 
Q 3750 2175 3600 2400 
Q 3775 2500 4050 2650 
L 4350 2050 
z
" transform="scale(0.015625)"/>
      <path id="SimHei-6709" d="M 275 1625 
Q 850 1975 1400 2537 
Q 1950 3100 2400 3925 
L 1500 3925 
Q 1150 3925 625 3900 
L 625 4375 
Q 1275 4350 1600 4350 
L 2550 4350 
Q 2750 4950 2775 5225 
Q 3150 5125 3375 5075 
Q 3300 5000 3125 4350 
L 5150 4350 
Q 5575 4350 6025 4375 
L 6025 3900 
Q 5575 3925 5225 3925 
L 2975 3925 
Q 2800 3600 2600 3275 
L 5475 3275 
Q 5450 2650 5450 2150 
L 5450 125 
Q 5450 -225 5250 -387 
Q 5050 -550 4400 -600 
Q 4375 -325 4225 0 
Q 4600 -50 4775 -25 
Q 4950 0 4950 250 
L 4950 750 
L 2350 750 
L 2350 -575 
L 1800 -575 
Q 1825 50 1825 500 
L 1825 2275 
Q 1300 1675 725 1225 
Q 625 1400 275 1625 
z
M 4950 2175 
L 4950 2875 
L 2350 2875 
L 2350 2175 
L 4950 2175 
z
M 4950 1150 
L 4950 1775 
L 2350 1775 
L 2350 1150 
L 4950 1150 
z
" transform="scale(0.015625)"/>
      <path id="SimHei-6548" d="M 3500 2400 
Q 3400 2675 3200 2900 
Q 3500 3350 3750 4025 
Q 4000 4700 4100 5300 
Q 4400 5150 4750 5075 
Q 4625 4950 4500 4687 
Q 4375 4425 4225 4025 
Q 5800 4025 6150 4050 
L 6150 3625 
Q 5850 3650 5475 3650 
Q 5450 2925 5300 2137 
Q 5150 1350 4825 800 
Q 4900 575 5312 275 
Q 5725 -25 6175 -175 
Q 5875 -350 5775 -650 
Q 5350 -425 5050 -162 
Q 4750 100 4500 425 
Q 4175 125 3837 -112 
Q 3500 -350 2850 -700 
Q 2725 -425 2425 -250 
Q 2750 -200 3325 137 
Q 3900 475 4200 800 
Q 4000 1225 3887 1675 
Q 3775 2125 3675 2700 
L 3500 2400 
z
M 1100 2225 
Q 1525 1875 1925 1575 
Q 2125 1900 2200 2400 
Q 2450 2275 2700 2200 
Q 2475 1625 2300 1250 
L 3000 550 
Q 2775 375 2575 175 
Q 2400 450 2025 825 
Q 1825 600 1550 312 
Q 1275 25 700 -425 
Q 500 -175 250 -25 
Q 575 125 950 400 
Q 1325 675 1675 1175 
Q 1325 1475 850 1875 
L 1100 2225 
z
M 4075 2950 
Q 4100 2700 4212 2187 
Q 4325 1675 4525 1225 
Q 4775 1700 4887 2475 
Q 5000 3250 4975 3650 
L 4100 3650 
Q 3900 3125 3725 2850 
Q 3900 2850 4075 2950 
z
M 2500 4200 
Q 2875 4200 3175 4225 
L 3175 3800 
Q 2875 3825 2525 3825 
L 1000 3825 
Q 600 3825 275 3800 
L 275 4225 
Q 600 4200 1000 4200 
L 2500 4200 
z
M 1125 3650 
Q 1400 3500 1625 3325 
Q 1525 3250 1300 2900 
Q 1050 2525 675 2000 
Q 450 2150 225 2275 
Q 550 2575 787 2975 
Q 1025 3375 1125 3650 
z
M 2475 3625 
Q 2625 3400 2850 3100 
Q 3075 2800 3250 2575 
Q 3025 2450 2825 2275 
Q 2325 3000 2075 3325 
Q 2275 3425 2475 3625 
z
M 1825 5250 
Q 2025 4875 2175 4475 
Q 1950 4375 1700 4275 
Q 1550 4650 1350 5075 
Q 1575 5150 1825 5250 
z
" transform="scale(0.015625)"/>
      <path id="SimHei-533a" d="M 5850 4525 
Q 5475 4550 4850 4550 
L 1150 4550 
L 1150 -75 
L 5225 -75 
Q 5725 -75 6025 -50 
L 6025 -500 
Q 5700 -475 5175 -475 
L 625 -475 
Q 650 125 650 400 
L 650 4200 
Q 650 4625 625 4975 
L 5850 4975 
L 5850 4525 
z
M 2275 3875 
Q 3150 3275 3800 2700 
Q 4375 3375 4650 4050 
Q 4925 3875 5300 3700 
Q 5025 3525 4825 3225 
Q 4625 2925 4225 2375 
Q 5075 1675 5600 1000 
Q 5300 800 5175 575 
Q 4775 1175 3850 1950 
Q 3475 1525 3087 1175 
Q 2700 825 2125 400 
Q 1900 625 1625 775 
Q 2125 1000 2525 1312 
Q 2925 1625 3475 2300 
Q 2850 2875 1925 3450 
Q 2175 3650 2275 3875 
z
" transform="scale(0.015625)"/>
      <path id="SimHei-95f4" d="M 4450 3550 
Q 4425 3075 4425 2725 
L 4425 1400 
Q 4425 1075 4450 625 
L 1925 625 
Q 1950 1075 1950 1425 
L 1950 2725 
Q 1950 3075 1925 3550 
L 4450 3550 
z
M 5800 4875 
Q 5775 4400 5775 3925 
L 5775 250 
Q 5800 -325 5462 -450 
Q 5125 -575 4725 -625 
Q 4700 -325 4525 -25 
Q 5000 -50 5137 25 
Q 5275 100 5275 350 
L 5275 4450 
L 3775 4450 
Q 3175 4450 2650 4425 
L 2650 4900 
Q 3175 4875 3775 4875 
L 5800 4875 
z
M 550 -525 
Q 600 -25 600 525 
L 600 3150 
Q 600 3675 550 4025 
L 1125 4025 
Q 1100 3650 1100 3300 
L 1100 500 
Q 1100 0 1125 -525 
L 550 -525 
z
M 3950 1025 
L 3950 1950 
L 2425 1950 
L 2425 1025 
L 3950 1025 
z
M 3950 2350 
L 3950 3150 
L 2425 3150 
L 2425 2350 
L 3950 2350 
z
M 1525 5300 
Q 1750 5000 2225 4350 
Q 1950 4225 1700 4075 
Q 1450 4575 1075 5025 
Q 1350 5225 1525 5300 
z
" transform="scale(0.015625)"/>
      <path id="SimHei-5185" d="M 1425 1300 
Q 2175 1825 2537 2375 
Q 2900 2925 2925 3750 
L 1225 3750 
L 1225 -500 
L 650 -500 
Q 700 0 700 350 
L 700 3125 
Q 700 3625 675 4175 
L 2950 4175 
Q 2950 4850 2925 5175 
Q 3325 5150 3550 5150 
Q 3425 4825 3425 4175 
L 5775 4175 
Q 5725 3650 5725 3125 
L 5725 75 
Q 5725 -300 5425 -387 
Q 5125 -475 4600 -550 
Q 4525 -300 4250 0 
Q 4850 0 5025 37 
Q 5200 75 5200 275 
L 5200 3750 
L 3400 3750 
Q 3400 3300 3325 2875 
Q 3550 2700 4125 2262 
Q 4700 1825 4950 1575 
Q 4675 1350 4525 1175 
Q 4100 1675 3175 2425 
Q 2725 1650 2000 975 
Q 1700 1225 1425 1300 
z
" transform="scale(0.015625)"/>
      <path id="SimHei-91c7" d="M 2900 2250 
Q 2900 2475 2875 2925 
L 3400 2925 
Q 3375 2525 3375 2250 
L 5175 2250 
Q 5550 2250 6075 2275 
L 6075 1775 
Q 5550 1800 5200 1800 
L 3900 1800 
Q 4300 1125 4887 750 
Q 5475 375 6125 200 
Q 5800 0 5650 -350 
Q 4950 -75 4362 450 
Q 3775 975 3400 1750 
L 3375 1750 
L 3375 400 
Q 3375 -25 3400 -625 
L 2825 -625 
Q 2875 0 2875 400 
L 2875 1600 
Q 2500 1025 1950 525 
Q 1400 25 650 -400 
Q 475 -150 200 25 
Q 850 300 1437 775 
Q 2025 1250 2375 1800 
Q 750 1800 300 1775 
L 300 2275 
Q 825 2250 2900 2250 
z
M 5575 4525 
Q 4975 4525 3587 4387 
Q 2200 4250 850 4125 
Q 775 4450 625 4650 
Q 1200 4625 2775 4750 
Q 4350 4875 5250 5150 
Q 5375 4800 5575 4525 
z
M 5475 4025 
Q 5200 3700 5000 3400 
Q 4800 3100 4550 2700 
Q 4375 2850 4100 3000 
Q 4475 3475 4975 4350 
Q 5250 4150 5475 4025 
z
M 1375 4025 
Q 1950 3275 2075 2925 
Q 1875 2825 1600 2650 
Q 1400 3150 925 3750 
Q 1125 3850 1375 4025 
z
M 3000 4250 
Q 3425 3450 3500 3175 
Q 3225 3075 3025 2950 
Q 2900 3400 2550 4025 
Q 2775 4100 3000 4250 
z
" transform="scale(0.015625)"/>
      <path id="SimHei-6837" d="M 4350 4025 
Q 4600 4575 4850 5225 
Q 5250 5075 5375 5000 
Q 5150 4725 4850 4025 
L 4950 4025 
Q 5650 4050 5950 4050 
L 5950 3600 
Q 5675 3625 5175 3625 
L 4550 3625 
L 4550 2650 
L 4950 2650 
Q 5525 2675 5800 2675 
L 5800 2225 
Q 5475 2250 5025 2250 
L 4550 2250 
L 4550 1225 
L 5325 1225 
Q 5800 1250 6100 1250 
L 6100 800 
Q 5825 825 5325 825 
L 4550 825 
L 4550 275 
Q 4550 -250 4575 -600 
L 4075 -600 
L 4075 825 
L 3475 825 
Q 3000 825 2550 800 
L 2550 1275 
Q 3000 1250 3500 1225 
L 4075 1225 
L 4075 2250 
L 3650 2250 
Q 3225 2250 2900 2225 
L 2900 2700 
Q 3200 2675 3675 2650 
L 4075 2650 
L 4075 3625 
L 3475 3625 
Q 3050 3625 2750 3600 
L 2750 4075 
Q 3050 4050 3475 4025 
L 4350 4025 
z
M 1325 4350 
Q 1325 4775 1300 5125 
L 1825 5125 
Q 1800 4725 1800 4350 
L 1800 3750 
Q 2125 3750 2475 3775 
L 2475 3325 
Q 2125 3350 1800 3350 
L 1800 2425 
Q 2000 2600 2100 2675 
Q 2375 2325 2725 1775 
Q 2575 1700 2300 1475 
Q 2025 1975 1800 2350 
L 1800 475 
Q 1800 -50 1825 -575 
L 1300 -575 
Q 1325 -25 1325 475 
L 1325 2250 
Q 925 1300 525 725 
Q 425 950 225 1175 
Q 950 2150 1225 3350 
Q 825 3350 350 3325 
L 350 3775 
Q 825 3750 1325 3750 
L 1325 4350 
z
M 3575 5200 
Q 3800 4775 3950 4350 
Q 3650 4250 3525 4175 
Q 3350 4600 3150 5000 
Q 3425 5125 3575 5200 
z
" transform="scale(0.015625)"/>
     </defs>
     <use xlink:href="#SimHei-53ea" transform="translate(0 0.828125)"/>
     <use xlink:href="#SimHei-5728" transform="translate(100 0.828125)"/>
     <use xlink:href="#SimHei-9009" transform="translate(200 0.828125)"/>
     <use xlink:href="#SimHei-5b9a" transform="translate(300 0.828125)"/>
     <use xlink:href="#SimHei-20" transform="translate(400 0.828125)"/>
     <use xlink:href="#DejaVuSans-302" transform="translate(512.373047 12.015625)"/>
     <use xlink:href="#DejaVuSans-Oblique-78" transform="translate(450 0.828125)"/>
     <use xlink:href="#SimHei-20" transform="translate(509.179688 0.828125)"/>
     <use xlink:href="#SimHei-622a" transform="translate(559.179688 0.828125)"/>
     <use xlink:href="#SimHei-5f97" transform="translate(659.179688 0.828125)"/>
     <use xlink:href="#SimHei-7684" transform="translate(759.179688 0.828125)"/>
     <use xlink:href="#SimHei-6709" transform="translate(859.179688 0.828125)"/>
     <use xlink:href="#SimHei-6548" transform="translate(959.179688 0.828125)"/>
     <use xlink:href="#SimHei-533a" transform="translate(1059.179688 0.828125)"/>
     <use xlink:href="#SimHei-95f4" transform="translate(1159.179688 0.828125)"/>
     <use xlink:href="#SimHei-5185" transform="translate(1259.179688 0.828125)"/>
     <use xlink:href="#SimHei-91c7" transform="translate(1359.179688 0.828125)"/>
     <use xlink:href="#SimHei-6837" transform="translate(1459.179688 0.828125)"/>
    </g>
   </g>
   <g id="text_3">
    <!-- $y_{\max}(\hat{x})$ -->
    <g style="fill: #174a6a" transform="translate(185.21874 52.49448) scale(0.095 -0.095)">
     <defs>
      <path id="DejaVuSans-Oblique-79" d="M 1588 -325 
Q 1188 -997 936 -1164 
Q 684 -1331 294 -1331 
L -159 -1331 
L -63 -850 
L 269 -850 
Q 509 -850 678 -719 
Q 847 -588 1056 -206 
L 1234 128 
L 459 3500 
L 1069 3500 
L 1650 819 
L 3256 3500 
L 3859 3500 
L 1588 -325 
z
" transform="scale(0.015625)"/>
      <path id="DejaVuSans-6d" d="M 3328 2828 
Q 3544 3216 3844 3400 
Q 4144 3584 4550 3584 
Q 5097 3584 5394 3201 
Q 5691 2819 5691 2113 
L 5691 0 
L 5113 0 
L 5113 2094 
Q 5113 2597 4934 2840 
Q 4756 3084 4391 3084 
Q 3944 3084 3684 2787 
Q 3425 2491 3425 1978 
L 3425 0 
L 2847 0 
L 2847 2094 
Q 2847 2600 2669 2842 
Q 2491 3084 2119 3084 
Q 1678 3084 1418 2786 
Q 1159 2488 1159 1978 
L 1159 0 
L 581 0 
L 581 3500 
L 1159 3500 
L 1159 2956 
Q 1356 3278 1631 3431 
Q 1906 3584 2284 3584 
Q 2666 3584 2933 3390 
Q 3200 3197 3328 2828 
z
" transform="scale(0.015625)"/>
      <path id="DejaVuSans-61" d="M 2194 1759 
Q 1497 1759 1228 1600 
Q 959 1441 959 1056 
Q 959 750 1161 570 
Q 1363 391 1709 391 
Q 2188 391 2477 730 
Q 2766 1069 2766 1631 
L 2766 1759 
L 2194 1759 
z
M 3341 1997 
L 3341 0 
L 2766 0 
L 2766 531 
Q 2569 213 2275 61 
Q 1981 -91 1556 -91 
Q 1019 -91 701 211 
Q 384 513 384 1019 
Q 384 1609 779 1909 
Q 1175 2209 1959 2209 
L 2766 2209 
L 2766 2266 
Q 2766 2663 2505 2880 
Q 2244 3097 1772 3097 
Q 1472 3097 1187 3025 
Q 903 2953 641 2809 
L 641 3341 
Q 956 3463 1253 3523 
Q 1550 3584 1831 3584 
Q 2591 3584 2966 3190 
Q 3341 2797 3341 1997 
z
" transform="scale(0.015625)"/>
      <path id="DejaVuSans-78" d="M 3513 3500 
L 2247 1797 
L 3578 0 
L 2900 0 
L 1881 1375 
L 863 0 
L 184 0 
L 1544 1831 
L 300 3500 
L 978 3500 
L 1906 2253 
L 2834 3500 
L 3513 3500 
z
" transform="scale(0.015625)"/>
      <path id="DejaVuSans-28" d="M 1984 4856 
Q 1566 4138 1362 3434 
Q 1159 2731 1159 2009 
Q 1159 1288 1364 580 
Q 1569 -128 1984 -844 
L 1484 -844 
Q 1016 -109 783 600 
Q 550 1309 550 2009 
Q 550 2706 781 3412 
Q 1013 4119 1484 4856 
L 1984 4856 
z
" transform="scale(0.015625)"/>
      <path id="DejaVuSans-29" d="M 513 4856 
L 1013 4856 
Q 1481 4119 1714 3412 
Q 1947 2706 1947 2009 
Q 1947 1309 1714 600 
Q 1481 -109 1013 -844 
L 513 -844 
Q 928 -128 1133 580 
Q 1338 1288 1338 2009 
Q 1338 2731 1133 3434 
Q 928 4138 513 4856 
z
" transform="scale(0.015625)"/>
     </defs>
     <use xlink:href="#DejaVuSans-Oblique-79" transform="translate(0 0.828125)"/>
     <use xlink:href="#DejaVuSans-6d" transform="translate(59.179688 -15.578125) scale(0.7)"/>
     <use xlink:href="#DejaVuSans-61" transform="translate(127.368164 -15.578125) scale(0.7)"/>
     <use xlink:href="#DejaVuSans-78" transform="translate(170.263672 -15.578125) scale(0.7)"/>
     <use xlink:href="#DejaVuSans-28" transform="translate(214.423828 0.828125)"/>
     <use xlink:href="#DejaVuSans-302" transform="translate(315.810547 12.015625)"/>
     <use xlink:href="#DejaVuSans-Oblique-78" transform="translate(253.4375 0.828125)"/>
     <use xlink:href="#DejaVuSans-29" transform="translate(312.617188 0.828125)"/>
    </g>
   </g>
   <g id="text_4">
    <!-- $y_{\min}(\hat{x})$ -->
    <g style="fill: #174a6a" transform="translate(220.61826 157.83048) scale(0.095 -0.095)">
     <defs>
      <path id="DejaVuSans-69" d="M 603 3500 
L 1178 3500 
L 1178 0 
L 603 0 
L 603 3500 
z
M 603 4863 
L 1178 4863 
L 1178 4134 
L 603 4134 
L 603 4863 
z
" transform="scale(0.015625)"/>
      <path id="DejaVuSans-6e" d="M 3513 2113 
L 3513 0 
L 2938 0 
L 2938 2094 
Q 2938 2591 2744 2837 
Q 2550 3084 2163 3084 
Q 1697 3084 1428 2787 
Q 1159 2491 1159 1978 
L 1159 0 
L 581 0 
L 581 3500 
L 1159 3500 
L 1159 2956 
Q 1366 3272 1645 3428 
Q 1925 3584 2291 3584 
Q 2894 3584 3203 3211 
Q 3513 2838 3513 2113 
z
" transform="scale(0.015625)"/>
     </defs>
     <use xlink:href="#DejaVuSans-Oblique-79" transform="translate(0 0.828125)"/>
     <use xlink:href="#DejaVuSans-6d" transform="translate(59.179688 -15.578125) scale(0.7)"/>
     <use xlink:href="#DejaVuSans-69" transform="translate(127.368164 -15.578125) scale(0.7)"/>
     <use xlink:href="#DejaVuSans-6e" transform="translate(146.816406 -15.578125) scale(0.7)"/>
     <use xlink:href="#DejaVuSans-28" transform="translate(193.916016 0.828125)"/>
     <use xlink:href="#DejaVuSans-302" transform="translate(295.302734 12.015625)"/>
     <use xlink:href="#DejaVuSans-Oblique-78" transform="translate(232.929688 0.828125)"/>
     <use xlink:href="#DejaVuSans-29" transform="translate(292.109375 0.828125)"/>
    </g>
   </g>
   <g id="text_5">
    <!-- $y=y_{\min}+\hat{y}(y_{\max}-y_{\min})$ -->
    <g style="fill: #174a6a" transform="translate(229.46814 126.5808) scale(0.095 -0.095)">
     <defs>
      <path id="DejaVuSans-3d" d="M 678 2906 
L 4684 2906 
L 4684 2381 
L 678 2381 
L 678 2906 
z
M 678 1631 
L 4684 1631 
L 4684 1100 
L 678 1100 
L 678 1631 
z
" transform="scale(0.015625)"/>
      <path id="DejaVuSans-2b" d="M 2944 4013 
L 2944 2272 
L 4684 2272 
L 4684 1741 
L 2944 1741 
L 2944 0 
L 2419 0 
L 2419 1741 
L 678 1741 
L 678 2272 
L 2419 2272 
L 2419 4013 
L 2944 4013 
z
" transform="scale(0.015625)"/>
      <path id="DejaVuSans-2212" d="M 678 2272 
L 4684 2272 
L 4684 1741 
L 678 1741 
L 678 2272 
z
" transform="scale(0.015625)"/>
     </defs>
     <use xlink:href="#DejaVuSans-Oblique-79" transform="translate(0 0.828125)"/>
     <use xlink:href="#DejaVuSans-3d" transform="translate(78.662109 0.828125)"/>
     <use xlink:href="#DejaVuSans-Oblique-79" transform="translate(181.933594 0.828125)"/>
     <use xlink:href="#DejaVuSans-6d" transform="translate(241.113281 -15.578125) scale(0.7)"/>
     <use xlink:href="#DejaVuSans-69" transform="translate(309.301758 -15.578125) scale(0.7)"/>
     <use xlink:href="#DejaVuSans-6e" transform="translate(328.75 -15.578125) scale(0.7)"/>
     <use xlink:href="#DejaVuSans-2b" transform="translate(395.332031 0.828125)"/>
     <use xlink:href="#DejaVuSans-302" transform="translate(560.976562 12.015625)"/>
     <use xlink:href="#DejaVuSans-Oblique-79" transform="translate(498.603516 0.828125)"/>
     <use xlink:href="#DejaVuSans-28" transform="translate(557.783203 0.828125)"/>
     <use xlink:href="#DejaVuSans-Oblique-79" transform="translate(596.796875 0.828125)"/>
     <use xlink:href="#DejaVuSans-6d" transform="translate(655.976562 -15.578125) scale(0.7)"/>
     <use xlink:href="#DejaVuSans-61" transform="translate(724.165039 -15.578125) scale(0.7)"/>
     <use xlink:href="#DejaVuSans-78" transform="translate(767.060547 -15.578125) scale(0.7)"/>
     <use xlink:href="#DejaVuSans-2212" transform="translate(830.703125 0.828125)"/>
     <use xlink:href="#DejaVuSans-Oblique-79" transform="translate(933.974609 0.828125)"/>
     <use xlink:href="#DejaVuSans-6d" transform="translate(993.154297 -15.578125) scale(0.7)"/>
     <use xlink:href="#DejaVuSans-69" transform="translate(1061.342773 -15.578125) scale(0.7)"/>
     <use xlink:href="#DejaVuSans-6e" transform="translate(1080.791016 -15.578125) scale(0.7)"/>
     <use xlink:href="#DejaVuSans-29" transform="translate(1127.890625 0.828125)"/>
    </g>
   </g>
   <g id="patch_3">
    <path d="M 261.017971 39.286602 
Q 239.697613 48.309404 219.509845 56.852892 
" style="fill: none; stroke: #174a6a; stroke-width: 1.1; stroke-linecap: round"/>
    <path d="M 224.196183 57.149941 
L 219.509845 56.852892 
L 222.559287 53.282051 
z
" style="fill: #174a6a; stroke: #174a6a; stroke-width: 1.1; stroke-linecap: round"/>
   </g>
   <g id="text_6">
    <g id="patch_4">
     <path d="M 250.8828 38.1078 
L 314.9328 38.1078 
Q 317.5578 38.1078 317.5578 35.4828 
L 317.5578 24.5628 
Q 317.5578 21.9378 314.9328 21.9378 
L 250.8828 21.9378 
Q 248.2578 21.9378 248.2578 24.5628 
L 248.2578 35.4828 
Q 248.2578 38.1078 250.8828 38.1078 
z
" style="fill: #ffffff; stroke: #8aa19a; stroke-width: 0.8; stroke-linejoin: miter"/>
    </g>
    <!-- $\hat{x}$ 确定扫描线 -->
    <g transform="translate(250.8828 34.1703) scale(0.105 -0.105)">
     <defs>
      <path id="SimHei-786e" d="M 4975 -200 
Q 5250 -175 5362 -125 
Q 5475 -75 5475 125 
L 5475 975 
L 4625 975 
L 4625 -400 
L 4200 -400 
L 4200 975 
L 3500 975 
Q 3475 625 3325 237 
Q 3175 -150 2800 -600 
Q 2625 -350 2325 -325 
Q 2650 -50 2812 262 
Q 2975 575 3025 1000 
Q 3075 1425 3087 2187 
Q 3100 2950 3075 3425 
L 4250 3425 
Q 4475 3825 4650 4225 
L 3625 4225 
Q 3325 3875 2850 3250 
Q 2650 3425 2425 3500 
Q 2875 3975 3175 4425 
Q 3475 4875 3625 5300 
Q 3900 5175 4200 5100 
Q 4075 5025 3825 4575 
L 5350 4575 
Q 4900 3775 4750 3425 
L 5950 3425 
Q 5925 2975 5925 2450 
L 5925 -50 
Q 5950 -350 5775 -462 
Q 5600 -575 5175 -675 
Q 5150 -425 4975 -200 
z
M 200 1975 
Q 550 2300 850 2837 
Q 1150 3375 1300 4225 
Q 825 4225 525 4200 
L 525 4650 
Q 875 4625 1200 4625 
L 1900 4625 
Q 2325 4625 2625 4650 
L 2625 4200 
Q 2325 4225 1800 4225 
Q 1650 3525 1400 2925 
L 2525 2925 
Q 2500 2500 2500 2125 
L 2500 1075 
Q 2500 650 2525 125 
L 2075 125 
L 2075 600 
L 1350 600 
L 1350 -300 
L 900 -300 
Q 925 225 925 600 
L 925 2100 
Q 800 1900 625 1625 
Q 475 1825 200 1975 
z
M 2075 975 
L 2075 2575 
L 1350 2575 
L 1350 975 
L 2075 975 
z
M 5475 2350 
L 5475 3075 
L 4625 3075 
L 4625 2350 
L 5475 2350 
z
M 5475 1325 
L 5475 2000 
L 4625 2000 
L 4625 1325 
L 5475 1325 
z
M 4200 2350 
L 4200 3075 
L 3500 3075 
L 3500 2350 
L 4200 2350 
z
M 4200 1325 
L 4200 2000 
L 3500 2000 
L 3500 1325 
L 4200 1325 
z
" transform="scale(0.015625)"/>
      <path id="SimHei-626b" d="M 5900 4750 
Q 5875 4200 5875 3575 
L 5875 625 
Q 5875 25 5900 -525 
L 5375 -525 
L 5375 150 
L 3700 150 
Q 3200 150 2725 125 
L 2725 625 
Q 3200 600 3700 600 
L 5375 600 
L 5375 2325 
L 4200 2325 
Q 3700 2325 3200 2300 
L 3200 2775 
Q 3700 2750 4200 2750 
L 5375 2750 
L 5375 4300 
L 3850 4300 
Q 3350 4300 2900 4275 
L 2900 4775 
Q 3350 4750 3850 4750 
L 5900 4750 
z
M 1375 3925 
Q 1375 4675 1350 5150 
L 1925 5150 
Q 1900 4850 1900 3925 
Q 2450 3925 2800 3975 
L 2800 3450 
Q 2450 3475 1900 3475 
L 1900 2450 
Q 2100 2550 2675 2875 
Q 2675 2625 2700 2375 
Q 2450 2300 1900 2000 
L 1900 -25 
Q 1900 -250 1675 -400 
Q 1450 -550 775 -625 
Q 775 -325 600 -50 
Q 1075 -100 1225 -62 
Q 1375 -25 1375 175 
L 1375 1775 
Q 825 1525 550 1300 
Q 450 1550 225 1750 
Q 550 1850 1375 2250 
L 1375 3475 
Q 775 3475 325 3450 
L 325 3975 
Q 750 3925 1375 3925 
z
" transform="scale(0.015625)"/>
      <path id="SimHei-63cf" d="M 2600 2150 
Q 2575 2575 2550 2800 
L 5800 2800 
Q 5775 2475 5775 2225 
L 5775 175 
Q 5775 -50 5800 -600 
L 5300 -600 
L 5300 -225 
L 3075 -225 
L 3075 -600 
L 2550 -600 
Q 2575 -400 2600 75 
L 2600 2150 
z
M 1150 3750 
L 1150 4475 
Q 1150 4850 1125 5150 
L 1650 5150 
Q 1625 4875 1625 4475 
L 1625 3750 
Q 1850 3750 2250 3775 
L 2250 3325 
Q 1875 3350 1625 3350 
L 1625 2425 
Q 2025 2600 2175 2675 
Q 2175 2525 2225 2250 
Q 2075 2200 1625 1975 
L 1625 150 
Q 1575 -175 1400 -362 
Q 1225 -550 725 -625 
Q 675 -175 575 -25 
Q 950 -75 1050 62 
Q 1150 200 1150 325 
L 1150 1775 
Q 1000 1725 450 1450 
Q 300 1825 225 1975 
Q 925 2175 1150 2275 
L 1150 3350 
L 1000 3350 
Q 650 3350 275 3325 
L 275 3775 
Q 625 3750 1000 3750 
L 1150 3750 
z
M 6175 3850 
Q 6025 3875 5575 3875 
L 5100 3875 
Q 5100 3550 5125 3150 
L 4625 3150 
L 4625 3875 
L 3675 3875 
L 3675 3150 
L 3200 3150 
Q 3225 3550 3225 3875 
L 3000 3875 
Q 2500 3875 2350 3850 
L 2350 4300 
Q 2650 4275 2875 4275 
L 3225 4275 
L 3225 4725 
Q 3225 5100 3200 5225 
L 3700 5225 
Q 3675 5150 3675 4725 
L 3675 4275 
L 4625 4275 
L 4625 4625 
Q 4625 5000 4600 5225 
L 5125 5225 
Q 5100 5075 5100 4700 
L 5100 4275 
L 5625 4275 
Q 6025 4275 6175 4300 
L 6175 3850 
z
M 3975 1475 
L 3975 2425 
L 3075 2425 
L 3075 1475 
L 3975 1475 
z
M 3975 150 
L 3975 1075 
L 3075 1075 
L 3075 150 
L 3975 150 
z
M 5300 1475 
L 5300 2425 
L 4425 2425 
L 4425 1475 
L 5300 1475 
z
M 5300 150 
L 5300 1075 
L 4425 1075 
L 4425 150 
L 5300 150 
z
" transform="scale(0.015625)"/>
      <path id="SimHei-7ebf" d="M 3450 4300 
Q 3450 4675 3375 5125 
Q 3700 5100 4050 5050 
Q 3975 4900 3950 4562 
Q 3925 4225 3950 3600 
L 4800 3750 
Q 5225 3850 5650 3975 
L 5750 3500 
Q 5325 3450 4875 3375 
L 3975 3200 
Q 3975 2800 4025 2500 
L 5000 2675 
Q 5500 2775 5950 2925 
L 6025 2450 
Q 5575 2375 5075 2275 
L 4100 2100 
Q 4150 1600 4350 1175 
Q 4575 1350 4787 1575 
Q 5000 1800 5175 2075 
Q 5550 1775 5750 1675 
Q 5425 1525 5237 1337 
Q 5050 1150 4625 750 
Q 4925 250 5162 112 
Q 5400 -25 5500 100 
Q 5600 225 5675 625 
Q 5900 450 6200 350 
Q 5775 -750 5275 -537 
Q 4775 -325 4225 450 
Q 3875 175 3537 -62 
Q 3200 -300 2700 -550 
Q 2575 -300 2325 -100 
Q 2825 75 3175 275 
Q 3525 475 3975 850 
Q 3750 1350 3650 2025 
Q 2900 1900 2600 1800 
L 2525 2275 
Q 2825 2275 3550 2425 
Q 3500 2825 3500 3100 
Q 2825 2950 2575 2875 
L 2475 3350 
Q 2725 3350 3450 3500 
L 3450 4300 
z
M 1950 4875 
Q 1700 4650 1462 4237 
Q 1225 3825 825 3225 
Q 1425 3250 1650 3250 
Q 1875 3625 2050 4075 
Q 2300 3900 2600 3800 
Q 2350 3550 2087 3125 
Q 1825 2700 1175 1675 
Q 1850 1725 2375 1775 
Q 2300 1525 2300 1350 
Q 2125 1350 1525 1287 
Q 925 1225 550 1125 
Q 525 1375 400 1650 
Q 700 1725 950 2050 
Q 1200 2375 1475 2875 
Q 650 2825 425 2675 
Q 350 2950 200 3225 
Q 525 3450 825 3962 
Q 1125 4475 1375 5150 
Q 1625 4975 1950 4875 
z
M 2575 875 
Q 2550 600 2575 450 
Q 1950 325 1450 200 
Q 950 75 525 -75 
Q 450 200 250 475 
Q 950 550 1325 612 
Q 1700 675 2575 875 
z
M 4850 4025 
Q 4675 4300 4375 4675 
L 4775 4875 
Q 4875 4750 5275 4275 
Q 5025 4175 4850 4025 
z
" transform="scale(0.015625)"/>
     </defs>
     <use xlink:href="#DejaVuSans-302" transform="translate(62.373047 12.015625)"/>
     <use xlink:href="#DejaVuSans-Oblique-78" transform="translate(0 0.828125)"/>
     <use xlink:href="#SimHei-20" transform="translate(59.179688 0.828125)"/>
     <use xlink:href="#SimHei-786e" transform="translate(109.179688 0.828125)"/>
     <use xlink:href="#SimHei-5b9a" transform="translate(209.179688 0.828125)"/>
     <use xlink:href="#SimHei-626b" transform="translate(309.179688 0.828125)"/>
     <use xlink:href="#SimHei-63cf" transform="translate(409.179688 0.828125)"/>
     <use xlink:href="#SimHei-7ebf" transform="translate(509.179688 0.828125)"/>
    </g>
   </g>
   <g id="patch_5">
    <path d="M 269.262234 94.63307 
Q 243.861846 101.565854 219.647897 108.174811 
" style="fill: none; stroke: #174a6a; stroke-width: 1.1; stroke-linecap: round"/>
    <path d="M 224.252634 109.09481 
L 219.647897 108.174811 
L 223.146738 105.043021 
z
" style="fill: #174a6a; stroke: #174a6a; stroke-width: 1.1; stroke-linecap: round"/>
   </g>
   <g id="text_7">
    <g id="patch_6">
     <path d="M 256.23636 93.70614 
L 351.78636 93.70614 
Q 354.41136 93.70614 354.41136 91.08114 
L 354.41136 79.21614 
Q 354.41136 76.59114 351.78636 76.59114 
L 256.23636 76.59114 
Q 253.61136 76.59114 253.61136 79.21614 
L 253.61136 91.08114 
Q 253.61136 93.70614 256.23636 93.70614 
z
" style="fill: #ffffff; stroke: #8aa19a; stroke-width: 0.8; stroke-linejoin: miter"/>
    </g>
    <!-- $\hat{y}$ 在有效区间内插值 -->
    <g transform="translate(256.23636 88.87614) scale(0.105 -0.105)">
     <defs>
      <path id="SimHei-63d2" d="M 4350 3350 
L 4350 275 
L 5375 275 
L 5375 1200 
Q 5025 1200 4725 1175 
L 4725 1625 
Q 5050 1600 5375 1600 
L 5375 2350 
Q 4975 2350 4700 2325 
L 4700 2750 
Q 5100 2725 5250 2725 
L 5850 2725 
Q 5825 2575 5825 2150 
L 5825 -25 
Q 5825 -225 5850 -625 
L 5375 -625 
L 5375 -125 
L 2925 -125 
L 2925 -675 
L 2475 -675 
Q 2500 -350 2500 -125 
L 2500 1825 
Q 2500 2350 2475 2575 
Q 2750 2625 2950 2700 
Q 3150 2775 3350 2925 
Q 3450 2650 3625 2425 
Q 3425 2425 2925 2300 
L 2925 1600 
Q 3300 1600 3625 1625 
L 3625 1175 
Q 3325 1200 2925 1200 
L 2925 275 
L 3900 275 
L 3900 3350 
L 3150 3350 
Q 2500 3325 2300 3325 
L 2300 3800 
Q 2675 3775 3025 3775 
L 3900 3775 
L 3900 4425 
Q 3325 4375 2625 4300 
Q 2550 4575 2400 4775 
Q 3200 4800 4125 4912 
Q 5050 5025 5475 5200 
Q 5550 4975 5800 4650 
Q 5475 4650 4350 4450 
L 4350 3775 
L 5500 3775 
Q 5800 3775 6075 3800 
L 6075 3325 
Q 5875 3350 5550 3350 
L 4350 3350 
z
M 1125 4500 
Q 1125 4875 1100 5175 
L 1600 5175 
Q 1575 4850 1550 4500 
L 1550 3900 
Q 1875 3900 2125 3925 
L 2125 3450 
Q 1850 3475 1550 3475 
L 1550 2400 
Q 1925 2550 2125 2675 
Q 2125 2425 2150 2250 
Q 1825 2100 1550 1950 
L 1550 100 
Q 1550 -325 1312 -437 
Q 1075 -550 675 -625 
Q 650 -300 475 -25 
Q 850 -25 987 12 
Q 1125 50 1125 225 
L 1125 1775 
Q 900 1700 475 1450 
Q 350 1775 225 1950 
Q 675 2075 1125 2250 
L 1125 3475 
Q 525 3475 350 3425 
L 350 3925 
Q 525 3900 1125 3900 
L 1125 4500 
z
" transform="scale(0.015625)"/>
      <path id="SimHei-503c" d="M 3675 4450 
L 3675 5100 
Q 3975 5075 4350 5050 
Q 4225 4875 4200 4450 
L 5125 4450 
Q 5550 4450 5875 4475 
L 5875 4025 
Q 5525 4050 5125 4050 
L 4175 4050 
L 4125 3500 
L 5400 3500 
Q 5375 3200 5375 2700 
L 5375 150 
Q 5875 150 6100 175 
L 6100 -275 
Q 5775 -250 5200 -250 
L 2850 -250 
Q 2275 -250 1900 -275 
L 1900 175 
Q 2125 150 2600 150 
L 2600 2700 
Q 2600 3175 2575 3500 
L 3600 3500 
L 3650 4050 
L 3200 4050 
Q 2575 4050 2225 4025 
L 2225 4475 
Q 2550 4450 3200 4450 
L 3675 4450 
z
M 2225 4900 
Q 2025 4675 1650 3750 
L 1650 450 
Q 1650 -75 1675 -550 
L 1150 -550 
Q 1175 -125 1175 375 
L 1175 2950 
Q 875 2450 625 2150 
Q 425 2425 250 2575 
Q 500 2825 937 3537 
Q 1375 4250 1625 5150 
Q 1975 4975 2225 4900 
z
M 4925 2650 
L 4925 3150 
L 3075 3150 
L 3075 2650 
L 4925 2650 
z
M 4925 150 
L 4925 625 
L 3075 625 
L 3075 150 
L 4925 150 
z
M 4925 1000 
L 4925 1450 
L 3075 1450 
L 3075 1000 
L 4925 1000 
z
M 4925 1825 
L 4925 2275 
L 3075 2275 
L 3075 1825 
L 4925 1825 
z
" transform="scale(0.015625)"/>
     </defs>
     <use xlink:href="#DejaVuSans-302" transform="translate(62.373047 12.015625)"/>
     <use xlink:href="#DejaVuSans-Oblique-79" transform="translate(0 0.828125)"/>
     <use xlink:href="#SimHei-20" transform="translate(59.179688 0.828125)"/>
     <use xlink:href="#SimHei-5728" transform="translate(109.179688 0.828125)"/>
     <use xlink:href="#SimHei-6709" transform="translate(209.179688 0.828125)"/>
     <use xlink:href="#SimHei-6548" transform="translate(309.179688 0.828125)"/>
     <use xlink:href="#SimHei-533a" transform="translate(409.179688 0.828125)"/>
     <use xlink:href="#SimHei-95f4" transform="translate(509.179688 0.828125)"/>
     <use xlink:href="#SimHei-5185" transform="translate(609.179688 0.828125)"/>
     <use xlink:href="#SimHei-63d2" transform="translate(709.179688 0.828125)"/>
     <use xlink:href="#SimHei-503c" transform="translate(809.179688 0.828125)"/>
    </g>
   </g>
   <g id="patch_7">
    <path d="M 87.861701 179.499008 
Q 151.229755 162.948513 213.407887 146.708801 
" style="fill: none; stroke: #174a6a; stroke-width: 1.1; stroke-linecap: round"/>
    <path d="M 209.251084 145.830741 
L 213.407887 146.708801 
L 210.211357 149.507408 
z
" style="fill: #174a6a; stroke: #174a6a; stroke-width: 1.1; stroke-linecap: round"/>
   </g>
   <g id="text_8">
    <g id="patch_8">
     <path d="M 29.9551 200.269414 
L 83.1551 200.269414 
Q 85.5301 200.269414 85.5301 197.894414 
L 85.5301 178.264446 
Q 85.5301 175.889446 83.1551 175.889446 
L 29.9551 175.889446 
Q 27.5801 175.889446 27.5801 178.264446 
L 27.5801 197.894414 
Q 27.5801 200.269414 29.9551 200.269414 
z
" style="fill: #ffffff; stroke: #8aa19a; stroke-width: 0.8; stroke-linejoin: miter"/>
    </g>
    <!-- 当前扫描线 -->
    <g transform="translate(32.8051 185.249914) scale(0.095 -0.095)">
     <defs>
      <path id="SimHei-5f53" d="M 3550 5125 
Q 3525 4825 3525 4275 
L 3525 2925 
L 5625 2925 
Q 5600 2425 5600 2100 
L 5600 175 
Q 5600 -150 5625 -650 
L 5075 -650 
L 5075 -125 
L 1675 -125 
Q 1150 -125 675 -150 
L 675 325 
Q 1150 300 1675 300 
L 5075 300 
L 5075 1200 
L 2000 1200 
Q 1425 1200 900 1175 
L 900 1675 
Q 1425 1650 2000 1650 
L 5075 1650 
L 5075 2500 
L 1700 2500 
Q 1250 2500 750 2475 
L 750 2950 
Q 1250 2925 1700 2925 
L 3000 2925 
L 3000 4275 
Q 3000 4725 2975 5125 
L 3550 5125 
z
M 5700 4500 
Q 5525 4300 5287 4000 
Q 5050 3700 4650 3225 
Q 4450 3400 4225 3575 
Q 4725 4050 5175 4850 
Q 5425 4650 5700 4500 
z
M 1325 4800 
Q 1875 4175 2275 3600 
Q 2025 3450 1775 3250 
Q 1375 3925 875 4450 
Q 1150 4625 1325 4800 
z
" transform="scale(0.015625)"/>
      <path id="SimHei-524d" d="M 2075 -100 
Q 2400 -100 2537 -87 
Q 2675 -75 2675 100 
L 2675 875 
L 1325 875 
L 1325 -650 
L 800 -650 
Q 850 -200 850 350 
L 850 2350 
Q 850 2850 825 3300 
L 3175 3300 
Q 3150 2875 3150 2375 
L 3150 -150 
Q 3150 -400 2950 -475 
Q 2750 -550 2275 -625 
Q 2200 -350 2075 -100 
z
M 4950 5075 
Q 4825 4975 4687 4750 
Q 4550 4525 4375 4225 
L 5400 4225 
Q 5750 4225 6175 4250 
L 6175 3775 
Q 5775 3825 5300 3825 
L 1350 3825 
Q 700 3825 250 3775 
L 250 4250 
Q 775 4225 1350 4225 
L 3875 4225 
Q 4300 5025 4350 5300 
Q 4625 5150 4950 5075 
z
M 4375 -75 
Q 4825 -100 4937 -75 
Q 5050 -50 5050 150 
L 5050 2750 
Q 5050 3050 5025 3400 
L 5550 3400 
Q 5525 3075 5525 2750 
L 5525 -25 
Q 5525 -350 5362 -450 
Q 5200 -550 4600 -600 
Q 4550 -275 4375 -75 
z
M 3775 575 
Q 3800 950 3800 1225 
L 3800 2375 
Q 3800 2775 3775 3075 
L 4300 3075 
Q 4275 2775 4275 2375 
L 4275 1250 
Q 4275 875 4300 575 
L 3775 575 
z
M 2675 2250 
L 2675 2925 
L 1325 2925 
L 1325 2250 
L 2675 2250 
z
M 2675 1250 
L 2675 1875 
L 1325 1875 
L 1325 1250 
L 2675 1250 
z
M 2225 4300 
Q 2125 4575 1750 5050 
Q 2025 5175 2200 5300 
Q 2550 4850 2725 4550 
Q 2500 4450 2225 4300 
z
" transform="scale(0.015625)"/>
     </defs>
     <use xlink:href="#SimHei-5f53"/>
     <use xlink:href="#SimHei-524d" transform="translate(100 0)"/>
     <use xlink:href="#SimHei-626b" transform="translate(200 0)"/>
     <use xlink:href="#SimHei-63cf" transform="translate(300 0)"/>
     <use xlink:href="#SimHei-7ebf" transform="translate(400 0)"/>
    </g>
    <!-- 有效 $y$ 范围 -->
    <g transform="translate(29.9551 195.899414) scale(0.095 -0.095)">
     <defs>
      <path id="SimHei-8303" d="M 4200 875 
Q 4150 1150 3925 1400 
Q 4450 1400 4612 1450 
Q 4775 1500 4800 1725 
L 4850 2700 
L 3400 2700 
L 3400 325 
Q 3450 -25 3825 0 
L 5150 0 
Q 5325 0 5412 100 
Q 5500 200 5550 625 
Q 5825 450 6075 375 
Q 5925 -150 5775 -275 
Q 5625 -400 5300 -400 
L 3475 -400 
Q 2900 -400 2900 225 
L 2900 2000 
Q 2900 2625 2875 3100 
L 5375 3100 
Q 5350 2750 5325 2175 
Q 5300 1600 5250 1375 
Q 5200 1150 4962 1050 
Q 4725 950 4200 875 
z
M 1875 4400 
Q 1875 4700 1850 5125 
L 2400 5125 
Q 2375 4775 2375 4400 
L 3975 4400 
Q 3975 4825 3925 5125 
L 4500 5125 
Q 4475 4825 4475 4400 
L 5375 4400 
Q 5650 4400 6050 4425 
L 6050 3975 
Q 5650 4000 5375 4000 
L 4475 4000 
Q 4475 3675 4500 3350 
L 3975 3350 
L 3975 4000 
L 2375 4000 
L 2375 3325 
L 1850 3325 
Q 1875 3650 1875 4000 
L 1025 4000 
Q 550 4000 350 3975 
L 350 4425 
Q 775 4400 1025 4400 
L 1875 4400 
z
M 2250 900 
Q 2000 600 1562 100 
Q 1125 -400 925 -625 
Q 800 -450 525 -250 
Q 775 -75 1237 425 
Q 1700 925 1925 1250 
Q 2075 1075 2250 900 
z
M 725 2275 
Q 1325 1925 1800 1600 
Q 1550 1425 1425 1200 
Q 975 1575 375 1900 
Q 550 2075 725 2275 
z
M 1300 3450 
Q 1750 3150 2250 2700 
Q 2050 2575 1850 2350 
Q 1400 2800 925 3100 
Q 1125 3275 1300 3450 
z
" transform="scale(0.015625)"/>
      <path id="SimHei-56f4" d="M 5775 4950 
Q 5750 4400 5750 3850 
L 5750 550 
Q 5750 50 5775 -550 
L 5275 -550 
L 5275 -150 
L 1150 -150 
L 1150 -625 
L 650 -625 
Q 675 100 675 675 
L 675 3800 
Q 675 4350 650 4950 
L 5775 4950 
z
M 5275 225 
L 5275 4575 
L 1150 4575 
L 1150 225 
L 5275 225 
z
M 2850 3875 
Q 2850 4050 2825 4400 
L 3300 4400 
Q 3275 4075 3275 3875 
L 4050 3875 
Q 4650 3875 4875 3900 
L 4875 3500 
Q 4550 3525 3950 3525 
L 3275 3525 
L 3275 3050 
L 3775 3050 
Q 4275 3050 4625 3075 
L 4625 2675 
Q 4275 2700 3775 2700 
L 3275 2700 
L 3275 2175 
L 4875 2175 
Q 4775 1225 4725 1075 
Q 4675 925 4475 837 
Q 4275 750 3825 700 
Q 3800 925 3650 1175 
Q 4125 1150 4250 1225 
Q 4375 1300 4375 1800 
L 3275 1800 
L 3275 1125 
Q 3275 825 3300 400 
L 2825 400 
Q 2850 925 2850 1225 
L 2850 1800 
L 2200 1800 
Q 1725 1800 1450 1775 
L 1450 2200 
Q 1800 2175 2200 2175 
L 2850 2175 
L 2850 2700 
Q 2100 2700 1775 2675 
L 1775 3075 
Q 2225 3050 2850 3050 
L 2850 3525 
Q 2050 3525 1625 3500 
L 1625 3900 
Q 2050 3875 2850 3875 
z
" transform="scale(0.015625)"/>
     </defs>
     <use xlink:href="#SimHei-6709" transform="translate(0 0.1875)"/>
     <use xlink:href="#SimHei-6548" transform="translate(100 0.1875)"/>
     <use xlink:href="#SimHei-20" transform="translate(200 0.1875)"/>
     <use xlink:href="#DejaVuSans-Oblique-79" transform="translate(250 0.1875)"/>
     <use xlink:href="#SimHei-20" transform="translate(309.179688 0.1875)"/>
     <use xlink:href="#SimHei-8303" transform="translate(359.179688 0.1875)"/>
     <use xlink:href="#SimHei-56f4" transform="translate(459.179688 0.1875)"/>
    </g>
   </g>
   <g id="PathCollection_1">
    <defs>
     <path id="m688129cf8b" d="M 0 2.645751 
C 0.701661 2.645751 1.374679 2.366978 1.870829 1.870829 
C 2.366978 1.374679 2.645751 0.701661 2.645751 0 
C 2.645751 -0.701661 2.366978 -1.374679 1.870829 -1.870829 
C 1.374679 -2.366978 0.701661 -2.645751 0 -2.645751 
C -0.701661 -2.645751 -1.374679 -2.366978 -1.870829 -1.870829 
C -2.366978 -1.374679 -2.645751 -0.701661 -2.645751 0 
C -2.645751 0.701661 -2.366978 1.374679 -1.870829 1.870829 
C -1.374679 2.366978 -0.701661 2.645751 0 2.645751 
z
" style="stroke: #174a6a"/>
    </defs>
    <g clip-path="url(#p0bdddbffb7)">
     <use xlink:href="#m688129cf8b" x="216.5337" y="145.8924" style="fill: #174a6a; stroke: #174a6a"/>
     <use xlink:href="#m688129cf8b" x="216.5337" y="58.1124" style="fill: #174a6a; stroke: #174a6a"/>
    </g>
   </g>
   <g id="PathCollection_2">
    <defs>
     <path id="m99e7b650bf" d="M 0 -8.944272 
L -2.008114 -2.763932 
L -8.506508 -2.763932 
L -3.249197 1.055728 
L -5.257311 7.236068 
L -0 3.416408 
L 5.257311 7.236068 
L 3.249197 1.055728 
L 8.506508 -2.763932 
L 2.008114 -2.763932 
z
" style="stroke: #ffffff"/>
    </defs>
    <g clip-path="url(#p0bdddbffb7)">
     <use xlink:href="#m99e7b650bf" x="216.5337" y="109.0248" style="fill: #d8891d; stroke: #ffffff"/>
    </g>
   </g>
  </g>
 </g>
 <defs>
  <clipPath id="p0bdddbffb7">
   <rect x="7.2" y="7.2" width="340.38" height="210.672"/>
  </clipPath>
 </defs>
</svg>
