<?xml version="1.0" encoding="utf-8" standalone="no"?>
<!DOCTYPE svg PUBLIC "-//W3C//DTD SVG 1.1//EN"
  "http://www.w3.org/Graphics/SVG/1.1/DTD/svg11.dtd">
<svg xmlns:xlink="http://www.w3.org/1999/xlink" width="349.2pt" height="154.199005pt" viewBox="0 0 349.2 154.199005" xmlns="http://www.w3.org/2000/svg" version="1.1">
 <metadata>
  <rdf:RDF xmlns:dc="http://purl.org/dc/elements/1.1/" xmlns:cc="http://creativecommons.org/ns#" xmlns:rdf="http://www.w3.org/1999/02/22-rdf-syntax-ns#">
   <cc:Work>
    <dc:type rdf:resource="http://purl.org/dc/dcmitype/StillImage"/>
    <dc:date>2026-06-08T13:13:09.082695</dc:date>
    <dc:format>image/svg+xml</dc:format>
    <dc:creator>
     <cc:Agent>
      <dc:title>Matplotlib v3.10.6, https://matplotlib.org/</dc:title>
     </cc:Agent>
    </dc:creator>
   </cc:Work>
  </rdf:RDF>
 </metadata>
 <defs>
  <style type="text/css">*{stroke-linejoin: round; stroke-linecap: butt}</style>
 </defs>
 <g id="figure_1">
  <g id="patch_1">
   <path d="M 0 154.199005 
L 349.2 154.199005 
L 349.2 0 
L 0 0 
z
" style="fill: #ffffff"/>
  </g>
  <g id="axes_1">
   <g id="patch_2">
    <path d="M 30.636 121.151115 
L 107.64 121.151115 
L 107.64 39.654315 
L 30.636 39.654315 
L 30.636 121.151115 
z
" clip-path="url(#p8233550917)" style="fill: none; stroke: #174a6a; stroke-width: 1.2; stroke-linejoin: miter"/>
   </g>
   <g id="patch_3">
    <path d="M 238.212 114.359715 
L 323.586 105.870465 
L 303.498 34.560765 
L 249.93 41.352165 
z
" clip-path="url(#p8233550917)" style="fill: #d9e9e1; stroke: #174a6a; stroke-width: 1.4; stroke-linejoin: miter"/>
   </g>
   <g id="patch_4">
    <path d="M 144.791275 75.309165 
Q 172.923534 75.309165 199.714152 75.309165 
" clip-path="url(#p8233550917)" style="fill: none; stroke: #174a6a; stroke-width: 1.2; stroke-linecap: round"/>
    <path d="M 193.314152 72.109165 
L 199.714152 75.309165 
L 193.314152 78.509165 
z
" clip-path="url(#p8233550917)" style="fill: #174a6a; stroke: #174a6a; stroke-width: 1.2; stroke-linecap: round"/>
   </g>
   <g id="line2d_1">
    <path d="M 25.614 126.244665 
L 25.614 34.560765 
" clip-path="url(#p8233550917)" style="fill: none; stroke: #174a6a; stroke-width: 1.4; stroke-linecap: square"/>
   </g>
   <g id="line2d_2">
    <path d="M 25.614 126.244665 
L 116.01 126.244665 
" clip-path="url(#p8233550917)" style="fill: none; stroke: #174a6a; stroke-width: 1.4; stroke-linecap: square"/>
   </g>
   <g id="line2d_3">
    <path d="M 50.0544 121.151115 
L 50.0544 39.654315 
" clip-path="url(#p8233550917)" style="fill: none; stroke: #a9b8b2; stroke-width: 0.55; stroke-linecap: square"/>
   </g>
   <g id="line2d_4">
    <path d="M 69.4728 121.151115 
L 69.4728 39.654315 
" clip-path="url(#p8233550917)" style="fill: none; stroke: #a9b8b2; stroke-width: 0.55; stroke-linecap: square"/>
   </g>
   <g id="line2d_5">
    <path d="M 88.8912 121.151115 
L 88.8912 39.654315 
" clip-path="url(#p8233550917)" style="fill: none; stroke: #a9b8b2; stroke-width: 0.55; stroke-linecap: square"/>
   </g>
   <g id="line2d_6">
    <path d="M 30.636 100.776915 
L 107.64 100.776915 
" clip-path="url(#p8233550917)" style="fill: none; stroke: #a9b8b2; stroke-width: 0.55; stroke-linecap: square"/>
   </g>
   <g id="line2d_7">
    <path d="M 30.636 80.402715 
L 107.64 80.402715 
" clip-path="url(#p8233550917)" style="fill: none; stroke: #a9b8b2; stroke-width: 0.55; stroke-linecap: square"/>
   </g>
   <g id="line2d_8">
    <path d="M 30.636 60.028515 
L 107.64 60.028515 
" clip-path="url(#p8233550917)" style="fill: none; stroke: #a9b8b2; stroke-width: 0.55; stroke-linecap: square"/>
   </g>
   <g id="line2d_9">
    <path d="M 49.7196 104.172615 
L 243.9036 97.381215 
" clip-path="url(#p8233550917)" style="fill: none; stroke-dasharray: 2.59,1.12; stroke-dashoffset: 0; stroke: #a9b8b2; stroke-opacity: 0.8; stroke-width: 0.7"/>
   </g>
   <g id="line2d_10">
    <path d="M 64.116 63.424215 
L 267.3396 68.517765 
" clip-path="url(#p8233550917)" style="fill: none; stroke-dasharray: 2.59,1.12; stroke-dashoffset: 0; stroke: #a9b8b2; stroke-opacity: 0.8; stroke-width: 0.7"/>
   </g>
   <g id="line2d_11">
    <path d="M 99.9396 87.194115 
L 294.1236 82.100565 
" clip-path="url(#p8233550917)" style="fill: none; stroke-dasharray: 2.59,1.12; stroke-dashoffset: 0; stroke: #a9b8b2; stroke-opacity: 0.8; stroke-width: 0.7"/>
   </g>
   <g id="line2d_12">
    <path d="M 108.6444 51.539265 
L 289.1016 49.841415 
" clip-path="url(#p8233550917)" style="fill: none; stroke-dasharray: 2.59,1.12; stroke-dashoffset: 0; stroke: #a9b8b2; stroke-opacity: 0.8; stroke-width: 0.7"/>
   </g>
   <g id="text_1">
    <!-- a -->
    <g transform="translate(13.2264 16.903125) scale(0.09 -0.09)">
     <defs>
      <path id="DejaVuSans-Bold-61" d="M 2106 1575 
Q 1756 1575 1579 1456 
Q 1403 1338 1403 1106 
Q 1403 894 1545 773 
Q 1688 653 1941 653 
Q 2256 653 2472 879 
Q 2688 1106 2688 1447 
L 2688 1575 
L 2106 1575 
z
M 3816 1997 
L 3816 0 
L 2688 0 
L 2688 519 
Q 2463 200 2181 54 
Q 1900 -91 1497 -91 
Q 953 -91 614 226 
Q 275 544 275 1050 
Q 275 1666 698 1953 
Q 1122 2241 2028 2241 
L 2688 2241 
L 2688 2328 
Q 2688 2594 2478 2717 
Q 2269 2841 1825 2841 
Q 1466 2841 1156 2769 
Q 847 2697 581 2553 
L 581 3406 
Q 941 3494 1303 3539 
Q 1666 3584 2028 3584 
Q 2975 3584 3395 3211 
Q 3816 2838 3816 1997 
z
" transform="scale(0.015625)"/>
     </defs>
     <use xlink:href="#DejaVuSans-Bold-61"/>
    </g>
   </g>
   <g id="text_2">
    <!-- 单位搜索空间 -->
    <g transform="translate(31.464 16.903125) scale(0.12 -0.12)">
     <defs>
      <path id="SimHei-5355" d="M 5275 4075 
L 5275 1525 
L 3400 1525 
L 3400 925 
L 5050 925 
Q 5600 925 6000 950 
L 6000 450 
Q 5575 475 5050 475 
L 3400 475 
Q 3400 -300 3425 -625 
L 2875 -625 
Q 2925 -300 2925 475 
L 1300 475 
Q 700 475 425 450 
L 425 950 
Q 675 925 1250 925 
L 2925 925 
L 2925 1525 
L 1125 1525 
Q 1150 1950 1150 2750 
Q 1150 3550 1125 4075 
L 3600 4075 
Q 3875 4650 4075 5250 
Q 4325 5125 4650 4975 
Q 4550 4850 4400 4587 
Q 4250 4325 4100 4075 
L 5275 4075 
z
M 4775 1925 
L 4775 2600 
L 3400 2600 
L 3400 1925 
L 4775 1925 
z
M 4775 3000 
L 4775 3650 
L 3400 3650 
L 3400 3000 
L 4775 3000 
z
M 2925 1925 
L 2925 2600 
L 1625 2600 
L 1625 1925 
L 2925 1925 
z
M 2925 3000 
L 2925 3650 
L 1625 3650 
L 1625 3000 
L 2925 3000 
z
M 2100 5225 
Q 2350 4950 2675 4350 
Q 2400 4225 2225 4125 
Q 1975 4675 1725 4975 
Q 1900 5075 2100 5225 
z
" transform="scale(0.015625)"/>
      <path id="SimHei-4f4d" d="M 2125 4925 
Q 1950 4750 1625 3750 
L 1625 575 
Q 1625 -225 1650 -650 
L 1100 -650 
Q 1150 -200 1150 550 
L 1150 2950 
Q 775 2275 550 1950 
Q 375 2275 200 2425 
Q 525 2775 912 3575 
Q 1300 4375 1500 5200 
Q 1825 5000 2125 4925 
z
M 5375 3025 
Q 5275 2875 5100 2250 
Q 4925 1625 4600 300 
L 5450 300 
Q 5925 300 6100 325 
L 6100 -175 
Q 5875 -150 5450 -150 
L 2900 -150 
Q 2275 -150 2050 -175 
L 2050 325 
Q 2275 300 2850 300 
L 4075 300 
Q 4400 1400 4700 3175 
Q 5100 3075 5375 3025 
z
M 5250 4025 
Q 5700 4025 5925 4050 
L 5925 3575 
Q 5700 3600 5225 3600 
L 3000 3600 
Q 2650 3600 2275 3575 
L 2275 4050 
Q 2675 4025 3000 4025 
L 5250 4025 
z
M 3050 3050 
Q 3500 1775 3750 725 
Q 3450 625 3250 550 
Q 3125 1125 2962 1675 
Q 2800 2225 2550 2875 
Q 2800 2925 3050 3050 
z
M 3875 5200 
Q 4175 4675 4400 4300 
Q 4200 4250 3875 4075 
Q 3700 4525 3400 4950 
Q 3650 5050 3875 5200 
z
" transform="scale(0.015625)"/>
      <path id="SimHei-641c" d="M 2525 1975 
Q 2850 1950 3225 1950 
L 3900 1950 
L 3900 2450 
L 2500 2450 
Q 2525 2800 2525 3075 
L 2525 4200 
Q 2525 4475 2500 4775 
Q 3175 4850 3450 5000 
Q 3600 4650 3675 4550 
Q 3450 4525 2975 4500 
L 2975 3900 
L 3525 3900 
L 3525 3475 
L 2975 3475 
L 2975 2875 
L 3900 2875 
L 3900 4575 
Q 3900 4850 3875 5225 
L 4375 5225 
Q 4350 4925 4350 4600 
L 4350 2875 
L 5275 2875 
L 5275 3475 
L 4650 3475 
L 4650 3900 
L 5275 3900 
L 5275 4500 
Q 4975 4500 4675 4475 
L 4675 4925 
Q 4975 4900 5200 4900 
L 5750 4900 
Q 5725 4600 5725 4300 
L 5725 3100 
Q 5725 2675 5750 2450 
L 4350 2450 
L 4350 1950 
L 5675 1950 
Q 5550 1600 5275 1150 
Q 5000 700 4500 200 
Q 4775 25 5275 -62 
Q 5775 -150 6175 -150 
Q 6000 -300 5875 -650 
Q 5175 -550 4812 -425 
Q 4450 -300 4125 -100 
Q 3700 -300 3350 -412 
Q 3000 -525 2375 -675 
Q 2325 -450 2075 -200 
Q 3125 -100 3725 200 
Q 3450 475 3275 762 
Q 3100 1050 2925 1525 
L 2525 1525 
L 2525 1975 
z
M 1150 4550 
Q 1150 4925 1125 5225 
L 1675 5225 
Q 1600 4925 1600 4600 
L 1600 3950 
Q 1925 3950 2150 3975 
L 2150 3500 
Q 1900 3525 1600 3525 
L 1600 2500 
Q 2000 2650 2175 2800 
Q 2175 2675 2200 2325 
Q 2075 2275 1600 2075 
L 1600 0 
Q 1600 -300 1350 -387 
Q 1100 -475 650 -550 
Q 625 -300 450 0 
Q 900 0 1025 25 
Q 1150 50 1150 225 
L 1150 1900 
Q 650 1675 450 1525 
Q 325 1950 250 2100 
Q 550 2125 1150 2350 
L 1150 3525 
Q 625 3525 350 3500 
L 350 3975 
Q 625 3950 1150 3950 
L 1150 4550 
z
M 3400 1525 
Q 3750 775 4150 450 
Q 4700 1000 4950 1525 
L 3400 1525 
z
" transform="scale(0.015625)"/>
      <path id="SimHei-7d22" d="M 3275 3000 
Q 3100 2925 2850 2775 
Q 2600 2625 2200 2375 
L 3425 2375 
Q 3825 2575 4175 2900 
Q 4475 2700 4775 2525 
Q 4325 2400 3937 2187 
Q 3550 1975 2300 1375 
Q 3375 1425 4600 1475 
Q 4400 1650 4200 1800 
Q 4475 1925 4575 2075 
Q 5025 1825 5675 1125 
Q 5425 975 5275 800 
Q 5050 1000 4900 1150 
Q 4400 1150 3450 1075 
L 3450 -25 
Q 3450 -400 3212 -475 
Q 2975 -550 2450 -625 
Q 2425 -350 2250 -100 
Q 2600 -100 2775 -75 
Q 2950 -50 2950 125 
L 2950 1025 
Q 2175 1025 1700 962 
Q 1225 900 975 850 
Q 900 1100 825 1300 
Q 1425 1400 1837 1550 
Q 2250 1700 2875 2050 
Q 2300 2050 2012 2025 
Q 1725 2000 1325 1900 
Q 1250 2175 1175 2350 
Q 1525 2375 1925 2612 
Q 2325 2850 2675 3275 
Q 2975 3125 3275 3000 
z
M 2900 4625 
Q 2900 4925 2875 5150 
L 3425 5150 
Q 3400 4850 3400 4625 
L 4775 4625 
Q 5050 4625 5575 4650 
L 5575 4250 
Q 5100 4275 4750 4275 
L 3400 4275 
L 3400 3750 
L 5900 3750 
Q 5875 3550 5875 3250 
Q 5875 2950 5900 2700 
L 5375 2700 
L 5375 3375 
L 975 3375 
L 975 2525 
L 475 2525 
L 475 3750 
L 2900 3750 
L 2900 4275 
L 1750 4275 
Q 1050 4275 825 4250 
L 825 4650 
Q 1150 4625 1725 4625 
L 2900 4625 
z
M 4525 800 
Q 5175 375 5875 -75 
Q 5650 -250 5475 -450 
Q 4800 100 4125 500 
Q 4350 675 4525 800 
z
M 2125 450 
Q 1900 325 1575 75 
Q 1250 -175 775 -475 
Q 650 -275 375 -125 
Q 1100 225 1700 775 
Q 1900 600 2125 450 
z
" transform="scale(0.015625)"/>
      <path id="SimHei-7a7a" d="M 4025 1925 
Q 4700 1925 5225 1975 
L 5225 1450 
Q 4725 1500 4025 1500 
L 3475 1500 
L 3475 0 
L 5000 0 
Q 5725 0 6175 50 
L 6175 -475 
Q 5750 -425 5050 -425 
L 1750 -425 
Q 775 -425 350 -475 
L 350 50 
Q 825 0 1800 0 
L 2925 0 
L 2925 1500 
L 2300 1500 
Q 1625 1500 1125 1450 
L 1125 1975 
Q 1600 1925 2375 1925 
L 4025 1925 
z
M 5250 3250 
L 5250 3925 
L 1150 3925 
L 1150 3175 
L 600 3175 
Q 625 3425 625 3750 
Q 625 4100 600 4375 
L 3100 4375 
Q 2950 4725 2750 5075 
Q 3000 5200 3300 5300 
Q 3500 4850 3650 4525 
Q 3400 4450 3175 4375 
L 5825 4375 
Q 5800 4150 5800 3775 
Q 5800 3425 5825 3250 
L 5250 3250 
z
M 3975 3525 
Q 4275 3400 4762 3175 
Q 5250 2950 5925 2550 
Q 5675 2275 5575 2075 
Q 5100 2375 4650 2625 
Q 4200 2875 3675 3125 
Q 3800 3275 3975 3525 
z
M 2700 3225 
Q 2425 3100 1937 2737 
Q 1450 2375 825 2000 
Q 675 2225 450 2450 
Q 925 2650 1375 2962 
Q 1825 3275 2150 3650 
Q 2400 3425 2700 3225 
z
" transform="scale(0.015625)"/>
      <path id="SimHei-95f4" d="M 4450 3550 
Q 4425 3075 4425 2725 
L 4425 1400 
Q 4425 1075 4450 625 
L 1925 625 
Q 1950 1075 1950 1425 
L 1950 2725 
Q 1950 3075 1925 3550 
L 4450 3550 
z
M 5800 4875 
Q 5775 4400 5775 3925 
L 5775 250 
Q 5800 -325 5462 -450 
Q 5125 -575 4725 -625 
Q 4700 -325 4525 -25 
Q 5000 -50 5137 25 
Q 5275 100 5275 350 
L 5275 4450 
L 3775 4450 
Q 3175 4450 2650 4425 
L 2650 4900 
Q 3175 4875 3775 4875 
L 5800 4875 
z
M 550 -525 
Q 600 -25 600 525 
L 600 3150 
Q 600 3675 550 4025 
L 1125 4025 
Q 1100 3650 1100 3300 
L 1100 500 
Q 1100 0 1125 -525 
L 550 -525 
z
M 3950 1025 
L 3950 1950 
L 2425 1950 
L 2425 1025 
L 3950 1025 
z
M 3950 2350 
L 3950 3150 
L 2425 3150 
L 2425 2350 
L 3950 2350 
z
M 1525 5300 
Q 1750 5000 2225 4350 
Q 1950 4225 1700 4075 
Q 1450 4575 1075 5025 
Q 1350 5225 1525 5300 
z
" transform="scale(0.015625)"/>
     </defs>
     <use xlink:href="#SimHei-5355"/>
     <use xlink:href="#SimHei-4f4d" transform="translate(100 0)"/>
     <use xlink:href="#SimHei-641c" transform="translate(200 0)"/>
     <use xlink:href="#SimHei-7d22" transform="translate(300 0)"/>
     <use xlink:href="#SimHei-7a7a" transform="translate(400 0)"/>
     <use xlink:href="#SimHei-95f4" transform="translate(500 0)"/>
    </g>
   </g>
   <g id="text_3">
    <!-- b -->
    <g transform="translate(223.146 16.903125) scale(0.09 -0.09)">
     <defs>
      <path id="DejaVuSans-Bold-62" d="M 2400 722 
Q 2759 722 2948 984 
Q 3138 1247 3138 1747 
Q 3138 2247 2948 2509 
Q 2759 2772 2400 2772 
Q 2041 2772 1848 2508 
Q 1656 2244 1656 1747 
Q 1656 1250 1848 986 
Q 2041 722 2400 722 
z
M 1656 2988 
Q 1888 3294 2169 3439 
Q 2450 3584 2816 3584 
Q 3463 3584 3878 3070 
Q 4294 2556 4294 1747 
Q 4294 938 3878 423 
Q 3463 -91 2816 -91 
Q 2450 -91 2169 54 
Q 1888 200 1656 506 
L 1656 0 
L 538 0 
L 538 4863 
L 1656 4863 
L 1656 2988 
z
" transform="scale(0.015625)"/>
     </defs>
     <use xlink:href="#DejaVuSans-Bold-62"/>
    </g>
   </g>
   <g id="text_4">
    <!-- 凸物理单元 -->
    <g transform="translate(246.714 16.903125) scale(0.12 -0.12)">
     <defs>
      <path id="SimHei-51f8" d="M 1875 4450 
Q 1875 4725 1825 5025 
L 4525 5025 
Q 4475 4650 4475 4475 
L 4475 3125 
L 5850 3125 
Q 5800 2700 5800 2525 
L 5800 175 
Q 5800 25 5850 -375 
L 5275 -375 
L 5275 25 
L 1125 25 
L 1125 -475 
L 550 -475 
Q 575 -150 575 100 
L 575 2525 
Q 575 2700 550 3125 
L 1875 3125 
L 1875 4450 
z
M 5275 475 
L 5275 2650 
L 3950 2650 
L 3950 4575 
L 2400 4575 
L 2400 2650 
L 1125 2650 
L 1125 475 
L 5275 475 
z
" transform="scale(0.015625)"/>
      <path id="SimHei-7269" d="M 5550 3775 
L 5225 3775 
Q 5175 2925 5062 2312 
Q 4950 1700 4700 1225 
Q 4450 750 4087 337 
Q 3725 -75 3100 -475 
Q 2950 -250 2650 -75 
Q 3275 175 3662 575 
Q 4050 975 4275 1462 
Q 4500 1950 4600 2537 
Q 4700 3125 4750 3775 
L 4325 3775 
Q 4250 3025 3912 2275 
Q 3575 1525 3075 1025 
Q 2925 1250 2600 1350 
Q 3175 1825 3462 2400 
Q 3750 2975 3875 3775 
L 3500 3775 
Q 3175 3125 2950 2800 
Q 2750 2975 2500 3050 
Q 3025 3750 3275 4375 
Q 3525 5000 3575 5275 
Q 3925 5125 4200 5050 
Q 4075 4950 3962 4725 
Q 3850 4500 3725 4200 
L 6075 4200 
Q 5975 3100 5937 1850 
Q 5900 600 5862 225 
Q 5825 -150 5500 -287 
Q 5175 -425 4550 -500 
Q 4525 -225 4300 75 
Q 5025 25 5187 100 
Q 5350 175 5375 525 
L 5550 3775 
z
M 1250 4325 
Q 1100 4125 1025 3700 
L 1600 3700 
L 1600 4525 
Q 1600 4900 1550 5200 
L 2100 5200 
Q 2075 4900 2075 4525 
L 2075 3700 
Q 2325 3700 2650 3725 
L 2650 3275 
Q 2300 3300 2075 3300 
L 2075 2000 
Q 2500 2100 2775 2225 
Q 2775 2000 2800 1775 
Q 2475 1675 2075 1550 
L 2075 375 
Q 2075 -50 2100 -600 
L 1550 -600 
Q 1600 -100 1600 375 
L 1600 1425 
Q 1325 1350 1062 1262 
Q 800 1175 500 1025 
Q 425 1250 250 1575 
Q 700 1625 1600 1850 
L 1600 3300 
L 950 3300 
Q 850 2825 725 2375 
Q 475 2500 225 2500 
Q 450 3025 537 3512 
Q 625 4000 650 4425 
Q 925 4350 1250 4325 
z
" transform="scale(0.015625)"/>
      <path id="SimHei-7406" d="M 5825 4850 
Q 5800 4525 5800 3425 
Q 5800 2350 5825 1875 
L 4450 1875 
L 4450 1125 
L 5200 1125 
Q 5650 1125 5900 1150 
L 5900 700 
Q 5625 725 5200 725 
L 4450 725 
L 4450 -125 
L 5350 -125 
Q 5825 -125 6150 -100 
L 6150 -550 
Q 5825 -525 5375 -525 
L 2950 -525 
Q 2550 -525 2250 -550 
L 2250 -100 
Q 2575 -125 2950 -125 
L 3975 -125 
L 3975 725 
L 3150 725 
Q 2825 725 2575 700 
L 2575 1150 
Q 2825 1125 3150 1125 
L 3975 1125 
L 3975 1875 
L 2625 1875 
Q 2650 2250 2650 3400 
Q 2650 4550 2625 4850 
L 5825 4850 
z
M 1750 4525 
Q 2025 4525 2350 4550 
L 2350 4075 
Q 2000 4100 1750 4100 
L 1525 4100 
L 1525 2750 
Q 1875 2750 2225 2775 
L 2225 2300 
Q 1875 2325 1525 2325 
L 1525 725 
Q 2000 900 2325 1050 
Q 2375 800 2425 625 
Q 1950 475 1362 237 
Q 775 0 450 -200 
Q 350 50 225 325 
Q 550 375 1075 600 
L 1075 2325 
Q 625 2325 300 2300 
L 300 2775 
Q 650 2750 1075 2750 
L 1075 4100 
L 775 4100 
Q 550 4100 225 4075 
L 225 4550 
Q 550 4525 775 4525 
L 1750 4525 
z
M 5325 2275 
L 5325 3175 
L 4450 3175 
L 4450 2275 
L 5325 2275 
z
M 5325 3550 
L 5325 4450 
L 4450 4450 
L 4450 3550 
L 5325 3550 
z
M 3975 2275 
L 3975 3175 
L 3125 3175 
L 3125 2275 
L 3975 2275 
z
M 3975 3550 
L 3975 4450 
L 3125 4450 
L 3125 3550 
L 3975 3550 
z
" transform="scale(0.015625)"/>
      <path id="SimHei-5143" d="M 4900 3175 
Q 5200 3175 5650 3200 
L 5650 2675 
Q 5200 2700 4900 2700 
L 4075 2700 
L 4075 425 
Q 4075 75 4450 75 
L 5175 75 
Q 5425 75 5525 775 
Q 5800 600 6075 550 
Q 5950 -325 5300 -375 
L 4150 -375 
Q 3575 -375 3575 225 
L 3575 2700 
L 2675 2700 
Q 2775 400 900 -600 
Q 725 -375 400 -175 
Q 2250 500 2150 2700 
L 1500 2700 
Q 1125 2700 650 2675 
L 650 3200 
Q 1125 3175 1500 3175 
L 4900 3175 
z
M 4450 4775 
Q 4675 4775 5150 4800 
L 5150 4325 
Q 4700 4350 4450 4350 
L 1875 4350 
Q 1575 4350 1200 4325 
L 1200 4800 
Q 1575 4775 1850 4775 
L 4450 4775 
z
" transform="scale(0.015625)"/>
     </defs>
     <use xlink:href="#SimHei-51f8"/>
     <use xlink:href="#SimHei-7269" transform="translate(100 0)"/>
     <use xlink:href="#SimHei-7406" transform="translate(200 0)"/>
     <use xlink:href="#SimHei-5355" transform="translate(300 0)"/>
     <use xlink:href="#SimHei-5143" transform="translate(400 0)"/>
    </g>
   </g>
   <g id="PathCollection_1">
    <defs>
     <path id="m27ff7d1aae" d="M 0 2.738613 
C 0.726289 2.738613 1.422928 2.450055 1.936492 1.936492 
C 2.450055 1.422928 2.738613 0.726289 2.738613 0 
C 2.738613 -0.726289 2.450055 -1.422928 1.936492 -1.936492 
C 1.422928 -2.450055 0.726289 -2.738613 0 -2.738613 
C -0.726289 -2.738613 -1.422928 -2.450055 -1.936492 -1.936492 
C -2.450055 -1.422928 -2.738613 -0.726289 -2.738613 0 
C -2.738613 0.726289 -2.450055 1.422928 -1.936492 1.936492 
C -1.422928 2.450055 -0.726289 2.738613 0 2.738613 
z
" style="stroke: #b65d31"/>
    </defs>
    <g clip-path="url(#p8233550917)">
     <use xlink:href="#m27ff7d1aae" x="44.6976" y="104.172615" style="fill: #b65d31; stroke: #b65d31"/>
     <use xlink:href="#m27ff7d1aae" x="59.094" y="63.424215" style="fill: #b65d31; stroke: #b65d31"/>
     <use xlink:href="#m27ff7d1aae" x="94.9176" y="87.194115" style="fill: #b65d31; stroke: #b65d31"/>
     <use xlink:href="#m27ff7d1aae" x="103.6224" y="51.539265" style="fill: #b65d31; stroke: #b65d31"/>
    </g>
   </g>
   <g id="text_5">
    <!-- 1 -->
    <g transform="translate(23.6052 39.654315) scale(0.08 -0.08)">
     <defs>
      <path id="DejaVuSans-31" d="M 794 531 
L 1825 531 
L 1825 4091 
L 703 3866 
L 703 4441 
L 1819 4666 
L 2450 4666 
L 2450 531 
L 3481 531 
L 3481 0 
L 794 0 
L 794 531 
z
" transform="scale(0.015625)"/>
     </defs>
     <use xlink:href="#DejaVuSans-31"/>
    </g>
   </g>
   <g id="text_6">
    <!-- 0 -->
    <g transform="translate(23.2704 128.961225) scale(0.08 -0.08)">
     <defs>
      <path id="DejaVuSans-30" d="M 2034 4250 
Q 1547 4250 1301 3770 
Q 1056 3291 1056 2328 
Q 1056 1369 1301 889 
Q 1547 409 2034 409 
Q 2525 409 2770 889 
Q 3016 1369 3016 2328 
Q 3016 3291 2770 3770 
Q 2525 4250 2034 4250 
z
M 2034 4750 
Q 2819 4750 3233 4129 
Q 3647 3509 3647 2328 
Q 3647 1150 3233 529 
Q 2819 -91 2034 -91 
Q 1250 -91 836 529 
Q 422 1150 422 2328 
Q 422 3509 836 4129 
Q 1250 4750 2034 4750 
z
" transform="scale(0.015625)"/>
     </defs>
     <use xlink:href="#DejaVuSans-30"/>
    </g>
   </g>
   <g id="text_7">
    <!-- $\hat{x}$ -->
    <g transform="translate(109.314 129.640365) scale(0.09 -0.09)">
     <defs>
      <path id="DejaVuSans-302" d="M -1831 5119 
L -1369 5119 
L -603 3944 
L -1038 3944 
L -1600 4709 
L -2163 3944 
L -2597 3944 
L -1831 5119 
z
M -1600 3584 
L -1600 3584 
z
" transform="scale(0.015625)"/>
      <path id="DejaVuSans-Oblique-78" d="M 3841 3500 
L 2234 1784 
L 3219 0 
L 2559 0 
L 1819 1388 
L 531 0 
L -166 0 
L 1556 1844 
L 641 3500 
L 1300 3500 
L 1972 2234 
L 3144 3500 
L 3841 3500 
z
" transform="scale(0.015625)"/>
     </defs>
     <use xlink:href="#DejaVuSans-302" transform="translate(62.373047 12.015625)"/>
     <use xlink:href="#DejaVuSans-Oblique-78" transform="translate(0 0.828125)"/>
    </g>
   </g>
   <g id="text_8">
    <!-- $\hat{y}$ -->
    <g transform="translate(22.266 32.183775) scale(0.09 -0.09)">
     <defs>
      <path id="DejaVuSans-Oblique-79" d="M 1588 -325 
Q 1188 -997 936 -1164 
Q 684 -1331 294 -1331 
L -159 -1331 
L -63 -850 
L 269 -850 
Q 509 -850 678 -719 
Q 847 -588 1056 -206 
L 1234 128 
L 459 3500 
L 1069 3500 
L 1650 819 
L 3256 3500 
L 3859 3500 
L 1588 -325 
z
" transform="scale(0.015625)"/>
     </defs>
     <use xlink:href="#DejaVuSans-302" transform="translate(62.373047 12.015625)"/>
     <use xlink:href="#DejaVuSans-Oblique-79" transform="translate(0 0.828125)"/>
    </g>
   </g>
   <g id="text_9">
    <!-- 归一化坐标 -->
    <g transform="translate(49.138 136.507005) scale(0.08 -0.08)">
     <defs>
      <path id="SimHei-5f52" d="M 2600 800 
Q 3075 775 3600 775 
L 5300 775 
L 5300 2275 
L 4150 2275 
Q 3550 2275 3100 2250 
L 3100 2725 
Q 3550 2700 4150 2700 
L 5300 2700 
L 5300 4175 
L 3775 4175 
Q 3300 4175 2800 4150 
L 2800 4625 
Q 3250 4600 3725 4600 
L 5850 4600 
Q 5825 4075 5825 3775 
L 5825 825 
Q 5825 200 5850 -300 
L 5300 -300 
L 5300 350 
L 3600 350 
Q 3075 350 2600 325 
L 2600 800 
z
M 350 -150 
Q 1125 325 1475 975 
Q 1825 1625 1900 2362 
Q 1975 3100 1962 3837 
Q 1950 4575 1925 5125 
L 2475 5125 
Q 2450 4725 2450 3950 
Q 2450 3175 2400 2437 
Q 2350 1700 2012 950 
Q 1675 200 800 -550 
Q 625 -325 350 -150 
z
M 500 1225 
Q 525 1650 525 2050 
L 525 3700 
Q 525 4125 500 4475 
L 1050 4475 
Q 1025 4100 1025 3700 
L 1025 2050 
Q 1025 1650 1050 1225 
L 500 1225 
z
" transform="scale(0.015625)"/>
      <path id="SimHei-4e00" d="M 4875 2675 
Q 5525 2675 6050 2700 
L 6050 2050 
Q 5525 2075 4900 2075 
L 1600 2075 
Q 950 2075 350 2050 
L 350 2700 
Q 950 2675 1600 2675 
L 4875 2675 
z
" transform="scale(0.015625)"/>
      <path id="SimHei-5316" d="M 3925 5025 
Q 3900 4900 3900 4400 
L 3900 2625 
Q 4375 3025 4775 3450 
Q 5175 3875 5400 4300 
Q 5600 4100 5900 3925 
Q 5700 3700 5225 3212 
Q 4750 2725 4487 2512 
Q 4225 2300 3900 2025 
L 3900 450 
Q 3900 50 4225 50 
L 5200 50 
Q 5400 75 5462 262 
Q 5525 450 5575 850 
Q 5800 650 6150 600 
Q 6000 -100 5825 -250 
Q 5650 -400 5350 -400 
L 3950 -400 
Q 3425 -400 3400 200 
L 3400 1675 
Q 3225 1525 2962 1350 
Q 2700 1175 2375 975 
Q 2225 1225 2025 1400 
Q 2350 1550 2737 1787 
Q 3125 2025 3400 2250 
L 3400 4500 
Q 3400 4800 3375 5025 
L 3925 5025 
z
M 2400 4850 
Q 2175 4550 2075 4337 
Q 1975 4125 1825 3775 
L 1825 675 
Q 1825 -75 1850 -550 
L 1325 -550 
Q 1350 -125 1350 650 
L 1350 3050 
Q 1125 2725 962 2525 
Q 800 2325 675 2175 
Q 500 2375 275 2525 
Q 625 2850 875 3212 
Q 1125 3575 1312 3912 
Q 1500 4250 1625 4575 
Q 1750 4900 1825 5100 
Q 1975 4975 2400 4850 
z
" transform="scale(0.015625)"/>
      <path id="SimHei-5750" d="M 3450 5100 
Q 3425 4675 3425 4150 
L 3425 1500 
L 4550 1500 
Q 4975 1500 5450 1525 
L 5450 1075 
Q 5000 1100 4500 1100 
L 3425 1100 
L 3425 50 
L 5075 50 
Q 5500 50 5975 75 
L 5975 -375 
Q 5525 -350 5075 -350 
L 1475 -350 
Q 925 -350 400 -375 
L 400 75 
Q 925 50 1475 50 
L 2925 50 
L 2925 1100 
L 2050 1100 
Q 1450 1100 950 1075 
L 950 1525 
Q 1450 1500 2050 1500 
L 2925 1500 
L 2925 4150 
Q 2925 4675 2900 5100 
L 3450 5100 
z
M 5200 4450 
Q 5050 4250 4825 3600 
Q 5200 3300 5975 2500 
Q 5775 2400 5575 2150 
Q 5075 2800 4650 3150 
Q 4375 2500 3975 1925 
Q 3725 2125 3525 2200 
Q 3875 2575 4212 3362 
Q 4550 4150 4600 4650 
Q 4900 4525 5200 4450 
z
M 350 2150 
Q 600 2375 950 3087 
Q 1300 3800 1450 4575 
Q 1625 4475 2050 4400 
Q 1950 4275 1862 4050 
Q 1775 3825 1700 3575 
Q 2400 2950 2700 2475 
Q 2425 2325 2250 2150 
Q 2025 2550 1887 2725 
Q 1750 2900 1500 3125 
Q 1250 2525 800 1875 
Q 575 2050 350 2150 
z
" transform="scale(0.015625)"/>
      <path id="SimHei-6807" d="M 1275 4400 
Q 1275 4800 1250 5175 
L 1750 5175 
Q 1725 4825 1725 4400 
L 1725 3800 
Q 2125 3800 2575 3825 
L 2575 3350 
Q 2125 3375 1725 3375 
L 1725 2525 
Q 1900 2650 2075 2800 
Q 2400 2275 2650 1775 
Q 2375 1650 2175 1500 
Q 2025 2000 1725 2425 
L 1725 475 
Q 1725 -50 1750 -575 
L 1250 -575 
Q 1275 -25 1275 475 
L 1275 2100 
Q 1025 1400 500 750 
Q 350 950 125 1125 
Q 550 1550 812 2187 
Q 1075 2825 1150 3375 
Q 675 3375 325 3325 
L 325 3825 
Q 800 3800 1275 3800 
L 1275 4400 
z
M 5175 3125 
Q 5675 3125 6050 3150 
L 6050 2675 
Q 5675 2700 5275 2700 
L 4500 2700 
L 4500 175 
Q 4500 -225 4275 -350 
Q 4050 -475 3475 -550 
Q 3425 -250 3275 25 
Q 3775 25 3900 62 
Q 4025 100 4025 350 
L 4025 2700 
L 3400 2700 
Q 2775 2700 2500 2650 
L 2500 3150 
Q 2825 3125 3400 3125 
L 5175 3125 
z
M 4900 4775 
Q 5425 4775 5750 4800 
L 5750 4300 
Q 5275 4350 4750 4350 
L 3525 4350 
Q 3125 4350 2750 4300 
L 2750 4800 
Q 3100 4775 3525 4775 
L 4900 4775 
z
M 5275 2025 
Q 5825 1175 6200 500 
Q 5925 375 5650 200 
Q 5375 925 4825 1725 
Q 5075 1850 5275 2025 
z
M 3600 1775 
Q 3500 1625 3225 975 
Q 2950 325 2800 50 
Q 2575 175 2300 275 
Q 2625 775 2787 1187 
Q 2950 1600 3050 2000 
Q 3325 1875 3600 1775 
z
" transform="scale(0.015625)"/>
     </defs>
     <use xlink:href="#SimHei-5f52"/>
     <use xlink:href="#SimHei-4e00" transform="translate(100 0)"/>
     <use xlink:href="#SimHei-5316" transform="translate(200 0)"/>
     <use xlink:href="#SimHei-5750" transform="translate(300 0)"/>
     <use xlink:href="#SimHei-6807" transform="translate(400 0)"/>
    </g>
    <!-- $[0,1]^2$ 内 -->
    <g transform="translate(50.938 145.879005) scale(0.08 -0.08)">
     <defs>
      <path id="DejaVuSans-5b" d="M 550 4863 
L 1875 4863 
L 1875 4416 
L 1125 4416 
L 1125 -397 
L 1875 -397 
L 1875 -844 
L 550 -844 
L 550 4863 
z
" transform="scale(0.015625)"/>
      <path id="DejaVuSans-2c" d="M 750 794 
L 1409 794 
L 1409 256 
L 897 -744 
L 494 -744 
L 750 256 
L 750 794 
z
" transform="scale(0.015625)"/>
      <path id="DejaVuSans-5d" d="M 1947 4863 
L 1947 -844 
L 622 -844 
L 622 -397 
L 1369 -397 
L 1369 4416 
L 622 4416 
L 622 4863 
L 1947 4863 
z
" transform="scale(0.015625)"/>
      <path id="DejaVuSans-32" d="M 1228 531 
L 3431 531 
L 3431 0 
L 469 0 
L 469 531 
Q 828 903 1448 1529 
Q 2069 2156 2228 2338 
Q 2531 2678 2651 2914 
Q 2772 3150 2772 3378 
Q 2772 3750 2511 3984 
Q 2250 4219 1831 4219 
Q 1534 4219 1204 4116 
Q 875 4013 500 3803 
L 500 4441 
Q 881 4594 1212 4672 
Q 1544 4750 1819 4750 
Q 2544 4750 2975 4387 
Q 3406 4025 3406 3419 
Q 3406 3131 3298 2873 
Q 3191 2616 2906 2266 
Q 2828 2175 2409 1742 
Q 1991 1309 1228 531 
z
" transform="scale(0.015625)"/>
      <path id="SimHei-20" transform="scale(0.015625)"/>
      <path id="SimHei-5185" d="M 1425 1300 
Q 2175 1825 2537 2375 
Q 2900 2925 2925 3750 
L 1225 3750 
L 1225 -500 
L 650 -500 
Q 700 0 700 350 
L 700 3125 
Q 700 3625 675 4175 
L 2950 4175 
Q 2950 4850 2925 5175 
Q 3325 5150 3550 5150 
Q 3425 4825 3425 4175 
L 5775 4175 
Q 5725 3650 5725 3125 
L 5725 75 
Q 5725 -300 5425 -387 
Q 5125 -475 4600 -550 
Q 4525 -300 4250 0 
Q 4850 0 5025 37 
Q 5200 75 5200 275 
L 5200 3750 
L 3400 3750 
Q 3400 3300 3325 2875 
Q 3550 2700 4125 2262 
Q 4700 1825 4950 1575 
Q 4675 1350 4525 1175 
Q 4100 1675 3175 2425 
Q 2725 1650 2000 975 
Q 1700 1225 1425 1300 
z
" transform="scale(0.015625)"/>
     </defs>
     <use xlink:href="#DejaVuSans-5b" transform="translate(0 0.765625)"/>
     <use xlink:href="#DejaVuSans-30" transform="translate(39.013672 0.765625)"/>
     <use xlink:href="#DejaVuSans-2c" transform="translate(102.636719 0.765625)"/>
     <use xlink:href="#DejaVuSans-31" transform="translate(153.90625 0.765625)"/>
     <use xlink:href="#DejaVuSans-5d" transform="translate(217.529297 0.765625)"/>
     <use xlink:href="#DejaVuSans-32" transform="translate(257.5 39.046875) scale(0.7)"/>
     <use xlink:href="#SimHei-20" transform="translate(304.770508 0.765625)"/>
     <use xlink:href="#SimHei-5185" transform="translate(354.770508 0.765625)"/>
    </g>
   </g>
   <g id="PathCollection_2">
    <defs>
     <path id="m33a19b5e23" d="M 0 -3.674235 
L -3.674235 3.674235 
L 3.674235 3.674235 
z
" style="stroke: #ffffff; stroke-width: 0.5"/>
    </defs>
    <g clip-path="url(#p8233550917)">
     <use xlink:href="#m33a19b5e23" x="249.93" y="97.381215" style="fill: #b65d31; stroke: #ffffff; stroke-width: 0.5"/>
     <use xlink:href="#m33a19b5e23" x="273.366" y="68.517765" style="fill: #b65d31; stroke: #ffffff; stroke-width: 0.5"/>
     <use xlink:href="#m33a19b5e23" x="300.15" y="82.100565" style="fill: #b65d31; stroke: #ffffff; stroke-width: 0.5"/>
     <use xlink:href="#m33a19b5e23" x="295.128" y="49.841415" style="fill: #b65d31; stroke: #ffffff; stroke-width: 0.5"/>
    </g>
   </g>
   <g id="text_10">
    <!-- 所有映射点 -->
    <g style="fill: #174a6a" transform="translate(260.062 128.607325) scale(0.08 -0.08)">
     <defs>
      <path id="SimHei-6240" d="M 2925 4450 
Q 2650 4425 1375 4250 
L 1375 3375 
L 2725 3375 
Q 2700 2800 2700 2225 
Q 2700 1675 2725 1325 
L 1350 1325 
Q 1325 875 1175 425 
Q 1025 -25 775 -525 
Q 575 -325 325 -275 
Q 725 325 812 1050 
Q 900 1775 900 2675 
Q 900 3575 875 4575 
Q 2225 4725 2650 4950 
Q 2750 4725 2925 4450 
z
M 5825 4425 
Q 5475 4400 5000 4337 
Q 4525 4275 3800 4225 
L 3800 3025 
L 5225 3025 
Q 5575 3025 5975 3050 
L 5975 2600 
Q 5575 2625 5200 2625 
L 5200 400 
Q 5200 -100 5225 -500 
L 4700 -500 
Q 4725 -50 4725 400 
L 4725 2625 
L 3800 2625 
Q 3750 1625 3600 1062 
Q 3450 500 3250 125 
Q 3050 -250 2725 -625 
Q 2550 -425 2300 -325 
Q 2725 75 2975 612 
Q 3225 1150 3287 1812 
Q 3350 2475 3350 3125 
Q 3350 3800 3325 4600 
Q 3700 4600 4425 4687 
Q 5150 4775 5575 4950 
Q 5700 4675 5825 4425 
z
M 2275 1750 
L 2275 2975 
L 1375 2975 
L 1375 1750 
L 2275 1750 
z
" transform="scale(0.015625)"/>
      <path id="SimHei-6709" d="M 275 1625 
Q 850 1975 1400 2537 
Q 1950 3100 2400 3925 
L 1500 3925 
Q 1150 3925 625 3900 
L 625 4375 
Q 1275 4350 1600 4350 
L 2550 4350 
Q 2750 4950 2775 5225 
Q 3150 5125 3375 5075 
Q 3300 5000 3125 4350 
L 5150 4350 
Q 5575 4350 6025 4375 
L 6025 3900 
Q 5575 3925 5225 3925 
L 2975 3925 
Q 2800 3600 2600 3275 
L 5475 3275 
Q 5450 2650 5450 2150 
L 5450 125 
Q 5450 -225 5250 -387 
Q 5050 -550 4400 -600 
Q 4375 -325 4225 0 
Q 4600 -50 4775 -25 
Q 4950 0 4950 250 
L 4950 750 
L 2350 750 
L 2350 -575 
L 1800 -575 
Q 1825 50 1825 500 
L 1825 2275 
Q 1300 1675 725 1225 
Q 625 1400 275 1625 
z
M 4950 2175 
L 4950 2875 
L 2350 2875 
L 2350 2175 
L 4950 2175 
z
M 4950 1150 
L 4950 1775 
L 2350 1775 
L 2350 1150 
L 4950 1150 
z
" transform="scale(0.015625)"/>
      <path id="SimHei-6620" d="M 2300 2150 
Q 2500 2125 2650 2125 
Q 2650 3675 2625 4150 
L 3900 4150 
Q 3900 4925 3875 5175 
L 4500 5125 
Q 4375 5000 4362 4762 
Q 4350 4525 4350 4150 
L 5675 4150 
Q 5650 3550 5650 2125 
Q 5900 2125 6175 2150 
L 6175 1700 
Q 5700 1725 4475 1725 
Q 4675 1100 5137 575 
Q 5600 50 6200 -225 
Q 5875 -350 5725 -650 
Q 5325 -425 4850 125 
Q 4375 675 4150 1475 
Q 3900 625 3437 100 
Q 2975 -425 2500 -675 
Q 2250 -400 2050 -300 
Q 2725 0 3187 587 
Q 3650 1175 3775 1725 
Q 2525 1725 2300 1700 
L 2300 2150 
z
M 2200 4550 
Q 2175 4025 2175 3450 
L 2175 1625 
Q 2175 1050 2200 425 
L 1675 425 
L 1675 800 
L 850 800 
L 850 200 
L 350 200 
Q 375 825 375 1450 
L 375 3450 
Q 375 4025 350 4550 
L 2200 4550 
z
M 5150 2125 
L 5150 3725 
L 4350 3725 
Q 4350 2950 4300 2125 
L 5150 2125 
z
M 3150 3725 
L 3150 2125 
L 3850 2125 
Q 3900 2925 3900 3725 
L 3150 3725 
z
M 1675 1200 
L 1675 2500 
L 850 2500 
L 850 1200 
L 1675 1200 
z
M 1675 2900 
L 1675 4150 
L 850 4150 
L 850 2900 
L 1675 2900 
z
" transform="scale(0.015625)"/>
      <path id="SimHei-5c04" d="M 2150 5125 
Q 2000 4975 1825 4500 
L 3225 4500 
Q 3200 4075 3200 3650 
L 3200 -50 
Q 3200 -350 2987 -462 
Q 2775 -575 2250 -650 
Q 2225 -375 2075 -75 
Q 2475 -125 2612 -75 
Q 2750 -25 2750 225 
L 2750 1275 
L 2475 1275 
Q 2275 725 1725 250 
Q 1175 -225 625 -500 
Q 450 -275 225 -75 
Q 775 75 1250 450 
Q 1725 825 1975 1275 
L 825 1275 
Q 650 1275 275 1250 
L 275 1725 
Q 625 1700 800 1700 
L 800 3675 
Q 800 4075 775 4500 
L 1400 4500 
Q 1500 4900 1525 5275 
L 2150 5125 
z
M 4875 4500 
Q 4875 4825 4825 5200 
L 5350 5200 
Q 5325 4825 5325 4500 
L 5325 3550 
Q 5750 3550 6150 3575 
L 6150 3125 
Q 5750 3150 5325 3150 
L 5325 75 
Q 5300 -300 5012 -437 
Q 4725 -575 4325 -650 
Q 4325 -350 4075 -25 
Q 4475 -75 4675 -25 
Q 4875 25 4875 250 
L 4875 3150 
Q 3900 3150 3375 3125 
L 3375 3575 
Q 4000 3550 4875 3550 
L 4875 4500 
z
M 2750 3550 
L 2750 4100 
L 1250 4100 
L 1250 3550 
L 2750 3550 
z
M 2750 2625 
L 2750 3150 
L 1250 3150 
L 1250 2625 
L 2750 2625 
z
M 2750 1700 
L 2750 2225 
L 1250 2225 
L 1250 1700 
L 2750 1700 
z
M 4000 2600 
Q 4275 1775 4350 1525 
Q 4100 1475 3875 1350 
Q 3800 1850 3525 2450 
Q 3750 2550 4000 2600 
z
" transform="scale(0.015625)"/>
      <path id="SimHei-70b9" d="M 3325 5200 
Q 3300 4925 3300 4375 
L 4900 4375 
Q 5275 4375 5725 4400 
L 5725 3925 
Q 5300 3950 4900 3950 
L 3300 3950 
L 3300 3225 
L 5225 3225 
Q 5200 2700 5200 2150 
Q 5200 1625 5225 1175 
L 1175 1175 
Q 1200 1625 1200 2175 
Q 1200 2725 1175 3225 
L 2775 3225 
L 2775 4500 
Q 2775 4900 2750 5200 
L 3325 5200 
z
M 4700 1600 
L 4700 2800 
L 1725 2800 
L 1725 1600 
L 4700 1600 
z
M 1500 750 
Q 1025 -250 825 -625 
Q 625 -475 325 -375 
Q 650 50 950 925 
Q 1200 800 1500 750 
z
M 5325 850 
Q 5775 150 6075 -350 
Q 5925 -425 5575 -625 
Q 5375 -150 4900 575 
Q 5150 700 5325 850 
z
M 3975 -575 
Q 3775 -100 3400 575 
Q 3575 675 3825 825 
Q 4350 -75 4450 -325 
Q 4200 -450 3975 -575 
z
M 2375 -575 
Q 2350 -300 1975 550 
Q 2200 625 2425 775 
Q 2800 -75 2900 -350 
Q 2625 -450 2375 -575 
z
" transform="scale(0.015625)"/>
     </defs>
     <use xlink:href="#SimHei-6240"/>
     <use xlink:href="#SimHei-6709" transform="translate(100 0)"/>
     <use xlink:href="#SimHei-6620" transform="translate(200 0)"/>
     <use xlink:href="#SimHei-5c04" transform="translate(300 0)"/>
     <use xlink:href="#SimHei-70b9" transform="translate(400 0)"/>
    </g>
    <!-- 均保持可行 -->
    <g style="fill: #174a6a" transform="translate(260.062 137.046387) scale(0.08 -0.08)">
     <defs>
      <path id="SimHei-5747" d="M 5775 275 
Q 5775 -325 5362 -450 
Q 4950 -575 4425 -600 
Q 4375 -275 4250 25 
Q 4950 -25 5125 62 
Q 5300 150 5300 500 
L 5375 3700 
L 3550 3700 
Q 3425 3375 3262 3037 
Q 3100 2700 2925 2400 
Q 2675 2550 2475 2625 
Q 3150 3625 3500 5200 
Q 3800 5100 4075 5025 
Q 3975 4875 3875 4650 
Q 3775 4425 3675 4125 
L 5900 4125 
L 5775 275 
z
M 1250 3625 
L 1250 4375 
Q 1250 4775 1225 5100 
L 1775 5100 
Q 1750 4725 1750 4375 
L 1750 3625 
L 1900 3625 
Q 2200 3625 2525 3650 
L 2525 3150 
Q 2200 3175 1900 3175 
L 1750 3175 
L 1750 1100 
L 2500 1375 
Q 2475 1125 2525 900 
Q 1225 475 962 362 
Q 700 250 475 150 
Q 375 475 250 750 
Q 575 800 800 850 
Q 1025 900 1250 975 
L 1250 3175 
L 1125 3175 
Q 850 3175 400 3150 
L 400 3650 
Q 850 3625 1100 3625 
L 1250 3625 
z
M 4950 1625 
Q 4675 1425 4137 1050 
Q 3600 675 3175 300 
Q 3000 575 2850 775 
Q 3350 1050 3762 1325 
Q 4175 1600 4775 2075 
Q 4825 1850 4950 1625 
z
M 3775 3150 
Q 4125 2800 4475 2300 
Q 4250 2125 4100 1975 
Q 3900 2325 3450 2825 
Q 3600 3000 3775 3150 
z
" transform="scale(0.015625)"/>
      <path id="SimHei-4fdd" d="M 5425 4925 
Q 5400 4550 5400 3950 
Q 5400 3375 5425 3050 
L 4225 3050 
L 4225 2250 
L 4975 2250 
Q 5650 2250 6025 2275 
L 6025 1800 
Q 5600 1825 5025 1825 
L 4600 1825 
Q 4825 1325 5225 937 
Q 5625 550 6175 350 
Q 5975 175 5800 -125 
Q 5200 200 4812 700 
Q 4425 1200 4225 1700 
L 4225 325 
Q 4225 -250 4250 -575 
L 3725 -575 
Q 3750 -225 3750 275 
L 3750 1800 
Q 3150 600 2225 -175 
Q 2075 50 1775 175 
Q 2650 650 3225 1825 
L 2875 1825 
Q 2350 1825 2000 1800 
L 2000 2275 
Q 2350 2250 2825 2250 
L 3750 2250 
L 3750 3050 
L 2600 3050 
Q 2625 3400 2625 4000 
Q 2625 4625 2600 4925 
L 5425 4925 
z
M 2125 4975 
Q 2000 4800 1850 4475 
Q 1700 4150 1600 3875 
L 1600 650 
Q 1600 -150 1625 -575 
L 1125 -575 
Q 1150 -175 1150 625 
L 1150 3000 
Q 800 2400 525 2050 
Q 400 2275 200 2425 
Q 725 3050 1087 3837 
Q 1450 4625 1575 5225 
Q 1775 5075 2125 4975 
z
M 4950 3450 
L 4950 4525 
L 3075 4525 
L 3075 3450 
L 4950 3450 
z
" transform="scale(0.015625)"/>
      <path id="SimHei-6301" d="M 3900 2975 
L 3900 3825 
L 3525 3825 
Q 3025 3825 2725 3800 
L 2725 4225 
Q 3125 4200 3525 4200 
L 3900 4200 
Q 3900 4825 3875 5125 
L 4400 5125 
Q 4375 4825 4375 4200 
L 4875 4200 
Q 5275 4200 5650 4225 
L 5650 3800 
Q 5275 3825 4875 3825 
L 4375 3825 
L 4375 2975 
L 5300 2975 
Q 5800 2975 6100 3000 
L 6100 2550 
Q 5750 2575 5350 2575 
L 5150 2575 
L 5150 1850 
L 5325 1850 
Q 5750 1850 6025 1875 
L 6025 1425 
Q 5700 1450 5325 1450 
L 5150 1450 
L 5150 25 
Q 5150 -400 4912 -512 
Q 4675 -625 4125 -650 
Q 4100 -425 3925 -100 
Q 4375 -125 4525 -87 
Q 4675 -50 4675 200 
L 4675 1450 
L 3200 1450 
Q 2850 1450 2525 1425 
L 2525 1875 
Q 2825 1850 3200 1850 
L 4675 1850 
L 4675 2575 
L 3125 2575 
Q 2875 2575 2450 2550 
L 2450 3000 
Q 2775 2975 3050 2975 
L 3900 2975 
z
M 1275 4450 
Q 1275 4800 1250 5075 
L 1800 5075 
Q 1750 4775 1750 4400 
L 1750 3825 
Q 2175 3825 2475 3850 
L 2475 3350 
Q 2100 3375 1750 3375 
L 1750 2325 
Q 2075 2450 2375 2600 
Q 2375 2325 2400 2150 
Q 1975 1975 1750 1825 
L 1750 50 
Q 1750 -300 1537 -437 
Q 1325 -575 750 -625 
Q 700 -375 550 -75 
Q 1075 -75 1175 -37 
Q 1275 0 1275 225 
L 1275 1625 
Q 1100 1550 925 1462 
Q 750 1375 475 1200 
Q 400 1400 225 1750 
Q 1000 2000 1275 2125 
L 1275 3375 
Q 775 3375 350 3350 
L 350 3850 
Q 725 3825 1275 3825 
L 1275 4450 
z
M 3175 1250 
Q 3600 675 3775 300 
Q 3525 125 3325 0 
Q 3075 525 2750 975 
Q 2925 1075 3175 1250 
z
" transform="scale(0.015625)"/>
      <path id="SimHei-53ef" d="M 3600 3500 
Q 3575 3175 3575 2775 
L 3575 1550 
Q 3575 1125 3600 825 
L 3075 825 
L 3075 1275 
L 1650 1275 
L 1650 600 
L 1150 600 
Q 1175 775 1175 1175 
L 1175 2775 
Q 1175 3175 1150 3500 
L 3600 3500 
z
M 5200 4675 
Q 5600 4675 6050 4700 
L 6050 4225 
Q 5650 4250 5225 4250 
L 5075 4250 
L 5075 125 
Q 5075 -325 4812 -462 
Q 4550 -600 3750 -675 
Q 3700 -350 3550 -75 
Q 4075 -100 4300 -50 
Q 4525 0 4525 225 
L 4525 4250 
L 1525 4250 
Q 875 4250 350 4225 
L 350 4700 
Q 875 4675 1500 4675 
L 5200 4675 
z
M 3075 1700 
L 3075 3075 
L 1650 3075 
L 1650 1700 
L 3075 1700 
z
" transform="scale(0.015625)"/>
      <path id="SimHei-884c" d="M 5300 3100 
Q 5775 3100 6175 3125 
L 6175 2625 
Q 5775 2650 5325 2650 
L 4975 2650 
L 4975 -75 
Q 5000 -375 4787 -487 
Q 4575 -600 3950 -675 
Q 3900 -375 3675 -75 
Q 4100 -125 4275 -112 
Q 4450 -100 4475 150 
L 4475 2650 
L 3475 2650 
Q 3000 2650 2575 2625 
L 2575 3125 
Q 3025 3100 3475 3100 
L 5300 3100 
z
M 2300 3400 
Q 2075 3275 1962 3075 
Q 1850 2875 1650 2575 
L 1650 325 
Q 1650 0 1675 -675 
L 1150 -675 
Q 1175 75 1175 450 
L 1175 2050 
Q 950 1675 575 1300 
Q 400 1550 250 1725 
Q 825 2275 1150 2775 
Q 1475 3275 1725 3725 
Q 1975 3575 2300 3400 
z
M 4875 4800 
Q 5300 4800 5750 4825 
L 5750 4350 
Q 5300 4375 4825 4375 
L 3900 4375 
Q 3350 4375 2950 4350 
L 2950 4825 
Q 3350 4800 3900 4800 
L 4875 4800 
z
M 2075 4925 
Q 1875 4900 1550 4387 
Q 1225 3875 650 3250 
Q 500 3450 325 3625 
Q 725 4025 1050 4487 
Q 1375 4950 1525 5300 
Q 1775 5150 2075 4925 
z
" transform="scale(0.015625)"/>
     </defs>
     <use xlink:href="#SimHei-5747"/>
     <use xlink:href="#SimHei-4fdd" transform="translate(100 0)"/>
     <use xlink:href="#SimHei-6301" transform="translate(200 0)"/>
     <use xlink:href="#SimHei-53ef" transform="translate(300 0)"/>
     <use xlink:href="#SimHei-884c" transform="translate(400 0)"/>
    </g>
   </g>
   <g id="text_11">
    <!-- 单元专属 -->
    <g transform="translate(154.926 57.366399) scale(0.09 -0.09)">
     <defs>
      <path id="SimHei-4e13" d="M 4450 -600 
Q 3975 -350 1975 400 
Q 2100 700 2150 875 
Q 2625 700 3425 400 
Q 3825 825 4325 1475 
L 2525 1475 
Q 2125 1450 1950 1400 
Q 1950 1550 1750 1875 
Q 2000 2000 2200 2625 
L 1225 2625 
Q 750 2625 375 2600 
L 375 3100 
Q 750 3075 1225 3075 
L 2350 3075 
L 2575 3825 
L 1625 3825 
Q 1225 3825 950 3800 
L 950 4275 
Q 1225 4250 1625 4250 
L 2675 4250 
Q 2850 4850 2900 5250 
Q 3375 5175 3450 5175 
Q 3325 4800 3175 4250 
L 4525 4250 
Q 4875 4250 5375 4275 
L 5375 3800 
Q 5025 3825 4525 3825 
L 3075 3825 
L 2850 3075 
L 5075 3075 
Q 5450 3075 5950 3100 
L 5950 2600 
Q 5575 2625 5100 2625 
L 2725 2625 
Q 2550 2150 2475 1925 
L 5200 1925 
L 5200 1500 
Q 5025 1450 4587 1000 
Q 4150 550 3875 200 
Q 4525 -50 4700 -100 
L 4450 -600 
z
" transform="scale(0.015625)"/>
      <path id="SimHei-5c5e" d="M 5550 3100 
Q 4450 3050 3825 3025 
L 3825 2675 
L 5375 2675 
Q 5350 2400 5350 2125 
Q 5350 1850 5375 1575 
L 3825 1575 
L 3825 1250 
L 5875 1250 
Q 5850 850 5850 525 
L 5850 -150 
Q 5825 -375 5687 -462 
Q 5550 -550 5000 -650 
Q 4950 -400 4775 -150 
Q 5100 -150 5262 -137 
Q 5425 -125 5400 125 
L 5400 900 
L 3825 900 
L 3825 450 
Q 4200 475 4425 500 
Q 4350 625 4300 700 
Q 4525 775 4650 875 
Q 4925 475 5125 125 
Q 4950 50 4725 -75 
Q 4675 25 4600 150 
Q 4375 150 3800 87 
Q 3225 25 2600 -75 
Q 2575 125 2450 375 
Q 3000 375 3400 425 
L 3400 900 
L 2200 900 
L 2200 -550 
L 1750 -550 
Q 1775 -200 1775 325 
Q 1775 850 1750 1250 
L 3400 1250 
L 3400 1575 
L 2000 1575 
Q 2025 1875 2025 2125 
Q 2025 2400 2000 2675 
L 3400 2675 
L 3400 3000 
Q 2475 2950 1950 2925 
Q 1900 3150 1775 3350 
Q 2700 3350 3612 3400 
Q 4525 3450 5250 3575 
Q 5375 3325 5550 3100 
z
M 5525 5000 
Q 5500 4600 5500 4300 
Q 5500 4025 5525 3750 
L 1475 3750 
Q 1475 3050 1462 2487 
Q 1450 1925 1375 1437 
Q 1300 950 1162 512 
Q 1025 75 750 -450 
Q 525 -325 250 -225 
Q 675 450 837 1100 
Q 1000 1750 1012 2487 
Q 1025 3225 1025 3675 
Q 1025 4125 1000 5000 
L 5525 5000 
z
M 5050 4100 
L 5050 4600 
L 1475 4600 
L 1475 4100 
L 5050 4100 
z
M 4950 1925 
L 4950 2350 
L 3825 2350 
L 3825 1925 
L 4950 1925 
z
M 3400 1925 
L 3400 2350 
L 2425 2350 
L 2425 1925 
L 3400 1925 
z
" transform="scale(0.015625)"/>
     </defs>
     <use xlink:href="#SimHei-5355"/>
     <use xlink:href="#SimHei-5143" transform="translate(100 0)"/>
     <use xlink:href="#SimHei-4e13" transform="translate(200 0)"/>
     <use xlink:href="#SimHei-5c5e" transform="translate(300 0)"/>
    </g>
    <!-- 坐标映射 -->
    <g transform="translate(154.926 66.819915) scale(0.09 -0.09)">
     <use xlink:href="#SimHei-5750"/>
     <use xlink:href="#SimHei-6807" transform="translate(100 0)"/>
     <use xlink:href="#SimHei-6620" transform="translate(200 0)"/>
     <use xlink:href="#SimHei-5c04" transform="translate(300 0)"/>
    </g>
   </g>
  </g>
 </g>
 <defs>
  <clipPath id="p8233550917">
   <rect x="7.2" y="7.395165" width="334.8" height="135.828"/>
  </clipPath>
 </defs>
</svg>
