<?xml version="1.0" encoding="utf-8" standalone="no"?>
<!DOCTYPE svg PUBLIC "-//W3C//DTD SVG 1.1//EN"
  "http://www.w3.org/Graphics/SVG/1.1/DTD/svg11.dtd">
<svg xmlns:xlink="http://www.w3.org/1999/xlink" width="216.255736pt" height="347.494875pt" viewBox="0 0 216.255736 347.494875" xmlns="http://www.w3.org/2000/svg" version="1.1">
 <metadata>
  <rdf:RDF xmlns:dc="http://purl.org/dc/elements/1.1/" xmlns:cc="http://creativecommons.org/ns#" xmlns:rdf="http://www.w3.org/1999/02/22-rdf-syntax-ns#">
   <cc:Work>
    <dc:type rdf:resource="http://purl.org/dc/dcmitype/StillImage"/>
    <dc:date>2026-06-08T13:13:08.447939</dc:date>
    <dc:format>image/svg+xml</dc:format>
    <dc:creator>
     <cc:Agent>
      <dc:title>Matplotlib v3.10.6, https://matplotlib.org/</dc:title>
     </cc:Agent>
    </dc:creator>
   </cc:Work>
  </rdf:RDF>
 </metadata>
 <defs>
  <style type="text/css">*{stroke-linejoin: round; stroke-linecap: butt}</style>
 </defs>
 <g id="figure_1">
  <g id="patch_1">
   <path d="M 0 347.494875 
L 216.255736 347.494875 
L 216.255736 0 
L 0 0 
z
" style="fill: #ffffff"/>
  </g>
  <g id="axes_1">
   <g id="patch_2">
    <path d="M 28.401216 74.283675 
L 75.575616 74.283675 
L 75.575616 29.730075 
L 57.649344 29.730075 
L 57.649344 52.897947 
L 28.401216 52.897947 
z
" clip-path="url(#p42f902862b)" style="fill: #eef0ff; stroke: #000080; stroke-linejoin: miter"/>
   </g>
   <g id="text_1">
    <!-- L形 -->
    <g transform="translate(14.196094 58.756875) rotate(-90) scale(0.09 -0.09)">
     <defs>
      <path id="SimHei-4c" d="M 2900 125 
L 300 125 
L 300 4400 
L 875 4400 
L 875 600 
L 2900 600 
L 2900 125 
z
" transform="scale(0.015625)"/>
      <path id="SimHei-5f62" d="M 2750 4850 
Q 3350 4850 3675 4875 
L 3675 4425 
Q 3400 4450 2950 4450 
L 2950 2700 
Q 3475 2700 3725 2725 
L 3725 2250 
Q 3500 2275 2950 2275 
L 2950 500 
Q 2950 -50 2975 -350 
L 2475 -350 
Q 2500 0 2500 475 
L 2500 2275 
L 1650 2275 
Q 1600 1075 1325 437 
Q 1050 -200 825 -500 
Q 550 -300 300 -250 
Q 700 150 937 762 
Q 1175 1375 1200 2275 
Q 775 2275 425 2250 
L 425 2725 
Q 775 2700 1225 2700 
L 1225 4450 
Q 800 4450 600 4425 
L 600 4875 
Q 800 4850 1375 4850 
L 2750 4850 
z
M 6100 1275 
Q 5850 1050 5150 462 
Q 4450 -125 3800 -525 
Q 3650 -300 3400 -100 
Q 4050 175 4725 750 
Q 5400 1325 5625 1650 
Q 5800 1450 6100 1275 
z
M 2500 2700 
L 2500 4450 
L 1675 4450 
L 1675 2700 
L 2500 2700 
z
M 5875 2975 
Q 5650 2825 5187 2300 
Q 4725 1775 3900 1175 
Q 3750 1375 3475 1550 
Q 4175 1950 4625 2412 
Q 5075 2875 5375 3325 
Q 5700 3050 5875 2975 
z
M 5675 4800 
Q 5425 4575 5062 4087 
Q 4700 3600 4075 2975 
Q 3850 3150 3625 3275 
Q 4175 3750 4475 4125 
Q 4775 4500 5125 5100 
Q 5250 5025 5675 4800 
z
" transform="scale(0.015625)"/>
     </defs>
     <use xlink:href="#SimHei-4c"/>
     <use xlink:href="#SimHei-5f62" transform="translate(50 0)"/>
    </g>
   </g>
   <g id="text_2">
    <!-- 原始区域 -->
    <g transform="translate(31.988416 15.246875) scale(0.1 -0.1)">
     <defs>
      <path id="SimHei-539f" d="M 3850 4275 
Q 3675 4025 3600 3700 
L 5450 3700 
Q 5425 3475 5425 3000 
L 5425 2225 
Q 5425 1825 5450 1475 
L 4050 1475 
L 4050 -50 
Q 4050 -400 3825 -487 
Q 3600 -575 3100 -625 
Q 3050 -325 2925 -50 
Q 3400 -75 3475 -37 
Q 3550 0 3550 175 
L 3550 1475 
L 2125 1475 
Q 2150 1775 2150 2200 
L 2150 3025 
Q 2150 3425 2125 3700 
L 3150 3700 
Q 3300 4250 3300 4425 
L 3850 4275 
z
M 275 -325 
Q 725 275 875 1037 
Q 1025 1800 1025 2300 
L 1025 4125 
Q 1025 4650 1000 4900 
L 5025 4900 
Q 5575 4900 5800 4925 
L 5800 4475 
Q 5600 4500 5025 4500 
L 1525 4500 
L 1525 2375 
Q 1500 1650 1412 1112 
Q 1325 575 1137 125 
Q 950 -325 800 -575 
Q 550 -400 275 -325 
z
M 4925 2775 
L 4925 3325 
L 2625 3325 
L 2625 2775 
L 4925 2775 
z
M 4925 1875 
L 4925 2400 
L 2625 2400 
L 2625 1875 
L 4925 1875 
z
M 1475 -50 
Q 1800 150 2087 450 
Q 2375 750 2575 1100 
Q 2800 875 2975 750 
Q 2300 -50 1825 -400 
Q 1675 -225 1475 -50 
z
M 4825 1075 
Q 5700 300 5925 25 
Q 5750 -125 5575 -325 
Q 5250 75 4500 725 
Q 4675 925 4825 1075 
z
" transform="scale(0.015625)"/>
      <path id="SimHei-59cb" d="M 1750 5075 
Q 1650 4900 1587 4587 
Q 1525 4275 1475 3875 
L 2550 3875 
Q 2400 2150 1950 1100 
Q 2275 850 2725 425 
Q 2550 275 2375 50 
Q 2000 500 1750 675 
Q 1525 275 1250 -62 
Q 975 -400 700 -675 
Q 600 -525 250 -350 
Q 575 -125 862 200 
Q 1150 525 1375 975 
Q 800 1400 500 1550 
Q 875 2925 950 3425 
Q 650 3425 325 3400 
L 325 3900 
Q 675 3875 1025 3875 
Q 1175 4825 1175 5225 
Q 1550 5125 1750 5075 
z
M 5725 2050 
Q 5700 1650 5700 650 
Q 5700 -325 5725 -650 
L 5200 -650 
L 5200 -100 
L 3450 -100 
L 3450 -675 
L 2950 -675 
Q 2975 -300 2975 675 
Q 2975 1650 2950 2050 
L 5725 2050 
z
M 4400 4950 
Q 3750 3875 3250 3150 
Q 3875 3150 4250 3175 
Q 4625 3200 5200 3225 
Q 4875 3675 4625 3900 
Q 4825 4000 5025 4225 
Q 5750 3300 6125 2850 
Q 6000 2775 5725 2550 
Q 5575 2775 5450 2875 
Q 4575 2825 3937 2762 
Q 3300 2700 2825 2575 
Q 2775 2800 2600 3100 
Q 2875 3225 3237 3850 
Q 3600 4475 3825 5200 
Q 4025 5050 4400 4950 
z
M 5200 325 
L 5200 1600 
L 3450 1600 
L 3450 325 
L 5200 325 
z
M 1025 1775 
Q 1300 1550 1575 1400 
Q 1725 1725 1875 2337 
Q 2025 2950 2050 3425 
L 1400 3425 
Q 1300 2950 1025 1775 
z
" transform="scale(0.015625)"/>
      <path id="SimHei-533a" d="M 5850 4525 
Q 5475 4550 4850 4550 
L 1150 4550 
L 1150 -75 
L 5225 -75 
Q 5725 -75 6025 -50 
L 6025 -500 
Q 5700 -475 5175 -475 
L 625 -475 
Q 650 125 650 400 
L 650 4200 
Q 650 4625 625 4975 
L 5850 4975 
L 5850 4525 
z
M 2275 3875 
Q 3150 3275 3800 2700 
Q 4375 3375 4650 4050 
Q 4925 3875 5300 3700 
Q 5025 3525 4825 3225 
Q 4625 2925 4225 2375 
Q 5075 1675 5600 1000 
Q 5300 800 5175 575 
Q 4775 1175 3850 1950 
Q 3475 1525 3087 1175 
Q 2700 825 2125 400 
Q 1900 625 1625 775 
Q 2125 1000 2525 1312 
Q 2925 1625 3475 2300 
Q 2850 2875 1925 3450 
Q 2175 3650 2275 3875 
z
" transform="scale(0.015625)"/>
      <path id="SimHei-57df" d="M 4550 5100 
Q 4475 4775 4500 4150 
L 5025 4150 
Q 5450 4150 5950 4175 
L 5950 3700 
Q 5475 3725 5025 3725 
L 4525 3725 
Q 4550 3050 4600 2462 
Q 4650 1875 4775 1275 
Q 4975 1850 5050 2275 
Q 5125 2700 5175 3200 
Q 5425 3075 5750 3000 
Q 5675 2875 5537 2337 
Q 5400 1800 5287 1450 
Q 5175 1100 5025 700 
Q 5125 450 5312 237 
Q 5500 25 5587 212 
Q 5675 400 5750 700 
Q 5900 525 6200 400 
Q 6000 -100 5800 -337 
Q 5600 -575 5250 -325 
Q 4900 -75 4725 300 
Q 4575 75 4362 -175 
Q 4150 -425 3875 -650 
Q 3750 -525 3400 -325 
Q 3750 -150 4037 162 
Q 4325 475 4475 775 
Q 4350 1175 4287 1512 
Q 4225 1850 4162 2450 
Q 4100 3050 4075 3725 
L 3150 3725 
Q 2525 3725 1975 3700 
L 1975 4175 
Q 2525 4150 3150 4150 
L 4050 4150 
Q 4025 4600 3950 5175 
Q 4250 5125 4550 5100 
z
M 975 4250 
Q 975 4800 950 5100 
L 1450 5100 
Q 1425 4750 1425 4250 
L 1425 3325 
Q 1625 3325 2000 3350 
L 2000 2900 
Q 1625 2925 1425 2925 
L 1425 1000 
Q 1550 1075 2000 1275 
Q 1975 1075 2000 775 
Q 1675 625 1200 425 
Q 725 225 500 50 
Q 375 325 250 575 
Q 475 625 662 687 
Q 850 750 975 825 
L 975 2925 
Q 625 2925 300 2900 
L 300 3350 
Q 600 3325 975 3325 
L 975 4250 
z
M 3800 1750 
Q 3800 1425 3825 1150 
L 2225 1150 
Q 2250 1375 2250 1575 
L 2250 2525 
Q 2250 2825 2225 3075 
L 3825 3075 
Q 3800 2875 3800 2675 
L 3800 1750 
z
M 1900 225 
Q 2300 300 2850 462 
Q 3400 625 3825 800 
Q 3800 600 3800 350 
Q 3500 250 3012 75 
Q 2525 -100 2125 -275 
Q 2025 -25 1900 225 
z
M 3350 1525 
L 3350 2700 
L 2725 2700 
L 2725 1525 
L 3350 1525 
z
M 5300 4325 
Q 5150 4625 4900 4925 
Q 5050 5050 5250 5150 
Q 5450 4900 5700 4575 
Q 5475 4475 5300 4325 
z
" transform="scale(0.015625)"/>
     </defs>
     <use xlink:href="#SimHei-539f"/>
     <use xlink:href="#SimHei-59cb" transform="translate(100 0)"/>
     <use xlink:href="#SimHei-533a" transform="translate(200 0)"/>
     <use xlink:href="#SimHei-57df" transform="translate(300 0)"/>
    </g>
   </g>
  </g>
  <g id="axes_2">
   <g id="patch_3">
    <path d="M 151.398136 74.283675 
L 180.226936 74.283675 
L 180.226936 53.317275 
L 151.398136 53.317275 
z
" clip-path="url(#p639b06283e)" style="fill: #d8ecec; stroke: #000080; stroke-linejoin: miter"/>
   </g>
   <g id="patch_4">
    <path d="M 180.226936 74.283675 
L 199.882936 74.283675 
L 199.882936 29.730075 
L 180.226936 29.730075 
z
" clip-path="url(#p639b06283e)" style="fill: #c8ffd2; stroke: #000080; stroke-linejoin: miter"/>
   </g>
   <g id="line2d_1">
    <path d="M 180.226936 74.283675 
L 180.226936 53.317275 
" clip-path="url(#p639b06283e)" style="fill: none; stroke-dasharray: 2.96,1.28; stroke-dashoffset: 0; stroke: #c95f35; stroke-width: 0.8"/>
   </g>
   <g id="text_3">
    <!-- 0 -->
    <g transform="translate(163.267536 66.007975) scale(0.08 -0.08)">
     <defs>
      <path id="DejaVuSans-30" d="M 2034 4250 
Q 1547 4250 1301 3770 
Q 1056 3291 1056 2328 
Q 1056 1369 1301 889 
Q 1547 409 2034 409 
Q 2525 409 2770 889 
Q 3016 1369 3016 2328 
Q 3016 3291 2770 3770 
Q 2525 4250 2034 4250 
z
M 2034 4750 
Q 2819 4750 3233 4129 
Q 3647 3509 3647 2328 
Q 3647 1150 3233 529 
Q 2819 -91 2034 -91 
Q 1250 -91 836 529 
Q 422 1150 422 2328 
Q 422 3509 836 4129 
Q 1250 4750 2034 4750 
z
" transform="scale(0.015625)"/>
     </defs>
     <use xlink:href="#DejaVuSans-30"/>
    </g>
   </g>
   <g id="text_4">
    <!-- 1 -->
    <g transform="translate(187.509936 52.248775) scale(0.08 -0.08)">
     <defs>
      <path id="DejaVuSans-31" d="M 794 531 
L 1825 531 
L 1825 4091 
L 703 3866 
L 703 4441 
L 1819 4666 
L 2450 4666 
L 2450 531 
L 3481 531 
L 3481 0 
L 794 0 
L 794 531 
z
" transform="scale(0.015625)"/>
     </defs>
     <use xlink:href="#DejaVuSans-31"/>
    </g>
   </g>
   <g id="text_5">
    <!-- 分解结果 -->
    <g transform="translate(156.295736 15.246875) scale(0.1 -0.1)">
     <defs>
      <path id="SimHei-5206" d="M 1000 -650 
Q 825 -375 575 -225 
Q 975 -75 1300 137 
Q 1625 350 1875 662 
Q 2125 975 2250 1350 
Q 2375 1725 2425 2275 
Q 1850 2275 1500 2250 
L 1500 2775 
Q 1900 2750 2525 2750 
L 5025 2750 
Q 4975 2375 4950 2100 
L 4750 250 
Q 4700 -200 4350 -350 
Q 4000 -500 3575 -525 
Q 3550 -275 3325 50 
Q 3850 25 4037 87 
Q 4225 150 4275 525 
L 4450 2275 
L 2950 2275 
Q 2875 1625 2737 1187 
Q 2600 750 2350 425 
Q 2100 100 1750 -175 
Q 1400 -450 1000 -650 
z
M 3950 5175 
Q 4125 4650 4662 3975 
Q 5200 3300 6175 2800 
Q 5975 2625 5775 2275 
Q 5325 2600 4987 2887 
Q 4650 3175 4425 3425 
Q 4200 3675 3925 4137 
Q 3650 4600 3475 5000 
Q 3750 5075 3950 5175 
z
M 2700 4825 
Q 2475 4425 2325 4125 
Q 2175 3825 2025 3587 
Q 1875 3350 1575 2950 
Q 1275 2550 850 2125 
Q 625 2350 400 2475 
Q 900 2925 1187 3300 
Q 1475 3675 1737 4112 
Q 2000 4550 2200 5075 
Q 2400 4925 2700 4825 
z
" transform="scale(0.015625)"/>
      <path id="SimHei-89e3" d="M 1925 5025 
Q 1725 4925 1625 4575 
L 2925 4575 
Q 2800 4400 2600 4100 
Q 2400 3800 2325 3650 
L 3225 3650 
Q 3175 3150 3175 2650 
L 3175 75 
Q 3175 -225 3012 -312 
Q 2850 -400 2500 -450 
Q 2450 -175 2350 75 
Q 2550 75 2650 87 
Q 2750 100 2750 325 
L 2750 1150 
L 2225 1150 
L 2225 -25 
L 1800 -25 
L 1800 1150 
L 1275 1150 
Q 1250 775 1150 375 
Q 1050 -25 825 -500 
Q 600 -375 350 -250 
Q 600 100 725 612 
Q 850 1125 875 1925 
Q 900 2725 875 3525 
Q 675 3300 550 3175 
Q 400 3375 200 3525 
Q 575 3825 887 4262 
Q 1200 4700 1400 5300 
Q 1600 5175 1925 5025 
z
M 4325 2425 
Q 4200 2325 4150 2125 
L 4575 2125 
Q 4575 2650 4550 2825 
L 5050 2825 
Q 5000 2600 5000 2125 
L 5350 2125 
Q 5725 2125 5950 2150 
L 5950 1700 
Q 5625 1750 5300 1750 
L 5000 1750 
L 5000 1025 
L 5175 1025 
Q 5650 1025 6150 1050 
L 6150 625 
Q 5675 650 5175 650 
L 5000 650 
L 5000 225 
Q 5000 -125 5025 -650 
L 4550 -650 
Q 4575 -125 4575 225 
L 4575 650 
L 4025 650 
Q 3750 650 3325 625 
L 3325 1050 
Q 3700 1025 4025 1025 
L 4575 1025 
L 4575 1750 
L 3950 1750 
Q 3875 1550 3725 1250 
Q 3550 1350 3325 1525 
Q 3500 1725 3625 2050 
Q 3750 2375 3825 2675 
L 4325 2425 
z
M 4900 2975 
Q 4850 3250 4725 3500 
Q 5000 3500 5162 3525 
Q 5325 3550 5350 3675 
Q 5375 3800 5425 4550 
L 4525 4550 
Q 4375 3850 4225 3537 
Q 4075 3225 3750 2850 
Q 3600 3050 3350 3225 
Q 3625 3425 3800 3737 
Q 3975 4050 4050 4550 
Q 3750 4550 3325 4525 
L 3325 4950 
Q 3725 4925 4050 4925 
L 5925 4925 
Q 5850 3700 5787 3450 
Q 5725 3200 5475 3100 
Q 5225 3000 4900 2975 
z
M 1825 3650 
Q 2025 3900 2175 4200 
L 1375 4200 
Q 1150 3900 975 3650 
L 1825 3650 
z
M 2750 1550 
L 2750 2225 
L 2225 2225 
L 2225 1550 
L 2750 1550 
z
M 2750 2600 
L 2750 3275 
L 2225 3275 
L 2225 2600 
L 2750 2600 
z
M 1800 1550 
L 1800 2225 
L 1325 2225 
L 1300 1550 
L 1800 1550 
z
M 1800 2600 
L 1800 3275 
L 1325 3275 
L 1325 2600 
L 1800 2600 
z
" transform="scale(0.015625)"/>
      <path id="SimHei-7ed3" d="M 5725 1925 
Q 5700 1600 5700 1200 
L 5700 350 
Q 5700 -125 5725 -475 
L 5225 -475 
L 5225 0 
L 3525 0 
L 3525 -525 
L 3025 -525 
Q 3050 125 3050 325 
L 3050 1250 
Q 3050 1550 3025 1925 
L 5725 1925 
z
M 1900 4850 
Q 1700 4600 1475 4200 
Q 1250 3800 925 3200 
Q 1475 3225 1725 3225 
Q 1950 3625 2100 4000 
Q 2350 3825 2650 3675 
Q 2525 3575 2212 3125 
Q 1900 2675 1225 1650 
Q 2050 1775 2525 1850 
Q 2450 1575 2450 1375 
Q 2225 1350 1650 1275 
Q 1075 1200 525 1050 
Q 425 1300 350 1550 
Q 650 1625 950 2012 
Q 1250 2400 1475 2825 
Q 1300 2825 962 2787 
Q 625 2750 375 2675 
Q 300 2925 225 3150 
Q 500 3375 812 3925 
Q 1125 4475 1300 5125 
Q 1600 4975 1900 4850 
z
M 4075 4175 
Q 4075 4600 4050 5175 
L 4575 5175 
Q 4550 4725 4550 4175 
L 5275 4175 
Q 5750 4175 6150 4200 
L 6150 3750 
Q 5750 3775 5300 3775 
L 4550 3775 
L 4550 2950 
L 5125 2950 
Q 5475 2950 5825 2975 
L 5825 2525 
Q 5525 2550 5100 2550 
L 3650 2550 
Q 3225 2550 2900 2525 
L 2900 2975 
Q 3225 2950 3600 2950 
L 4075 2950 
L 4075 3775 
L 3525 3775 
Q 3075 3775 2675 3750 
L 2675 4200 
Q 3000 4175 3475 4175 
L 4075 4175 
z
M 5225 400 
L 5225 1525 
L 3525 1525 
L 3525 400 
L 5225 400 
z
M 2575 650 
Q 2500 425 2525 175 
Q 2050 100 1450 0 
Q 850 -100 425 -225 
Q 325 100 225 350 
Q 750 375 1175 437 
Q 1600 500 2575 650 
z
" transform="scale(0.015625)"/>
      <path id="SimHei-679c" d="M 2975 -525 
Q 3000 -75 3000 575 
L 3000 1600 
L 2900 1600 
Q 2725 1275 2500 1000 
Q 2275 725 1987 512 
Q 1700 300 1362 100 
Q 1025 -100 675 -250 
Q 575 25 400 275 
Q 700 350 975 487 
Q 1250 625 1525 787 
Q 1800 950 2000 1150 
Q 2200 1350 2375 1600 
L 1375 1600 
Q 1000 1600 450 1550 
L 450 2050 
Q 950 2000 1375 2000 
L 3000 2000 
L 3000 2450 
L 1150 2450 
Q 1175 3050 1175 3775 
Q 1175 4500 1150 5000 
L 5325 5000 
Q 5300 4500 5300 3775 
Q 5300 3050 5325 2450 
L 3475 2450 
L 3475 2000 
L 5050 2000 
Q 5550 2000 5925 2025 
L 5925 1550 
Q 5500 1600 5100 1600 
L 4125 1600 
Q 4450 1075 4925 800 
Q 5400 525 6050 375 
Q 5875 150 5775 -175 
Q 4925 150 4425 550 
Q 3925 950 3675 1600 
L 3475 1600 
L 3475 550 
Q 3475 0 3500 -525 
L 2975 -525 
z
M 4825 3875 
L 4825 4625 
L 3475 4625 
L 3475 3875 
L 4825 3875 
z
M 3000 3875 
L 3000 4625 
L 1675 4625 
L 1675 3875 
L 3000 3875 
z
M 4825 2825 
L 4825 3500 
L 3475 3500 
L 3475 2825 
L 4825 2825 
z
M 3000 2825 
L 3000 3500 
L 1675 3500 
L 1675 2825 
L 3000 2825 
z
" transform="scale(0.015625)"/>
     </defs>
     <use xlink:href="#SimHei-5206"/>
     <use xlink:href="#SimHei-89e3" transform="translate(100 0)"/>
     <use xlink:href="#SimHei-7ed3" transform="translate(200 0)"/>
     <use xlink:href="#SimHei-679c" transform="translate(300 0)"/>
    </g>
   </g>
  </g>
  <g id="axes_3">
   <g id="patch_5">
    <path d="M 27.090816 160.770075 
L 76.886016 160.770075 
L 76.886016 114.906075 
L 27.090816 114.906075 
z
" clip-path="url(#pb4dc7d753e)" style="fill: #eef0ff; stroke: #000080; stroke-linejoin: miter"/>
   </g>
   <g id="patch_6">
    <path d="M 47.402016 145.045275 
L 56.574816 145.045275 
L 56.574816 130.630875 
L 47.402016 130.630875 
L 47.402016 145.045275 
z
" clip-path="url(#pb4dc7d753e)" style="fill: none; stroke-dasharray: 3.33,1.44; stroke-dashoffset: 0; stroke: #c95f35; stroke-width: 0.9; stroke-linejoin: miter"/>
   </g>
   <g id="text_6">
    <!-- 带空洞 -->
    <g transform="translate(14.389453 150.682875) rotate(-90) scale(0.09 -0.09)">
     <defs>
      <path id="SimHei-5e26" d="M 5225 1875 
Q 5200 1525 5200 1175 
L 5200 525 
Q 5200 0 4962 -125 
Q 4725 -250 4200 -300 
Q 4150 25 4000 250 
Q 4575 225 4637 300 
Q 4700 375 4700 575 
L 4700 1450 
L 3425 1450 
L 3425 325 
Q 3425 -75 3450 -575 
L 2900 -575 
Q 2925 -75 2925 325 
L 2925 1450 
L 1675 1450 
L 1675 -125 
L 1150 -125 
Q 1175 225 1175 850 
Q 1175 1475 1150 1875 
L 2925 1875 
Q 2925 2200 2900 2525 
L 3450 2525 
Q 3425 2200 3425 1875 
L 5225 1875 
z
M 3450 4050 
Q 3450 3775 3475 3400 
L 2950 3400 
Q 2975 3750 2975 4050 
L 2050 4050 
Q 2050 3700 2075 3350 
L 1575 3350 
Q 1600 3700 1600 4050 
L 1100 4050 
Q 950 4050 425 4000 
L 425 4500 
Q 950 4475 1125 4475 
L 1600 4475 
Q 1600 4875 1575 5175 
L 2075 5175 
Q 2050 4800 2050 4475 
L 2975 4475 
Q 2975 4800 2950 5175 
L 3475 5175 
Q 3450 4800 3450 4475 
L 4350 4475 
L 4350 5150 
L 4825 5150 
Q 4800 4875 4800 4475 
L 5100 4475 
Q 5350 4475 5950 4500 
L 5950 4000 
Q 5350 4050 5100 4050 
L 4800 4050 
Q 4800 3700 4825 3400 
L 4350 3400 
L 4350 4050 
L 3450 4050 
z
M 5925 1950 
L 5475 1950 
L 5475 2675 
L 925 2675 
L 925 1950 
L 450 1950 
Q 475 2300 475 2575 
Q 475 2850 450 3100 
L 5925 3100 
L 5925 1950 
z
" transform="scale(0.015625)"/>
      <path id="SimHei-7a7a" d="M 4025 1925 
Q 4700 1925 5225 1975 
L 5225 1450 
Q 4725 1500 4025 1500 
L 3475 1500 
L 3475 0 
L 5000 0 
Q 5725 0 6175 50 
L 6175 -475 
Q 5750 -425 5050 -425 
L 1750 -425 
Q 775 -425 350 -475 
L 350 50 
Q 825 0 1800 0 
L 2925 0 
L 2925 1500 
L 2300 1500 
Q 1625 1500 1125 1450 
L 1125 1975 
Q 1600 1925 2375 1925 
L 4025 1925 
z
M 5250 3250 
L 5250 3925 
L 1150 3925 
L 1150 3175 
L 600 3175 
Q 625 3425 625 3750 
Q 625 4100 600 4375 
L 3100 4375 
Q 2950 4725 2750 5075 
Q 3000 5200 3300 5300 
Q 3500 4850 3650 4525 
Q 3400 4450 3175 4375 
L 5825 4375 
Q 5800 4150 5800 3775 
Q 5800 3425 5825 3250 
L 5250 3250 
z
M 3975 3525 
Q 4275 3400 4762 3175 
Q 5250 2950 5925 2550 
Q 5675 2275 5575 2075 
Q 5100 2375 4650 2625 
Q 4200 2875 3675 3125 
Q 3800 3275 3975 3525 
z
M 2700 3225 
Q 2425 3100 1937 2737 
Q 1450 2375 825 2000 
Q 675 2225 450 2450 
Q 925 2650 1375 2962 
Q 1825 3275 2150 3650 
Q 2400 3425 2700 3225 
z
" transform="scale(0.015625)"/>
      <path id="SimHei-6d1e" d="M 5900 4900 
Q 5875 4350 5875 3875 
L 5875 225 
Q 5875 -275 5612 -387 
Q 5350 -500 4900 -575 
Q 4825 -300 4650 -25 
Q 5100 -25 5250 12 
Q 5400 50 5400 350 
L 5400 4475 
L 2650 4475 
L 2650 -600 
L 2150 -600 
Q 2175 -50 2175 425 
L 2175 3925 
Q 2175 4375 2150 4900 
L 5900 4900 
z
M 4850 2725 
Q 4825 2325 4825 1675 
Q 4825 1050 4850 700 
L 3175 700 
Q 3200 1025 3200 1725 
Q 3200 2425 3175 2725 
L 4850 2725 
z
M 1775 1500 
Q 1650 1250 1387 625 
Q 1125 0 900 -500 
Q 675 -350 375 -225 
Q 575 50 850 637 
Q 1125 1225 1325 1825 
Q 1500 1650 1775 1500 
z
M 4375 1100 
L 4375 2325 
L 3650 2325 
L 3650 1100 
L 4375 1100 
z
M 4950 3350 
Q 4700 3375 4050 3375 
Q 3400 3375 3075 3350 
L 3075 3800 
Q 3375 3775 4050 3775 
Q 4725 3775 4950 3800 
L 4950 3350 
z
M 575 3575 
Q 1150 3225 1700 2850 
Q 1525 2675 1375 2425 
Q 850 2825 300 3150 
Q 450 3350 575 3575 
z
M 925 5150 
Q 1400 4825 1925 4350 
Q 1675 4150 1525 3950 
Q 1075 4425 575 4800 
Q 800 5000 925 5150 
z
" transform="scale(0.015625)"/>
     </defs>
     <use xlink:href="#SimHei-5e26"/>
     <use xlink:href="#SimHei-7a7a" transform="translate(100 0)"/>
     <use xlink:href="#SimHei-6d1e" transform="translate(200 0)"/>
    </g>
   </g>
  </g>
  <g id="axes_4">
   <g id="patch_7">
    <path d="M 150.087736 160.770075 
L 173.674936 160.770075 
L 173.674936 114.906075 
L 150.087736 114.906075 
z
" clip-path="url(#p2003c5e0f5)" style="fill: #d8ecec; stroke: #000080; stroke-linejoin: miter"/>
   </g>
   <g id="patch_8">
    <path d="M 173.674936 160.770075 
L 199.882936 160.770075 
L 199.882936 114.906075 
L 184.158136 114.906075 
L 184.158136 146.355675 
L 173.674936 146.355675 
z
" clip-path="url(#p2003c5e0f5)" style="fill: #c8ffd2; stroke: #000080; stroke-linejoin: miter"/>
   </g>
   <g id="patch_9">
    <path d="M 173.674936 131.941275 
L 184.158136 131.941275 
L 184.158136 114.906075 
L 173.674936 114.906075 
z
" clip-path="url(#p2003c5e0f5)" style="fill: #fff7cc; stroke: #000080; stroke-linejoin: miter"/>
   </g>
   <g id="patch_10">
    <path d="M 173.674936 160.770075 
L 184.158136 160.770075 
L 184.158136 146.355675 
L 173.674936 146.355675 
z
" clip-path="url(#p2003c5e0f5)" style="fill: #f9d6d5; stroke: #000080; stroke-linejoin: miter"/>
   </g>
   <g id="line2d_2">
    <path d="M 173.674936 160.770075 
L 173.674936 114.906075 
" clip-path="url(#p2003c5e0f5)" style="fill: none; stroke-dasharray: 2.96,1.28; stroke-dashoffset: 0; stroke: #c95f35; stroke-width: 0.8"/>
   </g>
   <g id="line2d_3">
    <path d="M 184.158136 160.770075 
L 184.158136 114.906075 
" clip-path="url(#p2003c5e0f5)" style="fill: none; stroke-dasharray: 2.96,1.28; stroke-dashoffset: 0; stroke: #c95f35; stroke-width: 0.8"/>
   </g>
   <g id="text_7">
    <!-- 0 -->
    <g transform="translate(159.336336 142.011175) scale(0.08 -0.08)">
     <use xlink:href="#DejaVuSans-30"/>
    </g>
   </g>
   <g id="text_8">
    <!-- 1 -->
    <g transform="translate(188.820336 142.011175) scale(0.08 -0.08)">
     <use xlink:href="#DejaVuSans-31"/>
    </g>
   </g>
   <g id="text_9">
    <!-- 2 -->
    <g transform="translate(176.371536 126.286375) scale(0.08 -0.08)">
     <defs>
      <path id="DejaVuSans-32" d="M 1228 531 
L 3431 531 
L 3431 0 
L 469 0 
L 469 531 
Q 828 903 1448 1529 
Q 2069 2156 2228 2338 
Q 2531 2678 2651 2914 
Q 2772 3150 2772 3378 
Q 2772 3750 2511 3984 
Q 2250 4219 1831 4219 
Q 1534 4219 1204 4116 
Q 875 4013 500 3803 
L 500 4441 
Q 881 4594 1212 4672 
Q 1544 4750 1819 4750 
Q 2544 4750 2975 4387 
Q 3406 4025 3406 3419 
Q 3406 3131 3298 2873 
Q 3191 2616 2906 2266 
Q 2828 2175 2409 1742 
Q 1991 1309 1228 531 
z
" transform="scale(0.015625)"/>
     </defs>
     <use xlink:href="#DejaVuSans-32"/>
    </g>
   </g>
   <g id="text_10">
    <!-- 3 -->
    <g transform="translate(176.371536 155.770375) scale(0.08 -0.08)">
     <defs>
      <path id="DejaVuSans-33" d="M 2597 2516 
Q 3050 2419 3304 2112 
Q 3559 1806 3559 1356 
Q 3559 666 3084 287 
Q 2609 -91 1734 -91 
Q 1441 -91 1130 -33 
Q 819 25 488 141 
L 488 750 
Q 750 597 1062 519 
Q 1375 441 1716 441 
Q 2309 441 2620 675 
Q 2931 909 2931 1356 
Q 2931 1769 2642 2001 
Q 2353 2234 1838 2234 
L 1294 2234 
L 1294 2753 
L 1863 2753 
Q 2328 2753 2575 2939 
Q 2822 3125 2822 3475 
Q 2822 3834 2567 4026 
Q 2313 4219 1838 4219 
Q 1578 4219 1281 4162 
Q 984 4106 628 3988 
L 628 4550 
Q 988 4650 1302 4700 
Q 1616 4750 1894 4750 
Q 2613 4750 3031 4423 
Q 3450 4097 3450 3541 
Q 3450 3153 3228 2886 
Q 3006 2619 2597 2516 
z
" transform="scale(0.015625)"/>
     </defs>
     <use xlink:href="#DejaVuSans-33"/>
    </g>
   </g>
  </g>
  <g id="axes_5">
   <g id="patch_11">
    <path d="M 29.056416 243.325275 
L 46.746816 243.325275 
L 46.746816 219.082875 
L 29.056416 219.082875 
z
" clip-path="url(#pa31e082212)" style="fill: #eef0ff; stroke: #000080; stroke-linejoin: miter"/>
   </g>
   <g id="text_11">
    <!-- 不连通 -->
    <g transform="translate(14.354297 235.858875) rotate(-90) scale(0.09 -0.09)">
     <defs>
      <path id="SimHei-4e0d" d="M 5975 4450 
Q 5525 4475 5200 4475 
L 3725 4475 
Q 3550 4125 3300 3700 
L 3300 575 
Q 3300 75 3325 -550 
L 2775 -550 
Q 2800 50 2800 575 
L 2800 3025 
Q 2025 1950 700 1050 
Q 500 1350 325 1475 
Q 825 1700 1650 2437 
Q 2475 3175 3175 4475 
L 1525 4475 
Q 1050 4475 525 4450 
L 525 4950 
Q 1275 4925 1675 4925 
L 5175 4925 
Q 5500 4925 5975 4950 
L 5975 4450 
z
M 5450 1125 
Q 4975 1725 3750 2975 
Q 3950 3150 4075 3325 
Q 4675 2775 5100 2362 
Q 5525 1950 5900 1550 
Q 5650 1350 5450 1125 
z
" transform="scale(0.015625)"/>
      <path id="SimHei-8fde" d="M 3175 4350 
Q 3425 4925 3475 5200 
Q 3875 5025 4050 4975 
Q 3925 4875 3675 4350 
L 5025 4350 
Q 5550 4350 5850 4375 
L 5850 3925 
Q 5525 3950 5100 3950 
L 3475 3950 
Q 3350 3700 2875 2925 
L 3875 2925 
Q 3875 3400 3850 3725 
L 4350 3725 
Q 4325 3450 4325 2925 
Q 5575 2925 5650 2950 
L 5650 2475 
Q 5500 2525 4325 2525 
L 4325 1700 
L 5250 1700 
Q 5800 1700 5950 1725 
L 5950 1275 
Q 5650 1300 5250 1300 
L 4325 1300 
Q 4325 600 4350 75 
L 3850 75 
Q 3875 600 3875 1300 
Q 2150 1300 1975 1275 
L 1975 1725 
Q 2650 1700 3875 1700 
L 3875 2525 
L 3075 2525 
Q 2525 2500 2375 2450 
L 2200 2900 
Q 2400 3025 2587 3275 
Q 2775 3525 2975 3950 
Q 2325 3950 1975 3925 
L 1975 4375 
Q 2300 4350 3175 4350 
z
M 1625 2925 
Q 1600 2425 1600 2100 
L 1600 550 
Q 2325 -75 3825 -75 
Q 5350 -75 6175 0 
Q 6025 -250 5975 -550 
Q 4975 -550 4175 -537 
Q 3375 -525 2750 -412 
Q 2125 -300 1762 -50 
Q 1400 200 1175 -12 
Q 950 -225 675 -550 
Q 525 -350 275 -175 
Q 850 300 1100 475 
L 1100 2525 
Q 775 2525 400 2500 
L 400 2950 
Q 800 2925 1125 2925 
L 1625 2925 
z
M 975 4950 
Q 1450 4275 1775 3750 
Q 1550 3675 1300 3500 
Q 1175 3875 550 4650 
Q 775 4850 975 4950 
z
" transform="scale(0.015625)"/>
      <path id="SimHei-901a" d="M 5675 5050 
Q 5325 4650 4937 4300 
Q 4550 3950 4250 3650 
L 5700 3650 
Q 5675 3100 5675 2575 
L 5675 850 
Q 5700 525 5500 425 
Q 5300 325 4900 250 
Q 4850 475 4650 775 
Q 5025 800 5150 850 
Q 5275 900 5250 1325 
L 4125 1325 
L 4125 300 
L 3675 300 
L 3675 1325 
L 2575 1325 
L 2575 300 
L 2125 300 
Q 2150 1125 2150 1950 
Q 2150 2775 2125 3650 
L 3600 3650 
Q 3475 3850 3050 4200 
Q 3225 4350 3375 4525 
Q 3825 4175 4000 4000 
Q 4400 4425 4625 4650 
L 3025 4650 
Q 2525 4650 2150 4625 
L 2150 5075 
Q 2525 5050 2975 5050 
L 5675 5050 
z
M 1425 3000 
Q 1400 2500 1400 2100 
L 1400 600 
Q 2025 -25 3700 -25 
Q 5375 -25 6150 125 
Q 6000 -175 5975 -500 
Q 3975 -525 3137 -450 
Q 2300 -375 1775 -112 
Q 1250 150 1075 -37 
Q 900 -225 650 -650 
Q 425 -400 200 -225 
Q 600 125 975 425 
L 975 2575 
Q 775 2575 350 2550 
L 350 3025 
Q 750 3000 1425 3000 
z
M 5250 1725 
L 5250 2325 
L 4125 2325 
L 4125 1725 
L 5250 1725 
z
M 3675 1725 
L 3675 2325 
L 2575 2325 
L 2575 1725 
L 3675 1725 
z
M 5250 2725 
L 5250 3275 
L 4125 3275 
L 4125 2725 
L 5250 2725 
z
M 3675 2725 
L 3675 3275 
L 2575 3275 
L 2575 2725 
L 3675 2725 
z
M 1025 5025 
Q 1450 4425 1700 4075 
Q 1425 3925 1250 3725 
Q 1075 4100 600 4725 
Q 800 4875 1025 5025 
z
" transform="scale(0.015625)"/>
     </defs>
     <use xlink:href="#SimHei-4e0d"/>
     <use xlink:href="#SimHei-8fde" transform="translate(100 0)"/>
     <use xlink:href="#SimHei-901a" transform="translate(200 0)"/>
    </g>
   </g>
  </g>
  <g id="axes_6">
   <g id="patch_12">
    <path d="M 153.363736 242.014875 
L 171.709336 242.014875 
L 171.709336 221.048475 
L 153.363736 221.048475 
z
" clip-path="url(#pfb64075ee3)" style="fill: #d8ecec; stroke: #000080; stroke-linejoin: miter"/>
   </g>
   <g id="patch_13">
    <path d="M 184.813336 219.738075 
L 201.193336 219.738075 
L 201.193336 199.426875 
L 184.813336 199.426875 
z
" clip-path="url(#pfb64075ee3)" style="fill: #c8ffd2; stroke: #000080; stroke-linejoin: miter"/>
   </g>
   <g id="text_12">
    <!-- 0 -->
    <g transform="translate(159.991536 233.739175) scale(0.08 -0.08)">
     <use xlink:href="#DejaVuSans-30"/>
    </g>
   </g>
   <g id="text_13">
    <!-- 1 -->
    <g transform="translate(190.785936 211.462375) scale(0.08 -0.08)">
     <use xlink:href="#DejaVuSans-31"/>
    </g>
   </g>
  </g>
  <g id="axes_7">
   <g id="patch_14">
    <path d="M 27.090816 330.466875 
L 74.265216 330.466875 
L 66.402816 320.638875 
L 74.265216 310.810875 
L 66.402816 300.982875 
L 74.265216 287.878875 
L 27.090816 287.878875 
z
" clip-path="url(#p91cb6df719)" style="fill: #eef0ff; stroke: #000080; stroke-linejoin: miter"/>
   </g>
   <g id="text_14">
    <!-- 锯齿形 -->
    <g transform="translate(14.407031 321.034875) rotate(-90) scale(0.09 -0.09)">
     <defs>
      <path id="SimHei-952f" d="M 3325 2550 
L 4275 2550 
Q 4275 2875 4250 3200 
L 4750 3200 
Q 4725 2875 4725 2550 
L 5275 2550 
Q 5500 2550 6000 2575 
L 6000 2125 
Q 5625 2150 5300 2150 
L 4725 2150 
L 4725 1450 
L 5725 1450 
Q 5700 1075 5700 800 
L 5700 225 
Q 5700 -150 5725 -575 
L 5250 -575 
L 5250 -200 
L 3925 -200 
L 3925 -625 
L 3475 -625 
Q 3500 -200 3500 25 
L 3500 825 
Q 3500 1125 3475 1450 
L 4275 1450 
L 4275 2150 
L 3325 2150 
Q 3300 1350 3125 687 
Q 2950 25 2625 -625 
Q 2375 -450 2125 -325 
Q 2550 200 2725 900 
Q 2900 1600 2912 2525 
Q 2925 3450 2875 4825 
L 5775 4825 
Q 5750 4450 5750 4025 
Q 5750 3600 5775 3275 
L 3325 3275 
L 3325 2550 
z
M 2575 2875 
Q 2200 2900 1750 2900 
L 1750 2050 
Q 2150 2050 2650 2075 
L 2650 1600 
Q 2150 1625 1750 1625 
L 1750 575 
Q 2100 925 2325 1125 
Q 2425 875 2575 650 
Q 2375 525 2062 250 
Q 1750 -25 1350 -375 
Q 1200 -150 1025 50 
Q 1225 225 1275 450 
L 1275 1625 
Q 975 1625 600 1600 
L 600 2075 
Q 975 2050 1275 2050 
L 1275 2900 
Q 1150 2900 875 2875 
L 875 3325 
Q 1200 3300 1450 3300 
L 2175 3300 
Q 2375 3300 2575 3325 
L 2575 2875 
z
M 650 3075 
Q 475 3250 200 3400 
Q 575 3725 887 4275 
Q 1200 4825 1325 5300 
Q 1700 5125 1925 5050 
Q 1850 4975 1750 4800 
Q 1650 4625 1475 4375 
L 1775 4375 
Q 2100 4375 2675 4400 
L 2675 3950 
Q 2100 3975 1775 3975 
L 1250 3975 
Q 1125 3750 650 3075 
z
M 5300 3675 
L 5300 4425 
L 3325 4425 
L 3325 3675 
L 5300 3675 
z
M 5250 200 
L 5250 1050 
L 3925 1050 
L 3925 200 
L 5250 200 
z
" transform="scale(0.015625)"/>
      <path id="SimHei-9f7f" d="M 2000 4700 
Q 1975 4400 1975 3950 
L 1975 3150 
L 3175 3150 
L 3175 4425 
Q 3175 4850 3150 5150 
L 3675 5150 
Q 3650 4850 3650 4400 
L 4975 4400 
Q 5400 4400 5600 4425 
L 5600 3975 
Q 5325 4000 4975 4000 
L 3650 4000 
L 3650 3150 
Q 5475 3150 6100 3175 
L 6100 2750 
Q 5475 2775 3125 2775 
Q 800 2775 325 2750 
L 325 3175 
Q 800 3150 1500 3150 
L 1500 4050 
Q 1500 4400 1475 4700 
L 2000 4700 
z
M 1525 2325 
Q 1500 2075 1500 100 
L 4925 100 
Q 4925 2000 4900 2300 
L 5425 2300 
Q 5400 2050 5400 950 
Q 5400 -150 5425 -625 
L 4925 -625 
L 4925 -300 
L 1025 -300 
Q 1050 200 1050 1125 
Q 1050 2050 1025 2325 
L 1525 2325 
z
M 3650 2325 
Q 3500 2075 3325 1775 
L 4025 1275 
Q 4375 1025 4750 725 
Q 4500 475 4375 275 
Q 4025 625 3737 862 
Q 3450 1100 3125 1350 
Q 2950 1100 2737 850 
Q 2525 600 2100 200 
Q 1950 350 1675 525 
Q 2225 950 2600 1500 
Q 2975 2050 3100 2550 
Q 3375 2400 3650 2325 
z
" transform="scale(0.015625)"/>
     </defs>
     <use xlink:href="#SimHei-952f"/>
     <use xlink:href="#SimHei-9f7f" transform="translate(100 0)"/>
     <use xlink:href="#SimHei-5f62" transform="translate(200 0)"/>
    </g>
   </g>
  </g>
  <g id="axes_8">
   <g id="patch_15">
    <path d="M 151.398136 330.466875 
L 181.537336 330.466875 
L 181.537336 287.878875 
L 151.398136 287.878875 
z
" clip-path="url(#p838c83544e)" style="fill: #d8ecec; stroke: #000080; stroke-linejoin: miter"/>
   </g>
   <g id="patch_16">
    <path d="M 181.537336 330.466875 
L 198.572536 330.466875 
L 190.710136 320.638875 
L 198.572536 310.810875 
L 190.710136 300.982875 
L 198.572536 287.878875 
L 181.537336 287.878875 
z
" clip-path="url(#p838c83544e)" style="fill: #c8ffd2; stroke: #000080; stroke-linejoin: miter"/>
   </g>
   <g id="line2d_4">
    <path d="M 181.537336 330.466875 
L 181.537336 287.878875 
" clip-path="url(#p838c83544e)" style="fill: none; stroke-dasharray: 2.96,1.28; stroke-dashoffset: 0; stroke: #c95f35; stroke-width: 0.8"/>
   </g>
   <g id="text_15">
    <!-- 0 -->
    <g transform="translate(164.577936 312.363175) scale(0.08 -0.08)">
     <use xlink:href="#DejaVuSans-30"/>
    </g>
   </g>
   <g id="text_16">
    <!-- 1 -->
    <g transform="translate(186.854736 312.363175) scale(0.08 -0.08)">
     <use xlink:href="#DejaVuSans-31"/>
    </g>
   </g>
  </g>
 </g>
 <defs>
  <clipPath id="p42f902862b">
   <rect x="19.228416" y="19.246875" width="65.52" height="65.52"/>
  </clipPath>
  <clipPath id="p639b06283e">
   <rect x="143.535736" y="19.246875" width="65.52" height="65.52"/>
  </clipPath>
  <clipPath id="pb4dc7d753e">
   <rect x="19.228416" y="104.422875" width="65.52" height="65.52"/>
  </clipPath>
  <clipPath id="p2003c5e0f5">
   <rect x="143.535736" y="104.422875" width="65.52" height="65.52"/>
  </clipPath>
  <clipPath id="pa31e082212">
   <rect x="19.228416" y="189.598875" width="65.52" height="65.52"/>
  </clipPath>
  <clipPath id="pfb64075ee3">
   <rect x="143.535736" y="189.598875" width="65.52" height="65.52"/>
  </clipPath>
  <clipPath id="p91cb6df719">
   <rect x="19.228416" y="274.774875" width="65.52" height="65.52"/>
  </clipPath>
  <clipPath id="p838c83544e">
   <rect x="143.535736" y="274.774875" width="65.52" height="65.52"/>
  </clipPath>
 </defs>
</svg>
