<?xml version="1.0" encoding="utf-8" standalone="no"?>
<!DOCTYPE svg PUBLIC "-//W3C//DTD SVG 1.1//EN"
  "http://www.w3.org/Graphics/SVG/1.1/DTD/svg11.dtd">
<svg xmlns:xlink="http://www.w3.org/1999/xlink" width="425.861217pt" height="86.707125pt" viewBox="0 0 425.861217 86.707125" xmlns="http://www.w3.org/2000/svg" version="1.1">
 <metadata>
  <rdf:RDF xmlns:dc="http://purl.org/dc/elements/1.1/" xmlns:cc="http://creativecommons.org/ns#" xmlns:rdf="http://www.w3.org/1999/02/22-rdf-syntax-ns#">
   <cc:Work>
    <dc:type rdf:resource="http://purl.org/dc/dcmitype/StillImage"/>
    <dc:date>2026-05-20T15:14:39.683751</dc:date>
    <dc:format>image/svg+xml</dc:format>
    <dc:creator>
     <cc:Agent>
      <dc:title>Matplotlib v3.10.6, https://matplotlib.org/</dc:title>
     </cc:Agent>
    </dc:creator>
   </cc:Work>
  </rdf:RDF>
 </metadata>
 <defs>
  <style type="text/css">*{stroke-linejoin: round; stroke-linecap: butt}</style>
 </defs>
 <g id="figure_1">
  <g id="patch_1">
   <path d="M 0 86.707125 
L 425.861217 86.707125 
L 425.861217 0 
L 0 0 
z
" style="fill: #ffffff"/>
  </g>
  <g id="axes_1">
   <g id="patch_2">
    <path d="M 10.061217 83.827125 
L 99.826435 83.827125 
L 99.826435 14.463094 
L 10.061217 14.463094 
z
" style="fill: #ffffff"/>
   </g>
   <g id="patch_3">
    <path d="M 14.141455 79.746888 
L 95.746198 79.746888 
L 95.746198 18.543331 
L 59.024063 18.543331 
L 59.024063 51.185228 
L 14.141455 51.185228 
z
" clip-path="url(#pfa9f4e76c1)" style="fill: #eef5fb; stroke: #2f5c8a; stroke-width: 0.9; stroke-linejoin: miter"/>
   </g>
   <g id="matplotlib.axis_1"/>
   <g id="matplotlib.axis_2"/>
   <g id="text_1">
    <text style="font-weight: 700; font-size: 8px; font-family: 'Arial', 'Helvetica', 'DejaVu Sans', sans-serif; text-anchor: start" x="2.88" y="17.414782" transform="rotate(-0 2.88 17.414782)">a</text>
   </g>
   <g id="text_2">
    <text style="font-size: 7.8px; font-family: 'Arial', 'Helvetica', 'DejaVu Sans', sans-serif; text-anchor: middle" x="54.943826" y="8.463094" transform="rotate(-0 54.943826 8.463094)">Input</text>
   </g>
  </g>
  <g id="axes_2">
   <g id="patch_4">
    <path d="M 117.779478 83.827125 
L 207.544696 83.827125 
L 207.544696 14.463094 
L 117.779478 14.463094 
z
" style="fill: #ffffff"/>
   </g>
   <g id="patch_5">
    <path d="M 121.859715 79.746888 
L 203.464458 79.746888 
L 203.464458 18.543331 
L 166.742324 18.543331 
L 166.742324 51.185228 
L 121.859715 51.185228 
z
" clip-path="url(#p2ffe512b40)" style="fill: #eef5fb; stroke: #2f5c8a; stroke-width: 0.9; stroke-linejoin: miter"/>
   </g>
   <g id="matplotlib.axis_3"/>
   <g id="matplotlib.axis_4"/>
   <g id="line2d_1">
    <path d="M 166.742324 79.746888 
L 166.742324 51.185228 
" clip-path="url(#p2ffe512b40)" style="fill: none; stroke-dasharray: 3.7,1.6; stroke-dashoffset: 0; stroke: #c95f35"/>
   </g>
   <g id="text_3">
    <text style="font-weight: 700; font-size: 8px; font-family: 'Arial', 'Helvetica', 'DejaVu Sans', sans-serif; text-anchor: start" x="110.598261" y="17.414782" transform="rotate(-0 110.598261 17.414782)">b</text>
   </g>
   <g id="text_4">
    <text style="font-size: 7.8px; font-family: 'Arial', 'Helvetica', 'DejaVu Sans', sans-serif; text-anchor: middle" x="162.662087" y="8.463094" transform="rotate(-0 162.662087 8.463094)">Cut lines</text>
   </g>
  </g>
  <g id="axes_3">
   <g id="patch_6">
    <path d="M 225.497739 83.827125 
L 315.262957 83.827125 
L 315.262957 14.463094 
L 225.497739 14.463094 
z
" style="fill: #ffffff"/>
   </g>
   <g id="patch_7">
    <path d="M 229.577976 79.746888 
L 311.182719 79.746888 
L 311.182719 18.543331 
L 274.460585 18.543331 
L 274.460585 51.185228 
L 229.577976 51.185228 
z
" clip-path="url(#p5cbf8a3ad7)" style="fill: #eef5fb; stroke: #2f5c8a; stroke-width: 0.9; stroke-linejoin: miter"/>
   </g>
   <g id="patch_8">
    <path d="M 229.577976 79.746888 
L 274.460585 79.746888 
L 274.460585 51.185228 
L 229.577976 51.185228 
z
" clip-path="url(#p5cbf8a3ad7)" style="fill: #bfd8ee; stroke: #2f5c8a; stroke-width: 0.8; stroke-linejoin: miter"/>
   </g>
   <g id="patch_9">
    <path d="M 274.460585 79.746888 
L 311.182719 79.746888 
L 311.182719 18.543331 
L 274.460585 18.543331 
z
" clip-path="url(#p5cbf8a3ad7)" style="fill: #ddeccb; stroke: #2f5c8a; stroke-width: 0.8; stroke-linejoin: miter"/>
   </g>
   <g id="matplotlib.axis_5"/>
   <g id="matplotlib.axis_6"/>
   <g id="text_5">
    <text style="font-weight: 700; font-size: 8px; font-family: 'Arial', 'Helvetica', 'DejaVu Sans', sans-serif; text-anchor: start" x="218.316522" y="17.414782" transform="rotate(-0 218.316522 17.414782)">c</text>
   </g>
   <g id="text_6">
    <text style="font-size: 7.8px; font-family: 'Arial', 'Helvetica', 'DejaVu Sans', sans-serif; text-anchor: middle" x="270.380348" y="8.463094" transform="rotate(-0 270.380348 8.463094)">Convex cells</text>
   </g>
  </g>
  <g id="axes_4">
   <g id="patch_10">
    <path d="M 333.216 83.827125 
L 422.981217 83.827125 
L 422.981217 14.463094 
L 333.216 14.463094 
z
" style="fill: #ffffff"/>
   </g>
   <g id="patch_11">
    <path d="M 337.296237 79.746888 
L 418.90098 79.746888 
L 418.90098 18.543331 
L 382.178846 18.543331 
L 382.178846 51.185228 
L 337.296237 51.185228 
z
" clip-path="url(#p3e6e6a1bda)" style="fill: #eef5fb; stroke: #2f5c8a; stroke-width: 0.9; stroke-linejoin: miter"/>
   </g>
   <g id="matplotlib.axis_7"/>
   <g id="matplotlib.axis_8"/>
   <g id="text_7">
    <text style="font-weight: 700; font-size: 8px; font-family: 'Arial', 'Helvetica', 'DejaVu Sans', sans-serif; text-anchor: start" x="326.034783" y="17.414782" transform="rotate(-0 326.034783 17.414782)">d</text>
   </g>
   <g id="text_8">
    <text style="font-size: 7px; font-family: 'Arial', 'Helvetica', 'DejaVu Sans', sans-serif; text-anchor: middle" x="359.737542" y="67.275668" transform="rotate(-0 359.737542 67.275668)">code 0</text>
   </g>
   <g id="text_9">
    <text style="font-size: 7px; font-family: 'Arial', 'Helvetica', 'DejaVu Sans', sans-serif; text-anchor: middle" x="398.499794" y="44.834363" transform="rotate(-0 398.499794 44.834363)">code 1</text>
   </g>
   <g id="text_10">
    <text style="font-size: 7.8px; font-family: 'Arial', 'Helvetica', 'DejaVu Sans', sans-serif; text-anchor: middle" x="378.098609" y="8.463094" transform="rotate(-0 378.098609 8.463094)">Binary code</text>
   </g>
  </g>
 </g>
 <defs>
  <clipPath id="pfa9f4e76c1">
   <rect x="10.061217" y="14.463094" width="89.765217" height="69.364032"/>
  </clipPath>
  <clipPath id="p2ffe512b40">
   <rect x="117.779478" y="14.463094" width="89.765217" height="69.364032"/>
  </clipPath>
  <clipPath id="p5cbf8a3ad7">
   <rect x="225.497739" y="14.463094" width="89.765217" height="69.364032"/>
  </clipPath>
  <clipPath id="p3e6e6a1bda">
   <rect x="333.216" y="14.463094" width="89.765217" height="69.364032"/>
  </clipPath>
 </defs>
</svg>
